<svg width="452" height="288" viewBox="0 0 452 288" fill="none" xmlns="http://www.w3.org/2000/svg">
<path d="M440.35 287.587H11.2047C8.27522 287.583 5.46668 286.432 3.39523 284.385C1.32378 282.338 0.158584 279.563 0.155273 276.668V15.1738C0.157661 13.053 1.01126 11.0197 2.5288 9.52003C4.04635 8.02035 6.1039 7.17675 8.25007 7.1743H443.164C445.347 7.17675 447.441 8.03492 448.984 9.56053C450.528 11.0861 451.397 13.1546 451.399 15.3121V276.668C451.396 279.563 450.231 282.338 448.159 284.385C446.088 286.432 443.279 287.583 440.35 287.587Z" fill="#F2F2F2"/>
<path d="M426.474 273.801H26.5223C20.6594 273.801 15.8896 269.387 15.8896 263.962V36.2495C15.8896 32.226 19.4241 28.9525 23.7687 28.9525H429.097C433.514 28.9525 437.107 32.28 437.107 36.3697V263.962C437.107 269.387 432.337 273.801 426.474 273.801Z" fill="white"/>
<path d="M451.245 16.5345H0V10.9755C0.00424809 8.07098 1.1742 5.28676 3.25318 3.2336C5.33215 1.18044 8.15038 0.026029 11.0896 0.0236206H440.155C443.095 0.0260045 445.913 1.1804 447.992 3.23357C450.071 5.28673 451.241 8.07097 451.245 10.9755V16.5345Z" fill="#3F3D56"/>
<path d="M20.1536 11.1301C21.7378 11.1301 23.022 9.86099 23.022 8.2955C23.022 6.73001 21.7378 5.46094 20.1536 5.46094C18.5694 5.46094 17.2852 6.73001 17.2852 8.2955C17.2852 9.86099 18.5694 11.1301 20.1536 11.1301Z" fill="white"/>
<path d="M31.0418 11.1301C32.626 11.1301 33.9102 9.86099 33.9102 8.2955C33.9102 6.73001 32.626 5.46094 31.0418 5.46094C29.4576 5.46094 28.1733 6.73001 28.1733 8.2955C28.1733 9.86099 29.4576 11.1301 31.0418 11.1301Z" fill="white"/>
<path d="M41.9295 11.1301C43.5137 11.1301 44.7979 9.86099 44.7979 8.2955C44.7979 6.73001 43.5137 5.46094 41.9295 5.46094C40.3453 5.46094 39.061 6.73001 39.061 8.2955C39.061 9.86099 40.3453 11.1301 41.9295 11.1301Z" fill="white"/>
<path d="M217.01 78.742H138.788C137.622 78.742 136.504 78.2842 135.679 77.4693C134.854 76.6545 134.391 75.5493 134.391 74.3968C134.391 73.2444 134.854 72.1392 135.679 71.3244C136.504 70.5095 137.622 70.0517 138.788 70.0517H217.01C218.176 70.0517 219.295 70.5095 220.119 71.3244C220.944 72.1392 221.407 73.2444 221.407 74.3968C221.407 75.5493 220.944 76.6545 220.119 77.4693C219.295 78.2842 218.176 78.742 217.01 78.742Z" fill="#BDD7FF"/>
<path d="M314.209 78.742H235.987C234.821 78.742 233.702 78.2842 232.878 77.4693C232.053 76.6545 231.59 75.5493 231.59 74.3968C231.59 73.2444 232.053 72.1392 232.878 71.3244C233.702 70.5095 234.821 70.0517 235.987 70.0517H314.209C315.375 70.0517 316.493 70.5095 317.318 71.3244C318.143 72.1392 318.606 73.2444 318.606 74.3968C318.606 75.5493 318.143 76.6545 317.318 77.4693C316.493 78.2842 315.375 78.742 314.209 78.742Z" fill="#BDD7FF"/>
<path d="M314.209 95.2079H178.131C176.964 95.2079 175.846 94.7501 175.021 93.9352C174.197 93.1203 173.733 92.0151 173.733 90.8627C173.733 89.7103 174.197 88.6051 175.021 87.7902C175.846 86.9753 176.964 86.5175 178.131 86.5175H314.209C315.375 86.5175 316.493 86.9753 317.318 87.7902C318.143 88.6051 318.606 89.7103 318.606 90.8627C318.606 92.0151 318.143 93.1203 317.318 93.9352C316.493 94.7501 315.375 95.2079 314.209 95.2079Z" fill="#BDD7FF"/>
<path d="M217.01 62.0474H138.788C137.623 62.046 136.506 61.5876 135.682 60.7729C134.859 59.9581 134.396 58.8538 134.396 57.7023C134.396 56.5508 134.859 55.4464 135.682 54.6317C136.506 53.817 137.623 53.3585 138.788 53.3571H217.01C217.588 53.3564 218.16 53.4683 218.694 53.6863C219.229 53.9044 219.714 54.2243 220.123 54.6279C220.532 55.0314 220.856 55.5107 221.077 56.0382C221.299 56.5657 221.413 57.1312 221.413 57.7023C221.413 58.2733 221.299 58.8388 221.077 59.3663C220.856 59.8939 220.532 60.3731 220.123 60.7767C219.714 61.1802 219.229 61.5002 218.694 61.7182C218.16 61.9363 217.588 62.0481 217.01 62.0474Z" fill="#BDD7FF"/>
<path d="M260.055 62.2761H237.838C236.672 62.2761 235.553 61.8183 234.729 61.0035C233.904 60.1886 233.441 59.0834 233.441 57.931C233.441 56.7786 233.904 55.6734 234.729 54.8585C235.553 54.0436 236.672 53.5858 237.838 53.5858H260.055C261.221 53.5858 262.339 54.0436 263.164 54.8585C263.989 55.6734 264.452 56.7786 264.452 57.931C264.452 59.0834 263.989 60.1886 263.164 61.0035C262.339 61.8183 261.221 62.2761 260.055 62.2761Z" fill="#BDD7FF"/>
<path d="M161.005 95.2079H138.788C137.623 95.2064 136.506 94.748 135.682 93.9333C134.859 93.1186 134.396 92.0142 134.396 90.8627C134.396 89.7112 134.859 88.6068 135.682 87.7921C136.506 86.9774 137.623 86.519 138.788 86.5176H161.005C161.583 86.5168 162.155 86.6287 162.689 86.8468C163.224 87.0648 163.709 87.3848 164.118 87.7883C164.527 88.1919 164.851 88.6711 165.072 89.1986C165.294 89.7262 165.408 90.2916 165.408 90.8627C165.408 91.4338 165.294 91.9992 165.072 92.5268C164.851 93.0543 164.527 93.5335 164.118 93.9371C163.709 94.3406 163.224 94.6606 162.689 94.8786C162.155 95.0967 161.583 95.2086 161.005 95.2079Z" fill="#BDD7FF"/>
<path d="M217.01 232.93H138.788C137.622 232.93 136.504 232.473 135.679 231.658C134.854 230.843 134.391 229.738 134.391 228.585C134.391 227.433 134.854 226.328 135.679 225.513C136.504 224.698 137.622 224.24 138.788 224.24H217.01C217.588 224.24 218.159 224.352 218.693 224.571C219.226 224.789 219.711 225.109 220.119 225.513C220.528 225.916 220.852 226.395 221.072 226.922C221.293 227.449 221.407 228.015 221.407 228.585C221.407 229.156 221.293 229.721 221.072 230.248C220.852 230.775 220.528 231.254 220.119 231.658C219.711 232.061 219.226 232.381 218.693 232.6C218.159 232.818 217.588 232.93 217.01 232.93Z" fill="#BDD7FF"/>
<path d="M314.209 232.93H235.987C234.821 232.93 233.702 232.473 232.878 231.658C232.053 230.843 231.59 229.738 231.59 228.585C231.59 227.433 232.053 226.328 232.878 225.513C233.702 224.698 234.821 224.24 235.987 224.24H314.209C314.786 224.24 315.358 224.352 315.892 224.571C316.425 224.789 316.91 225.109 317.318 225.513C317.726 225.916 318.05 226.395 318.271 226.922C318.492 227.449 318.606 228.015 318.606 228.585C318.606 229.156 318.492 229.721 318.271 230.248C318.05 230.775 317.726 231.254 317.318 231.658C316.91 232.061 316.425 232.381 315.892 232.6C315.358 232.818 314.786 232.93 314.209 232.93Z" fill="#BDD7FF"/>
<path d="M314.209 249.396H178.131C176.964 249.396 175.846 248.938 175.021 248.123C174.197 247.309 173.733 246.203 173.733 245.051C173.733 243.899 174.197 242.793 175.021 241.978C175.846 241.164 176.964 240.706 178.131 240.706H314.209C314.787 240.705 315.359 240.817 315.893 241.035C316.427 241.253 316.913 241.573 317.322 241.977C317.73 242.38 318.055 242.859 318.276 243.387C318.497 243.914 318.611 244.48 318.611 245.051C318.611 245.622 318.497 246.187 318.276 246.715C318.055 247.243 317.73 247.722 317.322 248.125C316.913 248.529 316.427 248.849 315.893 249.067C315.359 249.285 314.787 249.397 314.209 249.396Z" fill="#BDD7FF"/>
<path d="M217.01 216.236H138.788C137.622 216.236 136.504 215.778 135.679 214.963C134.854 214.148 134.391 213.043 134.391 211.891C134.391 210.738 134.854 209.633 135.679 208.818C136.504 208.003 137.622 207.545 138.788 207.545H217.01C218.176 207.545 219.295 208.003 220.119 208.818C220.944 209.633 221.407 210.738 221.407 211.891C221.407 213.043 220.944 214.148 220.119 214.963C219.295 215.778 218.176 216.236 217.01 216.236Z" fill="#BDD7FF"/>
<path d="M260.055 216.464H237.838C236.672 216.464 235.553 216.007 234.729 215.192C233.904 214.377 233.441 213.272 233.441 212.119C233.441 210.967 233.904 209.862 234.729 209.047C235.553 208.232 236.672 207.774 237.838 207.774H260.055C261.221 207.774 262.339 208.232 263.164 209.047C263.989 209.862 264.452 210.967 264.452 212.119C264.452 213.272 263.989 214.377 263.164 215.192C262.339 216.007 261.221 216.464 260.055 216.464Z" fill="#BDD7FF"/>
<path d="M161.005 249.396H138.788C137.622 249.396 136.504 248.938 135.679 248.123C134.854 247.309 134.391 246.203 134.391 245.051C134.391 243.899 134.854 242.793 135.679 241.978C136.504 241.164 137.622 240.706 138.788 240.706H161.005C161.583 240.705 162.155 240.817 162.689 241.035C163.224 241.253 163.709 241.573 164.118 241.977C164.527 242.38 164.851 242.859 165.072 243.387C165.294 243.914 165.408 244.48 165.408 245.051C165.408 245.622 165.294 246.187 165.072 246.715C164.851 247.243 164.527 247.722 164.118 248.125C163.709 248.529 163.224 248.849 162.689 249.067C162.155 249.285 161.583 249.397 161.005 249.396Z" fill="#BDD7FF"/>
<line x1="154.538" y1="202.005" x2="154.538" y2="102" stroke="#3A5987" stroke-width="4"/>
<path d="M185.432 145.003L180.784 137.023H177.704V145.003H175.156V125.487H181.456C182.931 125.487 184.172 125.739 185.18 126.243C186.207 126.747 186.972 127.428 187.476 128.287C187.98 129.146 188.232 130.126 188.232 131.227C188.232 132.571 187.84 133.756 187.056 134.783C186.291 135.81 185.133 136.491 183.584 136.827L188.484 145.003H185.432ZM177.704 134.979H181.456C182.837 134.979 183.873 134.643 184.564 133.971C185.255 133.28 185.6 132.366 185.6 131.227C185.6 130.07 185.255 129.174 184.564 128.539C183.892 127.904 182.856 127.587 181.456 127.587H177.704V134.979ZM198.883 145.255C197.446 145.255 196.139 144.928 194.963 144.275C193.806 143.622 192.891 142.698 192.219 141.503C191.566 140.29 191.239 138.89 191.239 137.303C191.239 135.735 191.575 134.354 192.247 133.159C192.938 131.946 193.871 131.022 195.047 130.387C196.223 129.734 197.539 129.407 198.995 129.407C200.451 129.407 201.767 129.734 202.943 130.387C204.119 131.022 205.043 131.936 205.715 133.131C206.406 134.326 206.751 135.716 206.751 137.303C206.751 138.89 206.396 140.29 205.687 141.503C204.996 142.698 204.054 143.622 202.859 144.275C201.664 144.928 200.339 145.255 198.883 145.255ZM198.883 143.015C199.798 143.015 200.656 142.8 201.459 142.371C202.262 141.942 202.906 141.298 203.391 140.439C203.895 139.58 204.147 138.535 204.147 137.303C204.147 136.071 203.904 135.026 203.419 134.167C202.934 133.308 202.299 132.674 201.515 132.263C200.731 131.834 199.882 131.619 198.967 131.619C198.034 131.619 197.175 131.834 196.391 132.263C195.626 132.674 195.01 133.308 194.543 134.167C194.076 135.026 193.843 136.071 193.843 137.303C193.843 138.554 194.067 139.608 194.515 140.467C194.982 141.326 195.598 141.97 196.363 142.399C197.128 142.81 197.968 143.015 198.883 143.015ZM209.149 137.303C209.149 135.716 209.467 134.335 210.101 133.159C210.736 131.964 211.613 131.04 212.733 130.387C213.872 129.734 215.169 129.407 216.625 129.407C218.511 129.407 220.06 129.864 221.273 130.779C222.505 131.694 223.317 132.963 223.709 134.587H220.965C220.704 133.654 220.191 132.916 219.425 132.375C218.679 131.834 217.745 131.563 216.625 131.563C215.169 131.563 213.993 132.067 213.097 133.075C212.201 134.064 211.753 135.474 211.753 137.303C211.753 139.151 212.201 140.579 213.097 141.587C213.993 142.595 215.169 143.099 216.625 143.099C217.745 143.099 218.679 142.838 219.425 142.315C220.172 141.792 220.685 141.046 220.965 140.075H223.709C223.299 141.643 222.477 142.903 221.245 143.855C220.013 144.788 218.473 145.255 216.625 145.255C215.169 145.255 213.872 144.928 212.733 144.275C211.613 143.622 210.736 142.698 210.101 141.503C209.467 140.308 209.149 138.908 209.149 137.303ZM226.157 137.275C226.157 135.707 226.474 134.335 227.109 133.159C227.744 131.964 228.612 131.04 229.713 130.387C230.833 129.734 232.074 129.407 233.437 129.407C234.781 129.407 235.948 129.696 236.937 130.275C237.926 130.854 238.664 131.582 239.149 132.459V129.659H241.725V145.003H239.149V142.147C238.645 143.043 237.889 143.79 236.881 144.387C235.892 144.966 234.734 145.255 233.409 145.255C232.046 145.255 230.814 144.919 229.713 144.247C228.612 143.575 227.744 142.632 227.109 141.419C226.474 140.206 226.157 138.824 226.157 137.275ZM239.149 137.303C239.149 136.146 238.916 135.138 238.449 134.279C237.982 133.42 237.348 132.767 236.545 132.319C235.761 131.852 234.893 131.619 233.941 131.619C232.989 131.619 232.121 131.843 231.337 132.291C230.553 132.739 229.928 133.392 229.461 134.251C228.994 135.11 228.761 136.118 228.761 137.275C228.761 138.451 228.994 139.478 229.461 140.355C229.928 141.214 230.553 141.876 231.337 142.343C232.121 142.791 232.989 143.015 233.941 143.015C234.893 143.015 235.761 142.791 236.545 142.343C237.348 141.876 237.982 141.214 238.449 140.355C238.916 139.478 239.149 138.46 239.149 137.303ZM268.476 145.003L265.928 142.427C264.976 143.416 263.959 144.154 262.876 144.639C261.793 145.106 260.571 145.339 259.208 145.339C257.864 145.339 256.669 145.096 255.624 144.611C254.597 144.126 253.795 143.435 253.216 142.539C252.656 141.643 252.376 140.598 252.376 139.403C252.376 138.04 252.759 136.846 253.524 135.819C254.308 134.774 255.456 133.952 256.968 133.355C256.371 132.646 255.941 131.992 255.68 131.395C255.419 130.798 255.288 130.144 255.288 129.435C255.288 128.614 255.493 127.876 255.904 127.223C256.333 126.551 256.94 126.028 257.724 125.655C258.508 125.282 259.413 125.095 260.44 125.095C261.448 125.095 262.325 125.291 263.072 125.683C263.819 126.075 264.379 126.626 264.752 127.335C265.125 128.026 265.293 128.8 265.256 129.659H262.708C262.727 128.894 262.512 128.296 262.064 127.867C261.616 127.419 261.037 127.195 260.328 127.195C259.581 127.195 258.975 127.41 258.508 127.839C258.06 128.25 257.836 128.782 257.836 129.435C257.836 129.995 257.985 130.536 258.284 131.059C258.601 131.582 259.124 132.226 259.852 132.991L265.676 138.843L266.18 138.059L268.084 134.867H270.828L268.532 138.843C268.215 139.403 267.841 139.991 267.412 140.607L271.808 145.003H268.476ZM259.208 143.155C260.216 143.155 261.121 142.959 261.924 142.567C262.745 142.175 263.52 141.568 264.248 140.747L258.508 134.979C256.119 135.894 254.924 137.34 254.924 139.319C254.924 140.42 255.316 141.335 256.1 142.063C256.903 142.791 257.939 143.155 259.208 143.155ZM293.196 140.663H284.684L283.116 145.003H280.428L287.484 125.599H290.424L297.452 145.003H294.764L293.196 140.663ZM292.468 138.591L288.94 128.735L285.412 138.591H292.468ZM301.899 127.167C301.414 127.167 301.003 126.999 300.667 126.663C300.35 126.327 300.191 125.916 300.191 125.431C300.191 124.946 300.35 124.535 300.667 124.199C301.003 123.863 301.414 123.695 301.899 123.695C302.384 123.695 302.786 123.863 303.103 124.199C303.439 124.535 303.607 124.946 303.607 125.431C303.607 125.916 303.439 126.327 303.103 126.663C302.786 126.999 302.384 127.167 301.899 127.167ZM303.159 148.335C303.159 149.698 302.814 150.696 302.123 151.331C301.432 151.966 300.424 152.283 299.099 152.283H297.615V150.127H298.679C299.388 150.127 299.883 149.987 300.163 149.707C300.462 149.427 300.611 148.951 300.611 148.279V129.659H303.159V148.335ZM306.52 137.275C306.52 135.707 306.838 134.335 307.472 133.159C308.107 131.964 308.975 131.04 310.076 130.387C311.196 129.734 312.438 129.407 313.8 129.407C315.144 129.407 316.311 129.696 317.3 130.275C318.29 130.854 319.027 131.582 319.512 132.459V129.659H322.088V145.003H319.512V142.147C319.008 143.043 318.252 143.79 317.244 144.387C316.255 144.966 315.098 145.255 313.772 145.255C312.41 145.255 311.178 144.919 310.076 144.247C308.975 143.575 308.107 142.632 307.472 141.419C306.838 140.206 306.52 138.824 306.52 137.275ZM319.512 137.303C319.512 136.146 319.279 135.138 318.812 134.279C318.346 133.42 317.711 132.767 316.908 132.319C316.124 131.852 315.256 131.619 314.304 131.619C313.352 131.619 312.484 131.843 311.7 132.291C310.916 132.739 310.291 133.392 309.824 134.251C309.358 135.11 309.124 136.118 309.124 137.275C309.124 138.451 309.358 139.478 309.824 140.355C310.291 141.214 310.916 141.876 311.7 142.343C312.484 142.791 313.352 143.015 314.304 143.015C315.256 143.015 316.124 142.791 316.908 142.343C317.711 141.876 318.346 141.214 318.812 140.355C319.279 139.478 319.512 138.46 319.512 137.303ZM333.87 129.379C335.737 129.379 337.249 129.948 338.406 131.087C339.564 132.207 340.142 133.831 340.142 135.959V145.003H337.622V136.323C337.622 134.792 337.24 133.626 336.474 132.823C335.709 132.002 334.664 131.591 333.338 131.591C331.994 131.591 330.921 132.011 330.118 132.851C329.334 133.691 328.942 134.914 328.942 136.519V145.003H326.394V129.659H328.942V131.843C329.446 131.059 330.128 130.452 330.986 130.023C331.864 129.594 332.825 129.379 333.87 129.379ZM343.352 137.275C343.352 135.707 343.67 134.335 344.304 133.159C344.939 131.964 345.807 131.04 346.908 130.387C348.028 129.734 349.27 129.407 350.632 129.407C351.976 129.407 353.143 129.696 354.132 130.275C355.122 130.854 355.859 131.582 356.344 132.459V129.659H358.92V145.003H356.344V142.147C355.84 143.043 355.084 143.79 354.076 144.387C353.087 144.966 351.93 145.255 350.604 145.255C349.242 145.255 348.01 144.919 346.908 144.247C345.807 143.575 344.939 142.632 344.304 141.419C343.67 140.206 343.352 138.824 343.352 137.275ZM356.344 137.303C356.344 136.146 356.111 135.138 355.644 134.279C355.178 133.42 354.543 132.767 353.74 132.319C352.956 131.852 352.088 131.619 351.136 131.619C350.184 131.619 349.316 131.843 348.532 132.291C347.748 132.739 347.123 133.392 346.656 134.251C346.19 135.11 345.956 136.118 345.956 137.275C345.956 138.451 346.19 139.478 346.656 140.355C347.123 141.214 347.748 141.876 348.532 142.343C349.316 142.791 350.184 143.015 351.136 143.015C352.088 143.015 352.956 142.791 353.74 142.343C354.543 141.876 355.178 141.214 355.644 140.355C356.111 139.478 356.344 138.46 356.344 137.303ZM371.794 145.003L365.774 138.227V145.003H363.226V124.283H365.774V136.463L371.682 129.659H375.238L368.014 137.303L375.266 145.003H371.794ZM391.244 129.659V145.003H388.696V142.735C388.211 143.519 387.53 144.135 386.652 144.583C385.794 145.012 384.842 145.227 383.796 145.227C382.602 145.227 381.528 144.984 380.576 144.499C379.624 143.995 378.868 143.248 378.308 142.259C377.767 141.27 377.496 140.066 377.496 138.647V129.659H380.016V138.311C380.016 139.823 380.399 140.99 381.164 141.811C381.93 142.614 382.975 143.015 384.3 143.015C385.663 143.015 386.736 142.595 387.52 141.755C388.304 140.915 388.696 139.692 388.696 138.087V129.659H391.244Z" fill="#3A5987"/>
<path d="M105.792 158.003L104.336 156.531C103.792 157.096 103.211 157.518 102.592 157.795C101.973 158.062 101.275 158.195 100.496 158.195C99.728 158.195 99.0453 158.056 98.448 157.779C97.8613 157.502 97.4027 157.107 97.072 156.595C96.752 156.083 96.592 155.486 96.592 154.803C96.592 154.024 96.8107 153.342 97.248 152.755C97.696 152.158 98.352 151.688 99.216 151.347C98.8747 150.942 98.6293 150.568 98.48 150.227C98.3307 149.886 98.256 149.512 98.256 149.107C98.256 148.638 98.3733 148.216 98.608 147.843C98.8533 147.459 99.2 147.16 99.648 146.947C100.096 146.734 100.613 146.627 101.2 146.627C101.776 146.627 102.277 146.739 102.704 146.963C103.131 147.187 103.451 147.502 103.664 147.907C103.877 148.302 103.973 148.744 103.952 149.235H102.496C102.507 148.798 102.384 148.456 102.128 148.211C101.872 147.955 101.541 147.827 101.136 147.827C100.709 147.827 100.363 147.95 100.096 148.195C99.84 148.43 99.712 148.734 99.712 149.107C99.712 149.427 99.7973 149.736 99.968 150.035C100.149 150.334 100.448 150.702 100.864 151.139L104.192 154.483L104.48 154.035L105.568 152.211H107.136L105.824 154.483C105.643 154.803 105.429 155.139 105.184 155.491L107.696 158.003H105.792ZM100.496 156.947C101.072 156.947 101.589 156.835 102.048 156.611C102.517 156.387 102.96 156.04 103.376 155.571L100.096 152.275C98.7307 152.798 98.048 153.624 98.048 154.755C98.048 155.384 98.272 155.907 98.72 156.323C99.1787 156.739 99.7707 156.947 100.496 156.947Z" fill="#8F1F1F"/>
<circle cx="101.5" cy="152.503" r="9.5" stroke="#8F1F1F" stroke-width="2"/>
<path d="M61.5 128.853V125.003H78.37C83.1767 125.003 86.8867 126.053 89.5 128.153C92.1133 130.253 93.42 133.38 93.42 137.533C93.42 140.286 92.44 143.156 90.48 146.143C88.5667 149.083 86.6767 151.09 84.81 152.163L95.87 170.153H100.84V174.003H93.14L80.68 153.913H70.53V170.153H75.64V174.003H61.5V170.153H65.77V128.853H61.5ZM78.02 128.853H70.53V150.063H82.08C86.4667 146.05 88.66 142.013 88.66 137.953C88.66 134.966 87.75 132.703 85.93 131.163C84.11 129.623 81.4733 128.853 78.02 128.853ZM135.705 174.003V170.153H139.975L136.755 161.053H115.195L112.045 170.153H117.085V174.003H102.945V170.153H107.565L123.875 125.003H128.145L145.015 170.153H149.845V174.003H135.705ZM125.765 130.323L116.385 157.553H135.495L125.765 130.323Z" fill="#8F1F1F"/>
<path d="M176.146 177.245C175.853 177.245 175.611 177.157 175.42 176.981C175.229 176.805 175.134 176.57 175.134 176.277L175.112 164.309C175.112 163.297 175.017 162.512 174.826 161.955C175.134 161.691 175.479 161.559 175.86 161.559C176.168 161.559 176.417 161.647 176.608 161.823C176.799 161.984 176.894 162.219 176.894 162.527V174.495C176.894 175.566 176.989 176.35 177.18 176.849C176.872 177.113 176.527 177.245 176.146 177.245ZM192.744 161.471C194.9 161.471 196.491 161.838 197.518 162.571C198.544 163.29 199.058 164.419 199.058 165.959C199.058 169.274 196.814 170.931 192.326 170.931H191.71V174.561C191.71 174.913 191.732 175.316 191.776 175.771C191.82 176.226 191.893 176.585 191.996 176.849C191.893 176.952 191.754 177.04 191.578 177.113C191.402 177.201 191.204 177.245 190.984 177.245C190.676 177.245 190.426 177.157 190.236 176.981C190.045 176.805 189.942 176.57 189.928 176.277V164.309C189.928 163.957 189.906 163.554 189.862 163.099C189.818 162.63 189.744 162.248 189.642 161.955C190.258 161.632 191.292 161.471 192.744 161.471ZM192.37 170.139C194.012 170.139 195.215 169.802 195.978 169.127C196.74 168.452 197.122 167.433 197.122 166.069C197.122 164.793 196.77 163.847 196.066 163.231C195.362 162.6 194.232 162.285 192.678 162.285C192.164 162.285 191.842 162.3 191.71 162.329V170.139H192.37ZM226.411 175.947C228.127 175.932 230.041 175.734 232.153 175.353C232.256 175.412 232.337 175.529 232.395 175.705C232.469 175.881 232.505 176.064 232.505 176.255C232.505 176.475 232.469 176.658 232.395 176.805C232.322 176.937 232.212 177.003 232.065 177.003H225.663C225.355 177.003 225.106 176.915 224.915 176.739C224.739 176.563 224.651 176.321 224.651 176.013L224.629 164.309C224.629 163.297 224.534 162.512 224.343 161.955C224.651 161.691 224.996 161.559 225.377 161.559C225.685 161.559 225.927 161.647 226.103 161.823C226.294 161.984 226.389 162.219 226.389 162.527L226.411 175.947ZM254.185 175.793C254.347 176.277 254.523 176.622 254.713 176.827C254.464 177.106 254.119 177.245 253.679 177.245C253.401 177.245 253.159 177.179 252.953 177.047C252.748 176.93 252.616 176.754 252.557 176.519L251.215 172.163H245.451L244.351 175.837C244.263 176.16 244.219 176.402 244.219 176.563C244.219 176.798 244.263 176.966 244.351 177.069C244.043 177.186 243.721 177.245 243.383 177.245C242.709 177.245 242.371 176.974 242.371 176.431C242.371 176.24 242.445 175.91 242.591 175.441L247.255 161.757C247.739 161.566 248.223 161.471 248.707 161.471C249.279 161.471 249.631 161.691 249.763 162.131L254.185 175.793ZM250.907 171.107L248.311 162.659L245.781 171.107H250.907ZM282.429 161.515C283.133 161.515 283.478 161.779 283.463 162.307C283.463 162.439 283.434 162.622 283.375 162.857C283.316 163.092 283.28 163.246 283.265 163.319L279.437 176.959C279.041 177.15 278.638 177.245 278.227 177.245C277.934 177.245 277.692 177.194 277.501 177.091C277.31 177.003 277.186 176.864 277.127 176.673L273.959 165.475L270.659 176.959C270.263 177.15 269.874 177.245 269.493 177.245C268.804 177.245 268.415 177.054 268.327 176.673L264.675 162.901C264.572 162.534 264.396 162.197 264.147 161.889C264.426 161.61 264.785 161.471 265.225 161.471C265.533 161.471 265.782 161.53 265.973 161.647C266.178 161.764 266.31 161.94 266.369 162.175L269.713 175.727L272.925 164.397C272.969 164.221 272.991 164.06 272.991 163.913C272.991 163.693 272.947 163.495 272.859 163.319C273.035 163.231 273.24 163.165 273.475 163.121C273.71 163.062 273.915 163.033 274.091 163.033C274.311 163.033 274.494 163.07 274.641 163.143C274.802 163.202 274.912 163.297 274.971 163.429L278.469 175.705L281.505 162.901C281.52 162.828 281.542 162.718 281.571 162.571C281.615 162.424 281.637 162.3 281.637 162.197C281.637 161.977 281.593 161.801 281.505 161.669C281.813 161.566 282.121 161.515 282.429 161.515ZM316.389 161.757C316.491 161.757 316.572 161.808 316.631 161.911C316.689 161.999 316.719 162.116 316.719 162.263C316.719 162.468 316.667 162.681 316.565 162.901C316.477 163.121 316.359 163.26 316.213 163.319C314.115 162.952 312.135 162.762 310.273 162.747V168.555H315.663C315.707 168.731 315.729 168.907 315.729 169.083C315.729 169.288 315.707 169.472 315.663 169.633H310.295V174.495C310.295 175.566 310.39 176.35 310.581 176.849C310.273 177.113 309.928 177.245 309.547 177.245C309.253 177.245 309.011 177.157 308.821 176.981C308.63 176.805 308.535 176.57 308.535 176.277L308.513 164.485C308.513 163.532 308.417 162.776 308.227 162.219C308.432 162.043 308.637 161.926 308.843 161.867C309.063 161.794 309.363 161.757 309.745 161.757H316.389ZM329.733 177.245C329.44 177.245 329.198 177.157 329.007 176.981C328.817 176.805 328.721 176.57 328.721 176.277L328.699 164.309C328.699 163.297 328.604 162.512 328.413 161.955C328.721 161.691 329.066 161.559 329.447 161.559C329.755 161.559 330.005 161.647 330.195 161.823C330.386 161.984 330.481 162.219 330.481 162.527V174.495C330.481 175.566 330.577 176.35 330.767 176.849C330.459 177.113 330.115 177.245 329.733 177.245ZM354.119 175.551C354.207 175.727 354.251 175.918 354.251 176.123C354.251 176.475 354.104 176.754 353.811 176.959C353.518 177.15 353.224 177.245 352.931 177.245C352.388 177.245 351.956 177.076 351.633 176.739C351.325 176.387 351.017 175.83 350.709 175.067L349.697 172.471C349.492 171.972 349.301 171.584 349.125 171.305C348.964 171.026 348.707 170.792 348.355 170.601C348.003 170.396 347.526 170.293 346.925 170.293L345.297 170.271V174.561C345.297 174.913 345.319 175.316 345.363 175.771C345.407 176.226 345.48 176.585 345.583 176.849C345.48 176.952 345.341 177.04 345.165 177.113C344.989 177.201 344.791 177.245 344.571 177.245C344.263 177.245 344.014 177.157 343.823 176.981C343.632 176.805 343.53 176.57 343.515 176.277V164.309C343.515 163.957 343.493 163.554 343.449 163.099C343.405 162.63 343.332 162.248 343.229 161.955C343.845 161.632 344.923 161.471 346.463 161.471C348.56 161.471 350.108 161.801 351.105 162.461C352.102 163.106 352.601 164.162 352.601 165.629C352.601 166.685 352.293 167.58 351.677 168.313C351.076 169.046 350.262 169.545 349.235 169.809C349.748 169.956 350.159 170.22 350.467 170.601C350.79 170.968 351.083 171.444 351.347 172.031L352.447 174.627C352.623 175.052 352.792 175.36 352.953 175.551C353.114 175.727 353.29 175.822 353.481 175.837C353.745 175.837 353.958 175.742 354.119 175.551ZM347.013 169.501C348.084 169.472 348.956 169.12 349.631 168.445C350.32 167.77 350.665 166.883 350.665 165.783C350.665 164.58 350.335 163.693 349.675 163.121C349.03 162.549 347.988 162.263 346.551 162.263C345.979 162.263 345.561 162.285 345.297 162.329V169.479L347.013 169.501ZM379.983 174.495C379.983 175.551 380.071 176.336 380.247 176.849C379.939 177.113 379.594 177.245 379.213 177.245C378.934 177.245 378.707 177.157 378.531 176.981C378.355 176.805 378.267 176.57 378.267 176.277L378.223 163.891L373.405 174.605C373.053 174.737 372.73 174.803 372.437 174.803C372.173 174.803 371.938 174.752 371.733 174.649C370.076 171.51 368.345 167.946 366.541 163.957L366.563 174.495C366.563 175.595 366.658 176.424 366.849 176.981C366.644 177.157 366.402 177.245 366.123 177.245C365.698 177.245 365.485 176.974 365.485 176.431L365.463 164.265C365.463 163.224 365.419 162.41 365.331 161.823C365.507 161.647 365.896 161.559 366.497 161.559C366.893 161.559 367.201 161.676 367.421 161.911L369.247 165.761L372.789 173.109C373.082 172.464 374.102 170.154 375.847 166.179C376.287 165.138 376.668 164.25 376.991 163.517C377.314 162.784 377.578 162.19 377.783 161.735C378.091 161.618 378.45 161.559 378.861 161.559C379.14 161.559 379.382 161.61 379.587 161.713C379.807 161.816 379.924 161.94 379.939 162.087L379.983 174.495Z" fill="#3A5987"/>
</svg>
