<svg width="508" height="325" viewBox="0 0 508 325" fill="none" xmlns="http://www.w3.org/2000/svg">
<path d="M76.4811 88.7489C77.3284 79.625 79.6688 70.7021 83.4087 62.3366C84.451 60.0085 85.5982 57.7317 86.8504 55.5062C86.9132 55.3898 86.9283 55.2536 86.8925 55.1262C86.8568 54.9989 86.773 54.8905 86.6588 54.8237C86.5446 54.757 86.409 54.7372 86.2805 54.7686C86.152 54.7999 86.0407 54.8799 85.9701 54.9917C81.4164 63.0977 78.2263 71.8968 76.5272 81.0373C76.0546 83.5898 75.6994 86.1604 75.4616 88.7489C75.4011 89.4018 76.421 89.3977 76.4811 88.7489V88.7489Z" fill="#E6E6E6"/>
<path d="M89.3193 57.1409C92.8853 57.1409 95.7762 54.2506 95.7762 50.6852C95.7762 47.1198 92.8853 44.2295 89.3193 44.2295C85.7532 44.2295 82.8623 47.1198 82.8623 50.6852C82.8623 54.2506 85.7532 57.1409 89.3193 57.1409Z" fill="#E6E6E6"/>
<path d="M77.1416 88.9204C77.6913 83.0012 79.2096 77.2126 81.6358 71.7854C82.312 70.2751 83.0563 68.7981 83.8686 67.3543C83.9093 67.2788 83.9192 67.1904 83.896 67.1078C83.8728 67.0252 83.8184 66.9548 83.7444 66.9115C83.6703 66.8682 83.5823 66.8554 83.4989 66.8757C83.4155 66.8961 83.3433 66.948 83.2975 67.0205C80.3434 72.2792 78.2738 77.9876 77.1715 83.9175C76.8649 85.5734 76.6345 87.241 76.4802 88.9204C76.441 89.3439 77.1026 89.3413 77.1416 88.9204V88.9204Z" fill="#E6E6E6"/>
<path d="M85.4702 68.4148C87.7837 68.4148 89.6591 66.5397 89.6591 64.2267C89.6591 61.9136 87.7837 60.0385 85.4702 60.0385C83.1567 60.0385 81.2812 61.9136 81.2812 64.2267C81.2812 66.5397 83.1567 68.4148 85.4702 68.4148Z" fill="#E6E6E6"/>
<path d="M76.3067 88.525C73.0988 83.5198 70.7349 78.0219 69.3092 72.2507C68.9133 70.6441 68.5915 69.0218 68.3438 67.3838C68.3295 67.2992 68.2828 67.2235 68.2137 67.1726C68.1446 67.1218 68.0585 67.0997 67.9734 67.1111C67.8884 67.1225 67.8111 67.1665 67.7579 67.2338C67.7047 67.3011 67.6797 67.3865 67.6882 67.4718C68.5939 73.4348 70.4738 79.2085 73.2526 84.5619C74.0295 86.0561 74.8737 87.5127 75.7852 88.9317C76.0148 89.2898 76.5349 88.8808 76.3067 88.525Z" fill="#E6E6E6"/>
<path d="M67.6831 68.1208C69.9966 68.1208 71.872 66.2457 71.872 63.9327C71.872 61.6196 69.9966 59.7445 67.6831 59.7445C65.3696 59.7445 63.4941 61.6196 63.4941 63.9327C63.4941 66.2457 65.3696 68.1208 67.6831 68.1208Z" fill="#E6E6E6"/>
<path d="M63.4473 92.2305V84.0017C63.4482 83.1836 63.7737 82.3993 64.3523 81.8208C64.9309 81.2423 65.7154 80.9169 66.5336 80.916H85.7377C86.556 80.9169 87.3405 81.2423 87.9191 81.8208C88.4977 82.3993 88.8232 83.1836 88.8241 84.0017V92.2305C88.8232 93.0486 88.4977 93.8329 87.9191 94.4114C87.3405 94.9899 86.556 95.3153 85.7377 95.3163H66.5336C65.7154 95.3153 64.9309 94.9899 64.3523 94.4114C63.7737 93.8329 63.4482 93.0486 63.4473 92.2305Z" fill="#F2F2F2"/>
<path d="M85.052 39.7722H76.8217C76.0034 39.7713 75.219 39.4459 74.6404 38.8674C74.0618 38.2889 73.7363 37.5046 73.7354 36.6865V3.08578C73.7363 2.26766 74.0618 1.48332 74.6404 0.904821C75.219 0.326325 76.0034 0.000922002 76.8217 0H85.052C85.8703 0.000922002 86.6548 0.326325 87.2334 0.904821C87.812 1.48332 88.1375 2.26766 88.1384 3.08578V36.6865C88.1375 37.5046 87.812 38.2889 87.2334 38.8674C86.6548 39.4459 85.8703 39.7713 85.052 39.7722Z" fill="#F2F2F2"/>
<path d="M87.7953 6.51442H74.0781V9.25733H87.7953V6.51442Z" fill="#CCCCCC"/>
<path d="M87.7953 27.772H74.0781V30.5149H87.7953V27.772Z" fill="#CCCCCC"/>
<path d="M105.627 39.7722H97.3969C96.5786 39.7713 95.7942 39.4459 95.2156 38.8674C94.6369 38.2889 94.3115 37.5046 94.3105 36.6865V3.08578C94.3115 2.26766 94.6369 1.48332 95.2156 0.904821C95.7942 0.326325 96.5786 0.000922002 97.3969 0H105.627C106.446 0.000922002 107.23 0.326325 107.809 0.904821C108.387 1.48332 108.713 2.26766 108.714 3.08578V36.6865C108.713 37.5046 108.387 38.2889 107.809 38.8674C107.23 39.4459 106.446 39.7713 105.627 39.7722V39.7722Z" fill="#F2F2F2"/>
<path d="M108.371 6.51442H94.6533V9.25733H108.371V6.51442Z" fill="#CCCCCC"/>
<path d="M108.371 27.772H94.6533V30.5149H108.371V27.772Z" fill="#CCCCCC"/>
<path d="M126.203 39.7722H117.973C117.155 39.7713 116.37 39.4459 115.792 38.8674C115.213 38.2889 114.888 37.5046 114.887 36.6865V3.08578C114.888 2.26766 115.213 1.48332 115.792 0.904821C116.37 0.326325 117.155 0.000922002 117.973 0H126.203C127.022 0.000922002 127.806 0.326325 128.385 0.904821C128.963 1.48332 129.289 2.26766 129.29 3.08578V36.6865C129.289 37.5046 128.963 38.2889 128.385 38.8674C127.806 39.4459 127.022 39.7713 126.203 39.7722V39.7722Z" fill="#F2F2F2"/>
<path d="M128.947 6.51442H115.229V9.25733H128.947V6.51442Z" fill="#CCCCCC"/>
<path d="M128.947 27.772H115.229V30.5149H128.947V27.772Z" fill="#CCCCCC"/>
<path d="M137.177 95.3163H128.947C128.128 95.3153 127.344 94.9899 126.765 94.4114C126.187 93.8329 125.861 93.0486 125.86 92.2305V58.6298C125.861 57.8117 126.187 57.0273 126.765 56.4488C127.344 55.8703 128.128 55.5449 128.947 55.544H137.177C137.995 55.5449 138.78 55.8703 139.358 56.4488C139.937 57.0273 140.263 57.8117 140.263 58.6298V92.2305C140.263 93.0486 139.937 93.8329 139.358 94.4114C138.78 94.9899 137.995 95.3153 137.177 95.3163Z" fill="#F2F2F2"/>
<path d="M139.92 62.0584H126.203V64.8013H139.92V62.0584Z" fill="#CCCCCC"/>
<path d="M139.92 83.316H126.203V86.0589H139.92V83.316Z" fill="#CCCCCC"/>
<path d="M157.752 95.3163H149.522C148.704 95.3153 147.919 94.9899 147.341 94.4114C146.762 93.8329 146.436 93.0486 146.436 92.2305V58.6298C146.436 57.8117 146.762 57.0273 147.341 56.4488C147.919 55.8703 148.704 55.5449 149.522 55.544H157.752C158.571 55.5449 159.355 55.8703 159.934 56.4488C160.512 57.0273 160.838 57.8117 160.839 58.6298V92.2305C160.838 93.0486 160.512 93.8329 159.934 94.4114C159.355 94.9899 158.571 95.3153 157.752 95.3163Z" fill="#F2F2F2"/>
<path d="M160.497 62.0584H146.779V64.8013H160.497V62.0584Z" fill="#CCCCCC"/>
<path d="M160.497 83.316H146.779V86.0589H160.497V83.316Z" fill="#CCCCCC"/>
<path d="M178.328 95.3163H170.098C169.28 95.3153 168.495 94.9899 167.917 94.4114C167.338 93.8329 167.013 93.0486 167.012 92.2305V58.6298C167.013 57.8117 167.338 57.0273 167.917 56.4488C168.495 55.8703 169.28 55.5449 170.098 55.544H178.328C179.147 55.5449 179.931 55.8703 180.51 56.4488C181.088 57.0273 181.414 57.8117 181.415 58.6298V92.2305C181.414 93.0486 181.088 93.8329 180.51 94.4114C179.931 94.9899 179.147 95.3153 178.328 95.3163Z" fill="#F2F2F2"/>
<path d="M181.072 62.0584H167.354V64.8013H181.072V62.0584Z" fill="#CCCCCC"/>
<path d="M181.072 83.316H167.354V86.0589H181.072V83.316Z" fill="#CCCCCC"/>
<path d="M82.9944 150.86H74.7641C73.9458 150.859 73.1613 150.534 72.5827 149.955C72.0041 149.377 71.6787 148.593 71.6777 147.774V114.174C71.6787 113.356 72.0041 112.571 72.5827 111.993C73.1613 111.414 73.9458 111.089 74.7641 111.088H82.9944C83.8127 111.089 84.5972 111.414 85.1758 111.993C85.7544 112.571 86.0799 113.356 86.0808 114.174V147.774C86.0799 148.593 85.7544 149.377 85.1758 149.955C84.5972 150.534 83.8127 150.859 82.9944 150.86V150.86Z" fill="#F2F2F2"/>
<path d="M85.7377 117.602H72.0205V120.345H85.7377V117.602Z" fill="#CCCCCC"/>
<path d="M85.7377 138.86H72.0205V141.603H85.7377V138.86Z" fill="#CCCCCC"/>
<path d="M103.57 150.86H95.3393C94.521 150.859 93.7365 150.534 93.1579 149.955C92.5793 149.377 92.2539 148.593 92.2529 147.774V114.174C92.2539 113.356 92.5793 112.571 93.1579 111.993C93.7365 111.414 94.521 111.089 95.3393 111.088H103.57C104.388 111.089 105.172 111.414 105.751 111.993C106.33 112.571 106.655 113.356 106.656 114.174V147.774C106.655 148.593 106.33 149.377 105.751 149.955C105.172 150.534 104.388 150.859 103.57 150.86V150.86Z" fill="#F2F2F2"/>
<path d="M106.313 117.602H92.5957V120.345H106.313V117.602Z" fill="#CCCCCC"/>
<path d="M106.313 138.86H92.5957V141.603H106.313V138.86Z" fill="#CCCCCC"/>
<path d="M124.146 150.86H115.915C115.097 150.859 114.313 150.534 113.734 149.955C113.156 149.377 112.83 148.593 112.829 147.774V114.174C112.83 113.356 113.156 112.571 113.734 111.993C114.313 111.414 115.097 111.089 115.915 111.088H124.146C124.964 111.089 125.749 111.414 126.327 111.993C126.906 112.571 127.231 113.356 127.232 114.174V147.774C127.231 148.593 126.906 149.377 126.327 149.955C125.749 150.534 124.964 150.859 124.146 150.86V150.86Z" fill="#F2F2F2"/>
<path d="M126.889 117.602H113.172V120.345H126.889V117.602Z" fill="#CCCCCC"/>
<path d="M126.889 138.86H113.172V141.603H126.889V138.86Z" fill="#CCCCCC"/>
<path d="M146.78 39.7722H138.549C137.731 39.7713 136.947 39.4459 136.368 38.8674C135.789 38.2889 135.464 37.5046 135.463 36.6865V3.08578C135.464 2.26766 135.789 1.48332 136.368 0.904821C136.947 0.326325 137.731 0.000922002 138.549 0H146.78C147.598 0.000922002 148.382 0.326325 148.961 0.904821C149.54 1.48332 149.865 2.26766 149.866 3.08578V36.6865C149.865 37.5046 149.54 38.2889 148.961 38.8674C148.382 39.4459 147.598 39.7713 146.78 39.7722Z" fill="#F2F2F2"/>
<path d="M149.523 6.51442H135.806V9.25733H149.523V6.51442Z" fill="#CCCCCC"/>
<path d="M149.523 27.772H135.806V30.5149H149.523V27.772Z" fill="#CCCCCC"/>
<path d="M167.355 39.7722H159.124C158.306 39.7713 157.522 39.4459 156.943 38.8674C156.364 38.2889 156.039 37.5046 156.038 36.6865V3.08578C156.039 2.26766 156.364 1.48332 156.943 0.904821C157.522 0.326325 158.306 0.000922002 159.124 0H167.355C168.173 0.000922002 168.958 0.326325 169.536 0.904821C170.115 1.48332 170.44 2.26766 170.441 3.08578V36.6865C170.44 37.5046 170.115 38.2889 169.536 38.8674C168.958 39.4459 168.173 39.7713 167.355 39.7722V39.7722Z" fill="#F2F2F2"/>
<path d="M170.098 6.51442H156.381V9.25733H170.098V6.51442Z" fill="#CCCCCC"/>
<path d="M170.098 27.772H156.381V30.5149H170.098V27.772Z" fill="#CCCCCC"/>
<path d="M187.931 39.7722H179.701C178.882 39.7713 178.098 39.4459 177.519 38.8674C176.941 38.2889 176.615 37.5046 176.614 36.6865V3.08578C176.615 2.26766 176.941 1.48332 177.519 0.904821C178.098 0.326325 178.882 0.000922002 179.701 0H187.931C188.749 0.000922002 189.534 0.326325 190.112 0.904821C190.691 1.48332 191.016 2.26766 191.017 3.08578V36.6865C191.016 37.5046 190.691 38.2889 190.112 38.8674C189.534 39.4459 188.749 39.7713 187.931 39.7722Z" fill="#F2F2F2"/>
<path d="M190.674 6.51442H176.957V9.25733H190.674V6.51442Z" fill="#CCCCCC"/>
<path d="M190.674 27.772H176.957V30.5149H190.674V27.772Z" fill="#CCCCCC"/>
<path d="M208.506 39.7722H200.276C199.458 39.7713 198.673 39.4459 198.094 38.8674C197.516 38.2889 197.19 37.5046 197.189 36.6865V3.08578C197.19 2.26766 197.516 1.48332 198.094 0.904821C198.673 0.326325 199.458 0.000922002 200.276 0H208.506C209.324 0.000922002 210.109 0.326325 210.688 0.904821C211.266 1.48332 211.592 2.26766 211.593 3.08578V36.6865C211.592 37.5046 211.266 38.2889 210.688 38.8674C210.109 39.4459 209.324 39.7713 208.506 39.7722Z" fill="#F2F2F2"/>
<path d="M211.249 6.51442H197.532V9.25733H211.249V6.51442Z" fill="#CCCCCC"/>
<path d="M211.249 27.772H197.532V30.5149H211.249V27.772Z" fill="#CCCCCC"/>
<path d="M239.329 40.8009H43.8587C43.6768 40.8009 43.5024 40.7286 43.3737 40.6C43.2451 40.4714 43.1729 40.297 43.1729 40.1151C43.1729 39.9333 43.2451 39.7588 43.3737 39.6302C43.5024 39.5016 43.6768 39.4294 43.8587 39.4294H239.329C239.511 39.4294 239.685 39.5016 239.814 39.6302C239.943 39.7588 240.015 39.9333 240.015 40.1151C240.015 40.297 239.943 40.4714 239.814 40.6C239.685 40.7286 239.511 40.8009 239.329 40.8009Z" fill="#CCCCCC"/>
<path d="M239.329 96.3448H43.8587C43.6768 96.3448 43.5024 96.2726 43.3737 96.144C43.2451 96.0154 43.1729 95.841 43.1729 95.6591C43.1729 95.4772 43.2451 95.3028 43.3737 95.1742C43.5024 95.0456 43.6768 94.9734 43.8587 94.9734H239.329C239.511 94.9734 239.685 95.0456 239.814 95.1742C239.943 95.3028 240.015 95.4772 240.015 95.6591C240.015 95.841 239.943 96.0154 239.814 96.144C239.685 96.2726 239.511 96.3448 239.329 96.3448Z" fill="#CCCCCC"/>
<path d="M239.329 151.889H43.8587C43.6768 151.889 43.5024 151.817 43.3737 151.688C43.2451 151.559 43.1729 151.385 43.1729 151.203C43.1729 151.021 43.2451 150.847 43.3737 150.718C43.5024 150.59 43.6768 150.517 43.8587 150.517H239.329C239.511 150.517 239.685 150.59 239.814 150.718C239.943 150.847 240.015 151.021 240.015 151.203C240.015 151.385 239.943 151.559 239.814 151.688C239.685 151.817 239.511 151.889 239.329 151.889Z" fill="#CCCCCC"/>
<path d="M227.754 259.536C227.754 254.234 207.794 249.936 183.173 249.936C158.551 249.936 138.592 254.234 138.592 259.536C138.592 262.934 146.798 265.918 159.168 267.624V320.223C159.168 321.405 159.637 322.539 160.473 323.375C161.309 324.211 162.443 324.68 163.626 324.68C164.808 324.68 165.942 324.211 166.778 323.375C167.614 322.539 168.084 321.405 168.084 320.223V268.571C172.797 268.936 177.876 269.136 183.173 269.136C188.47 269.136 193.548 268.936 198.262 268.571V320.223C198.262 321.405 198.731 322.539 199.567 323.375C200.403 324.211 201.537 324.68 202.72 324.68C203.902 324.68 205.036 324.211 205.872 323.375C206.708 322.539 207.178 321.405 207.178 320.223V267.624C219.548 265.918 227.754 262.934 227.754 259.536Z" fill="#CCCCCC"/>
<path d="M219.176 316.056H227.585L231.585 283.63H219.175L219.176 316.056Z" fill="#A0616A"/>
<path d="M243.801 323.862L217.374 323.863L217.374 313.655L233.59 313.654C236.298 313.654 238.895 314.729 240.81 316.643C242.725 318.558 243.801 321.154 243.801 323.862V323.862L243.801 323.862Z" fill="#002E56"/>
<path d="M232.302 311.365L240.324 308.847L234.432 276.711L222.591 280.425L232.302 311.365Z" fill="#A0616A"/>
<path d="M258.135 311.441L232.92 319.352L229.863 309.612L245.336 304.757C247.919 303.947 250.719 304.195 253.12 305.449C255.52 306.702 257.324 308.858 258.135 311.441V311.441Z" fill="#002E56"/>
<path d="M226.676 296.44L211.294 256.07C207.844 256.88 178.904 263.283 169.211 252.965C165.889 249.428 165.241 244.305 167.285 237.736L172.942 230.629L173.118 230.638C175.256 230.751 225.542 233.569 228.989 248.734C231.895 261.519 237.203 285.355 238.76 292.357C238.918 293.082 238.81 293.84 238.456 294.492C238.102 295.145 237.525 295.648 236.83 295.911L230.644 298.23C230.3 298.36 229.934 298.426 229.566 298.426C228.94 298.426 228.329 298.236 227.813 297.882C227.297 297.527 226.901 297.024 226.676 296.44Z" fill="#002E56"/>
<path d="M217.76 301.24L202.378 260.87C198.927 261.68 169.988 268.082 160.295 257.765C156.973 254.228 156.325 249.105 158.369 242.536L164.026 235.429L164.202 235.438C166.34 235.551 216.626 238.369 220.073 253.534C222.979 266.319 228.287 290.155 229.844 297.157C230.002 297.882 229.894 298.64 229.54 299.293C229.186 299.945 228.609 300.449 227.914 300.711L221.728 303.03C221.384 303.16 221.018 303.227 220.65 303.227C220.024 303.226 219.413 303.037 218.897 302.682C218.381 302.327 217.985 301.824 217.76 301.24Z" fill="#002E56"/>
<path d="M238.547 204.468C238.32 204.772 238.117 205.093 237.94 205.429L204.113 208.992L199.244 202.317L188.208 208.348L197.772 224.546L239.258 213.97C240.305 214.99 241.637 215.668 243.078 215.912C244.519 216.157 246.001 215.957 247.326 215.339C248.65 214.722 249.756 213.715 250.495 212.454C251.233 211.193 251.571 209.737 251.462 208.28C251.353 206.822 250.802 205.433 249.884 204.296C248.966 203.158 247.723 202.328 246.321 201.914C244.919 201.5 243.425 201.523 242.036 201.979C240.647 202.435 239.43 203.303 238.547 204.468V204.468Z" fill="#A0616A"/>
<path d="M158.151 244.668C157.689 244.334 157.327 243.879 157.107 243.353C156.887 242.826 156.816 242.249 156.904 241.686C158.813 229.108 156.617 211.089 154.439 198.188C153.993 195.571 154.166 192.885 154.945 190.347C155.724 187.808 157.087 185.487 158.924 183.57C160.762 181.653 163.023 180.193 165.526 179.306C168.03 178.42 170.706 178.132 173.34 178.465C175.633 178.768 177.904 179.216 180.139 179.805C183.853 180.74 187.138 182.911 189.454 185.96C191.77 189.01 192.98 192.756 192.884 196.584C192.558 209.033 195.087 224.565 196.189 230.665C196.264 231.084 196.252 231.514 196.154 231.928C196.055 232.343 195.872 232.732 195.617 233.073C195.366 233.41 195.048 233.69 194.682 233.897C194.317 234.104 193.912 234.232 193.494 234.273C181.28 235.519 168.109 241.474 161.344 244.913C160.91 245.137 160.428 245.255 159.939 245.256C159.296 245.254 158.67 245.048 158.151 244.668V244.668Z" fill="#8F1F1F"/>
<path d="M191.121 212.225C190.743 212.077 190.399 211.855 190.108 211.573C189.816 211.291 189.584 210.953 189.424 210.581L182.612 194.849C182.2 193.898 181.979 192.876 181.962 191.84C181.945 190.804 182.132 189.774 182.513 188.811C182.894 187.847 183.462 186.968 184.183 186.224C184.904 185.48 185.764 184.885 186.715 184.473C187.666 184.062 188.689 183.842 189.725 183.825C190.762 183.809 191.791 183.998 192.754 184.379C193.718 184.761 194.596 185.329 195.34 186.05C196.084 186.772 196.678 187.633 197.089 188.584L203.901 204.316C204.225 205.067 204.238 205.916 203.937 206.677C203.635 207.438 203.045 208.048 202.294 208.374L193.483 212.187C193.111 212.35 192.711 212.436 192.305 212.443C191.9 212.449 191.497 212.375 191.121 212.225H191.121Z" fill="#8F1F1F"/>
<path d="M206.312 203.096C206.084 203.4 205.881 203.722 205.705 204.058L171.878 207.621L167.009 200.946L155.973 206.976L165.537 223.174L207.023 212.599C208.069 213.619 209.402 214.296 210.843 214.541C212.284 214.785 213.765 214.586 215.09 213.968C216.415 213.35 217.52 212.344 218.259 211.083C218.998 209.822 219.335 208.366 219.226 206.908C219.117 205.451 218.567 204.061 217.649 202.924C216.731 201.787 215.488 200.956 214.086 200.542C212.684 200.129 211.189 200.151 209.801 200.608C208.412 201.064 207.195 201.932 206.312 203.096V203.096Z" fill="#A0616A"/>
<path d="M158.885 212.911C158.508 212.762 158.163 212.541 157.872 212.258C157.581 211.976 157.349 211.639 157.189 211.267L150.377 195.534C149.965 194.584 149.744 193.561 149.727 192.525C149.71 191.489 149.897 190.46 150.278 189.497C150.659 188.533 151.226 187.654 151.947 186.91C152.668 186.166 153.529 185.571 154.48 185.159C155.431 184.748 156.454 184.527 157.49 184.511C158.526 184.495 159.555 184.683 160.519 185.065C161.482 185.447 162.361 186.015 163.105 186.736C163.849 187.458 164.443 188.318 164.854 189.27L171.665 205.002C171.989 205.753 172.002 206.602 171.701 207.363C171.4 208.123 170.81 208.733 170.059 209.059L161.247 212.873C160.876 213.035 160.475 213.122 160.07 213.129C159.665 213.135 159.262 213.061 158.885 212.911H158.885Z" fill="#8F1F1F"/>
<path d="M172.087 173.113C181.39 173.113 188.932 165.573 188.932 156.271C188.932 146.97 181.39 139.429 172.087 139.429C162.783 139.429 155.241 146.97 155.241 156.271C155.241 165.573 162.783 173.113 172.087 173.113Z" fill="#A0616A"/>
<path d="M160.043 167.83C159.97 167.619 159.947 167.394 159.976 167.172C160.004 166.951 160.082 166.738 160.205 166.552C160.328 166.365 160.492 166.209 160.685 166.096C160.877 165.982 161.093 165.914 161.316 165.897C161.772 165.922 162.219 166.039 162.628 166.241C163.038 166.443 163.403 166.726 163.7 167.073C164.31 167.776 165.019 168.385 165.806 168.882C166.621 169.292 167.726 169.234 168.191 168.451C168.627 167.716 168.328 166.731 168.064 165.877C167.392 163.704 167.016 161.451 166.946 159.177C166.87 156.64 167.228 153.992 168.633 152.013C170.447 149.459 173.689 148.489 176.758 148.559C179.826 148.63 182.845 149.577 185.885 150.175C186.934 150.382 188.167 150.488 188.869 149.675C189.615 148.81 189.341 147.411 189.024 146.243C188.2 143.214 187.326 140.082 185.413 137.636C183.343 135.094 180.388 133.43 177.141 132.98C174.023 132.594 170.859 132.953 167.907 134.028C163.099 135.543 158.867 138.49 155.779 142.475C152.596 146.713 151.22 152.038 151.953 157.287C152.67 161.858 155.092 165.988 158.734 168.845L160.043 167.83Z" fill="#002E56"/>
<path d="M95.7223 208.377C96.5696 199.253 98.91 190.33 102.65 181.964C103.692 179.636 104.839 177.359 106.092 175.134C106.154 175.018 106.169 174.881 106.134 174.754C106.098 174.627 106.014 174.518 105.9 174.451C105.786 174.385 105.65 174.365 105.522 174.396C105.393 174.428 105.282 174.508 105.211 174.619C100.658 182.725 97.4675 191.525 95.7685 200.665C95.2958 203.218 94.9406 205.788 94.7028 208.377C94.6423 209.03 95.6622 209.025 95.7223 208.377V208.377Z" fill="#002E56"/>
<path d="M108.561 176.769C112.128 176.769 115.018 173.878 115.018 170.313C115.018 166.748 112.128 163.857 108.561 163.857C104.995 163.857 102.104 166.748 102.104 170.313C102.104 173.878 104.995 176.769 108.561 176.769Z" fill="#8F1F1F"/>
<path d="M96.3828 208.548C96.9325 202.629 98.4508 196.84 100.877 191.413C101.553 189.903 102.298 188.426 103.11 186.982C103.151 186.906 103.16 186.818 103.137 186.736C103.114 186.653 103.06 186.583 102.986 186.539C102.911 186.496 102.823 186.483 102.74 186.503C102.657 186.524 102.585 186.576 102.539 186.648C99.5846 191.907 97.515 197.615 96.4127 203.545C96.1061 205.201 95.8757 206.869 95.7214 208.548C95.6822 208.972 96.3439 208.969 96.3828 208.548V208.548Z" fill="#002E56"/>
<path d="M104.712 188.043C107.026 188.043 108.901 186.167 108.901 183.854C108.901 181.541 107.026 179.666 104.712 179.666C102.399 179.666 100.523 181.541 100.523 183.854C100.523 186.167 102.399 188.043 104.712 188.043Z" fill="#8F1F1F"/>
<path d="M95.5488 208.153C92.341 203.148 89.977 197.65 88.5514 191.879C88.1555 190.272 87.8336 188.65 87.586 187.012C87.5716 186.927 87.525 186.851 87.4559 186.8C87.3868 186.75 87.3007 186.727 87.2156 186.739C87.1306 186.75 87.0533 186.794 87.0001 186.862C86.9468 186.929 86.9218 187.014 86.9303 187.1C87.8361 193.063 89.716 198.836 92.4948 204.19C93.2717 205.684 94.1159 207.14 95.0273 208.559C95.257 208.918 95.777 208.509 95.5488 208.153Z" fill="#002E56"/>
<path d="M86.9243 187.749C89.2378 187.749 91.1132 185.873 91.1132 183.56C91.1132 181.247 89.2378 179.372 86.9243 179.372C84.6108 179.372 82.7354 181.247 82.7354 183.56C82.7354 185.873 84.6108 187.749 86.9243 187.749Z" fill="#8F1F1F"/>
<path d="M82.6885 211.858V203.63C82.6894 202.811 83.0149 202.027 83.5935 201.449C84.1721 200.87 84.9566 200.545 85.7748 200.544H104.979C105.797 200.545 106.582 200.87 107.16 201.449C107.739 202.027 108.064 202.811 108.065 203.63V211.858C108.064 212.676 107.739 213.461 107.16 214.039C106.582 214.618 105.797 214.943 104.979 214.944H85.7748C84.9566 214.943 84.1721 214.618 83.5935 214.039C83.0149 213.461 82.6894 212.676 82.6885 211.858Z" fill="#CCCCCC"/>
<path d="M254.845 209.478H200.662C199.336 209.478 198.262 210.552 198.262 211.878C198.262 213.203 199.336 214.278 200.662 214.278H254.845C256.171 214.278 257.246 213.203 257.246 211.878C257.246 210.552 256.171 209.478 254.845 209.478Z" fill="#CCCCCC"/>
<path d="M291.196 214.278H230.154C228.972 214.277 227.839 213.807 227.004 212.971C226.168 212.135 225.698 211.002 225.696 209.821V176.22C225.698 175.038 226.168 173.905 227.004 173.07C227.839 172.234 228.972 171.764 230.154 171.763H291.196C292.378 171.764 293.511 172.234 294.347 173.07C295.183 173.905 295.653 175.038 295.654 176.22V209.821C295.653 211.002 295.183 212.135 294.347 212.971C293.511 213.807 292.378 214.277 291.196 214.278V214.278Z" fill="#CCCCCC"/>
<path d="M260.675 197.135C262.947 197.135 264.79 195.293 264.79 193.02C264.79 190.748 262.947 188.906 260.675 188.906C258.402 188.906 256.56 190.748 256.56 193.02C256.56 195.293 258.402 197.135 260.675 197.135Z" fill="white"/>
<path d="M446.543 259.536C446.543 254.234 426.583 249.936 401.962 249.936C377.34 249.936 357.381 254.234 357.381 259.536C357.381 262.934 365.587 265.918 377.957 267.624V320.223C377.957 321.405 378.426 322.539 379.262 323.375C380.098 324.211 381.232 324.68 382.415 324.68C383.597 324.68 384.731 324.211 385.567 323.375C386.403 322.539 386.873 321.405 386.873 320.223V268.571C391.586 268.936 396.665 269.136 401.962 269.136C407.259 269.136 412.337 268.936 417.051 268.571V320.223C417.051 321.405 417.52 322.539 418.356 323.375C419.193 324.211 420.326 324.68 421.509 324.68C422.691 324.68 423.825 324.211 424.661 323.375C425.497 322.539 425.967 321.405 425.967 320.223V267.624C438.337 265.918 446.543 262.934 446.543 259.536Z" fill="#CCCCCC"/>
<path d="M406.892 171.665C417.498 171.665 426.096 163.069 426.096 152.465C426.096 141.861 417.498 133.264 406.892 133.264C396.285 133.264 387.688 141.861 387.688 152.465C387.688 163.069 396.285 171.665 406.892 171.665Z" fill="#002E56"/>
<path d="M359.101 316.742H350.692L346.692 284.315H359.102L359.101 316.742Z" fill="#FFB8B8"/>
<path d="M344.686 314.34H360.902V324.548H334.476C334.476 323.207 334.74 321.88 335.253 320.641C335.766 319.403 336.518 318.278 337.466 317.33C338.414 316.382 339.54 315.63 340.779 315.117C342.017 314.604 343.345 314.34 344.686 314.34V314.34Z" fill="#002E56"/>
<path d="M345.975 312.05L337.952 309.533L343.845 277.396L355.686 281.111L345.975 312.05Z" fill="#FFB8B8"/>
<path d="M332.941 305.443L348.414 310.298L345.356 320.038L320.142 312.127C320.544 310.847 321.193 309.66 322.054 308.632C322.914 307.604 323.969 306.755 325.157 306.135C326.346 305.514 327.645 305.133 328.98 305.015C330.316 304.896 331.662 305.042 332.941 305.443V305.443Z" fill="#002E56"/>
<path d="M348.71 299.112C348.342 299.112 347.977 299.046 347.632 298.916L341.446 296.597C340.752 296.334 340.175 295.831 339.821 295.178C339.466 294.526 339.358 293.768 339.516 293.042C341.074 286.041 346.381 262.205 349.288 249.42C352.735 234.255 403.02 231.437 405.159 231.324L405.335 231.315L410.991 238.422C413.035 244.99 412.388 250.114 409.066 253.65C399.373 263.968 370.433 257.566 366.982 256.756L351.6 297.125C351.376 297.71 350.98 298.213 350.464 298.567C349.948 298.922 349.336 299.112 348.71 299.112V299.112Z" fill="#002E56"/>
<path d="M357.627 303.912C357.259 303.912 356.894 303.846 356.549 303.716L350.363 301.397C349.669 301.134 349.092 300.631 348.738 299.978C348.383 299.326 348.275 298.568 348.433 297.842C349.991 290.841 355.298 267.005 358.205 254.22C361.652 239.055 411.937 236.237 414.076 236.124L414.252 236.115L419.908 243.222C421.952 249.791 421.304 254.914 417.983 258.451C408.29 268.768 379.35 262.366 375.899 261.556L360.517 301.925C360.293 302.51 359.897 303.013 359.381 303.367C358.865 303.722 358.253 303.912 357.627 303.912V303.912Z" fill="#002E56"/>
<path d="M339.73 205.154C339.957 205.458 340.16 205.779 340.337 206.115L374.163 209.678L379.033 203.003L390.069 209.034L380.505 225.231L339.019 214.656C337.972 215.676 336.64 216.353 335.198 216.598C333.757 216.843 332.276 216.643 330.951 216.025C329.626 215.407 328.521 214.401 327.782 213.14C327.043 211.879 326.706 210.423 326.815 208.966C326.924 207.508 327.474 206.118 328.392 204.981C329.311 203.844 330.553 203.013 331.955 202.6C333.357 202.186 334.852 202.209 336.241 202.665C337.63 203.121 338.846 203.989 339.73 205.154V205.154Z" fill="#FFB8B8"/>
<path d="M418.338 245.942C417.849 245.941 417.367 245.823 416.932 245.598C410.168 242.16 396.997 236.205 384.783 234.958C384.365 234.917 383.96 234.789 383.594 234.583C383.229 234.376 382.91 234.095 382.66 233.758C382.404 233.418 382.221 233.028 382.123 232.614C382.025 232.2 382.013 231.77 382.088 231.351C383.19 225.251 385.718 209.718 385.393 197.269C385.297 193.442 386.506 189.695 388.822 186.646C391.139 183.597 394.423 181.426 398.137 180.491V180.491C400.373 179.901 402.644 179.454 404.936 179.151C407.571 178.817 410.247 179.105 412.75 179.992C415.254 180.878 417.515 182.339 419.352 184.256C421.19 186.173 422.552 188.494 423.331 191.032C424.11 193.571 424.284 196.256 423.838 198.874C421.66 211.775 419.464 229.793 421.372 242.371C421.46 242.935 421.39 243.512 421.17 244.038C420.95 244.565 420.588 245.02 420.125 245.353C419.607 245.734 418.981 245.94 418.338 245.942V245.942Z" fill="#8F1F1F"/>
<path d="M386.018 213.129C385.597 213.128 385.18 213.041 384.793 212.873L375.981 209.059C375.231 208.733 374.64 208.123 374.339 207.363C374.038 206.602 374.051 205.753 374.375 205.002L381.186 189.27C381.597 188.318 382.192 187.458 382.935 186.736C383.679 186.015 384.558 185.447 385.521 185.065C386.485 184.683 387.514 184.495 388.55 184.511C389.586 184.527 390.609 184.748 391.56 185.159C392.511 185.571 393.372 186.166 394.093 186.91C394.814 187.654 395.381 188.533 395.762 189.497C396.143 190.46 396.331 191.489 396.314 192.525C396.297 193.561 396.075 194.584 395.663 195.534L388.851 211.267C388.612 211.819 388.216 212.29 387.713 212.62C387.21 212.951 386.621 213.128 386.018 213.129V213.129Z" fill="#8F1F1F"/>
<path d="M406.19 173.799C415.494 173.799 423.036 166.259 423.036 156.957C423.036 147.655 415.494 140.115 406.19 140.115C396.887 140.115 389.345 147.655 389.345 156.957C389.345 166.259 396.887 173.799 406.19 173.799Z" fill="#FFB8B8"/>
<path d="M389.041 148.682C397.02 153.552 406.016 156.516 415.327 157.342L412.557 154.023C414.574 154.768 416.697 155.19 418.846 155.271C420.993 155.238 423.243 154.411 424.461 152.644C425.005 151.765 425.327 150.768 425.402 149.738C425.477 148.707 425.301 147.674 424.89 146.726C424.046 144.836 422.731 143.193 421.072 141.953C418.132 139.628 414.661 138.065 410.97 137.406C407.279 136.746 403.482 137.01 399.917 138.173C397.472 138.904 395.283 140.308 393.599 142.226C392.002 144.195 388.928 145.95 389.745 148.35L389.041 148.682Z" fill="#002E56"/>
<path d="M409.022 135.091C403.709 129.704 397.28 125.547 390.187 122.913C385.633 121.226 380.677 120.184 375.917 121.142C371.157 122.1 366.655 125.392 365.327 130.062C364.241 133.88 365.363 137.991 367.048 141.586C368.733 145.18 370.983 148.513 372.346 152.242C373.736 156.046 374.155 160.138 373.562 164.145C372.97 168.152 371.387 171.947 368.955 175.187C366.524 178.427 363.321 181.008 359.639 182.697C355.956 184.386 351.91 185.128 347.868 184.857C352.545 185.484 356.856 187.681 361.428 188.851C366 190.021 371.396 189.941 374.793 186.667C378.388 183.202 378.459 177.569 378.286 172.58L377.511 150.332C377.379 146.55 377.266 142.646 378.631 139.116C379.995 135.586 383.237 132.495 387.022 132.527C389.891 132.551 392.43 134.289 394.73 136.002C397.031 137.716 399.466 139.544 402.323 139.799C405.18 140.054 408.443 137.94 408.229 135.079" fill="#002E56"/>
<path d="M330.72 192.749L369.507 193.665L375.126 235.121L339.306 235.925L330.72 192.749Z" fill="#E6E6E6"/>
<path d="M371.965 203.782C372.192 204.086 372.395 204.407 372.572 204.743L406.399 208.306L411.268 201.632L422.304 207.662L412.74 223.86L371.254 213.284C370.207 214.305 368.875 214.982 367.434 215.227C365.993 215.471 364.511 215.271 363.186 214.654C361.862 214.036 360.756 213.03 360.017 211.769C359.279 210.508 358.941 209.051 359.05 207.594C359.159 206.137 359.71 204.747 360.628 203.61C361.546 202.473 362.789 201.642 364.191 201.228C365.593 200.814 367.087 200.837 368.476 201.293C369.865 201.749 371.082 202.618 371.965 203.782V203.782Z" fill="#FFB8B8"/>
<path d="M418.254 213.815C417.832 213.814 417.415 213.727 417.028 213.559L408.216 209.745C407.466 209.419 406.875 208.809 406.574 208.048C406.273 207.288 406.286 206.439 406.61 205.688L413.422 189.955C413.833 189.004 414.427 188.143 415.171 187.422C415.915 186.7 416.793 186.133 417.757 185.751C418.72 185.369 419.749 185.181 420.786 185.197C421.822 185.213 422.845 185.433 423.796 185.845C424.747 186.256 425.607 186.851 426.328 187.596C427.049 188.34 427.616 189.219 427.997 190.182C428.378 191.146 428.566 192.175 428.549 193.211C428.532 194.247 428.311 195.27 427.898 196.22L421.087 211.952C420.847 212.505 420.451 212.975 419.948 213.306C419.445 213.637 418.856 213.814 418.254 213.815V213.815Z" fill="#8F1F1F"/>
<path d="M338.519 213.592H65.547C64.3646 213.592 63.2307 214.062 62.3946 214.898C61.5586 215.734 61.0889 216.867 61.0889 218.049C61.0889 219.232 61.5586 220.365 62.3946 221.201C63.2307 222.037 64.3646 222.507 65.547 222.507H73.4344V319.537C73.4344 320.719 73.904 321.853 74.7401 322.689C75.5762 323.525 76.7101 323.995 77.8924 323.995C79.0748 323.995 80.2087 323.525 81.0448 322.689C81.8809 321.853 82.3505 320.719 82.3505 319.537V231.072L132.33 321.641C132.922 322.662 133.896 323.407 135.037 323.711C136.178 324.016 137.393 323.855 138.415 323.265C139.438 322.674 140.185 321.703 140.491 320.563C140.798 319.423 140.64 318.207 140.052 317.184L87.8056 222.507H326.517V222.564L274.303 317.184C273.712 318.208 273.552 319.424 273.858 320.566C274.164 321.708 274.911 322.681 275.935 323.272C276.959 323.863 278.175 324.024 279.317 323.718C280.459 323.412 281.433 322.665 282.024 321.641L326.517 241.014V319.537C326.517 320.719 326.987 321.853 327.823 322.689C328.659 323.525 329.793 323.995 330.975 323.995C332.157 323.995 333.291 323.525 334.127 322.689C334.963 321.853 335.433 320.719 335.433 319.537V224.857L336.73 222.507H338.519C339.702 222.507 340.836 222.037 341.672 221.201C342.508 220.365 342.978 219.232 342.978 218.049C342.978 216.867 342.508 215.734 341.672 214.898C340.836 214.062 339.702 213.592 338.519 213.592V213.592Z" fill="#002E56"/>
</svg>
