<svg width="38" height="38" viewBox="0 0 38 38" fill="none" xmlns="http://www.w3.org/2000/svg">
<path d="M34.7241 2.62069H32.1034V1.96552C32.1034 1.44423 31.8964 0.944293 31.5278 0.575687C31.1592 0.207081 30.6592 0 30.1379 0C29.6166 0 29.1167 0.207081 28.7481 0.575687C28.3795 0.944293 28.1724 1.44423 28.1724 1.96552V2.62069H26.8621V1.96552C26.8621 1.44423 26.655 0.944293 26.2864 0.575687C25.9178 0.207081 25.4178 0 24.8966 0C24.3753 0 23.8753 0.207081 23.5067 0.575687C23.1381 0.944293 22.931 1.44423 22.931 1.96552V2.62069H15.069V1.96552C15.069 1.44423 14.8619 0.944293 14.4933 0.575687C14.1247 0.207081 13.6247 0 13.1034 0C12.5822 0 12.0822 0.207081 11.7136 0.575687C11.345 0.944293 11.1379 1.44423 11.1379 1.96552V2.62069H9.82759V1.96552C9.82759 1.44423 9.62051 0.944293 9.2519 0.575687C8.88329 0.207081 8.38336 0 7.86207 0C7.34078 0 6.84084 0.207081 6.47224 0.575687C6.10363 0.944293 5.89655 1.44423 5.89655 1.96552V2.62069H3.27586C2.40705 2.62069 1.57382 2.96582 0.959478 3.58017C0.345134 4.19451 0 5.02774 0 5.89655V34.7241C0 35.5929 0.345134 36.4262 0.959478 37.0405C1.57382 37.6549 2.40705 38 3.27586 38H34.7241C35.5929 38 36.4262 37.6549 37.0405 37.0405C37.6549 36.4262 38 35.5929 38 34.7241V22.931C38 22.7573 37.931 22.5906 37.8081 22.4678C37.6852 22.3449 37.5186 22.2759 37.3448 22.2759C37.1711 22.2759 37.0044 22.3449 36.8815 22.4678C36.7587 22.5906 36.6897 22.7573 36.6897 22.931V23.5862H28.8276V17.0345H36.6897C36.6897 17.2082 36.7587 17.3749 36.8815 17.4978C37.0044 17.6206 37.1711 17.6897 37.3448 17.6897C37.5186 17.6897 37.6852 17.6206 37.8081 17.4978C37.931 17.3749 38 17.2082 38 17.0345V5.89655C38 5.02774 37.6549 4.19451 37.0405 3.58017C36.4262 2.96582 35.5929 2.62069 34.7241 2.62069ZM29.4828 1.96552C29.4828 1.79175 29.5518 1.62511 29.6747 1.50224C29.7975 1.37937 29.9642 1.31034 30.1379 1.31034C30.3117 1.31034 30.4783 1.37937 30.6012 1.50224C30.7241 1.62511 30.7931 1.79175 30.7931 1.96552V4.58621C30.7931 4.75997 30.7241 4.92661 30.6012 5.04948C30.4783 5.17235 30.3117 5.24138 30.1379 5.24138C29.9642 5.24138 29.7975 5.17235 29.6747 5.04948C29.5518 4.92661 29.4828 4.75997 29.4828 4.58621V1.96552ZM24.2414 1.96552C24.2414 1.79175 24.3104 1.62511 24.4333 1.50224C24.5561 1.37937 24.7228 1.31034 24.8966 1.31034C25.0703 1.31034 25.237 1.37937 25.3598 1.50224C25.4827 1.62511 25.5517 1.79175 25.5517 1.96552V4.58621C25.5517 4.75997 25.4827 4.92661 25.3598 5.04948C25.237 5.17235 25.0703 5.24138 24.8966 5.24138C24.7228 5.24138 24.5561 5.17235 24.4333 5.04948C24.3104 4.92661 24.2414 4.75997 24.2414 4.58621V1.96552ZM12.4483 1.96552C12.4483 1.79175 12.5173 1.62511 12.6402 1.50224C12.763 1.37937 12.9297 1.31034 13.1034 1.31034C13.2772 1.31034 13.4439 1.37937 13.5667 1.50224C13.6896 1.62511 13.7586 1.79175 13.7586 1.96552V4.58621C13.7586 4.75997 13.6896 4.92661 13.5667 5.04948C13.4439 5.17235 13.2772 5.24138 13.1034 5.24138C12.9297 5.24138 12.763 5.17235 12.6402 5.04948C12.5173 4.92661 12.4483 4.75997 12.4483 4.58621V1.96552ZM7.2069 1.96552C7.2069 1.79175 7.27592 1.62511 7.39879 1.50224C7.52166 1.37937 7.68831 1.31034 7.86207 1.31034C8.03583 1.31034 8.20248 1.37937 8.32535 1.50224C8.44821 1.62511 8.51724 1.79175 8.51724 1.96552V4.58621C8.51724 4.75997 8.44821 4.92661 8.32535 5.04948C8.20248 5.17235 8.03583 5.24138 7.86207 5.24138C7.68831 5.24138 7.52166 5.17235 7.39879 5.04948C7.27592 4.92661 7.2069 4.75997 7.2069 4.58621V1.96552ZM3.27586 3.93103H5.89655V4.58621C5.89655 5.10749 6.10363 5.60743 6.47224 5.97604C6.84084 6.34464 7.34078 6.55172 7.86207 6.55172C8.38336 6.55172 8.88329 6.34464 9.2519 5.97604C9.62051 5.60743 9.82759 5.10749 9.82759 4.58621V3.93103H11.1379V4.58621C11.1379 5.10749 11.345 5.60743 11.7136 5.97604C12.0822 6.34464 12.5822 6.55172 13.1034 6.55172C13.6247 6.55172 14.1247 6.34464 14.4933 5.97604C14.8619 5.60743 15.069 5.10749 15.069 4.58621V3.93103H22.931V4.58621C22.931 5.10749 23.1381 5.60743 23.5067 5.97604C23.8753 6.34464 24.3753 6.55172 24.8966 6.55172C25.4178 6.55172 25.9178 6.34464 26.2864 5.97604C26.655 5.60743 26.8621 5.10749 26.8621 4.58621V3.93103H28.1724V4.58621C28.1724 5.10749 28.3795 5.60743 28.7481 5.97604C29.1167 6.34464 29.6166 6.55172 30.1379 6.55172C30.6592 6.55172 31.1592 6.34464 31.5278 5.97604C31.8964 5.60743 32.1034 5.10749 32.1034 4.58621V3.93103H34.7241C35.2454 3.93103 35.7454 4.13811 36.114 4.50672C36.4826 4.87533 36.6897 5.37526 36.6897 5.89655V7.86207H1.31034V5.89655C1.31034 5.37526 1.51743 4.87533 1.88603 4.50672C2.25464 4.13811 2.75457 3.93103 3.27586 3.93103ZM27.5172 15.7241H19.6552V9.17241H27.5172V15.7241ZM19.6552 31.4483V24.8966H27.5172V31.4483H19.6552ZM18.3448 31.4483H10.4828V24.8966H18.3448V31.4483ZM1.31034 31.4483V24.8966H9.17241V31.4483H1.31034ZM9.17241 15.7241H1.31034V9.17241H9.17241V15.7241ZM9.17241 17.0345V23.5862H1.31034V17.0345H9.17241ZM10.4828 23.5862V17.0345H18.3448V23.5862H10.4828ZM10.4828 15.7241V9.17241H18.3448V15.7241H10.4828ZM34.7241 36.6897H3.27586C2.75457 36.6897 2.25464 36.4826 1.88603 36.114C1.51743 35.7454 1.31034 35.2454 1.31034 34.7241V32.7586H36.6897V34.7241C36.6897 35.2454 36.4826 35.7454 36.114 36.114C35.7454 36.4826 35.2454 36.6897 34.7241 36.6897ZM36.6897 24.8966V31.4483H28.8276V24.8966H36.6897ZM27.5172 23.5862H19.6552V17.0345H27.5172V23.5862ZM28.8276 15.7241V9.17241H36.6897V15.7241H28.8276Z" fill="white"/>
<path d="M36.6897 19.6552V20.3103C36.6897 20.4841 36.7587 20.6508 36.8815 20.7736C37.0044 20.8965 37.1711 20.9655 37.3448 20.9655C37.5186 20.9655 37.6852 20.8965 37.8081 20.7736C37.931 20.6508 38 20.4841 38 20.3103V19.6552C38 19.4814 37.931 19.3148 37.8081 19.1919C37.6852 19.069 37.5186 19 37.3448 19C37.1711 19 37.0044 19.069 36.8815 19.1919C36.7587 19.3148 36.6897 19.4814 36.6897 19.6552Z" fill="white"/>
<path d="M15.9141 18.5348L13.7586 20.6969L12.9134 19.8451C12.7901 19.7218 12.6227 19.6525 12.4483 19.6525C12.2738 19.6525 12.1065 19.7218 11.9831 19.8451C11.8597 19.9685 11.7904 20.1358 11.7904 20.3103C11.7904 20.4848 11.8597 20.6521 11.9831 20.7755L13.2934 22.0858C13.3544 22.1472 13.4268 22.196 13.5067 22.2292C13.5865 22.2625 13.6721 22.2796 13.7586 22.2796C13.8451 22.2796 13.9307 22.2625 14.0106 22.2292C14.0904 22.196 14.1629 22.1472 14.2238 22.0858L16.8445 19.4651C16.9679 19.3418 17.0372 19.1744 17.0372 19C17.0372 18.8255 16.9679 18.6582 16.8445 18.5348C16.7211 18.4114 16.5538 18.3421 16.3793 18.3421C16.2048 18.3421 16.0375 18.4114 15.9141 18.5348Z" fill="white"/>
<path d="M25.0865 26.3969L22.931 28.5589L22.0858 27.7072C22.0247 27.6461 21.9522 27.5977 21.8724 27.5646C21.7926 27.5316 21.707 27.5145 21.6206 27.5145C21.5342 27.5145 21.4487 27.5316 21.3689 27.5646C21.2891 27.5977 21.2165 27.6461 21.1555 27.7072C21.0944 27.7683 21.0459 27.8408 21.0128 27.9206C20.9798 28.0005 20.9628 28.086 20.9628 28.1724C20.9628 28.2588 20.9798 28.3443 21.0128 28.4241C21.0459 28.504 21.0944 28.5765 21.1555 28.6376C23.311 30.7865 22.4658 30.8652 26.0168 27.3272C26.1402 27.2038 26.2095 27.0365 26.2095 26.862C26.2095 26.6876 26.1402 26.5202 26.0168 26.3969C25.8935 26.2735 25.7261 26.2042 25.5517 26.2042C25.3772 26.2042 25.2099 26.2735 25.0865 26.3969Z" fill="white"/>
<path d="M34.2589 10.6727L32.1034 12.8348L31.2582 11.9831C31.1349 11.8597 30.9675 11.7904 30.7931 11.7904C30.6186 11.7904 30.4513 11.8597 30.3279 11.9831C30.2045 12.1064 30.1352 12.2738 30.1352 12.4482C30.1352 12.6227 30.2045 12.79 30.3279 12.9134C32.4834 15.0624 31.6382 15.141 35.1893 11.6031C35.3126 11.4797 35.382 11.3124 35.382 11.1379C35.382 10.9634 35.3126 10.7961 35.1893 10.6727C35.0659 10.5493 34.8986 10.48 34.7241 10.48C34.5496 10.48 34.3823 10.5493 34.2589 10.6727Z" fill="white"/>
</svg>
