<svg width="100" height="100" viewBox="0 0 100 100" fill="none" xmlns="http://www.w3.org/2000/svg">
<path d="M50.0721 0.921296C43.4992 0.914027 36.9893 2.18666 30.9146 4.66645C24.8399 7.14624 19.3196 10.7846 14.6692 15.3734C10.0189 19.9621 6.32973 25.4115 3.81267 31.4097C1.29561 37.4079 2.25132e-05 43.8373 2.93464e-10 50.3305C-2.25126e-05 56.8237 1.29551 63.2533 3.81253 69.2515C6.32954 75.2497 10.0187 80.699 14.669 85.2878C19.3193 89.8767 24.8396 93.515 30.9143 95.9948C36.989 98.4747 43.4988 99.7474 50.0717 99.7401H50.0721C63.3219 99.717 76.021 94.5012 85.3818 85.2377C94.7426 75.9741 100 63.4198 100 50.3307C100 37.2416 94.7426 24.6873 85.3818 15.4238C76.021 6.16022 63.3219 0.944392 50.0721 0.921296V0.921296Z" fill="#FF0000" fill-opacity="0.6"/>
<path d="M68.0456 29.5775C67.9969 40.0626 67.9482 46.3633 67.9482 56.8004C67.9482 57.1851 67.9969 57.618 68.143 58.0028C69.3115 61.5139 70.5287 65.025 71.6972 68.4879C71.7946 68.7765 71.8919 69.0651 72.0867 69.2575C72.3788 69.6423 72.7196 69.6423 72.9631 69.2575C73.1091 69.017 73.2552 68.6803 73.3526 68.3918C74.375 65.4578 75.3974 62.5239 76.4199 59.59C76.7607 58.5319 77.1989 57.5218 77.1989 56.3194C77.1989 46.1228 77.2476 40.1107 77.2963 29.866C77.2963 29.7217 77.2963 29.5775 77.2963 29.5294C74.2289 29.5294 71.1616 29.4813 68.0943 29.4813C68.0456 29.4813 68.0456 29.5294 68.0456 29.5775ZM75.3488 57.089C75.3001 57.2813 75.2027 57.4737 75.154 57.7142C74.6671 59.1571 74.1316 60.6 73.6447 62.0429C73.5473 62.3796 73.4012 62.4758 73.1091 62.4758C72.6709 62.4277 72.2814 62.4758 71.8432 62.4277C71.7459 62.4277 71.5511 62.2834 71.5024 62.1872C70.9182 60.5038 70.3826 58.8685 69.7984 57.1851C69.7984 57.137 69.7984 57.0889 69.7984 57.0409C71.5998 57.0409 73.4499 57.089 75.3488 57.089Z" fill="white"/>
<path d="M77.2487 26.9803C74.1327 26.9803 71.1141 26.9322 68.0467 26.9322C68.0467 26.8841 67.998 26.7879 67.998 26.6917C67.998 25.5373 67.998 24.383 67.998 23.2287C67.998 21.8339 68.777 20.92 69.9456 20.92C71.747 20.92 73.4997 20.92 75.3012 20.92C76.4697 20.92 77.2487 21.8339 77.2487 23.2287C77.2974 24.5273 77.2974 25.7778 77.2487 26.9803Z" fill="white"/>
<path d="M63.1286 33.0885H22.085V37.9944H63.1286V33.0885Z" fill="white"/>
<path d="M34.3542 47.0848H22.085V51.9907H34.3542V47.0848Z" fill="white"/>
<path d="M63.1288 47.0848H39.0771V51.9907H63.1288V47.0848Z" fill="white"/>
<path d="M63.1286 61.0811H22.085V65.987H63.1286V61.0811Z" fill="white"/>
<path d="M77.2975 75.0291H40.9766V79.935H77.2975V75.0291Z" fill="white"/>
<path d="M34.1108 75.0291H22.085V79.935H34.1108V75.0291Z" fill="white"/>
</svg>
