<svg width="276" height="246" viewBox="0 0 276 246" fill="none" xmlns="http://www.w3.org/2000/svg">
<path d="M248.676 226.888C251.362 226.888 253.886 226.244 256.127 225.106V245.935L248.676 240.69L241.227 245.935V225.106C243.474 226.247 245.999 226.888 248.676 226.888ZM261.262 210.235C261.262 217.178 255.622 222.813 248.676 222.813C241.73 222.813 236.095 217.178 236.095 210.235C236.095 203.278 241.73 197.652 248.676 197.652C255.625 197.649 261.262 203.278 261.262 210.235ZM276 92.2542V218.209C276 222.169 272.788 225.369 268.838 225.369H259.922V222.123C263.084 219.139 265.051 214.908 265.051 210.235C265.051 201.21 257.704 193.863 248.676 193.863C239.653 193.863 232.306 201.21 232.306 210.235C232.306 214.908 234.276 219.131 237.435 222.123V225.369H177.851C173.892 225.369 170.689 222.172 170.689 218.209V92.2542C170.689 88.3033 173.897 85.0917 177.851 85.0917H268.838C272.786 85.0859 276 88.3033 276 92.2542ZM197.649 119.633C197.649 121.727 199.339 123.428 201.441 123.428H245.251C247.344 123.428 249.04 121.724 249.04 119.633C249.04 117.542 247.344 115.841 245.251 115.841H201.444C199.339 115.838 197.649 117.539 197.649 119.633ZM265.051 181.984C265.051 179.89 263.353 178.195 261.262 178.195H185.435C183.342 178.195 181.646 179.893 181.646 181.984C181.646 184.075 183.344 185.779 185.435 185.779H261.262C263.35 185.779 265.051 184.084 265.051 181.984ZM265.051 166.4C265.051 164.306 263.353 162.611 261.262 162.611H185.435C183.342 162.611 181.646 164.309 181.646 166.4C181.646 168.491 183.344 170.189 185.435 170.189H261.262C263.35 170.189 265.051 168.494 265.051 166.4ZM265.051 150.801C265.051 148.716 263.353 147.018 261.262 147.018H185.435C183.342 147.018 181.646 148.716 181.646 150.801C181.646 152.904 183.344 154.596 185.435 154.596H261.262C263.35 154.596 265.051 152.901 265.051 150.801ZM265.051 135.217C265.051 133.123 263.353 131.434 261.262 131.434H185.435C183.342 131.434 181.646 133.123 181.646 135.217C181.646 137.311 183.344 139.012 185.435 139.012H261.262C263.35 139.015 265.051 137.311 265.051 135.217ZM144.179 94.6022L165.638 104.017V96.4996L146.949 88.2975C147.246 86.9949 147.394 85.6549 147.394 84.2744C147.394 83.7545 147.37 83.2375 147.333 82.7292L177.008 74.3278C178.848 76.8809 181.834 78.5473 185.233 78.5473C190.822 78.5473 195.359 74.0159 195.359 68.4159C195.359 62.8303 190.822 58.2931 185.233 58.2931C179.876 58.2931 175.5 62.4433 175.134 67.7054L145.464 76.1184C145.314 75.8181 145.164 75.5437 144.994 75.2578L156.049 65.7329C157.121 66.2296 158.313 66.5126 159.57 66.5126C164.173 66.5126 167.91 62.7783 167.91 58.1661C167.91 53.5625 164.173 49.8282 159.57 49.8282C154.963 49.8282 151.223 53.5625 151.223 58.1661C151.223 58.9776 151.336 59.7747 151.561 60.5199L140.508 70.039C137.407 67.587 133.508 66.1227 129.253 66.1227C125.996 66.1227 122.957 66.9776 120.315 68.4765L99.148 43.6303C99.7083 42.4866 100.017 41.213 100.017 39.8556C100.017 35.1047 96.1704 31.2578 91.4224 31.2578C86.6802 31.2578 82.8217 35.1047 82.8217 39.8556C82.8217 44.5978 86.6744 48.4534 91.4224 48.4534C92.2917 48.4534 93.1177 48.3292 93.9119 48.0895L115.07 72.9444C113.536 74.8679 112.364 77.1206 111.705 79.5899L80.2975 77.3805C79.122 70.9805 73.5134 66.1227 66.7697 66.1227C59.1769 66.1227 53.0051 72.283 53.0051 79.8816C53.0051 87.4744 59.174 93.6404 66.7697 93.6404C72.8375 93.6404 77.9899 89.704 79.8123 84.2484L111.226 86.4578C112.052 93.2737 116.641 98.9343 122.871 101.271L119.119 123.379C115.809 124.332 113.392 127.373 113.392 130.986C113.392 135.373 116.939 138.92 121.308 138.92C125.695 138.92 129.245 135.37 129.245 130.986C129.245 128.321 127.919 125.964 125.9 124.523L129.652 102.409C135.682 102.282 140.976 99.2202 144.179 94.6022ZM165.635 158.96H8.64404V11.0989H239.916V80.0347H248.566V6.40867C248.566 2.87076 245.695 0 242.16 0H6.39711C2.86209 0 0 2.87076 0 6.40867V140.953V144.797V163.798C0 167.33 2.86209 170.198 6.39711 170.198H165.638V158.96H165.635ZM161.999 202.386L161.978 202.362H161.975C161.58 201.941 161.025 201.574 161.025 201.574C161.025 201.574 157.554 199.677 154.391 197.629C151.226 195.575 150.914 188.786 150.914 188.786L149.588 173.086H98.9747L97.652 188.786C97.652 188.786 97.3372 195.575 94.1747 197.629C91.0123 199.677 87.5408 201.574 87.5408 201.574C87.5408 201.574 86.9805 201.944 86.5848 202.362H86.5791L86.5704 202.386C86.3567 202.602 86.2325 202.833 86.2469 203.047L86.2065 203.113V203.503V203.983C86.2065 204.378 86.53 204.696 86.9199 204.696H124.283H161.649C162.042 204.696 162.362 204.378 162.362 203.983V203.503V203.113L162.325 203.047C162.331 202.833 162.206 202.602 161.999 202.386Z" fill="#FF4A4A"/>
</svg>
