<svg width="100" height="99" viewBox="0 0 100 99" fill="none" xmlns="http://www.w3.org/2000/svg">
<path d="M50.0721 3.09614e-05C43.4992 -0.00723774 36.9893 1.2654 30.9146 3.74519C24.8399 6.22498 19.3196 9.86329 14.6692 14.4521C10.0189 19.0409 6.32973 24.4902 3.81267 30.4884C1.29561 36.4866 2.25132e-05 42.9161 2.93464e-10 49.4093C-2.25126e-05 55.9024 1.29551 62.332 3.81253 68.3302C6.32954 74.3285 10.0187 79.7778 14.669 84.3666C19.3193 88.9554 24.8396 92.5937 30.9143 95.0736C36.989 97.5534 43.4988 98.8261 50.0717 98.8189H50.0721C63.3219 98.7958 76.021 93.5799 85.3818 84.3164C94.7426 75.0528 100 62.4986 100 49.4094C100 36.3203 94.7426 23.7661 85.3818 14.5025C76.021 5.23895 63.3219 0.0231277 50.0721 3.09614e-05V3.09614e-05Z" fill="#FF0000" fill-opacity="0.6"/>
<path d="M66.9002 30.6359L48.771 12.7265L30.6417 30.6359L40.4415 40.3168L38.972 41.7685L29.1722 32.0875L11.043 49.9969L29.1722 67.9063L38.972 58.2253L40.4415 59.677L30.6417 69.3579L48.771 87.2673L66.9002 69.3579L57.1004 59.6778L58.5699 58.2262L68.3698 67.9071L86.499 49.9969L68.3698 32.0875L58.5708 41.7685L57.1013 40.3168L66.9002 30.6359ZM32.6022 30.6359L48.771 14.6632L64.9398 30.6359L56.1202 39.3485L54.6507 37.8968L61.9999 30.6367L48.771 17.5674L35.5421 30.6359L42.8913 37.8959L41.4218 39.3476L32.6022 30.6359ZM61.9999 54.837L63.4694 53.3853L68.3689 58.2253L76.6992 49.9969L68.3698 41.7685L63.4703 46.6085L62.0008 45.1568L68.3706 38.8643L79.6391 49.9969L68.3698 61.1295L61.9999 54.837ZM35.5421 45.1568L34.0725 46.6085L29.1731 41.7685L20.8428 49.9969L29.1722 58.2253L34.0717 53.3853L35.5412 54.837L29.1714 61.1295L17.9029 49.9969L29.1722 38.8643L35.5421 45.1568ZM47.3015 40.316L48.771 38.8643L50.2405 40.316L48.771 41.7685L47.3015 40.316ZM49.7512 37.8959L51.2207 36.4443L52.6902 37.8959L51.2207 39.3476L49.7512 37.8959ZM47.3015 35.4759L48.771 34.0242L50.2405 35.4759L48.771 36.9284L47.3015 35.4759ZM52.201 30.6359L48.771 27.2475L45.341 30.6359L47.7908 33.0559L46.3212 34.5076L42.4012 30.635L48.771 24.3433L55.1408 30.6359L51.2207 34.5084L49.7512 33.0567L52.201 30.6359ZM48.771 32.0875L47.3015 30.6359L48.771 29.1833L50.2405 30.635L48.771 32.0875ZM52.201 35.4759L57.1004 30.6359L48.771 22.4074L40.4415 30.6359L45.341 35.4759L43.8715 36.9276L37.5017 30.635L48.771 19.5032L60.0403 30.6359L53.6705 36.9284L52.201 35.4759ZM46.3212 36.4443L47.7908 37.8959L46.3212 39.3476L44.8517 37.8959L46.3212 36.4443ZM45.341 40.316L43.8715 41.7676L42.402 40.316L43.8715 38.8643L45.341 40.316ZM46.3212 41.2843L47.7908 42.736L46.3212 44.1877L44.8517 42.736L46.3212 41.2843ZM50.2405 45.1568L48.771 46.6085L47.3015 45.1568L48.771 43.7043L50.2405 45.1568ZM64.4497 52.4169L65.9192 50.9652L68.3689 53.3853L71.7997 49.9969L68.3698 46.6085L65.92 49.0286L64.4505 47.5769L68.3706 43.7043L74.7396 49.9969L68.3698 56.2895L64.4497 52.4169ZM66.9002 49.9969L68.3698 48.5452L69.8401 49.9969L68.3706 51.4486L66.9002 49.9969ZM64.9398 49.9969L63.4703 51.4486L61.9999 49.9969L63.4694 48.5452L64.9398 49.9969ZM47.3015 54.837L48.771 53.3853L50.2405 54.837L48.771 56.2895L47.3015 54.837ZM33.0923 47.5769L31.6228 49.0286L29.1731 46.6085L25.7423 49.9969L29.1722 53.3853L31.622 50.9652L33.0915 52.4169L29.1714 56.2895L22.8024 49.9969L29.1722 43.7043L33.0923 47.5769ZM30.6417 49.9969L29.1722 51.4486L27.7019 49.9969L29.1714 48.5452L30.6417 49.9969ZM32.6022 49.9969L34.0717 48.5452L35.5421 49.9969L34.0725 51.4486L32.6022 49.9969ZM50.2405 49.9969L48.771 51.4486L47.3015 49.9969L48.771 48.5452L50.2405 49.9969ZM46.3212 49.0286L44.8517 47.5769L46.3212 46.1252L47.7908 47.5769L46.3212 49.0286ZM45.341 49.9969L43.8715 51.4486L42.4012 49.9969L43.8707 48.5452L45.341 49.9969ZM46.3212 50.9652L47.7908 52.4169L46.3212 53.8686L44.8517 52.4169L46.3212 50.9652ZM49.7512 52.4169L51.2207 50.9652L52.6902 52.4169L51.2207 53.8686L49.7512 52.4169ZM52.201 49.9969L53.6705 48.5452L55.1408 49.9969L53.6713 51.4486L52.201 49.9969ZM51.2207 49.0286L49.7512 47.5769L51.2207 46.1252L52.6902 47.5769L51.2207 49.0286ZM45.341 45.1568L43.8715 46.6085L42.402 45.1568L43.8715 43.7052L45.341 45.1568ZM42.8913 47.5769L41.4218 49.0286L39.9523 47.5769L41.4218 46.1252L42.8913 47.5769ZM40.4415 49.9969L38.972 51.4486L37.5017 49.9969L38.9712 48.5452L40.4415 49.9969ZM38.9712 46.6085L37.5017 45.1568L38.9712 43.7052L40.4407 45.1568L38.9712 46.6085ZM37.9918 47.5769L36.5223 49.0286L35.0528 47.5769L36.5223 46.1252L37.9918 47.5769ZM35.0519 52.4169L36.5214 50.9652L37.9909 52.4169L36.5214 53.8686L35.0519 52.4169ZM38.9712 53.3853L40.4407 54.837L38.9712 56.2886L37.5017 54.837L38.9712 53.3853ZM39.9514 52.4169L41.4209 50.9652L42.8904 52.4169L41.4209 53.8686L39.9514 52.4169ZM43.8715 53.3853L45.341 54.837L43.8715 56.2886L42.402 54.837L43.8715 53.3853ZM46.3212 55.8053L47.7908 57.257L46.3212 58.7087L44.8517 57.257L46.3212 55.8053ZM50.2405 59.6778L48.771 61.1295L47.3015 59.6778L48.771 58.2253L50.2405 59.6778ZM45.341 59.6778L43.8715 61.1295L42.402 59.6778L43.8715 58.2262L45.341 59.6778ZM46.3212 60.6453L47.7908 62.097L46.3212 63.5487L44.8517 62.097L46.3212 60.6453ZM50.2405 64.5179L48.771 65.9696L47.3015 64.5179L48.771 63.0654L50.2405 64.5179ZM45.341 69.3579L48.771 72.7463L52.201 69.3579L49.7512 66.9379L51.2207 65.4862L55.1408 69.3588L48.771 75.6505L42.4012 69.3579L46.3212 65.4854L47.7908 66.9371L45.341 69.3579ZM48.771 67.9063L50.2405 69.3579L48.771 70.8105L47.3015 69.3588L48.771 67.9063ZM45.341 64.5179L40.4415 69.3579L48.771 77.5864L57.1004 69.3579L52.201 64.5179L53.6705 63.0662L60.0403 69.3588L48.771 80.4906L37.5017 69.3579L43.8715 63.0654L45.341 64.5179ZM51.2207 63.5495L49.7512 62.0979L51.2207 60.6462L52.6902 62.0979L51.2207 63.5495ZM52.201 59.6778L53.6705 58.2262L55.14 59.6778L53.6705 61.1295L52.201 59.6778ZM51.2207 58.7095L49.7512 57.2578L51.2207 55.8061L52.6902 57.2578L51.2207 58.7095ZM52.201 54.837L53.6705 53.3853L55.14 54.837L53.6705 56.2886L52.201 54.837ZM54.6507 52.4169L56.1202 50.9652L57.5897 52.4169L56.1202 53.8686L54.6507 52.4169ZM57.1004 49.9969L58.5699 48.5452L60.0403 49.9969L58.5708 51.4486L57.1004 49.9969ZM58.5708 53.3853L60.0403 54.837L58.5708 56.2886L57.1013 54.837L58.5708 53.3853ZM59.5502 52.4169L61.0197 50.9652L62.4892 52.4169L61.0197 53.8686L59.5502 52.4169ZM62.49 47.5769L61.0205 49.0286L59.551 47.5769L61.0205 46.1252L62.49 47.5769ZM58.5708 46.6085L57.1013 45.1568L58.5708 43.7052L60.0403 45.1568L58.5708 46.6085ZM57.5906 47.5769L56.1211 49.0286L54.6515 47.5769L56.1211 46.1252L57.5906 47.5769ZM53.6705 46.6085L52.201 45.1568L53.6705 43.7052L55.14 45.1568L53.6705 46.6085ZM51.2207 44.1885L49.7512 42.7368L51.2207 41.2851L52.6902 42.7368L51.2207 44.1885ZM52.201 40.316L53.6705 38.8643L55.14 40.316L53.6705 41.7676L52.201 40.316ZM41.4218 41.2843L42.8913 42.736L41.4218 44.1877L39.9523 42.736L41.4218 41.2843ZM29.1722 65.9696L13.0034 49.9969L29.1722 34.0242L37.9918 42.7368L36.5223 44.1885L29.1731 36.9284L15.9433 49.9969L29.1722 63.0654L36.5214 55.8053L37.9909 57.257L29.1722 65.9696ZM39.9514 57.257L41.4209 55.8053L42.8904 57.257L41.4209 58.7087L39.9514 57.257ZM64.9398 69.3579L48.771 85.3306L32.6022 69.3579L41.4218 60.6453L42.8913 62.097L35.5421 69.3571L48.771 82.4264L61.9999 69.3579L54.6507 62.0979L56.1202 60.6462L64.9398 69.3579ZM56.1202 58.7095L54.6507 57.2578L56.1202 55.8061L57.5897 57.2578L56.1202 58.7095ZM68.3698 34.0242L84.5385 49.9969L68.3698 65.9696L59.5502 57.257L61.0197 55.8053L68.3689 63.0654L81.5987 49.9969L68.3698 36.9284L61.0205 44.1885L59.551 42.7368L68.3698 34.0242ZM57.5906 42.7368L56.1211 44.1885L54.6515 42.7368L56.1211 41.2851L57.5906 42.7368Z" fill="white"/>
</svg>
