<svg width="304" height="178" viewBox="0 0 304 178" fill="none" xmlns="http://www.w3.org/2000/svg">
<path d="M2.42447 97.5906C2.43421 97.581 2.54595 97.6751 2.7402 97.8536C2.93536 98.0307 3.20947 98.2957 3.54512 98.6264C4.21445 99.2897 5.11479 100.23 6.08881 101.286C7.04181 102.329 7.90332 103.272 8.57006 104.001C8.86611 104.322 9.1181 104.595 9.32487 104.82C9.50395 105.012 9.59865 105.124 9.58924 105.134C9.58007 105.144 9.46738 105.05 9.27164 104.873C9.07701 104.695 8.80256 104.43 8.47051 104.096C7.80732 103.426 6.91956 102.474 5.94611 101.418C4.98616 100.383 4.11807 99.4462 3.44629 98.7224C3.14856 98.4027 2.89489 98.1301 2.68677 97.9064C2.50885 97.7125 2.41511 97.6002 2.42447 97.5906" fill="#DADBD8"/>
<path d="M10.0924 104.966C10.0541 104.928 11.9095 102.985 14.2357 100.627C16.5627 98.2678 18.4796 96.3862 18.5175 96.4242C18.5557 96.4621 16.7011 98.4046 14.3739 100.764C12.0477 103.122 10.1304 105.004 10.0924 104.966" fill="#DADBD8"/>
<path d="M10.0715 119.667C10.0655 119.655 10.1917 119.575 10.4251 119.442C10.696 119.29 11.0273 119.104 11.4173 118.885C12.2545 118.414 13.4088 117.761 14.6562 116.994C15.9059 116.23 17.0134 115.499 17.8113 114.965C18.1833 114.717 18.4994 114.506 18.758 114.334C18.9824 114.186 19.1106 114.109 19.1183 114.12C19.1264 114.131 19.0133 114.228 18.8021 114.395C18.5905 114.562 18.2801 114.797 17.8895 115.078C17.1103 115.643 16.0114 116.393 14.7579 117.16C13.5064 117.929 12.3377 118.566 11.4824 119.006C11.0538 119.225 10.7046 119.397 10.4598 119.509C10.2155 119.622 10.0775 119.679 10.0715 119.667" fill="#DADBD8"/>
<path d="M1.66728 114.522C1.67424 114.511 1.79874 114.57 2.01809 114.687C2.23744 114.804 2.55169 114.979 2.93773 115.198C3.71021 115.637 4.77029 116.254 5.93476 116.947C7.09986 117.64 8.14885 118.277 8.90333 118.745C9.2804 118.98 9.58394 119.173 9.79129 119.309C9.99883 119.446 10.1102 119.527 10.1035 119.539C10.0967 119.55 9.97205 119.491 9.75265 119.374C9.5333 119.258 9.21925 119.083 8.83301 118.864C8.06073 118.424 7.00051 117.807 5.83579 117.114C4.67088 116.421 3.62209 115.785 2.86761 115.316C2.49059 115.081 2.187 114.888 1.97946 114.752C1.77211 114.615 1.66056 114.534 1.66728 114.522Z" fill="#DADBD8"/>
<path d="M0.000225658 127.498C0.00699335 127.486 0.165578 127.564 0.446653 127.714C0.759022 127.886 1.15481 128.104 1.62725 128.365C2.61985 128.923 3.98462 129.704 5.48565 130.577C6.98726 131.451 8.34095 132.251 9.31592 132.839C9.77603 133.121 10.1611 133.357 10.4656 133.543C10.7346 133.713 10.8806 133.813 10.8738 133.825C10.8668 133.836 10.7084 133.759 10.4274 133.609C10.115 133.436 9.7192 133.218 9.2469 132.958C8.25417 132.4 6.8894 131.619 5.38798 130.745C3.88675 129.871 2.53302 129.071 1.55828 128.484C1.09817 128.202 0.712897 127.965 0.408399 127.779C0.139131 127.609 -0.00654203 127.509 0.000225658 127.498" fill="#DADBD8"/>
<path d="M10.6559 133.6C10.6497 133.588 10.8068 133.484 11.0973 133.304C11.42 133.108 11.8339 132.856 12.3302 132.554C13.3708 131.92 14.8055 131.039 16.3621 130.024C17.9208 129.01 19.3081 128.056 20.3078 127.359C20.785 127.028 21.1832 126.751 21.4935 126.536C21.7745 126.343 21.9339 126.241 21.9418 126.251C21.9499 126.263 21.8059 126.384 21.5383 126.597C21.2709 126.808 20.8787 127.109 20.388 127.471C19.4075 128.197 18.0298 129.171 16.4682 130.186C14.9086 131.204 13.4597 132.067 12.4 132.672C11.8694 132.973 11.4372 133.212 11.1348 133.37C10.8327 133.529 10.6628 133.611 10.6559 133.6" fill="#DADBD8"/>
<path d="M276.323 112.52L233.643 122.274L227.068 93.5059L269.748 83.7518L276.323 112.52" fill="#F3F2F1"/>
<path d="M269.964 84.0667C269.975 84.0749 269.867 84.2376 269.654 84.5404C269.414 84.8716 269.099 85.3079 268.704 85.8532C267.838 87.0176 266.63 88.6442 265.146 90.641C262.088 94.6939 257.901 100.241 253.264 106.386L253.167 106.516L253.019 106.445C252.907 106.391 252.787 106.332 252.665 106.274C245.658 102.872 239.317 99.7927 234.681 97.5416C232.417 96.4213 230.572 95.5084 229.25 94.8547C228.641 94.5437 228.153 94.2946 227.783 94.1059C227.449 93.9307 227.277 93.8328 227.283 93.8203C227.289 93.8078 227.473 93.8818 227.818 94.0339C228.196 94.2053 228.695 94.4318 229.318 94.7155C230.652 95.3414 232.516 96.2154 234.803 97.2886C239.452 99.5124 245.811 102.554 252.837 105.916C252.959 105.974 253.08 106.033 253.192 106.087L252.947 106.145C257.622 100.029 261.841 94.5067 264.924 90.4725C266.449 88.507 267.692 86.9062 268.582 85.7601C269.001 85.2335 269.336 84.8121 269.591 84.4924C269.825 84.2054 269.953 84.0581 269.964 84.0667" fill="#DADBD8"/>
<path d="M233.858 122.588C233.761 122.538 236.068 117.861 239.013 112.144C241.959 106.424 244.425 101.829 244.522 101.88C244.62 101.93 242.312 106.605 239.367 112.325C236.422 118.043 233.955 122.639 233.858 122.588" fill="#DADBD8"/>
<path d="M258.627 98.2779C258.696 98.1929 262.763 101.383 267.708 105.402C272.655 109.422 276.608 112.75 276.539 112.835C276.469 112.92 272.405 109.731 267.457 105.71C262.512 101.691 258.558 98.3633 258.627 98.2779" fill="#DADBD8"/>
<path d="M100.866 28.3105L75.7148 22.5019L79.63 5.54904L104.781 11.3572L100.866 28.3105" fill="#F3F2F1"/>
<path d="M104.814 11.5795C104.818 11.5867 104.719 11.6457 104.528 11.7513C104.316 11.865 104.036 12.0153 103.686 12.2029C102.928 12.5985 101.868 13.15 100.567 13.8277C97.9018 15.1908 94.2534 17.0565 90.2125 19.1228L90.1271 19.1665L90.0676 19.0911C90.022 19.0335 89.9725 18.9711 89.9231 18.9087C87.0816 15.3012 84.5099 12.0364 82.6298 9.64899C81.7174 8.47208 80.9734 7.51308 80.4411 6.82624C80.1973 6.50417 80.0024 6.24643 79.8551 6.05156C79.7231 5.87252 79.6568 5.77652 79.6636 5.77124C79.6698 5.76645 79.748 5.85284 79.892 6.02227C80.048 6.21042 80.2544 6.45906 80.5122 6.7696C81.0593 7.44493 81.823 8.38857 82.7599 9.54628C84.6539 11.9226 87.2443 15.1721 90.1069 18.7633C90.1564 18.8257 90.2053 18.8881 90.2514 18.9457L90.1064 18.9135C94.1598 16.8717 97.8192 15.0276 100.493 13.6808C101.807 13.0309 102.879 12.5015 103.645 12.1223C104.003 11.951 104.29 11.8137 104.507 11.7095C104.705 11.6174 104.811 11.5723 104.814 11.5795Z" fill="#DADBD8"/>
<path d="M75.7485 22.7241C75.7096 22.6722 78.1374 20.7854 81.1708 18.5099C84.2052 16.2333 86.6954 14.4305 86.7342 14.4828C86.7731 14.5342 84.3459 16.421 81.3115 18.6971C78.278 20.9726 75.7874 22.7759 75.7485 22.7241Z" fill="#DADBD8"/>
<path d="M95.1431 16.2012C95.2021 16.1738 96.5384 18.9126 98.1276 22.317C99.7173 25.723 100.958 28.5054 100.899 28.5323C100.841 28.5596 99.5047 25.8218 97.915 22.4159C96.3258 19.0114 95.0845 16.2285 95.1431 16.2012Z" fill="#DADBD8"/>
<path d="M244.38 22.1663L226.003 30.0634L220.68 17.6771L239.057 9.77954L244.38 22.1663" fill="#F3F2F1"/>
<path d="M239.181 9.9034C239.186 9.90628 239.151 9.98788 239.08 10.142C239 10.3104 238.894 10.5322 238.761 10.8101C238.468 11.4048 238.059 12.2351 237.557 13.2546C236.516 15.3276 235.091 18.1653 233.514 21.3086L233.48 21.3749L233.408 21.3547C233.354 21.3398 233.294 21.3235 233.235 21.3077C229.806 20.3554 226.703 19.4938 224.434 18.8641C223.325 18.5468 222.42 18.2881 221.773 18.1033C221.473 18.0136 221.233 17.9421 221.051 17.8878C220.887 17.8365 220.802 17.8067 220.804 17.8005C220.805 17.7947 220.894 17.8125 221.061 17.8523C221.245 17.8984 221.488 17.9594 221.792 18.0352C222.443 18.207 223.352 18.4465 224.468 18.7398C226.741 19.357 229.848 20.2004 233.283 21.132C233.343 21.1483 233.402 21.1651 233.456 21.18L233.351 21.2266C234.948 18.0928 236.39 15.2638 237.443 13.197C237.966 12.1881 238.393 11.3669 238.699 10.7784C238.844 10.5072 238.96 10.2898 239.048 10.1256C239.129 9.97684 239.175 9.90052 239.181 9.9034" fill="#DADBD8"/>
<path d="M226.127 30.1872C226.079 30.1728 226.73 27.881 227.583 25.0692C228.436 22.2566 229.166 19.9887 229.214 20.0031C229.262 20.018 228.609 22.3089 227.757 25.1221C226.905 27.9338 226.174 30.2016 226.127 30.1872" fill="#DADBD8"/>
<path d="M235.256 17.2231C235.28 17.1789 237.369 18.278 239.923 19.6767C242.477 21.0763 244.527 22.246 244.503 22.2902C244.479 22.3339 242.389 21.2357 239.836 19.8361C237.283 18.4374 235.231 17.2672 235.256 17.2231" fill="#DADBD8"/>
<path d="M286.168 169.188C286.168 169.25 282.222 169.301 277.355 169.301C272.486 169.301 268.541 169.25 268.541 169.188C268.541 169.126 272.486 169.076 277.355 169.076C282.222 169.076 286.168 169.126 286.168 169.188Z" fill="#FAFAF9"/>
<path d="M285.9 171.342C285.9 171.404 282.201 171.455 277.638 171.455C273.074 171.455 269.375 171.404 269.375 171.342C269.375 171.281 273.074 171.23 277.638 171.23C282.201 171.23 285.9 171.281 285.9 171.342Z" fill="#FAFAF9"/>
<path d="M232.826 174.84H62.2497C58.3882 174.84 55.2578 171.709 55.2578 167.848V59.7846C55.2578 55.9227 58.3882 52.7923 62.2497 52.7923H232.826C236.687 52.7923 239.817 55.9227 239.817 59.7846V167.848C239.817 171.709 236.687 174.84 232.826 174.84" fill="#33535F"/>
<path d="M239.459 177.637H56.5881C51.8704 177.637 48.0454 173.812 48.0454 169.094V166.958H248.002V169.094C248.002 173.812 244.177 177.637 239.459 177.637Z" fill="#33535F"/>
<path d="M60.2124 160.709H234.347V57.6416H60.2124V160.709Z" fill="#17282F"/>
<path d="M129.344 165.813L131.825 169.76H166.74L169.045 165.813H129.344Z" fill="#17282F"/>
<path d="M229.548 160.379H65.3698C64.5025 160.379 63.7988 159.675 63.7988 158.807V62.7014C63.7988 61.8341 64.502 61.1304 65.3698 61.1304H229.548C230.415 61.1304 231.119 61.8336 231.119 62.7014V158.808C231.119 159.676 230.415 160.379 229.548 160.379Z" fill="#89C0F1"/>
<path d="M230.94 160.524H63.6196L63.7987 68.5476H230.94V160.524Z" fill="#3A5987"/>
<path d="M77.5216 64.9635C77.5216 65.7013 76.9231 66.2998 76.1849 66.2998C75.4472 66.2998 74.8491 65.7013 74.8491 64.9635C74.8491 64.2253 75.4472 63.6273 76.1849 63.6273C76.9231 63.6273 77.5216 64.2253 77.5216 64.9635Z" fill="#17282F"/>
<path d="M69.4225 64.9635C69.4225 65.7013 68.8245 66.2998 68.0863 66.2998C67.3485 66.2998 66.75 65.7013 66.75 64.9635C66.75 64.2253 67.3485 63.6273 68.0863 63.6273C68.8245 63.6273 69.4225 64.2253 69.4225 64.9635Z" fill="#17282F"/>
<path d="M73.3107 64.9635C73.3107 65.7013 72.7126 66.2998 71.9744 66.2998C71.2362 66.2998 70.6377 65.7013 70.6377 64.9635C70.6377 64.2253 71.2362 63.6273 71.9744 63.6273C72.7126 63.6273 73.3107 64.2253 73.3107 64.9635Z" fill="#17282F"/>
<path d="M238.231 165.813C238.231 165.879 197.268 165.933 146.749 165.933C96.2124 165.933 55.2578 165.879 55.2578 165.813C55.2578 165.747 96.2124 165.694 146.749 165.694C197.268 165.694 238.231 165.747 238.231 165.813Z" fill="#17282F"/>
<path d="M117.377 104.477L185.45 103.841L187.444 150.119L116.955 149.612L117.377 104.477Z" fill="#89C0F1"/>
<path d="M117.378 104.477L149.541 78.341C150.903 77.2346 152.855 77.2366 154.214 78.3463L185.45 103.841L117.378 104.477" fill="#F3F2F1"/>
<path d="M117.378 104.477L149.541 78.341C150.221 77.7885 151.048 77.5126 151.874 77.5126C152.704 77.5126 153.534 77.7905 154.214 78.3463L185.45 103.841L117.378 104.477" fill="#89C0F1"/>
<path d="M116.955 149.612C116.87 149.532 122.307 143.571 129.098 136.298C135.891 129.023 141.465 123.191 141.55 123.27C141.636 123.35 136.199 129.31 129.406 136.585C122.615 143.858 117.04 149.691 116.955 149.612Z" fill="#17282F"/>
<path d="M187.444 150.119C187.357 150.197 182.037 144.377 175.564 137.123C169.088 129.867 163.91 123.924 163.998 123.846C164.085 123.769 169.403 129.586 175.879 136.843C182.352 144.097 187.531 150.042 187.444 150.119" fill="#17282F"/>
<path d="M151.324 131.22L141.441 123.434C141.521 123.333 141.559 123.278 141.551 123.27C141.55 123.27 141.55 123.27 141.548 123.27C141.535 123.27 141.481 123.312 141.392 123.395L117.378 104.477L185.45 103.841L151.324 131.22" fill="#7E1C2C"/>
<path d="M141.441 123.433L141.392 123.395C141.48 123.313 141.533 123.271 141.547 123.271C141.548 123.271 141.548 123.271 141.549 123.272C141.557 123.279 141.519 123.334 141.441 123.433" fill="#0A1013"/>
<path d="M120.811 106.999L120.661 85.738L180.267 84.9095L180.985 107.278L151.32 130.863L120.811 106.999" fill="#FAFAF9"/>
<path d="M120.812 106.999C120.812 106.999 121.008 107.141 121.377 107.423C121.749 107.71 122.293 108.129 123.002 108.677C124.426 109.782 126.509 111.4 129.172 113.467C134.493 117.615 142.123 123.563 151.384 130.781L151.257 130.782C159.801 123.981 169.939 115.912 180.909 107.181L180.862 107.282C180.725 103.014 180.58 98.538 180.433 93.9821C180.335 90.9155 180.238 87.8849 180.143 84.9134L180.269 85.0338C156.251 85.3497 135.062 85.6285 120.662 85.8181L120.741 85.7375C120.772 92.4221 120.796 97.7307 120.813 101.375C120.817 103.194 120.82 104.596 120.822 105.55C120.821 106.022 120.82 106.381 120.819 106.629C120.818 106.872 120.812 106.999 120.812 106.999C120.812 106.999 120.804 106.879 120.799 106.64C120.795 106.393 120.789 106.036 120.781 105.569C120.77 104.617 120.753 103.218 120.731 101.404C120.696 97.7533 120.645 92.4351 120.581 85.7385L120.581 85.6588L120.66 85.6578C135.06 85.4471 156.248 85.1366 180.265 84.7852L180.388 84.7833L180.391 84.9057C180.487 87.8763 180.585 90.9073 180.683 93.9739C180.829 98.5299 180.972 103.006 181.109 107.274L181.111 107.336L181.062 107.375C170.083 116.094 159.936 124.151 151.384 130.943L151.321 130.993L151.257 130.943C142.008 123.684 134.388 117.703 129.073 113.532C126.43 111.449 124.361 109.819 122.948 108.705C122.25 108.152 121.715 107.727 121.349 107.437C120.99 107.15 120.812 106.999 120.812 106.999" fill="#17282F"/>
<path d="M170.869 95.6337C170.869 95.7028 161.754 95.8329 150.511 95.9246C139.265 96.0162 130.15 96.0345 130.15 95.9658C130.149 95.8963 139.263 95.7662 150.509 95.6745C161.751 95.5833 170.868 95.5646 170.869 95.6337Z" fill="#17282F"/>
<path d="M170.881 101.639C170.882 101.708 161.766 101.838 150.523 101.93C139.277 102.022 130.163 102.04 130.162 101.971C130.161 101.902 139.275 101.772 150.521 101.68C161.764 101.588 170.88 101.57 170.881 101.639" fill="#17282F"/>
<path d="M170.895 108.561C170.896 108.63 161.78 108.761 150.538 108.852C139.292 108.944 130.177 108.962 130.177 108.893C130.176 108.824 139.29 108.693 150.536 108.602C161.778 108.51 170.895 108.492 170.895 108.561Z" fill="#17282F"/>
<path d="M170.91 115.483C170.91 115.552 162.214 115.679 151.488 115.766C140.759 115.854 132.063 115.868 132.063 115.799C132.062 115.73 140.756 115.604 151.486 115.516C162.211 115.428 170.909 115.414 170.91 115.483" fill="#17282F"/>
<path d="M163.298 121.575C163.298 121.583 163.216 121.592 163.06 121.602C162.874 121.61 162.649 121.619 162.375 121.631C161.742 121.647 160.891 121.668 159.857 121.694C157.695 121.733 154.776 121.786 151.55 121.844C148.304 121.905 145.365 121.925 143.239 121.923C142.204 121.915 141.353 121.91 140.72 121.905C140.446 121.899 140.22 121.893 140.035 121.888C139.878 121.881 139.796 121.874 139.796 121.865C139.796 121.856 139.878 121.847 140.034 121.838C140.22 121.829 140.446 121.82 140.719 121.808C141.352 121.793 142.203 121.771 143.237 121.745C145.399 121.706 148.318 121.653 151.545 121.595C154.79 121.534 157.729 121.515 159.855 121.517C160.889 121.524 161.741 121.529 162.374 121.534C162.648 121.541 162.874 121.546 163.059 121.551C163.216 121.558 163.298 121.565 163.298 121.575" fill="#17282F"/>
<path d="M155.637 127.43C155.637 127.499 153.694 127.559 151.297 127.564C148.899 127.569 146.956 127.517 146.956 127.448C146.955 127.379 148.899 127.319 151.296 127.314C153.693 127.309 155.637 127.361 155.637 127.43" fill="#17282F"/>
<path d="M163.669 84.7219C163.738 84.7291 163.767 85.0027 163.734 85.3319C163.702 85.6612 163.62 85.9232 163.551 85.917C163.482 85.9108 163.453 85.6377 163.486 85.307C163.518 84.9767 163.6 84.7147 163.669 84.7219" fill="#17282F"/>
<path d="M164.308 80.0469C164.376 80.0584 164.352 80.5893 164.254 81.232C164.156 81.8751 164.021 82.3887 163.952 82.3796C163.884 82.3705 163.908 81.8401 164.007 81.1945C164.105 80.5489 164.24 80.0354 164.308 80.0469Z" fill="#17282F"/>
<path d="M165.251 75.4237C165.318 75.4401 165.258 75.968 165.117 76.6026C164.976 77.2371 164.808 77.7406 164.739 77.7272C164.672 77.7137 164.731 77.1862 164.873 76.5483C165.014 75.9109 165.184 75.4069 165.251 75.4237Z" fill="#17282F"/>
<path d="M166.53 70.8817C166.595 70.9033 166.496 71.4255 166.308 72.0471C166.12 72.6696 165.913 73.1587 165.846 73.1405C165.78 73.1218 165.879 72.6 166.069 71.9751C166.258 71.3497 166.464 70.8601 166.53 70.8817Z" fill="#17282F"/>
<path d="M168.176 66.4606C168.24 66.4875 168.097 66.9991 167.857 67.603C167.616 68.2068 167.369 68.6772 167.305 68.6536C167.24 68.6296 167.383 68.118 167.624 67.5108C167.866 66.9036 168.113 66.4333 168.176 66.4606Z" fill="#17282F"/>
<path d="M170.221 62.2133C170.282 62.2464 170.091 62.7417 169.796 63.3192C169.5 63.8971 169.209 64.3415 169.148 64.3118C169.085 64.282 169.276 63.7871 169.573 63.2054C169.87 62.6242 170.161 62.1797 170.221 62.2133" fill="#17282F"/>
<path d="M172.689 58.1916C172.746 58.2314 172.497 58.7003 172.136 59.2403C171.789 59.7899 171.46 60.2065 171.401 60.1705C171.342 60.135 171.577 59.6574 171.927 59.104C172.29 58.5602 172.632 58.1522 172.689 58.1916Z" fill="#17282F"/>
<path d="M175.595 54.477C175.647 54.5226 175.352 54.9647 174.938 55.4643C174.523 55.9635 174.142 56.3341 174.088 56.2918C174.033 56.2496 174.328 55.8075 174.746 55.3045C175.163 54.8015 175.544 54.4309 175.595 54.477Z" fill="#17282F"/>
<path d="M178.921 51.1315C178.967 51.1834 178.622 51.5875 178.151 52.0334C177.679 52.4798 177.257 52.8023 177.208 52.7538C177.159 52.7058 177.504 52.3017 177.979 51.852C178.453 51.4022 178.876 51.0797 178.921 51.1315Z" fill="#17282F"/>
<path d="M182.635 48.2239C182.673 48.281 182.281 48.6381 181.757 49.0216C181.233 49.4056 180.774 49.672 180.731 49.6182C180.689 49.564 181.082 49.2069 181.609 48.82C182.137 48.4336 182.596 48.1668 182.635 48.2239" fill="#17282F"/>
<path d="M186.702 45.8345C186.732 45.8969 186.295 46.1974 185.724 46.5065C185.153 46.8156 184.662 47.0182 184.627 46.9586C184.591 46.8996 185.029 46.5987 185.605 46.2867C186.181 45.9752 186.672 45.7726 186.702 45.8345Z" fill="#17282F"/>
<path d="M191.071 44.0586C191.091 44.1244 190.614 44.3572 190.005 44.5789C189.395 44.7997 188.88 44.9279 188.853 44.864C188.827 44.8002 189.304 44.5669 189.92 44.3437C190.534 44.1201 191.05 43.9924 191.071 44.0586Z" fill="#17282F"/>
<path d="M195.662 42.9892C195.672 43.0583 195.16 43.1975 194.522 43.3079C193.888 43.4423 193.36 43.4966 193.345 43.4294C193.328 43.3622 193.834 43.198 194.475 43.0627C195.121 42.9508 195.653 42.9215 195.662 42.9892" fill="#17282F"/>
<path d="M200.369 42.7296C200.367 42.7987 199.839 42.8606 199.192 42.8678C198.544 42.875 198.015 42.8251 198.01 42.756C198.006 42.6873 198.533 42.6254 199.189 42.6177C199.844 42.6105 200.372 42.6605 200.369 42.7296" fill="#17282F"/>
<path d="M205.052 43.2815C205.038 43.3492 204.507 43.3199 203.868 43.2167C203.228 43.1135 202.715 42.9739 202.723 42.9052C202.73 42.8371 203.261 42.8659 203.908 42.97C204.554 43.0746 205.067 43.2138 205.052 43.2815Z" fill="#17282F"/>
<path d="M209.569 44.6298C209.544 44.6936 209.027 44.5736 208.414 44.3615C207.802 44.1488 207.321 43.9228 207.34 43.8565C207.36 43.7903 207.877 43.9103 208.496 44.1253C209.115 44.3399 209.596 44.5659 209.569 44.6298Z" fill="#17282F"/>
<path d="M213.769 46.771C213.732 46.8291 213.246 46.6155 212.683 46.2949C212.12 45.9738 211.689 45.6637 211.72 45.6018C211.751 45.5399 212.237 45.753 212.807 46.0779C213.376 46.4029 213.807 46.7129 213.769 46.771Z" fill="#17282F"/>
<path d="M217.467 49.6907C217.418 49.7396 216.984 49.4334 216.497 49.0067C216.011 48.5795 215.651 48.1893 215.693 48.1346C215.735 48.0803 216.169 48.3866 216.662 48.8185C217.155 49.2515 217.515 49.6417 217.467 49.6907Z" fill="#17282F"/>
<path d="M219.798 52.3781C219.742 52.4184 219.533 52.2403 219.332 51.9807C219.131 51.7205 219.01 51.4738 219.064 51.4297C219.117 51.386 219.326 51.5636 219.53 51.8276C219.734 52.0911 219.854 52.3378 219.798 52.3781" fill="#17282F"/>
<path d="M241.994 81.2972C241.967 81.3605 241.456 81.1853 240.853 80.905C240.25 80.6252 239.786 80.3478 239.817 80.2863C239.848 80.2244 240.359 80.4001 240.958 80.678C241.557 80.9564 242.021 81.2338 241.994 81.2972Z" fill="#17282F"/>
<path d="M246.526 82.874C246.509 82.9407 245.979 82.837 245.342 82.6426C244.705 82.4482 244.208 82.2375 244.231 82.1727C244.254 82.1075 244.785 82.2111 245.415 82.4036C246.045 82.5961 246.543 82.8068 246.526 82.874Z" fill="#17282F"/>
<path d="M251.259 83.6289C251.255 83.6975 250.715 83.6947 250.053 83.6217C249.39 83.5487 248.863 83.4345 248.874 83.3664C248.886 83.2982 249.426 83.3016 250.08 83.3736C250.735 83.4456 251.263 83.5598 251.259 83.6289Z" fill="#17282F"/>
<path d="M256.05 83.4797C256.059 83.5478 255.527 83.6443 254.864 83.6947C254.2 83.7446 253.66 83.7288 253.658 83.6601C253.656 83.591 254.187 83.495 254.845 83.4451C255.503 83.3957 256.043 83.411 256.05 83.4797" fill="#17282F"/>
<path d="M260.765 82.5961C260.784 82.6628 260.273 82.8452 259.625 83.0036C258.975 83.1428 258.435 83.186 258.423 83.1202C258.41 83.0501 258.927 82.897 259.572 82.7588C260.211 82.6028 260.745 82.5298 260.765 82.5961" fill="#17282F"/>
<path d="M265.22 80.8288C265.252 80.8898 264.788 81.1653 264.182 81.4441C263.576 81.7225 263.064 81.8963 263.04 81.832C263.015 81.7672 263.479 81.4921 264.077 81.2166C264.675 80.9421 265.187 80.7683 265.22 80.8288Z" fill="#17282F"/>
<path d="M269.196 78.1548C269.241 78.2062 268.867 78.6021 268.334 79.0034C267.802 79.4061 267.319 79.6567 267.281 79.6C267.243 79.5415 267.658 79.2011 268.184 78.8042C268.709 78.4077 269.15 78.102 269.196 78.1548" fill="#17282F"/>
<path d="M272.46 74.6505C272.515 74.6894 272.248 75.1646 271.822 75.6791C271.397 76.1951 270.983 76.5483 270.934 76.5013C270.883 76.4533 271.211 76.028 271.629 75.5202C272.048 75.0134 272.403 74.6102 272.46 74.6505Z" fill="#17282F"/>
<path d="M274.708 70.4267C274.773 70.4488 274.647 70.9801 274.374 71.5906C274.102 72.2021 273.791 72.6504 273.732 72.6173C273.67 72.5837 273.879 72.0893 274.146 71.4889C274.414 70.8889 274.643 70.4036 274.708 70.4267" fill="#17282F"/>
<path d="M275.595 65.731C275.662 65.731 275.718 66.2749 275.649 66.9416C275.582 67.6087 275.416 68.1305 275.35 68.1165C275.281 68.1021 275.335 67.5694 275.401 66.9166C275.467 66.2638 275.524 65.731 275.595 65.731" fill="#17282F"/>
<path d="M274.903 61.0004C274.967 60.9793 275.188 61.4784 275.336 62.1312C275.486 62.784 275.503 63.3297 275.436 63.3384C275.366 63.348 275.239 62.8272 275.092 62.1869C274.947 61.5466 274.836 61.022 274.903 61.0004" fill="#17282F"/>
<path d="M272.816 56.6969C272.872 56.6571 273.232 57.0679 273.568 57.6468C273.905 58.2252 274.085 58.7407 274.024 58.769C273.96 58.7992 273.683 58.3399 273.352 57.7725C273.022 57.2042 272.759 56.7372 272.816 56.6969Z" fill="#17282F"/>
<path d="M269.486 53.2732C269.525 53.2171 270.004 53.482 270.509 53.9217C271.016 54.3604 271.347 54.7952 271.298 54.8408C271.247 54.8893 270.842 54.5394 270.345 54.1108C269.851 53.6803 269.446 53.3308 269.486 53.2732" fill="#17282F"/>
<path d="M265.134 51.324C265.146 51.2578 265.693 51.3077 266.332 51.5189C266.97 51.7286 267.44 52.0123 267.411 52.0733C267.381 52.1376 266.876 51.9605 266.253 51.7565C265.632 51.5501 265.12 51.3931 265.134 51.324Z" fill="#17282F"/>
<path d="M260.374 51.4032C260.356 51.3379 260.869 51.1411 261.537 51.0552C262.204 50.9669 262.75 51.0235 262.75 51.0907C262.75 51.1618 262.218 51.217 261.569 51.3029C260.92 51.3864 260.392 51.4714 260.374 51.4032Z" fill="#17282F"/>
<path d="M256.238 53.7191C256.188 53.6754 256.518 53.2291 257.059 52.822C257.598 52.4131 258.112 52.211 258.142 52.2701C258.175 52.3334 257.728 52.6272 257.209 53.0212C256.688 53.4129 256.29 53.7676 256.238 53.7191Z" fill="#17282F"/>
<path d="M254.339 58.026C254.273 58.0231 254.246 57.4702 254.408 56.8126C254.567 56.1536 254.852 55.6765 254.912 55.7062C254.976 55.736 254.803 56.2395 254.651 56.8721C254.495 57.5038 254.41 58.0303 254.339 58.026" fill="#17282F"/>
<path d="M255.275 62.6793C255.217 62.7115 254.911 62.2517 254.691 61.6138C254.469 60.9759 254.425 60.4263 254.491 60.4148C254.561 60.4013 254.712 60.9144 254.927 61.5317C255.14 62.1499 255.339 62.6467 255.275 62.6793Z" fill="#17282F"/>
<path d="M258.413 66.2494C258.376 66.3051 257.892 66.0459 257.388 65.5995C256.883 65.1546 256.568 64.7034 256.62 64.6597C256.674 64.6137 257.063 64.9799 257.554 65.4123C258.043 65.8462 258.453 66.1909 258.413 66.2494Z" fill="#17282F"/>
<path d="M262.769 68.2015C262.754 68.2673 262.212 68.1967 261.579 67.9798C260.944 67.7647 260.473 67.4868 260.502 67.4254C260.531 67.3615 261.038 67.5324 261.659 67.7436C262.28 67.9562 262.785 68.1333 262.769 68.2015Z" fill="#17282F"/>
<path d="M267.531 68.6546C267.536 68.7228 266.998 68.8111 266.329 68.7962C265.66 68.7832 265.126 68.6714 265.134 68.6037C265.141 68.5341 265.677 68.5336 266.334 68.5461C266.991 68.561 267.527 68.585 267.531 68.6546Z" fill="#17282F"/>
<path d="M272.235 67.7834C272.257 67.8477 271.761 68.0728 271.114 68.237C270.467 68.4031 269.924 68.4415 269.912 68.3748C269.9 68.3056 270.415 68.1583 271.052 67.9951C271.689 67.8333 272.213 67.7167 272.235 67.7834Z" fill="#17282F"/>
<path d="M276.589 65.7891C276.625 65.8482 276.176 66.1486 275.586 66.4606C274.997 66.7721 274.496 66.9737 274.468 66.9104C274.44 66.8475 274.888 66.547 275.47 66.2393C276.051 65.9317 276.553 65.7306 276.589 65.7891" fill="#17282F"/>
<path d="M280.436 62.9299C280.483 62.9808 280.103 63.3652 279.588 63.7876C279.073 64.211 278.622 64.5081 278.581 64.4524C278.54 64.3972 278.92 64.0127 279.429 63.5947C279.939 63.1766 280.389 62.879 280.436 62.9299Z" fill="#17282F"/>
<path d="M283.705 59.4218C283.76 59.464 283.453 59.9085 283.02 60.4148C282.588 60.9217 282.196 61.2937 282.145 61.2462C282.096 61.1986 282.402 60.7537 282.83 60.2526C283.259 59.7515 283.65 59.3795 283.705 59.4218" fill="#17282F"/>
<path d="M286.343 55.4168C286.404 55.4495 286.175 55.9386 285.832 56.5097C285.489 57.0804 285.164 57.5119 285.107 57.474C285.049 57.4356 285.278 56.946 285.618 56.3806C285.958 55.8157 286.283 55.3842 286.343 55.4168Z" fill="#17282F"/>
<path d="M288.29 51.0317C288.355 51.0548 288.211 51.5755 287.968 52.1952C287.731 52.8168 287.472 53.2919 287.404 53.2617C287.345 53.2358 287.5 52.7193 287.736 52.1026C287.977 51.4882 288.225 51.0087 288.29 51.0317" fill="#17282F"/>
<path d="M289.631 46.4259C289.699 46.4412 289.618 46.9754 289.451 47.6191C289.284 48.2627 289.096 48.7686 289.029 48.749C288.963 48.7293 289.043 48.1955 289.209 47.5557C289.375 46.9169 289.564 46.411 289.631 46.4259Z" fill="#17282F"/>
<path d="M290.472 41.7024C290.54 41.711 290.515 42.2505 290.414 42.9071C290.313 43.5642 290.177 44.0864 290.108 44.074C290.041 44.062 290.067 43.5225 290.167 42.8692C290.267 42.216 290.404 41.6938 290.472 41.7024Z" fill="#17282F"/>
<path d="M290.914 36.9237C290.983 36.9276 290.999 37.4676 290.949 38.1295C290.9 38.7918 290.804 39.3236 290.736 39.3169C290.667 39.3102 290.651 38.7707 290.701 38.1107C290.749 37.4512 290.845 36.9199 290.914 36.9237" fill="#17282F"/>
<path d="M291.066 32.1278C291.136 32.1288 291.181 32.6668 291.168 33.3302C291.155 33.994 291.089 34.5296 291.02 34.5277C290.951 34.5253 290.905 33.9868 290.918 33.3254C290.931 32.6635 290.997 32.1278 291.066 32.1278Z" fill="#17282F"/>
<path d="M291.032 27.3285C291.101 27.3271 291.165 27.8637 291.174 28.5265C291.184 29.1898 291.135 29.7279 291.066 29.7279C290.997 29.7289 290.934 29.1923 290.924 28.5299C290.914 27.868 290.963 27.3299 291.032 27.3285Z" fill="#17282F"/>
<path d="M290.961 24.3766C291.029 24.3747 291.089 24.4966 291.093 24.6488C291.097 24.8009 291.044 24.9262 290.975 24.9281C290.906 24.9301 290.847 24.8081 290.843 24.6555C290.839 24.5034 290.891 24.3786 290.961 24.3766" fill="#17282F"/>
<path d="M303.865 32.1297L271.239 35.6729L268.851 13.6823L301.478 10.1386L303.865 32.1297" fill="#F3F2F1"/>
<path d="M268.865 13.6923L271.25 35.6599L303.853 32.1191L301.467 10.1515L268.865 13.6923ZM271.229 35.6863L271.228 35.6743L268.838 13.6712L268.85 13.6702L301.488 10.1256L301.489 10.1371L303.879 32.1403L303.867 32.1417L271.229 35.6863Z" fill="#17282F"/>
<path d="M301.611 10.3915C301.618 10.3987 301.524 10.511 301.339 10.7174C301.132 10.943 300.858 11.2401 300.517 11.6121C299.771 12.4036 298.73 13.5094 297.452 14.8668C294.821 17.6181 291.221 21.383 287.233 25.554L287.149 25.6418L287.046 25.5761C286.967 25.5267 286.882 25.4724 286.797 25.4182C281.876 22.2748 277.424 19.43 274.168 17.3497C272.58 16.3188 271.286 15.4783 270.359 14.8764C269.932 14.5913 269.591 14.3638 269.332 14.191C269.099 14.0317 268.979 13.9438 268.985 13.9352C268.99 13.9261 269.121 13.9971 269.364 14.1401C269.63 14.3009 269.982 14.5131 270.422 14.7785C271.36 15.3607 272.672 16.1743 274.281 17.1722C277.548 19.2332 282.018 22.0521 286.956 25.1667C287.042 25.2209 287.127 25.2751 287.205 25.3251L287.018 25.3471C291.031 21.2006 294.654 17.4568 297.301 14.7219C298.607 13.3914 299.672 12.3081 300.434 11.5319C300.792 11.1768 301.079 10.8921 301.296 10.6761C301.495 10.4827 301.604 10.3848 301.611 10.3915" fill="#17282F"/>
<path d="M271.372 35.9263C271.304 35.8803 273.43 32.5991 276.12 28.599C278.811 24.5974 281.048 21.3912 281.116 21.4373C281.184 21.4833 279.059 24.7635 276.367 28.7651C273.677 32.7657 271.44 35.9719 271.372 35.9263" fill="#17282F"/>
<path d="M291.932 19.9844C291.991 19.9268 294.74 22.6564 298.072 26.0796C301.404 29.5043 304.058 32.3256 303.999 32.3832C303.94 32.4403 301.191 29.7116 297.858 26.2874C294.526 22.8642 291.873 20.042 291.932 19.9844" fill="#17282F"/>
<path d="M152.491 76.8133C152.56 76.8017 152.66 77.0576 152.715 77.3844C152.77 77.7118 152.76 77.9863 152.692 77.9974C152.624 78.0089 152.524 77.7535 152.469 77.4262C152.413 77.0993 152.424 76.8248 152.491 76.8133" fill="#17282F"/>
<path d="M151.724 72.1301C151.791 72.1196 151.931 72.6351 152.036 73.2816C152.14 73.9281 152.169 74.4614 152.101 74.4729C152.033 74.4839 151.893 73.9685 151.789 73.3214C151.685 72.6744 151.655 72.1412 151.724 72.1301Z" fill="#17282F"/>
<path d="M151.038 67.435C151.106 67.4259 151.236 67.9443 151.326 68.5923C151.417 69.2407 151.435 69.7744 151.366 69.7845C151.298 69.7946 151.169 69.2767 151.079 68.6268C150.988 67.9774 150.97 67.4437 151.038 67.435" fill="#17282F"/>
<path d="M150.498 62.7202C150.567 62.7139 150.678 63.2366 150.747 63.887C150.815 64.5378 150.815 65.0721 150.746 65.0797C150.678 65.0879 150.567 64.5657 150.498 63.9134C150.429 63.2606 150.43 62.7269 150.498 62.7202" fill="#17282F"/>
<path d="M150.169 57.9866C150.238 57.9837 150.324 58.5112 150.361 59.164C150.398 59.8172 150.372 60.3505 150.303 60.3557C150.234 60.3605 150.149 59.8335 150.111 59.1779C150.074 58.5227 150.1 57.9895 150.169 57.9866Z" fill="#17282F"/>
<path d="M150.118 53.2401C150.187 53.242 150.239 53.7738 150.236 54.428C150.232 55.0827 150.173 55.614 150.104 55.615C150.035 55.6159 149.982 55.0841 149.986 54.4266C149.989 53.7695 150.048 53.2381 150.118 53.2401Z" fill="#17282F"/>
<path d="M150.416 48.5071C150.485 48.5147 150.496 49.0485 150.442 49.6998C150.388 50.3511 150.288 50.8758 150.219 50.8714C150.15 50.8676 150.139 50.3339 150.193 49.6787C150.248 49.0245 150.347 48.4994 150.416 48.5071Z" fill="#17282F"/>
<path d="M151.13 43.8167C151.198 43.8306 151.16 44.3634 151.047 45.0066C150.933 45.6502 150.785 46.1638 150.717 46.1537C150.649 46.1436 150.686 45.6109 150.8 44.9634C150.915 44.3159 151.062 43.8023 151.13 43.8167Z" fill="#17282F"/>
<path d="M152.34 39.2305C152.405 39.2526 152.308 39.7777 152.121 40.4031C151.935 41.029 151.73 41.5219 151.663 41.5046C151.596 41.4873 151.694 40.9627 151.881 40.332C152.07 39.7018 152.274 39.2084 152.34 39.2305Z" fill="#17282F"/>
<path d="M154.114 34.832C154.177 34.8617 154.014 35.3705 153.751 35.9681C153.488 36.5657 153.223 37.0288 153.159 37.0034C153.094 36.978 153.257 36.4692 153.522 35.8673C153.787 35.2654 154.052 34.8017 154.114 34.832" fill="#17282F"/>
<path d="M156.429 30.6922C156.487 30.7301 156.261 31.2139 155.924 31.7726C155.587 32.3318 155.265 32.758 155.205 32.7249C155.145 32.6913 155.37 32.2075 155.71 31.644C156.049 31.08 156.371 30.6543 156.429 30.6922" fill="#17282F"/>
<path d="M159.275 26.898C159.327 26.9431 159.037 27.3919 158.628 27.8997C158.218 28.408 157.841 28.7862 157.786 28.7454C157.73 28.7041 158.02 28.2558 158.433 27.7427C158.846 27.2306 159.223 26.8519 159.275 26.898Z" fill="#17282F"/>
<path d="M162.647 23.5631C162.69 23.6159 162.337 24.0162 161.855 24.4558C161.374 24.896 160.945 25.2132 160.896 25.1643C160.847 25.1158 161.201 24.716 161.687 24.2715C162.172 23.827 162.602 23.5098 162.647 23.5631Z" fill="#17282F"/>
<path d="M166.525 20.8364C166.559 20.8968 166.141 21.2299 165.592 21.5803C165.043 21.9307 164.565 22.1692 164.525 22.1131C164.485 22.0569 164.902 21.7243 165.458 21.3696C166.013 21.0154 166.491 20.7764 166.525 20.8364Z" fill="#17282F"/>
<path d="M170.846 18.891C170.867 18.9567 170.393 19.2025 169.787 19.44C169.181 19.6767 168.666 19.8183 168.636 19.7554C168.608 19.693 169.082 19.4473 169.696 19.2068C170.31 18.9668 170.825 18.8257 170.846 18.891" fill="#17282F"/>
<path d="M174.312 18.0376C174.323 18.1057 174.07 18.2108 173.747 18.2723C173.424 18.3337 173.15 18.3294 173.135 18.2617C173.121 18.1945 173.373 18.0894 173.7 18.027C174.028 17.9646 174.302 17.9694 174.312 18.0376Z" fill="#17282F"/>
<path d="M173.388 35.3182L140.106 22.4486L148.781 0.0153418L182.062 12.885L173.388 35.3182Z" fill="#F3F2F1"/>
<path d="M140.122 22.4419L173.381 35.3029L182.047 12.8918L148.788 0.0312282L140.122 22.4419ZM173.395 35.3336L173.384 35.3293L140.091 22.4553L140.095 22.4443L148.774 3.43105e-05L148.785 0.00434661L182.078 12.8783L182.074 12.8894L173.395 35.3336" fill="#17282F"/>
<path d="M182.065 13.196C182.069 13.2066 181.922 13.268 181.64 13.3751C181.327 13.4893 180.914 13.64 180.399 13.8287C179.283 14.2208 177.725 14.7689 175.813 15.4414C171.898 16.7848 166.541 18.6241 160.606 20.6611L160.481 20.7039L160.414 20.5896C160.364 20.5023 160.308 20.4067 160.253 20.3122C157.07 14.8188 154.19 9.84771 152.084 6.21332C151.065 4.42444 150.235 2.96627 149.64 1.92184C149.371 1.4337 149.154 1.04299 148.991 0.747323C148.845 0.476615 148.773 0.332141 148.783 0.326381C148.793 0.320621 148.883 0.454539 149.047 0.714207C149.224 1.00267 149.458 1.38283 149.75 1.85849C150.366 2.88996 151.226 4.33037 152.282 6.09765C154.409 9.72004 157.318 14.6744 160.533 20.149C160.588 20.2436 160.643 20.3386 160.694 20.4259L160.502 20.3544C166.449 18.3529 171.817 16.5463 175.739 15.2259C177.666 14.5937 179.235 14.0787 180.359 13.7096C180.882 13.5455 181.301 13.4135 181.618 13.3136C181.908 13.2263 182.061 13.1855 182.065 13.196" fill="#17282F"/>
<path d="M140.109 22.7596C140.066 22.6809 143.758 20.5738 148.353 18.0534C152.951 15.5321 156.712 13.5522 156.755 13.6309C156.798 13.7096 153.107 15.8162 148.509 18.3371C143.913 20.8579 140.151 22.8378 140.109 22.7596Z" fill="#17282F"/>
<path d="M167.926 17.6281C168.011 17.6022 169.304 21.611 170.812 26.5812C172.322 31.5528 173.475 35.6028 173.39 35.6292C173.305 35.6552 172.012 31.6469 170.503 26.6752C168.994 21.7051 167.84 17.6541 167.926 17.6281" fill="#17282F"/>
<path d="M138.514 82.0666C138.583 82.0714 138.617 82.344 138.59 82.6757C138.563 83.0069 138.485 83.2709 138.417 83.2642C138.348 83.2579 138.314 82.9853 138.341 82.6555C138.367 82.3258 138.445 82.0623 138.514 82.0666" fill="#17282F"/>
<path d="M138.636 77.1857C138.705 77.1838 138.759 77.7305 138.758 78.4068C138.756 79.0831 138.699 79.6293 138.63 79.6274C138.561 79.6255 138.506 79.0788 138.508 78.4063C138.509 77.7339 138.566 77.1872 138.636 77.1857Z" fill="#17282F"/>
<path d="M138.303 72.3144C138.372 72.3058 138.478 72.8453 138.54 73.5182C138.602 74.1921 138.597 74.7417 138.528 74.746C138.459 74.7503 138.353 74.2113 138.291 73.5413C138.229 72.8722 138.235 72.3226 138.303 72.3144Z" fill="#17282F"/>
<path d="M137.489 67.4998C137.557 67.4849 137.717 68.0105 137.846 68.6743C137.977 69.3381 138.027 69.8853 137.959 69.8968C137.891 69.9078 137.731 69.3823 137.601 68.7223C137.472 68.0628 137.422 67.5156 137.489 67.4998" fill="#17282F"/>
<path d="M136.162 62.8008C136.228 62.7782 136.444 63.2832 136.646 63.9292C136.849 64.5753 136.958 65.1138 136.891 65.132C136.825 65.1503 136.609 64.6453 136.408 64.0041C136.207 63.3623 136.097 62.8238 136.162 62.8008Z" fill="#17282F"/>
<path d="M134.296 58.2923C134.358 58.2616 134.633 58.7373 134.911 59.3545C135.189 59.9718 135.363 60.4931 135.299 60.519C135.235 60.5454 134.959 60.0697 134.683 59.4573C134.408 58.8443 134.235 58.3231 134.296 58.2923" fill="#17282F"/>
<path d="M131.872 54.0561C131.929 54.0177 132.274 54.4473 132.637 55.0194C132.984 55.6021 133.215 56.1018 133.155 56.1358C133.095 56.1694 132.768 55.7283 132.424 55.1504C132.064 54.5836 131.814 54.095 131.872 54.0561Z" fill="#17282F"/>
<path d="M128.881 50.1985C128.932 50.1519 129.325 50.5359 129.759 51.0562C130.193 51.5765 130.5 52.032 130.445 52.0742C130.391 52.116 129.997 51.732 129.567 51.216C129.137 50.7005 128.83 50.2446 128.881 50.1985Z" fill="#17282F"/>
<path d="M125.375 46.8026C125.419 46.7493 125.862 47.0738 126.365 47.5274C126.868 47.981 127.237 48.3885 127.189 48.4379C127.141 48.4873 126.697 48.1629 126.198 47.7131C125.7 47.2634 125.331 46.8554 125.375 46.8026Z" fill="#17282F"/>
<path d="M121.415 43.9487C121.451 43.8897 121.937 44.146 122.501 44.5213C123.065 44.8971 123.489 45.2466 123.448 45.3022C123.407 45.3579 122.921 45.1016 122.362 44.7296C121.803 44.3577 121.38 44.0082 121.415 43.9487Z" fill="#17282F"/>
<path d="M117.066 41.7317C117.092 41.6678 117.612 41.8459 118.228 42.1296C118.844 42.4132 119.317 42.6931 119.285 42.754C119.253 42.8155 118.733 42.6379 118.123 42.3566C117.514 42.0753 117.041 41.796 117.066 41.7317Z" fill="#17282F"/>
<path d="M112.414 40.2601C112.429 40.1929 112.971 40.2812 113.626 40.4574C114.281 40.634 114.794 40.8303 114.772 40.8961C114.751 40.9618 114.209 40.8735 113.561 40.6988C112.913 40.5241 112.4 40.3278 112.414 40.2601Z" fill="#17282F"/>
<path d="M107.576 39.6414C107.577 39.5732 108.128 39.5449 108.805 39.5862C109.48 39.6567 110.019 39.7691 110.009 39.8377C110 39.9059 109.452 39.9054 108.785 39.8353C108.116 39.7945 107.574 39.711 107.576 39.6414" fill="#17282F"/>
<path d="M102.709 39.9764C102.697 39.9087 103.233 39.7887 103.907 39.709C104.581 39.6294 105.13 39.6207 105.134 39.6894C105.138 39.7585 104.602 39.878 103.936 39.9572C103.271 40.0359 102.721 40.0446 102.709 39.9764Z" fill="#17282F"/>
<path d="M97.9945 41.2315C97.97 41.1672 98.474 40.9484 99.1205 40.7434C99.7671 40.538 100.305 40.4261 100.322 40.4933C100.339 40.5601 99.8352 40.7784 99.1959 40.9815C98.557 41.1845 98.019 41.2963 97.9945 41.2315Z" fill="#17282F"/>
<path d="M93.5987 43.3483C93.5627 43.2892 94.0167 42.9796 94.6129 42.6566C95.2095 42.3336 95.7168 42.1229 95.7466 42.1853C95.7759 42.2477 95.3218 42.5572 94.7324 42.8764C94.1425 43.1956 93.6352 43.4063 93.5987 43.3483Z" fill="#17282F"/>
<path d="M89.6998 46.2785C89.6523 46.2281 90.0358 45.835 90.557 45.4006C91.0783 44.9658 91.5338 44.6586 91.5746 44.7142C91.6159 44.7699 91.2319 45.163 90.7173 45.5926C90.2028 46.0217 89.7468 46.3284 89.6998 46.2785Z" fill="#17282F"/>
<path d="M86.5087 49.9623C86.452 49.9244 86.7127 49.4358 87.1288 48.8987C87.5435 48.3611 87.9505 47.9858 88.0019 48.0309C88.0537 48.0774 87.736 48.5214 87.3261 49.0518C86.9157 49.5812 86.5663 50.0012 86.5087 49.9623" fill="#17282F"/>
<path d="M84.7275 53.1321C84.6641 53.1038 84.7313 52.8379 84.8768 52.5374C85.0227 52.237 85.1902 52.0195 85.2516 52.0522C85.3126 52.0843 85.2454 52.3502 85.1019 52.6464C84.9584 52.9425 84.7904 53.16 84.7275 53.1321Z" fill="#17282F"/>
<path d="M54.2305 81.4575C54.2257 81.3884 54.4859 81.3005 54.8113 81.2612C55.1363 81.2218 55.4098 81.2449 55.4218 81.313C55.4338 81.3807 55.1742 81.469 54.8411 81.5093C54.5084 81.5496 54.2349 81.5261 54.2305 81.4575Z" fill="#17282F"/>
<path d="M49.4762 80.9181C49.4978 80.8509 50.0234 80.9617 50.6666 81.0961C51.3097 81.232 51.8353 81.3404 51.8281 81.4105C51.8224 81.4777 51.2733 81.4796 50.6152 81.3404C49.9572 81.2031 49.4551 80.9824 49.4762 80.9181Z" fill="#17282F"/>
<path d="M45.1799 78.7937C45.2207 78.7366 45.6882 79.002 46.2545 79.3389C46.8195 79.6773 47.2759 79.9605 47.2452 80.0239C47.2159 80.0848 46.7019 79.8981 46.1264 79.5535C45.5504 79.2103 45.1405 78.8489 45.1799 78.7937" fill="#17282F"/>
<path d="M41.6075 75.5874C41.6603 75.5413 42.0544 75.9085 42.519 76.3774C42.9827 76.8473 43.346 77.2447 43.2999 77.2966C43.2548 77.3479 42.8113 77.0297 42.3414 76.5536C41.8706 76.0779 41.5562 75.632 41.6075 75.5874Z" fill="#17282F"/>
<path d="M38.7847 71.6991C38.8442 71.6645 39.1864 72.0841 39.5483 72.636C39.9102 73.1885 40.1584 73.6694 40.1027 73.7102C40.047 73.7515 39.7053 73.332 39.3391 72.7733C38.9733 72.2146 38.7252 71.7337 38.7847 71.6991" fill="#17282F"/>
<path d="M36.7112 67.3634C36.7758 67.339 37.0385 67.8127 37.2974 68.4204C37.5567 69.0285 37.7163 69.5459 37.6542 69.5761C37.592 69.6064 37.3295 69.1331 37.0676 68.5187C36.806 67.9049 36.6465 67.387 36.7112 67.3634" fill="#17282F"/>
<path d="M35.3314 62.7571C35.3989 62.7423 35.5898 63.2486 35.7582 63.8884C35.9262 64.5287 36.0089 65.0639 35.9427 65.0836C35.8767 65.1037 35.6856 64.5974 35.5163 63.9523C35.347 63.3072 35.2643 62.772 35.3314 62.7571Z" fill="#17282F"/>
<path d="M34.4965 58.0202C34.5649 58.0116 34.7011 58.5357 34.8002 59.1909C34.8992 59.846 34.9245 60.387 34.8567 60.399C34.7886 60.411 34.6527 59.8873 34.5529 59.2283C34.4533 58.5698 34.428 58.0288 34.4965 58.0202Z" fill="#17282F"/>
<path d="M34.0349 53.2315C34.1039 53.2272 34.2033 53.759 34.2569 54.4199C34.3103 55.0813 34.2982 55.6227 34.2295 55.6295C34.1609 55.6362 34.0615 55.1039 34.0075 54.4405C33.9539 53.7777 33.9661 53.2363 34.0349 53.2315Z" fill="#17282F"/>
<path d="M33.8361 49.6278C33.9053 49.6249 33.9739 49.8904 33.9897 50.2211C34.0054 50.5523 33.9623 50.823 33.8933 50.8268C33.8245 50.8302 33.7557 50.5647 33.7401 50.2331C33.7242 49.9019 33.7673 49.6312 33.8361 49.6278" fill="#17282F"/>
<path d="M53.1757 47.4285L13.2654 49.3096L11.9976 22.4087L51.9076 20.5277L53.1757 47.4285" fill="#F3F2F1"/>
<path d="M12.0102 22.4202L13.2769 49.2971L53.1633 47.417L51.8962 20.5401L12.0102 22.4202ZM13.254 49.3225L13.2534 49.31L11.9849 22.3972L11.9971 22.3967L51.9192 20.5147L51.9197 20.5272L53.1883 47.44L53.1763 47.4405L13.254 49.3225" fill="#17282F"/>
<path d="M52.0508 20.845C52.059 20.8541 51.9366 20.9832 51.6961 21.2203C51.4273 21.4795 51.0736 21.8203 50.6306 22.2465C49.6658 23.1532 48.318 24.4199 46.664 25.974C43.2629 29.1212 38.6081 33.43 33.4521 38.2015L33.3434 38.3022L33.2231 38.2149C33.1312 38.1482 33.0316 38.0762 32.9319 38.0042C27.1862 33.8183 21.9869 30.0308 18.1853 27.2613C16.3327 25.89 14.8224 24.7726 13.741 23.9725C13.2436 23.5948 12.845 23.2924 12.5435 23.0634C12.272 22.8522 12.1331 22.7366 12.1404 22.7265C12.1479 22.7159 12.3011 22.8119 12.5863 23.0039C12.8981 23.2189 13.3096 23.5031 13.8237 23.8578C14.9216 24.6354 16.4547 25.7216 18.3357 27.0535C22.1534 29.8009 27.3748 33.5581 33.1449 37.7104C33.2444 37.7824 33.344 37.8549 33.4358 37.9211L33.2069 37.9346C38.3913 33.1938 43.0719 28.9134 46.4912 25.7868C48.1779 24.2672 49.552 23.0298 50.536 22.1433C50.9973 21.7382 51.3668 21.4133 51.6467 21.167C51.9035 20.9467 52.0422 20.8359 52.0508 20.845" fill="#17282F"/>
<path d="M13.4084 49.6273C13.3287 49.5664 16.1564 45.7371 19.7227 41.076C23.2906 36.4131 26.2463 32.6836 26.3259 32.7446C26.4053 32.8055 23.5786 36.6334 20.0111 41.2964C16.4444 45.9579 13.4879 49.6878 13.4084 49.6273" fill="#17282F"/>
<path d="M39.5761 31.7827C39.6524 31.7174 42.7905 35.2381 46.5847 39.6457C50.3804 44.0548 53.3947 47.681 53.3188 47.7458C53.243 47.8111 50.1054 44.2914 46.3097 39.8823C42.5155 35.4747 39.5003 31.8485 39.5761 31.7827Z" fill="#17282F"/>
</svg>
