<svg width="43" height="43" viewBox="0 0 43 43" fill="none" xmlns="http://www.w3.org/2000/svg">
<path d="M21.4996 0.393555C9.62585 0.393555 0 9.906 0 21.6395C0 33.3728 9.62585 42.886 21.4996 42.886C33.3734 42.886 43 33.3728 43 21.6395C43 9.906 33.3734 0.393555 21.4996 0.393555ZM21.5001 7.85615L34.223 15.6961H8.77716L21.5001 7.85615ZM34.3815 28.2155H34.3802C34.3802 29.473 33.3489 30.4919 32.0765 30.4919H10.9236C9.65108 30.4919 8.61992 29.4728 8.61992 28.2155V16.1949C8.61992 16.0619 8.63368 15.9326 8.65604 15.8056L20.8121 23.2961C20.827 23.3053 20.8429 23.3115 20.8582 23.32C20.8743 23.3288 20.8906 23.3373 20.9069 23.3454C20.9928 23.3891 21.0812 23.4244 21.1717 23.4475C21.181 23.45 21.1903 23.4512 21.1996 23.4533C21.2988 23.4764 21.3993 23.4908 21.4996 23.4908H21.5004C21.5011 23.4908 21.5018 23.4908 21.5018 23.4908C21.6021 23.4908 21.7026 23.4768 21.8018 23.4533C21.8111 23.451 21.8204 23.45 21.8297 23.4475C21.92 23.4244 22.0082 23.3891 22.0945 23.3454C22.1108 23.3373 22.1272 23.3288 22.1432 23.32C22.1584 23.3115 22.1745 23.3053 22.1894 23.2961L34.3454 15.8056C34.3677 15.9326 34.3815 16.0617 34.3815 16.1949V28.2155Z" fill="#FFB8B8"/>
</svg>
