<svg width="537" height="430" viewBox="0 0 537 430" fill="none" xmlns="http://www.w3.org/2000/svg">
<path d="M273.36 155.335C275.491 156.738 277.24 158.649 278.45 160.895C279.66 163.141 280.294 165.653 280.293 168.204V171.794H383.748C385.931 171.794 388.024 170.927 389.568 169.384C391.111 167.84 391.979 165.747 391.979 163.565C391.979 161.382 391.111 159.289 389.568 157.745C388.024 156.202 385.931 155.335 383.748 155.335H273.36Z" fill="#BDD7FF"/>
<path d="M281.379 128.589C281.381 126.407 282.249 124.315 283.792 122.772C285.335 121.229 287.427 120.361 289.609 120.359H324.588C326.771 120.359 328.864 121.226 330.408 122.769C331.951 124.313 332.818 126.406 332.818 128.589C332.818 130.771 331.951 132.864 330.408 134.408C328.864 135.951 326.771 136.818 324.588 136.818H289.609C287.427 136.816 285.335 135.948 283.792 134.405C282.249 132.862 281.381 130.77 281.379 128.589Z" fill="#BDD7FF"/>
<path d="M359.83 69.9521C359.832 67.7703 360.7 65.6785 362.243 64.1356C363.786 62.5928 365.878 61.725 368.06 61.7225H503.86C506.043 61.7225 508.136 62.5895 509.679 64.1329C511.223 65.6762 512.09 67.7695 512.09 69.9521C512.09 72.1348 511.223 74.228 509.679 75.7714C508.136 77.3148 506.043 78.1818 503.86 78.1818H368.06C365.878 78.1793 363.786 77.3115 362.243 75.7686C360.7 74.2258 359.832 72.134 359.83 69.9521Z" fill="#BDD7FF"/>
<path d="M418.985 34.9761C418.987 32.7942 419.855 30.7024 421.398 29.1596C422.941 27.6167 425.033 26.7489 427.215 26.7464H444.705C446.887 26.7464 448.981 27.6134 450.524 29.1568C452.068 30.7002 452.935 32.7934 452.935 34.9761C452.935 37.1587 452.068 39.2519 450.524 40.7953C448.981 42.3387 446.887 43.2057 444.705 43.2057H427.215C425.033 43.2032 422.941 42.3354 421.398 40.7926C419.855 39.2497 418.987 37.1579 418.985 34.9761Z" fill="#BDD7FF"/>
<path d="M281.326 320.848H409.347C413.983 320.843 418.429 318.999 421.708 315.721C424.987 312.442 426.831 307.997 426.836 303.36V100.87C426.831 96.2331 424.987 91.788 421.708 88.5095C418.429 85.231 413.983 83.3868 409.347 83.3816H204.851C200.214 83.3868 195.768 85.231 192.49 88.5095C189.211 91.788 187.367 96.2331 187.361 100.87V151.058H189.419V100.87C189.424 96.7786 191.051 92.8564 193.944 89.9636C196.837 87.0708 200.759 85.4436 204.851 85.439H409.347C413.438 85.4436 417.36 87.0708 420.253 89.9636C423.146 92.8564 424.774 96.7786 424.778 100.87V303.36C424.774 307.451 423.146 311.374 420.253 314.266C417.36 317.159 413.438 318.786 409.347 318.791H281.326V320.848Z" fill="#BDD7FF"/>
<path d="M425.807 199.63H519.128C523.765 199.624 528.21 197.78 531.489 194.502C534.768 191.223 536.612 186.778 536.617 182.142V17.488C536.612 12.8515 534.768 8.4064 531.489 5.12789C528.21 1.84938 523.765 0.00521953 519.128 0H352.792C348.155 0.00521953 343.71 1.84938 340.431 5.12789C337.152 8.4064 335.308 12.8515 335.303 17.488V84.4103H337.36V17.488C337.365 13.397 338.992 9.47485 341.885 6.58205C344.778 3.68925 348.701 2.06204 352.792 2.05742H519.128C523.219 2.06204 527.142 3.68925 530.035 6.58205C532.928 9.47485 534.555 13.397 534.56 17.488V182.142C534.555 186.233 532.928 190.155 530.035 193.048C527.142 195.94 523.219 197.568 519.128 197.572H425.807V199.63Z" fill="#BDD7FF"/>
<path d="M264.43 150.716H17.7681C13.1324 150.725 8.68928 152.571 5.41138 155.848C2.13348 159.126 0.2879 163.569 0.278687 168.204V412.512C0.28354 417.149 2.1277 421.594 5.40655 424.873C8.68539 428.151 13.1311 429.995 17.7681 430H264.43C269.067 429.995 273.512 428.151 276.791 424.873C280.07 421.594 281.914 417.149 281.919 412.512V168.204C281.914 163.567 280.07 159.122 276.791 155.844C273.512 152.565 269.067 150.721 264.43 150.716V150.716ZM279.862 412.512C279.857 416.603 278.229 420.525 275.336 423.418C272.443 426.31 268.521 427.938 264.43 427.943H17.7681C13.6768 427.938 9.75458 426.31 6.86163 423.418C3.96868 420.525 2.34124 416.603 2.33626 412.512V168.204C2.34258 164.114 3.97045 160.192 6.86311 157.3C9.75576 154.408 13.6772 152.78 17.7681 152.773H264.43C268.521 152.778 272.443 154.406 275.336 157.298C278.229 160.191 279.857 164.113 279.862 168.204V412.512Z" fill="#BDD7FF"/>
<path d="M245.005 245.861H37.1904C35.0076 245.861 32.9142 244.994 31.3707 243.451C29.8273 241.907 28.9602 239.814 28.9602 237.632C28.9602 235.449 29.8273 233.356 31.3707 231.812C32.9142 230.269 35.0076 229.402 37.1904 229.402H245.005C247.188 229.402 249.282 230.269 250.825 231.812C252.369 233.356 253.236 235.449 253.236 237.632C253.236 239.814 252.369 241.907 250.825 243.451C249.282 244.994 247.188 245.861 245.005 245.861Z" fill="#BDD7FF"/>
<path d="M185.85 210.885H96.346C94.1631 210.885 92.0697 210.018 90.5262 208.475C88.9828 206.931 88.1157 204.838 88.1157 202.655C88.1157 200.473 88.9828 198.38 90.5262 196.836C92.0697 195.293 94.1631 194.426 96.346 194.426H185.85C188.033 194.426 190.127 195.293 191.67 196.836C193.214 198.38 194.081 200.473 194.081 202.655C194.081 204.838 193.214 206.931 191.67 208.475C190.127 210.018 188.033 210.885 185.85 210.885Z" fill="#FF6584"/>
<path d="M126.181 295.239H36.6762C34.4933 295.239 32.3999 294.372 30.8564 292.829C29.313 291.285 28.4459 289.192 28.4459 287.01C28.4459 284.827 29.313 282.734 30.8564 281.19C32.3999 279.647 34.4933 278.78 36.6762 278.78H126.181C128.363 278.78 130.457 279.647 132 281.19C133.544 282.734 134.411 284.827 134.411 287.01C134.411 289.192 133.544 291.285 132 292.829C130.457 294.372 128.363 295.239 126.181 295.239Z" fill="#BDD7FF"/>
<path d="M126.181 331.244H36.6762C34.4933 331.244 32.3999 330.377 30.8564 328.834C29.313 327.29 28.4459 325.197 28.4459 323.014C28.4459 320.832 29.313 318.738 30.8564 317.195C32.3999 315.652 34.4933 314.785 36.6762 314.785H126.181C128.363 314.785 130.457 315.652 132 317.195C133.544 318.738 134.411 320.832 134.411 323.014C134.411 325.197 133.544 327.29 132 328.834C130.457 330.377 128.363 331.244 126.181 331.244Z" fill="#BDD7FF"/>
<path d="M126.181 367.249H36.6762C34.4933 367.249 32.3999 366.382 30.8564 364.838C29.313 363.295 28.4459 361.202 28.4459 359.019C28.4459 356.836 29.313 354.743 30.8564 353.2C32.3999 351.657 34.4933 350.789 36.6762 350.789H126.181C128.363 350.789 130.457 351.657 132 353.2C133.544 354.743 134.411 356.836 134.411 359.019C134.411 361.202 133.544 363.295 132 364.838C130.457 366.382 128.363 367.249 126.181 367.249Z" fill="#BDD7FF"/>
<path d="M237.81 302.294C246.293 302.294 253.169 295.418 253.169 286.937C253.169 278.455 246.293 271.579 237.81 271.579C229.328 271.579 222.451 278.455 222.451 286.937C222.451 295.418 229.328 302.294 237.81 302.294Z" fill="#FF6584"/>
<path d="M236.288 292.795C235.943 292.796 235.606 292.684 235.33 292.477L235.313 292.464L231.703 289.703C231.365 289.444 231.145 289.062 231.089 288.64C231.033 288.218 231.147 287.792 231.406 287.454C231.665 287.117 232.047 286.896 232.469 286.84C232.891 286.784 233.317 286.898 233.655 287.157L235.993 288.95L241.518 281.743C241.646 281.576 241.806 281.435 241.988 281.33C242.17 281.225 242.372 281.156 242.58 281.129C242.789 281.101 243.001 281.115 243.205 281.169C243.408 281.224 243.599 281.318 243.766 281.446L243.766 281.446L243.732 281.494L243.767 281.446C244.104 281.705 244.325 282.087 244.38 282.509C244.436 282.93 244.322 283.357 244.064 283.694L237.565 292.168C237.415 292.363 237.222 292.521 237 292.629C236.779 292.738 236.536 292.794 236.29 292.793L236.288 292.795Z" fill="white"/>
<path d="M237.81 338.299C246.293 338.299 253.169 331.423 253.169 322.941C253.169 314.46 246.293 307.584 237.81 307.584C229.328 307.584 222.451 314.46 222.451 322.941C222.451 331.423 229.328 338.299 237.81 338.299Z" fill="#FF6584"/>
<path d="M236.288 328.8C235.943 328.8 235.606 328.689 235.33 328.481L235.313 328.469L231.703 325.708C231.536 325.579 231.396 325.42 231.29 325.237C231.185 325.055 231.116 324.854 231.089 324.645C231.061 324.436 231.075 324.224 231.129 324.02C231.184 323.817 231.278 323.626 231.406 323.459C231.534 323.292 231.694 323.151 231.876 323.046C232.059 322.941 232.26 322.872 232.469 322.845C232.678 322.817 232.89 322.831 233.094 322.885C233.297 322.94 233.488 323.034 233.655 323.162L235.993 324.955L241.518 317.747C241.646 317.58 241.806 317.44 241.988 317.335C242.17 317.229 242.372 317.161 242.58 317.133C242.789 317.106 243.001 317.12 243.205 317.174C243.408 317.228 243.599 317.322 243.766 317.451L243.766 317.451L243.732 317.498L243.767 317.451C244.104 317.71 244.325 318.092 244.381 318.514C244.436 318.935 244.322 319.362 244.064 319.699L237.565 328.173C237.415 328.368 237.222 328.526 237 328.634C236.779 328.743 236.536 328.799 236.29 328.798L236.288 328.8Z" fill="white"/>
<path d="M237.81 374.377C246.293 374.377 253.169 367.501 253.169 359.019C253.169 350.537 246.293 343.661 237.81 343.661C229.328 343.661 222.451 350.537 222.451 359.019C222.451 367.501 229.328 374.377 237.81 374.377Z" fill="#FF6584"/>
<path d="M236.288 364.878C235.943 364.878 235.606 364.766 235.33 364.559L235.313 364.546L231.703 361.785C231.366 361.526 231.146 361.144 231.09 360.723C231.035 360.301 231.149 359.875 231.408 359.538C231.666 359.2 232.048 358.979 232.47 358.924C232.891 358.868 233.317 358.981 233.655 359.24L235.993 361.032L241.518 353.825C241.646 353.658 241.806 353.518 241.988 353.412C242.17 353.307 242.372 353.239 242.58 353.211C242.789 353.184 243.001 353.197 243.205 353.252C243.408 353.306 243.599 353.4 243.766 353.528L243.766 353.529L243.732 353.576L243.767 353.529C244.104 353.788 244.325 354.17 244.381 354.591C244.436 355.013 244.322 355.439 244.064 355.777L237.566 364.25C237.415 364.445 237.222 364.603 237.001 364.712C236.779 364.82 236.536 364.876 236.29 364.876L236.288 364.878Z" fill="white"/>
</svg>
