<svg width="276" height="269" viewBox="0 0 276 269" fill="none" xmlns="http://www.w3.org/2000/svg">
<path d="M73.1821 29.3477C65.3088 38.1109 59.3298 48.4054 55.6195 59.5865L54.2972 63.6682L53.3199 67.8073C52.6588 70.5417 52.1787 73.3167 51.8827 76.1143C51.1689 81.5362 51.0244 87.0178 51.4516 92.4697C52.2569 104.346 55.5615 115.919 61.1489 126.43C66.7363 136.941 74.4806 146.154 83.8749 153.465C85.4558 154.701 87.123 155.793 88.6752 156.914C88.8169 157.061 88.9707 157.195 89.1351 157.316H89.3363L89.5375 157.518L90.486 175.914C90.486 177.523 92.4981 178.788 94.7114 178.644C95.5502 178.706 96.3833 178.464 97.0587 177.963C97.7341 177.462 98.2068 176.735 98.3907 175.914L98.8793 166.974L99.1093 162.117V159.587V158.294V157.661C99.1319 157.278 99.1319 156.894 99.1093 156.512C99.0285 154.884 98.5657 153.299 97.7583 151.884C97.3218 151.197 96.8109 150.561 96.2349 149.987C95.7313 149.51 95.2036 149.059 94.6539 148.636C93.3604 147.543 91.9807 146.48 90.6873 145.301C87.98 142.864 85.4445 140.242 83.0988 137.454C72.2607 124.599 66.0197 108.495 65.3637 91.6936C65.1457 87.1088 65.4058 82.5137 66.1398 77.9827C66.4231 75.6558 66.8648 73.3509 67.462 71.0841L68.3244 67.6636L69.5029 64.3005C72.7786 55.1123 77.8828 46.6835 84.5073 39.5231C91.3364 32.1487 99.5505 26.1907 108.681 21.9892C118 17.9144 128.059 15.801 138.23 15.7805C148.411 15.7626 158.481 17.8981 167.779 22.0467C181.084 28.0742 192.292 37.9296 199.972 50.355C207.651 62.7804 211.454 77.2123 210.895 91.8086C210.454 101.991 207.975 111.981 203.606 121.189C199.237 130.397 193.065 138.635 185.456 145.416C184.163 146.624 182.783 147.658 181.461 148.751C180.908 149.18 180.38 149.64 179.88 150.13C179.301 150.712 178.79 151.358 178.357 152.056C177.482 153.482 176.968 155.101 176.862 156.77C176.83 157.335 176.83 157.901 176.862 158.466V159.76V162.289L177.092 167.147L177.581 176.086C177.581 177.638 179.535 178.961 181.72 178.731C182.531 178.786 183.336 178.55 183.989 178.065C184.642 177.58 185.101 176.879 185.284 176.086L186.233 157.604L186.865 157.316C187.048 157.23 187.222 157.124 187.382 157C188.935 155.879 190.63 154.816 192.183 153.551C195.5 151 198.614 148.193 201.496 145.158C207.9 138.458 213.154 130.747 217.046 122.335C221.379 112.985 223.97 102.922 224.692 92.6422C225.477 81.2051 223.983 69.7261 220.297 58.8708C216.611 48.0156 210.807 38.0001 203.22 29.4052C195.108 20.1635 185.117 12.7597 173.914 7.68879C162.712 2.61785 150.556 -0.00348388 138.259 3.47505e-06C125.826 0.0557216 113.544 2.72947 102.214 7.84714C91.1892 12.989 81.3152 20.3017 73.1821 29.3477Z" fill="#FF4A4A"/>
<path d="M86.8069 224.548C86.9824 225.984 87.261 227.406 87.6405 228.802C88.8773 233.241 91.1245 237.334 94.2062 240.759C97.288 244.185 101.121 246.851 105.404 248.549V251.97C105.404 252.372 105.404 252.775 105.404 253.177C105.503 253.982 105.657 254.779 105.864 255.563C106.679 258.661 108.326 261.477 110.626 263.706C112.926 265.935 115.792 267.493 118.914 268.21C119.672 268.382 120.44 268.507 121.214 268.584H122.363H123.283H125.928H131.159L141.334 268.354L151.079 268.067H152.372H153.896C157.754 267.815 161.399 266.206 164.186 263.525C166.813 261.017 168.515 257.694 169.015 254.097C169.101 253.526 169.149 252.95 169.159 252.372V250.935L168.957 246.911C174.061 244.937 178.422 241.42 181.432 236.851C184.136 232.73 185.547 227.895 185.485 222.967C185.485 221.846 183.588 221.041 181.432 221.156C179.277 221.271 177.926 221.789 177.811 222.421C177.173 225.607 175.728 228.577 173.614 231.044C170.689 234.437 166.573 236.577 162.116 237.023C160.835 237.164 159.646 237.757 158.762 238.694C157.877 239.631 157.355 240.852 157.287 242.139V242.628L156.885 250.791V251.481C156.899 251.615 156.899 251.75 156.885 251.884C156.807 252.144 156.701 252.394 156.569 252.631C156.311 253.109 155.947 253.522 155.505 253.838C155.083 254.161 154.591 254.377 154.068 254.471C153.81 254.503 153.55 254.503 153.292 254.471H151.251L141.507 254.183L131.331 253.953H126.1H123.456H122.852C122.852 253.953 122.622 253.953 122.536 253.953C122.117 253.826 121.741 253.588 121.448 253.264C121.154 252.94 120.954 252.543 120.869 252.114C120.862 252.008 120.862 251.903 120.869 251.797V248.147V242.571C120.878 240.73 120.227 238.948 119.036 237.545C117.844 236.143 116.19 235.213 114.372 234.925C111.683 234.485 109.174 233.289 107.138 231.477C105.103 229.665 103.624 227.312 102.875 224.692C102.705 224.04 102.58 223.377 102.501 222.708C102.474 222.374 102.474 222.037 102.501 221.702C102.501 221.358 102.501 221.099 102.501 220.495V209.285C130.44 208.969 156.799 208.279 176.977 207.158C177.284 211.757 177.619 215.848 177.983 219.432C177.983 220.38 179.995 221.099 182.208 221.013C184.422 220.926 185.802 220.265 185.888 219.432C186.405 214.459 186.836 208.509 187.239 201.553C187.278 200.9 187.187 200.245 186.972 199.627C186.758 199.009 186.423 198.439 185.988 197.95C185.553 197.461 185.025 197.063 184.436 196.779C183.847 196.495 183.207 196.329 182.553 196.293H181.921C159.414 194.913 127.825 194.079 94.6253 193.821C93.6099 193.813 92.6029 194.006 91.6619 194.387C90.7209 194.769 89.8642 195.332 89.1409 196.045C88.4176 196.757 87.8417 197.605 87.4461 198.541C87.0506 199.476 86.8431 200.48 86.8356 201.495V214.085V220.553C86.8356 220.984 86.8356 221.817 86.8356 222.507C86.7885 223.187 86.7789 223.868 86.8069 224.548Z" fill="#FF4A4A"/>
<path d="M140.874 133.804C142.8 134.379 144.381 134.58 144.582 134.235C151.152 121.504 156.642 108.245 160.995 94.5969C161.241 93.8642 161.377 93.0989 161.398 92.3262C161.425 91.3333 161.255 90.3449 160.9 89.4175C160.545 88.49 160.01 87.6417 159.327 86.9209C158.643 86.2002 157.825 85.6212 156.917 85.217C156.01 84.8128 155.032 84.5913 154.039 84.5653H153.637C146.738 84.3928 139.552 84.3353 132.452 84.4215C135.521 73.9986 137.761 63.3492 139.15 52.5731C139.15 52.1707 137.483 51.2796 135.413 50.676C133.344 50.0724 132.021 49.9286 131.82 50.2448C125.151 62.9719 119.574 76.2417 115.149 89.9117C114.892 90.6427 114.746 91.4082 114.717 92.1824C114.679 94.1674 115.429 96.0867 116.802 97.5198C118.176 98.9529 120.062 99.7831 122.047 99.8284H122.478C129.377 100.03 136.534 100.087 143.605 100.03C140.595 110.383 138.394 120.954 137.023 131.648C136.994 132.28 138.719 133.171 140.874 133.804Z" fill="#FF4A4A"/>
<path d="M244.928 82.7823C244.748 84.1831 244.69 85.5969 244.756 87.0077C244.7 88.2368 244.758 89.4684 244.928 90.687C251.079 96.0046 269.648 95.9471 275.799 90.687C275.983 89.2769 276.041 87.8532 275.972 86.4328C276.023 85.242 275.965 84.0489 275.799 82.8686C269.648 77.5222 251.079 77.4934 244.928 82.7823Z" fill="#FF4A4A"/>
<path d="M236.075 124.606C235.261 125.496 234.529 126.458 233.89 127.481C235.385 135.558 250.044 147.601 258.294 147.371C259.342 146.435 260.304 145.405 261.168 144.296C261.955 143.405 262.658 142.443 263.267 141.421C261.83 133.287 247.199 121.301 238.978 121.301C237.911 122.311 236.939 123.417 236.075 124.606Z" fill="#FF4A4A"/>
<path d="M263.181 31.9633C262.456 30.7908 261.628 29.6846 260.709 28.6577C259.997 27.7042 259.198 26.819 258.323 26.0133C250.073 25.8408 235.328 37.8271 233.919 45.9042C234.66 47.1074 235.507 48.2424 236.449 49.296C237.187 50.2711 238.015 51.1756 238.921 51.9979C247.228 52.1417 261.6 40.0979 263.181 31.9633Z" fill="#FF4A4A"/>
<path d="M31.0719 90.6874C31.2517 89.2866 31.3094 87.8728 31.2443 86.462C31.2994 85.2329 31.2417 84.0013 31.0719 82.7828C24.9206 77.4651 6.35195 77.5226 0.200719 82.7828C0.0168671 84.1928 -0.0408496 85.6165 0.0282551 87.0369C-0.0227356 88.2277 0.0349915 89.4208 0.200719 90.6011C6.35195 95.9475 24.9206 95.9763 31.0719 90.6874Z" fill="#FF4A4A"/>
<path d="M39.9253 48.8642C40.7395 47.9746 41.4707 47.0124 42.1098 45.9898C40.6152 37.9127 25.9557 25.8689 17.7061 26.0989C16.6577 27.0359 15.6957 28.0652 14.8317 29.1745C14.0448 30.0656 13.3423 31.0279 12.7334 32.0489C14.1706 40.1835 28.8013 52.1698 37.0221 52.1698C38.0895 51.1596 39.0613 50.053 39.9253 48.8642Z" fill="#FF4A4A"/>
<path d="M12.8195 141.508C13.5446 142.68 14.3718 143.786 15.2914 144.813C16.0029 145.767 16.8016 146.652 17.6772 147.458C25.9268 147.63 40.6725 135.644 42.0809 127.567C41.3398 126.364 40.4933 125.229 39.5515 124.175C38.8127 123.2 37.9851 122.295 37.0795 121.473C28.7724 121.329 14.4004 133.373 12.8195 141.508Z" fill="#FF4A4A"/>
</svg>
