<svg width="495" height="396" viewBox="0 0 495 396" fill="none" xmlns="http://www.w3.org/2000/svg">
<path d="M252.175 143.053C254.138 144.345 255.749 146.104 256.863 148.173C257.978 150.242 258.561 152.555 258.561 154.904V158.211H353.836C355.846 158.211 357.774 157.412 359.195 155.991C360.617 154.569 361.415 152.642 361.415 150.632C361.415 148.622 360.617 146.694 359.195 145.272C357.774 143.851 355.846 143.053 353.836 143.053H252.175Z" fill="#BDD7FF"/>
<path d="M259.561 118.421C259.563 116.412 260.362 114.485 261.783 113.064C263.204 111.644 265.131 110.844 267.14 110.842H299.353C301.363 110.842 303.291 111.641 304.713 113.062C306.134 114.483 306.933 116.411 306.933 118.421C306.933 120.431 306.134 122.359 304.713 123.78C303.291 125.202 301.363 126 299.353 126H267.14C265.131 125.998 263.204 125.198 261.783 123.778C260.362 122.357 259.563 120.43 259.561 118.421Z" fill="#BDD7FF"/>
<path d="M331.808 64.4211C331.811 62.4117 332.61 60.4853 334.031 59.0645C335.452 57.6436 337.378 56.8444 339.388 56.8421H464.45C466.46 56.8421 468.388 57.6406 469.809 59.0619C471.231 60.4832 472.029 62.411 472.029 64.4211C472.029 66.4311 471.231 68.3588 469.809 69.7802C468.388 71.2015 466.46 72 464.45 72H339.388C337.378 71.9977 335.452 71.1985 334.031 69.7776C332.61 68.3568 331.811 66.4304 331.808 64.4211Z" fill="#BDD7FF"/>
<path d="M386.286 32.2105C386.288 30.2012 387.088 28.2748 388.509 26.8539C389.93 25.4331 391.856 24.6339 393.866 24.6316H409.972C411.982 24.6316 413.91 25.43 415.332 26.8514C416.753 28.2727 417.552 30.2004 417.552 32.2105C417.552 34.2206 416.753 36.1483 415.332 37.5696C413.91 38.991 411.982 39.7895 409.972 39.7895H393.866C391.856 39.7872 389.93 38.9879 388.509 37.5671C387.088 36.1463 386.288 34.2199 386.286 32.2105Z" fill="#BDD7FF"/>
<path d="M259.512 295.479H377.41C381.68 295.474 385.774 293.776 388.794 290.757C391.813 287.737 393.512 283.644 393.516 279.374V92.8939C393.512 88.624 391.813 84.5303 388.794 81.5111C385.774 78.4918 381.68 76.7934 377.41 76.7886H189.084C184.813 76.7934 180.719 78.4918 177.7 81.5111C174.68 84.5303 172.982 88.624 172.977 92.8939V139.114H174.872V92.8939C174.876 89.1263 176.375 85.5143 179.039 82.8502C181.703 80.1862 185.316 78.6876 189.084 78.6834H377.41C381.178 78.6876 384.79 80.1862 387.454 82.8502C390.119 85.5143 391.617 89.1263 391.622 92.8939V279.374C391.617 283.141 390.119 286.753 387.454 289.417C384.79 292.081 381.178 293.58 377.41 293.584H259.512V295.479Z" fill="#BDD7FF"/>
<path d="M392.569 183.845H478.511C482.781 183.84 486.875 182.142 489.895 179.123C492.914 176.103 494.613 172.01 494.617 167.74V16.1053C494.613 11.8354 492.914 7.74171 489.895 4.72243C486.875 1.70315 482.781 0.00480682 478.511 0H325.327C321.057 0.00480682 316.963 1.70315 313.944 4.72243C310.924 7.74171 309.226 11.8354 309.221 16.1053V77.736H311.116V16.1053C311.12 12.3377 312.619 8.72567 315.283 6.06161C317.947 3.39754 321.559 1.899 325.327 1.89474H478.511C482.279 1.899 485.891 3.39754 488.555 6.06161C491.22 8.72567 492.718 12.3377 492.722 16.1053V167.74C492.718 171.507 491.22 175.119 488.555 177.783C485.891 180.447 482.279 181.946 478.511 181.95H392.569V183.845Z" fill="#BDD7FF"/>
<path d="M243.952 138.799H16.7934C12.5243 138.807 8.43246 140.507 5.41374 143.525C2.39503 146.544 0.695375 150.635 0.68689 154.904V379.895C0.691359 384.165 2.38971 388.259 5.40929 391.278C8.42888 394.297 12.5231 395.996 16.7934 396H243.952C248.222 395.996 252.316 394.297 255.336 391.278C258.355 388.259 260.054 384.165 260.058 379.895V154.904C260.054 150.634 258.355 146.54 255.336 143.521C252.316 140.502 248.222 138.803 243.952 138.799ZM258.163 379.895C258.159 383.662 256.66 387.274 253.996 389.938C251.331 392.602 247.719 394.101 243.952 394.105H16.7934C13.0256 394.101 9.41352 392.602 6.74932 389.938C4.08512 387.274 2.58635 383.662 2.58177 379.895V154.904C2.58759 151.137 4.08675 147.526 6.75068 144.862C9.41461 142.199 13.026 140.7 16.7934 140.694H243.952C247.719 140.698 251.331 142.197 253.996 144.861C256.66 147.525 258.159 151.137 258.163 154.904V379.895Z" fill="#BDD7FF"/>
<path d="M226.063 226.421H34.68C32.6698 226.421 30.7419 225.623 29.3205 224.201C27.8991 222.78 27.1005 220.852 27.1005 218.842C27.1005 216.832 27.8991 214.904 29.3205 213.483C30.7419 212.062 32.6698 211.263 34.68 211.263H226.063C228.073 211.263 230.001 212.062 231.423 213.483C232.844 214.904 233.643 216.832 233.643 218.842C233.643 220.852 232.844 222.78 231.423 224.201C230.001 225.623 228.073 226.421 226.063 226.421Z" fill="#BDD7FF"/>
<path d="M171.586 194.21H89.1581C87.1479 194.21 85.22 193.412 83.7986 191.991C82.3772 190.569 81.5786 188.642 81.5786 186.632C81.5786 184.621 82.3772 182.694 83.7986 181.272C85.22 179.851 87.1479 179.053 89.1581 179.053H171.586C173.596 179.053 175.524 179.851 176.945 181.272C178.367 182.694 179.165 184.621 179.165 186.632C179.165 188.642 178.367 190.569 176.945 191.991C175.524 193.412 173.596 194.21 171.586 194.21Z" fill="#FF6584"/>
<path d="M116.634 271.895H34.2064C32.1962 271.895 30.2683 271.096 28.8469 269.675C27.4254 268.254 26.6269 266.326 26.6269 264.316C26.6269 262.306 27.4254 260.378 28.8469 258.957C30.2683 257.535 32.1962 256.737 34.2064 256.737H116.634C118.644 256.737 120.572 257.535 121.993 258.957C123.415 260.378 124.213 262.306 124.213 264.316C124.213 266.326 123.415 268.254 121.993 269.675C120.572 271.096 118.644 271.895 116.634 271.895Z" fill="#BDD7FF"/>
<path d="M116.634 305.053H34.2064C32.1962 305.053 30.2683 304.254 28.8469 302.833C27.4254 301.411 26.6269 299.484 26.6269 297.474C26.6269 295.464 27.4254 293.536 28.8469 292.115C30.2683 290.693 32.1962 289.895 34.2064 289.895H116.634C118.644 289.895 120.572 290.693 121.993 292.115C123.415 293.536 124.213 295.464 124.213 297.474C124.213 299.484 123.415 301.411 121.993 302.833C120.572 304.254 118.644 305.053 116.634 305.053Z" fill="#BDD7FF"/>
<path d="M116.634 338.21H34.2064C32.1962 338.21 30.2683 337.412 28.8469 335.991C27.4254 334.569 26.6269 332.642 26.6269 330.632C26.6269 328.621 27.4254 326.694 28.8469 325.272C30.2683 323.851 32.1962 323.053 34.2064 323.053H116.634C118.644 323.053 120.572 323.851 121.993 325.272C123.415 326.694 124.213 328.621 124.213 330.632C124.213 332.642 123.415 334.569 121.993 335.991C120.572 337.412 118.644 338.21 116.634 338.21Z" fill="#BDD7FF"/>
<path d="M219.437 278.392C227.249 278.392 233.581 272.06 233.581 264.249C233.581 256.437 227.249 250.105 219.437 250.105C211.625 250.105 205.292 256.437 205.292 264.249C205.292 272.06 211.625 278.392 219.437 278.392Z" fill="#FF6584"/>
<path d="M218.035 269.644C217.717 269.644 217.407 269.542 217.153 269.351L217.137 269.339L213.813 266.796C213.502 266.558 213.298 266.206 213.247 265.817C213.196 265.429 213.301 265.036 213.539 264.725C213.777 264.414 214.13 264.211 214.518 264.16C214.906 264.108 215.299 264.213 215.61 264.452L217.763 266.103L222.851 259.465C222.969 259.311 223.116 259.182 223.284 259.085C223.452 258.988 223.637 258.925 223.83 258.9C224.022 258.875 224.217 258.887 224.405 258.937C224.592 258.987 224.768 259.074 224.922 259.192L224.922 259.192L224.89 259.236L224.923 259.192C225.233 259.431 225.436 259.783 225.488 260.171C225.539 260.559 225.434 260.952 225.196 261.263L219.211 269.066C219.073 269.246 218.895 269.391 218.691 269.491C218.487 269.591 218.263 269.643 218.036 269.642L218.035 269.644Z" fill="white"/>
<path d="M219.437 311.55C227.249 311.55 233.581 305.218 233.581 297.407C233.581 289.595 227.249 283.263 219.437 283.263C211.625 283.263 205.292 289.595 205.292 297.407C205.292 305.218 211.625 311.55 219.437 311.55Z" fill="#FF6584"/>
<path d="M218.035 302.802C217.717 302.802 217.407 302.699 217.153 302.508L217.137 302.497L213.813 299.954C213.659 299.836 213.53 299.689 213.432 299.521C213.335 299.353 213.272 299.167 213.247 298.975C213.222 298.783 213.234 298.587 213.284 298.4C213.334 298.213 213.421 298.037 213.539 297.883C213.657 297.729 213.804 297.6 213.972 297.503C214.14 297.406 214.326 297.343 214.518 297.317C214.71 297.292 214.906 297.305 215.093 297.355C215.281 297.405 215.456 297.491 215.61 297.609L217.763 299.26L222.851 292.623C222.969 292.469 223.116 292.34 223.284 292.243C223.452 292.146 223.638 292.083 223.83 292.058C224.022 292.032 224.217 292.045 224.405 292.095C224.592 292.145 224.768 292.232 224.922 292.35L224.922 292.35L224.89 292.394L224.923 292.35C225.233 292.589 225.436 292.941 225.488 293.329C225.539 293.717 225.434 294.11 225.196 294.421L219.211 302.224C219.073 302.404 218.895 302.549 218.691 302.649C218.487 302.749 218.263 302.801 218.036 302.8L218.035 302.802Z" fill="white"/>
<path d="M219.437 344.775C227.249 344.775 233.581 338.443 233.581 330.632C233.581 322.82 227.249 316.488 219.437 316.488C211.625 316.488 205.292 322.82 205.292 330.632C205.292 338.443 211.625 344.775 219.437 344.775Z" fill="#FF6584"/>
<path d="M218.035 336.027C217.717 336.027 217.407 335.924 217.153 335.734L217.137 335.722L213.813 333.179C213.502 332.941 213.299 332.589 213.248 332.2C213.197 331.812 213.302 331.42 213.54 331.109C213.779 330.798 214.13 330.595 214.519 330.544C214.907 330.492 215.299 330.597 215.61 330.835L217.763 332.486L222.851 325.848C222.969 325.694 223.116 325.565 223.284 325.468C223.452 325.371 223.638 325.308 223.83 325.283C224.022 325.257 224.217 325.27 224.405 325.32C224.592 325.37 224.768 325.457 224.922 325.575L224.922 325.575L224.89 325.619L224.923 325.575C225.233 325.814 225.437 326.166 225.488 326.554C225.539 326.942 225.434 327.335 225.196 327.646L219.212 335.449C219.073 335.629 218.895 335.774 218.691 335.874C218.488 335.974 218.263 336.026 218.037 336.025L218.035 336.027Z" fill="white"/>
</svg>
