<svg width="142" height="48" viewBox="0 0 142 48" fill="none" xmlns="http://www.w3.org/2000/svg">
<path d="M7.992 20L5.004 14.87H3.024V20H1.386V7.454H5.436C6.384 7.454 7.182 7.616 7.83 7.94C8.49 8.264 8.982 8.702 9.306 9.254C9.63 9.806 9.792 10.436 9.792 11.144C9.792 12.008 9.54 12.77 9.036 13.43C8.544 14.09 7.8 14.528 6.804 14.744L9.954 20H7.992ZM3.024 13.556H5.436C6.324 13.556 6.99 13.34 7.434 12.908C7.878 12.464 8.1 11.876 8.1 11.144C8.1 10.4 7.878 9.824 7.434 9.416C7.002 9.008 6.336 8.804 5.436 8.804H3.024V13.556ZM16.6392 20.162C15.7152 20.162 14.8752 19.952 14.1192 19.532C13.3752 19.112 12.7872 18.518 12.3552 17.75C11.9352 16.97 11.7252 16.07 11.7252 15.05C11.7252 14.042 11.9412 13.154 12.3732 12.386C12.8172 11.606 13.4172 11.012 14.1732 10.604C14.9292 10.184 15.7752 9.974 16.7112 9.974C17.6472 9.974 18.4932 10.184 19.2492 10.604C20.0052 11.012 20.5992 11.6 21.0312 12.368C21.4752 13.136 21.6972 14.03 21.6972 15.05C21.6972 16.07 21.4692 16.97 21.0132 17.75C20.5692 18.518 19.9632 19.112 19.1952 19.532C18.4272 19.952 17.5752 20.162 16.6392 20.162ZM16.6392 18.722C17.2272 18.722 17.7792 18.584 18.2952 18.308C18.8112 18.032 19.2252 17.618 19.5372 17.066C19.8612 16.514 20.0232 15.842 20.0232 15.05C20.0232 14.258 19.8672 13.586 19.5552 13.034C19.2432 12.482 18.8352 12.074 18.3312 11.81C17.8272 11.534 17.2812 11.396 16.6932 11.396C16.0932 11.396 15.5412 11.534 15.0372 11.81C14.5452 12.074 14.1492 12.482 13.8492 13.034C13.5492 13.586 13.3992 14.258 13.3992 15.05C13.3992 15.854 13.5432 16.532 13.8312 17.084C14.1312 17.636 14.5272 18.05 15.0192 18.326C15.5112 18.59 16.0512 18.722 16.6392 18.722ZM23.2388 15.05C23.2388 14.03 23.4428 13.142 23.8508 12.386C24.2588 11.618 24.8228 11.024 25.5428 10.604C26.2748 10.184 27.1088 9.974 28.0448 9.974C29.2568 9.974 30.2528 10.268 31.0328 10.856C31.8248 11.444 32.3468 12.26 32.5988 13.304H30.8348C30.6668 12.704 30.3368 12.23 29.8448 11.882C29.3648 11.534 28.7648 11.36 28.0448 11.36C27.1088 11.36 26.3528 11.684 25.7768 12.332C25.2008 12.968 24.9128 13.874 24.9128 15.05C24.9128 16.238 25.2008 17.156 25.7768 17.804C26.3528 18.452 27.1088 18.776 28.0448 18.776C28.7648 18.776 29.3648 18.608 29.8448 18.272C30.3248 17.936 30.6548 17.456 30.8348 16.832H32.5988C32.3348 17.84 31.8068 18.65 31.0148 19.262C30.2228 19.862 29.2328 20.162 28.0448 20.162C27.1088 20.162 26.2748 19.952 25.5428 19.532C24.8228 19.112 24.2588 18.518 23.8508 17.75C23.4428 16.982 23.2388 16.082 23.2388 15.05ZM34.1724 15.032C34.1724 14.024 34.3764 13.142 34.7844 12.386C35.1924 11.618 35.7504 11.024 36.4584 10.604C37.1784 10.184 37.9764 9.974 38.8524 9.974C39.7164 9.974 40.4664 10.16 41.1024 10.532C41.7384 10.904 42.2124 11.372 42.5244 11.936V10.136H44.1804V20H42.5244V18.164C42.2004 18.74 41.7144 19.22 41.0664 19.604C40.4304 19.976 39.6864 20.162 38.8344 20.162C37.9584 20.162 37.1664 19.946 36.4584 19.514C35.7504 19.082 35.1924 18.476 34.7844 17.696C34.3764 16.916 34.1724 16.028 34.1724 15.032ZM42.5244 15.05C42.5244 14.306 42.3744 13.658 42.0744 13.106C41.7744 12.554 41.3664 12.134 40.8504 11.846C40.3464 11.546 39.7884 11.396 39.1764 11.396C38.5644 11.396 38.0064 11.54 37.5024 11.828C36.9984 12.116 36.5964 12.536 36.2964 13.088C35.9964 13.64 35.8464 14.288 35.8464 15.032C35.8464 15.788 35.9964 16.448 36.2964 17.012C36.5964 17.564 36.9984 17.99 37.5024 18.29C38.0064 18.578 38.5644 18.722 39.1764 18.722C39.7884 18.722 40.3464 18.578 40.8504 18.29C41.3664 17.99 41.7744 17.564 42.0744 17.012C42.3744 16.448 42.5244 15.794 42.5244 15.05ZM61.3773 20L59.7393 18.344C59.1273 18.98 58.4733 19.454 57.7773 19.766C57.0813 20.066 56.2953 20.216 55.4193 20.216C54.5553 20.216 53.7873 20.06 53.1153 19.748C52.4553 19.436 51.9393 18.992 51.5673 18.416C51.2073 17.84 51.0273 17.168 51.0273 16.4C51.0273 15.524 51.2733 14.756 51.7653 14.096C52.2693 13.424 53.0073 12.896 53.9793 12.512C53.5953 12.056 53.3193 11.636 53.1513 11.252C52.9833 10.868 52.8993 10.448 52.8993 9.992C52.8993 9.464 53.0313 8.99 53.2953 8.57C53.5713 8.138 53.9613 7.802 54.4653 7.562C54.9693 7.322 55.5513 7.202 56.2113 7.202C56.8593 7.202 57.4233 7.328 57.9033 7.58C58.3833 7.832 58.7433 8.186 58.9833 8.642C59.2233 9.086 59.3313 9.584 59.3073 10.136H57.6693C57.6813 9.644 57.5433 9.26 57.2553 8.984C56.9673 8.696 56.5953 8.552 56.1393 8.552C55.6593 8.552 55.2693 8.69 54.9693 8.966C54.6813 9.23 54.5373 9.572 54.5373 9.992C54.5373 10.352 54.6333 10.7 54.8253 11.036C55.0293 11.372 55.3653 11.786 55.8333 12.278L59.5773 16.04L59.9013 15.536L61.1253 13.484H62.8893L61.4133 16.04C61.2093 16.4 60.9693 16.778 60.6933 17.174L63.5193 20H61.3773ZM55.4193 18.812C56.0673 18.812 56.6493 18.686 57.1653 18.434C57.6933 18.182 58.1913 17.792 58.6593 17.264L54.9693 13.556C53.4333 14.144 52.6653 15.074 52.6653 16.346C52.6653 17.054 52.9173 17.642 53.4213 18.11C53.9373 18.578 54.6033 18.812 55.4193 18.812ZM77.2688 17.21H71.7968L70.7888 20H69.0608L73.5968 7.526H75.4868L80.0048 20H78.2768L77.2688 17.21ZM76.8008 15.878L74.5328 9.542L72.2648 15.878H76.8008ZM82.8637 8.534C82.5517 8.534 82.2877 8.426 82.0717 8.21C81.8677 7.994 81.7657 7.73 81.7657 7.418C81.7657 7.106 81.8677 6.842 82.0717 6.626C82.2877 6.41 82.5517 6.302 82.8637 6.302C83.1757 6.302 83.4337 6.41 83.6377 6.626C83.8537 6.842 83.9617 7.106 83.9617 7.418C83.9617 7.73 83.8537 7.994 83.6377 8.21C83.4337 8.426 83.1757 8.534 82.8637 8.534ZM83.6737 22.142C83.6737 23.018 83.4517 23.66 83.0077 24.068C82.5637 24.476 81.9157 24.68 81.0637 24.68H80.1097V23.294H80.7937C81.2497 23.294 81.5677 23.204 81.7477 23.024C81.9397 22.844 82.0357 22.538 82.0357 22.106V10.136H83.6737V22.142ZM85.8345 15.032C85.8345 14.024 86.0385 13.142 86.4465 12.386C86.8545 11.618 87.4125 11.024 88.1205 10.604C88.8405 10.184 89.6385 9.974 90.5145 9.974C91.3785 9.974 92.1285 10.16 92.7645 10.532C93.4005 10.904 93.8745 11.372 94.1865 11.936V10.136H95.8425V20H94.1865V18.164C93.8625 18.74 93.3765 19.22 92.7285 19.604C92.0925 19.976 91.3485 20.162 90.4965 20.162C89.6205 20.162 88.8285 19.946 88.1205 19.514C87.4125 19.082 86.8545 18.476 86.4465 17.696C86.0385 16.916 85.8345 16.028 85.8345 15.032ZM94.1865 15.05C94.1865 14.306 94.0365 13.658 93.7365 13.106C93.4365 12.554 93.0285 12.134 92.5125 11.846C92.0085 11.546 91.4505 11.396 90.8385 11.396C90.2265 11.396 89.6685 11.54 89.1645 11.828C88.6605 12.116 88.2585 12.536 87.9585 13.088C87.6585 13.64 87.5085 14.288 87.5085 15.032C87.5085 15.788 87.6585 16.448 87.9585 17.012C88.2585 17.564 88.6605 17.99 89.1645 18.29C89.6685 18.578 90.2265 18.722 90.8385 18.722C91.4505 18.722 92.0085 18.578 92.5125 18.29C93.0285 17.99 93.4365 17.564 93.7365 17.012C94.0365 16.448 94.1865 15.794 94.1865 15.05ZM103.417 9.956C104.617 9.956 105.589 10.322 106.333 11.054C107.077 11.774 107.449 12.818 107.449 14.186V20H105.829V14.42C105.829 13.436 105.583 12.686 105.091 12.17C104.599 11.642 103.927 11.378 103.075 11.378C102.211 11.378 101.521 11.648 101.005 12.188C100.501 12.728 100.249 13.514 100.249 14.546V20H98.6106V10.136H100.249V11.54C100.573 11.036 101.011 10.646 101.563 10.37C102.127 10.094 102.745 9.956 103.417 9.956ZM109.512 15.032C109.512 14.024 109.716 13.142 110.124 12.386C110.532 11.618 111.09 11.024 111.798 10.604C112.518 10.184 113.316 9.974 114.192 9.974C115.056 9.974 115.806 10.16 116.442 10.532C117.078 10.904 117.552 11.372 117.864 11.936V10.136H119.52V20H117.864V18.164C117.54 18.74 117.054 19.22 116.406 19.604C115.77 19.976 115.026 20.162 114.174 20.162C113.298 20.162 112.506 19.946 111.798 19.514C111.09 19.082 110.532 18.476 110.124 17.696C109.716 16.916 109.512 16.028 109.512 15.032ZM117.864 15.05C117.864 14.306 117.714 13.658 117.414 13.106C117.114 12.554 116.706 12.134 116.19 11.846C115.686 11.546 115.128 11.396 114.516 11.396C113.904 11.396 113.346 11.54 112.842 11.828C112.338 12.116 111.936 12.536 111.636 13.088C111.336 13.64 111.186 14.288 111.186 15.032C111.186 15.788 111.336 16.448 111.636 17.012C111.936 17.564 112.338 17.99 112.842 18.29C113.346 18.578 113.904 18.722 114.516 18.722C115.128 18.722 115.686 18.578 116.19 18.29C116.706 17.99 117.114 17.564 117.414 17.012C117.714 16.448 117.864 15.794 117.864 15.05ZM127.796 20L123.926 15.644V20H122.288V6.68H123.926V14.51L127.724 10.136H130.01L125.366 15.05L130.028 20H127.796ZM140.3 10.136V20H138.662V18.542C138.35 19.046 137.912 19.442 137.348 19.73C136.796 20.006 136.184 20.144 135.512 20.144C134.744 20.144 134.054 19.988 133.442 19.676C132.83 19.352 132.344 18.872 131.984 18.236C131.636 17.6 131.462 16.826 131.462 15.914V10.136H133.082V15.698C133.082 16.67 133.328 17.42 133.82 17.948C134.312 18.464 134.984 18.722 135.836 18.722C136.712 18.722 137.402 18.452 137.906 17.912C138.41 17.372 138.662 16.586 138.662 15.554V10.136H140.3Z" fill="white"/>
<path d="M2.002 40.154C1.81533 40.154 1.66133 40.098 1.54 39.986C1.41867 39.874 1.358 39.7247 1.358 39.538L1.344 31.922C1.344 31.278 1.28333 30.7787 1.162 30.424C1.358 30.256 1.57733 30.172 1.82 30.172C2.016 30.172 2.17467 30.228 2.296 30.34C2.41733 30.4427 2.478 30.592 2.478 30.788V38.404C2.478 39.0853 2.53867 39.5847 2.66 39.902C2.464 40.07 2.24467 40.154 2.002 40.154ZM12.5641 30.116C13.9361 30.116 14.9488 30.3493 15.6021 30.816C16.2555 31.2733 16.5821 31.992 16.5821 32.972C16.5821 35.0813 15.1541 36.136 12.2981 36.136H11.9061V38.446C11.9061 38.67 11.9201 38.9267 11.9481 39.216C11.9761 39.5053 12.0228 39.734 12.0881 39.902C12.0228 39.9673 11.9341 40.0233 11.8221 40.07C11.7101 40.126 11.5841 40.154 11.4441 40.154C11.2481 40.154 11.0895 40.098 10.9681 39.986C10.8468 39.874 10.7815 39.7247 10.7721 39.538V31.922C10.7721 31.698 10.7581 31.4413 10.7301 31.152C10.7021 30.8533 10.6555 30.6107 10.5901 30.424C10.9821 30.2187 11.6401 30.116 12.5641 30.116ZM12.3261 35.632C13.3715 35.632 14.1368 35.4173 14.6221 34.988C15.1075 34.5587 15.3501 33.91 15.3501 33.042C15.3501 32.23 15.1261 31.628 14.6781 31.236C14.2301 30.8347 13.5115 30.634 12.5221 30.634C12.1955 30.634 11.9901 30.6433 11.9061 30.662V35.632H12.3261ZM33.9889 39.328C35.0809 39.3187 36.2989 39.1927 37.6429 38.95C37.7083 38.9873 37.7596 39.062 37.7969 39.174C37.8436 39.286 37.8669 39.4027 37.8669 39.524C37.8669 39.664 37.8436 39.7807 37.7969 39.874C37.7503 39.958 37.6803 40 37.5869 40H33.5129C33.3169 40 33.1583 39.944 33.0369 39.832C32.9249 39.72 32.8689 39.566 32.8689 39.37L32.8549 31.922C32.8549 31.278 32.7943 30.7787 32.6729 30.424C32.8689 30.256 33.0883 30.172 33.3309 30.172C33.5269 30.172 33.6809 30.228 33.7929 30.34C33.9143 30.4427 33.9749 30.592 33.9749 30.788L33.9889 39.328ZM51.6635 39.23C51.7662 39.538 51.8782 39.7573 51.9995 39.888C51.8408 40.0653 51.6215 40.154 51.3415 40.154C51.1642 40.154 51.0102 40.112 50.8795 40.028C50.7488 39.9533 50.6648 39.8413 50.6275 39.692L49.7735 36.92H46.1055L45.4055 39.258C45.3495 39.4633 45.3215 39.6173 45.3215 39.72C45.3215 39.8693 45.3495 39.9767 45.4055 40.042C45.2095 40.1167 45.0042 40.154 44.7895 40.154C44.3602 40.154 44.1455 39.9813 44.1455 39.636C44.1455 39.5147 44.1922 39.3047 44.2855 39.006L47.2535 30.298C47.5615 30.1767 47.8695 30.116 48.1775 30.116C48.5415 30.116 48.7655 30.256 48.8495 30.536L51.6635 39.23ZM49.5775 36.248L47.9255 30.872L46.3155 36.248H49.5775ZM69.6367 30.144C70.0847 30.144 70.304 30.312 70.2947 30.648C70.2947 30.732 70.276 30.8487 70.2387 30.998C70.2013 31.1473 70.178 31.2453 70.1687 31.292L67.7327 39.972C67.4807 40.0933 67.224 40.154 66.9627 40.154C66.776 40.154 66.622 40.1213 66.5007 40.056C66.3793 40 66.3 39.9113 66.2627 39.79L64.2467 32.664L62.1467 39.972C61.8947 40.0933 61.6473 40.154 61.4047 40.154C60.966 40.154 60.7187 40.0327 60.6627 39.79L58.3387 31.026C58.2733 30.7927 58.1613 30.578 58.0027 30.382C58.18 30.2047 58.4087 30.116 58.6887 30.116C58.8847 30.116 59.0433 30.1533 59.1647 30.228C59.2953 30.3027 59.3793 30.4147 59.4167 30.564L61.5447 39.188L63.5887 31.978C63.6167 31.866 63.6307 31.7633 63.6307 31.67C63.6307 31.53 63.6027 31.404 63.5467 31.292C63.6587 31.236 63.7893 31.194 63.9387 31.166C64.088 31.1287 64.2187 31.11 64.3307 31.11C64.4707 31.11 64.5873 31.1333 64.6807 31.18C64.7833 31.2173 64.8533 31.278 64.8907 31.362L67.1167 39.174L69.0487 31.026C69.058 30.9793 69.072 30.9093 69.0907 30.816C69.1187 30.7227 69.1327 30.6433 69.1327 30.578C69.1327 30.438 69.1047 30.326 69.0487 30.242C69.2447 30.1767 69.4407 30.144 69.6367 30.144ZM91.2474 30.298C91.3127 30.298 91.3641 30.3307 91.4014 30.396C91.4387 30.452 91.4574 30.5267 91.4574 30.62C91.4574 30.7507 91.4247 30.886 91.3594 31.026C91.3034 31.166 91.2287 31.2547 91.1354 31.292C89.8007 31.0587 88.5407 30.9373 87.3554 30.928V34.624H90.7854C90.8134 34.736 90.8274 34.848 90.8274 34.96C90.8274 35.0907 90.8134 35.2073 90.7854 35.31H87.3694V38.404C87.3694 39.0853 87.4301 39.5847 87.5514 39.902C87.3554 40.07 87.1361 40.154 86.8934 40.154C86.7067 40.154 86.5527 40.098 86.4314 39.986C86.3101 39.874 86.2494 39.7247 86.2494 39.538L86.2354 32.034C86.2354 31.4273 86.1747 30.9467 86.0534 30.592C86.1841 30.48 86.3147 30.4053 86.4454 30.368C86.5854 30.3213 86.7767 30.298 87.0194 30.298H91.2474ZM99.7395 40.154C99.5528 40.154 99.3988 40.098 99.2775 39.986C99.1562 39.874 99.0955 39.7247 99.0955 39.538L99.0815 31.922C99.0815 31.278 99.0208 30.7787 98.8995 30.424C99.0955 30.256 99.3148 30.172 99.5575 30.172C99.7535 30.172 99.9122 30.228 100.034 30.34C100.155 30.4427 100.216 30.592 100.216 30.788V38.404C100.216 39.0853 100.276 39.5847 100.398 39.902C100.202 40.07 99.9822 40.154 99.7395 40.154ZM115.258 39.076C115.314 39.188 115.342 39.3093 115.342 39.44C115.342 39.664 115.248 39.8413 115.062 39.972C114.875 40.0933 114.688 40.154 114.502 40.154C114.156 40.154 113.881 40.0467 113.676 39.832C113.48 39.608 113.284 39.2533 113.088 38.768L112.444 37.116C112.313 36.7987 112.192 36.5513 112.08 36.374C111.977 36.1967 111.814 36.0473 111.59 35.926C111.366 35.7953 111.062 35.73 110.68 35.73L109.644 35.716V38.446C109.644 38.67 109.658 38.9267 109.686 39.216C109.714 39.5053 109.76 39.734 109.826 39.902C109.76 39.9673 109.672 40.0233 109.56 40.07C109.448 40.126 109.322 40.154 109.182 40.154C108.986 40.154 108.827 40.098 108.706 39.986C108.584 39.874 108.519 39.7247 108.51 39.538V31.922C108.51 31.698 108.496 31.4413 108.468 31.152C108.44 30.8533 108.393 30.6107 108.328 30.424C108.72 30.2187 109.406 30.116 110.386 30.116C111.72 30.116 112.705 30.326 113.34 30.746C113.974 31.1567 114.292 31.8287 114.292 32.762C114.292 33.434 114.096 34.0033 113.704 34.47C113.321 34.9367 112.803 35.254 112.15 35.422C112.476 35.5153 112.738 35.6833 112.934 35.926C113.139 36.1593 113.326 36.4627 113.494 36.836L114.194 38.488C114.306 38.7587 114.413 38.9547 114.516 39.076C114.618 39.188 114.73 39.2487 114.852 39.258C115.02 39.258 115.155 39.1973 115.258 39.076ZM110.736 35.226C111.417 35.2073 111.972 34.9833 112.402 34.554C112.84 34.1247 113.06 33.56 113.06 32.86C113.06 32.0947 112.85 31.53 112.43 31.166C112.019 30.802 111.356 30.62 110.442 30.62C110.078 30.62 109.812 30.634 109.644 30.662V35.212L110.736 35.226ZM131.716 38.404C131.716 39.076 131.772 39.5753 131.884 39.902C131.688 40.07 131.469 40.154 131.226 40.154C131.049 40.154 130.904 40.098 130.792 39.986C130.68 39.874 130.624 39.7247 130.624 39.538L130.596 31.656L127.53 38.474C127.306 38.558 127.101 38.6 126.914 38.6C126.746 38.6 126.597 38.5673 126.466 38.502C125.412 36.5047 124.31 34.2367 123.162 31.698L123.176 38.404C123.176 39.104 123.237 39.6313 123.358 39.986C123.228 40.098 123.074 40.154 122.896 40.154C122.626 40.154 122.49 39.9813 122.49 39.636L122.476 31.894C122.476 31.2313 122.448 30.7133 122.392 30.34C122.504 30.228 122.752 30.172 123.134 30.172C123.386 30.172 123.582 30.2467 123.722 30.396L124.884 32.846L127.138 37.522C127.325 37.1113 127.974 35.6413 129.084 33.112C129.364 32.4493 129.607 31.8847 129.812 31.418C130.018 30.9513 130.186 30.5733 130.316 30.284C130.512 30.2093 130.741 30.172 131.002 30.172C131.18 30.172 131.334 30.2047 131.464 30.27C131.604 30.3353 131.679 30.4147 131.688 30.508L131.716 38.404Z" fill="white"/>
</svg>
