<svg width="225" height="60" viewBox="0 0 225 60" fill="none" xmlns="http://www.w3.org/2000/svg">
<line x1="72.5" y1="54" x2="72.5" y2="4" stroke="white" stroke-width="3"/>
<path d="M90.992 26L88.004 20.87H86.024V26H84.386V13.454H88.436C89.384 13.454 90.182 13.616 90.83 13.94C91.49 14.264 91.982 14.702 92.306 15.254C92.63 15.806 92.792 16.436 92.792 17.144C92.792 18.008 92.54 18.77 92.036 19.43C91.544 20.09 90.8 20.528 89.804 20.744L92.954 26H90.992ZM86.024 19.556H88.436C89.324 19.556 89.99 19.34 90.434 18.908C90.878 18.464 91.1 17.876 91.1 17.144C91.1 16.4 90.878 15.824 90.434 15.416C90.002 15.008 89.336 14.804 88.436 14.804H86.024V19.556ZM99.6392 26.162C98.7152 26.162 97.8752 25.952 97.1192 25.532C96.3752 25.112 95.7872 24.518 95.3552 23.75C94.9352 22.97 94.7252 22.07 94.7252 21.05C94.7252 20.042 94.9412 19.154 95.3732 18.386C95.8172 17.606 96.4172 17.012 97.1732 16.604C97.9292 16.184 98.7752 15.974 99.7112 15.974C100.647 15.974 101.493 16.184 102.249 16.604C103.005 17.012 103.599 17.6 104.031 18.368C104.475 19.136 104.697 20.03 104.697 21.05C104.697 22.07 104.469 22.97 104.013 23.75C103.569 24.518 102.963 25.112 102.195 25.532C101.427 25.952 100.575 26.162 99.6392 26.162ZM99.6392 24.722C100.227 24.722 100.779 24.584 101.295 24.308C101.811 24.032 102.225 23.618 102.537 23.066C102.861 22.514 103.023 21.842 103.023 21.05C103.023 20.258 102.867 19.586 102.555 19.034C102.243 18.482 101.835 18.074 101.331 17.81C100.827 17.534 100.281 17.396 99.6932 17.396C99.0932 17.396 98.5412 17.534 98.0372 17.81C97.5452 18.074 97.1492 18.482 96.8492 19.034C96.5492 19.586 96.3992 20.258 96.3992 21.05C96.3992 21.854 96.5432 22.532 96.8312 23.084C97.1312 23.636 97.5272 24.05 98.0192 24.326C98.5112 24.59 99.0512 24.722 99.6392 24.722ZM106.239 21.05C106.239 20.03 106.443 19.142 106.851 18.386C107.259 17.618 107.823 17.024 108.543 16.604C109.275 16.184 110.109 15.974 111.045 15.974C112.257 15.974 113.253 16.268 114.033 16.856C114.825 17.444 115.347 18.26 115.599 19.304H113.835C113.667 18.704 113.337 18.23 112.845 17.882C112.365 17.534 111.765 17.36 111.045 17.36C110.109 17.36 109.353 17.684 108.777 18.332C108.201 18.968 107.913 19.874 107.913 21.05C107.913 22.238 108.201 23.156 108.777 23.804C109.353 24.452 110.109 24.776 111.045 24.776C111.765 24.776 112.365 24.608 112.845 24.272C113.325 23.936 113.655 23.456 113.835 22.832H115.599C115.335 23.84 114.807 24.65 114.015 25.262C113.223 25.862 112.233 26.162 111.045 26.162C110.109 26.162 109.275 25.952 108.543 25.532C107.823 25.112 107.259 24.518 106.851 23.75C106.443 22.982 106.239 22.082 106.239 21.05ZM117.172 21.032C117.172 20.024 117.376 19.142 117.784 18.386C118.192 17.618 118.75 17.024 119.458 16.604C120.178 16.184 120.976 15.974 121.852 15.974C122.716 15.974 123.466 16.16 124.102 16.532C124.738 16.904 125.212 17.372 125.524 17.936V16.136H127.18V26H125.524V24.164C125.2 24.74 124.714 25.22 124.066 25.604C123.43 25.976 122.686 26.162 121.834 26.162C120.958 26.162 120.166 25.946 119.458 25.514C118.75 25.082 118.192 24.476 117.784 23.696C117.376 22.916 117.172 22.028 117.172 21.032ZM125.524 21.05C125.524 20.306 125.374 19.658 125.074 19.106C124.774 18.554 124.366 18.134 123.85 17.846C123.346 17.546 122.788 17.396 122.176 17.396C121.564 17.396 121.006 17.54 120.502 17.828C119.998 18.116 119.596 18.536 119.296 19.088C118.996 19.64 118.846 20.288 118.846 21.032C118.846 21.788 118.996 22.448 119.296 23.012C119.596 23.564 119.998 23.99 120.502 24.29C121.006 24.578 121.564 24.722 122.176 24.722C122.788 24.722 123.346 24.578 123.85 24.29C124.366 23.99 124.774 23.564 125.074 23.012C125.374 22.448 125.524 21.794 125.524 21.05ZM144.377 26L142.739 24.344C142.127 24.98 141.473 25.454 140.777 25.766C140.081 26.066 139.295 26.216 138.419 26.216C137.555 26.216 136.787 26.06 136.115 25.748C135.455 25.436 134.939 24.992 134.567 24.416C134.207 23.84 134.027 23.168 134.027 22.4C134.027 21.524 134.273 20.756 134.765 20.096C135.269 19.424 136.007 18.896 136.979 18.512C136.595 18.056 136.319 17.636 136.151 17.252C135.983 16.868 135.899 16.448 135.899 15.992C135.899 15.464 136.031 14.99 136.295 14.57C136.571 14.138 136.961 13.802 137.465 13.562C137.969 13.322 138.551 13.202 139.211 13.202C139.859 13.202 140.423 13.328 140.903 13.58C141.383 13.832 141.743 14.186 141.983 14.642C142.223 15.086 142.331 15.584 142.307 16.136H140.669C140.681 15.644 140.543 15.26 140.255 14.984C139.967 14.696 139.595 14.552 139.139 14.552C138.659 14.552 138.269 14.69 137.969 14.966C137.681 15.23 137.537 15.572 137.537 15.992C137.537 16.352 137.633 16.7 137.825 17.036C138.029 17.372 138.365 17.786 138.833 18.278L142.577 22.04L142.901 21.536L144.125 19.484H145.889L144.413 22.04C144.209 22.4 143.969 22.778 143.693 23.174L146.519 26H144.377ZM138.419 24.812C139.067 24.812 139.649 24.686 140.165 24.434C140.693 24.182 141.191 23.792 141.659 23.264L137.969 19.556C136.433 20.144 135.665 21.074 135.665 22.346C135.665 23.054 135.917 23.642 136.421 24.11C136.937 24.578 137.603 24.812 138.419 24.812ZM160.269 23.21H154.797L153.789 26H152.061L156.597 13.526H158.487L163.005 26H161.277L160.269 23.21ZM159.801 21.878L157.533 15.542L155.265 21.878H159.801ZM165.864 14.534C165.552 14.534 165.288 14.426 165.072 14.21C164.868 13.994 164.766 13.73 164.766 13.418C164.766 13.106 164.868 12.842 165.072 12.626C165.288 12.41 165.552 12.302 165.864 12.302C166.176 12.302 166.434 12.41 166.638 12.626C166.854 12.842 166.962 13.106 166.962 13.418C166.962 13.73 166.854 13.994 166.638 14.21C166.434 14.426 166.176 14.534 165.864 14.534ZM166.674 28.142C166.674 29.018 166.452 29.66 166.008 30.068C165.564 30.476 164.916 30.68 164.064 30.68H163.11V29.294H163.794C164.25 29.294 164.568 29.204 164.748 29.024C164.94 28.844 165.036 28.538 165.036 28.106V16.136H166.674V28.142ZM168.835 21.032C168.835 20.024 169.039 19.142 169.447 18.386C169.855 17.618 170.413 17.024 171.121 16.604C171.841 16.184 172.639 15.974 173.515 15.974C174.379 15.974 175.129 16.16 175.765 16.532C176.401 16.904 176.875 17.372 177.187 17.936V16.136H178.843V26H177.187V24.164C176.863 24.74 176.377 25.22 175.729 25.604C175.093 25.976 174.349 26.162 173.497 26.162C172.621 26.162 171.829 25.946 171.121 25.514C170.413 25.082 169.855 24.476 169.447 23.696C169.039 22.916 168.835 22.028 168.835 21.032ZM177.187 21.05C177.187 20.306 177.037 19.658 176.737 19.106C176.437 18.554 176.029 18.134 175.513 17.846C175.009 17.546 174.451 17.396 173.839 17.396C173.227 17.396 172.669 17.54 172.165 17.828C171.661 18.116 171.259 18.536 170.959 19.088C170.659 19.64 170.509 20.288 170.509 21.032C170.509 21.788 170.659 22.448 170.959 23.012C171.259 23.564 171.661 23.99 172.165 24.29C172.669 24.578 173.227 24.722 173.839 24.722C174.451 24.722 175.009 24.578 175.513 24.29C176.029 23.99 176.437 23.564 176.737 23.012C177.037 22.448 177.187 21.794 177.187 21.05ZM186.417 15.956C187.617 15.956 188.589 16.322 189.333 17.054C190.077 17.774 190.449 18.818 190.449 20.186V26H188.829V20.42C188.829 19.436 188.583 18.686 188.091 18.17C187.599 17.642 186.927 17.378 186.075 17.378C185.211 17.378 184.521 17.648 184.005 18.188C183.501 18.728 183.249 19.514 183.249 20.546V26H181.611V16.136H183.249V17.54C183.573 17.036 184.011 16.646 184.563 16.37C185.127 16.094 185.745 15.956 186.417 15.956ZM192.512 21.032C192.512 20.024 192.716 19.142 193.124 18.386C193.532 17.618 194.09 17.024 194.798 16.604C195.518 16.184 196.316 15.974 197.192 15.974C198.056 15.974 198.806 16.16 199.442 16.532C200.078 16.904 200.552 17.372 200.864 17.936V16.136H202.52V26H200.864V24.164C200.54 24.74 200.054 25.22 199.406 25.604C198.77 25.976 198.026 26.162 197.174 26.162C196.298 26.162 195.506 25.946 194.798 25.514C194.09 25.082 193.532 24.476 193.124 23.696C192.716 22.916 192.512 22.028 192.512 21.032ZM200.864 21.05C200.864 20.306 200.714 19.658 200.414 19.106C200.114 18.554 199.706 18.134 199.19 17.846C198.686 17.546 198.128 17.396 197.516 17.396C196.904 17.396 196.346 17.54 195.842 17.828C195.338 18.116 194.936 18.536 194.636 19.088C194.336 19.64 194.186 20.288 194.186 21.032C194.186 21.788 194.336 22.448 194.636 23.012C194.936 23.564 195.338 23.99 195.842 24.29C196.346 24.578 196.904 24.722 197.516 24.722C198.128 24.722 198.686 24.578 199.19 24.29C199.706 23.99 200.114 23.564 200.414 23.012C200.714 22.448 200.864 21.794 200.864 21.05ZM210.796 26L206.926 21.644V26H205.288V12.68H206.926V20.51L210.724 16.136H213.01L208.366 21.05L213.028 26H210.796ZM223.3 16.136V26H221.662V24.542C221.35 25.046 220.912 25.442 220.348 25.73C219.796 26.006 219.184 26.144 218.512 26.144C217.744 26.144 217.054 25.988 216.442 25.676C215.83 25.352 215.344 24.872 214.984 24.236C214.636 23.6 214.462 22.826 214.462 21.914V16.136H216.082V21.698C216.082 22.67 216.328 23.42 216.82 23.948C217.312 24.464 217.984 24.722 218.836 24.722C219.712 24.722 220.402 24.452 220.906 23.912C221.41 23.372 221.662 22.586 221.662 21.554V16.136H223.3Z" fill="white"/>
<path d="M34.896 32L34.168 31.264C33.896 31.5467 33.6053 31.7573 33.296 31.896C32.9867 32.0293 32.6373 32.096 32.248 32.096C31.864 32.096 31.5227 32.0267 31.224 31.888C30.9307 31.7493 30.7013 31.552 30.536 31.296C30.376 31.04 30.296 30.7413 30.296 30.4C30.296 30.0107 30.4053 29.6693 30.624 29.376C30.848 29.0773 31.176 28.8427 31.608 28.672C31.4373 28.4693 31.3147 28.2827 31.24 28.112C31.1653 27.9413 31.128 27.7547 31.128 27.552C31.128 27.3173 31.1867 27.1067 31.304 26.92C31.4267 26.728 31.6 26.5787 31.824 26.472C32.048 26.3653 32.3067 26.312 32.6 26.312C32.888 26.312 33.1387 26.368 33.352 26.48C33.5653 26.592 33.7253 26.7493 33.832 26.952C33.9387 27.1493 33.9867 27.3707 33.976 27.616H33.248C33.2533 27.3973 33.192 27.2267 33.064 27.104C32.936 26.976 32.7707 26.912 32.568 26.912C32.3547 26.912 32.1813 26.9733 32.048 27.096C31.92 27.2133 31.856 27.3653 31.856 27.552C31.856 27.712 31.8987 27.8667 31.984 28.016C32.0747 28.1653 32.224 28.3493 32.432 28.568L34.096 30.24L34.24 30.016L34.784 29.104H35.568L34.912 30.24C34.8213 30.4 34.7147 30.568 34.592 30.744L35.848 32H34.896ZM32.248 31.472C32.536 31.472 32.7947 31.416 33.024 31.304C33.2587 31.192 33.48 31.0187 33.688 30.784L32.048 29.136C31.3653 29.3973 31.024 29.8107 31.024 30.376C31.024 30.6907 31.136 30.952 31.36 31.16C31.5893 31.368 31.8853 31.472 32.248 31.472Z" fill="#FF4A4A"/>
<circle cx="32.5" cy="29.5" r="5" stroke="#FF4A4A"/>
<path d="M2.5 14.75V12H14.55C17.9833 12 20.6333 12.75 22.5 14.25C24.3667 15.75 25.3 17.9833 25.3 20.95C25.3 22.9167 24.6 24.9667 23.2 27.1C21.8333 29.2 20.4833 30.6333 19.15 31.4L27.05 44.25H30.6V47H25.1L16.2 32.65H8.95V44.25H12.6V47H2.5V44.25H5.55V14.75H2.5ZM14.3 14.75H8.95V29.9H17.2C20.3333 27.0333 21.9 24.15 21.9 21.25C21.9 19.1167 21.25 17.5 19.95 16.4C18.65 15.3 16.7667 14.75 14.3 14.75ZM55.5035 47V44.25H58.5535L56.2535 37.75H40.8535L38.6035 44.25H42.2035V47H32.1035V44.25H35.4035L47.0535 12H50.1035L62.1535 44.25H65.6035V47H55.5035ZM48.4035 15.8L41.7035 35.25H55.3535L48.4035 15.8Z" fill="#FF4A4A"/>
<path d="M85.002 46.154C84.8153 46.154 84.6613 46.098 84.54 45.986C84.4187 45.874 84.358 45.7247 84.358 45.538L84.344 37.922C84.344 37.278 84.2833 36.7787 84.162 36.424C84.358 36.256 84.5773 36.172 84.82 36.172C85.016 36.172 85.1747 36.228 85.296 36.34C85.4173 36.4427 85.478 36.592 85.478 36.788V44.404C85.478 45.0853 85.5387 45.5847 85.66 45.902C85.464 46.07 85.2447 46.154 85.002 46.154ZM95.5641 36.116C96.9361 36.116 97.9488 36.3493 98.6021 36.816C99.2555 37.2733 99.5821 37.992 99.5821 38.972C99.5821 41.0813 98.1541 42.136 95.2981 42.136H94.9061V44.446C94.9061 44.67 94.9201 44.9267 94.9481 45.216C94.9761 45.5053 95.0228 45.734 95.0881 45.902C95.0228 45.9673 94.9341 46.0233 94.8221 46.07C94.7101 46.126 94.5841 46.154 94.4441 46.154C94.2481 46.154 94.0895 46.098 93.9681 45.986C93.8468 45.874 93.7815 45.7247 93.7721 45.538V37.922C93.7721 37.698 93.7581 37.4413 93.7301 37.152C93.7021 36.8533 93.6555 36.6107 93.5901 36.424C93.9821 36.2187 94.6401 36.116 95.5641 36.116ZM95.3261 41.632C96.3715 41.632 97.1368 41.4173 97.6221 40.988C98.1075 40.5587 98.3501 39.91 98.3501 39.042C98.3501 38.23 98.1261 37.628 97.6781 37.236C97.2301 36.8347 96.5115 36.634 95.5221 36.634C95.1955 36.634 94.9901 36.6433 94.9061 36.662V41.632H95.3261ZM116.989 45.328C118.081 45.3187 119.299 45.1927 120.643 44.95C120.708 44.9873 120.76 45.062 120.797 45.174C120.844 45.286 120.867 45.4027 120.867 45.524C120.867 45.664 120.844 45.7807 120.797 45.874C120.75 45.958 120.68 46 120.587 46H116.513C116.317 46 116.158 45.944 116.037 45.832C115.925 45.72 115.869 45.566 115.869 45.37L115.855 37.922C115.855 37.278 115.794 36.7787 115.673 36.424C115.869 36.256 116.088 36.172 116.331 36.172C116.527 36.172 116.681 36.228 116.793 36.34C116.914 36.4427 116.975 36.592 116.975 36.788L116.989 45.328ZM134.664 45.23C134.766 45.538 134.878 45.7573 135 45.888C134.841 46.0653 134.622 46.154 134.342 46.154C134.164 46.154 134.01 46.112 133.88 46.028C133.749 45.9533 133.665 45.8413 133.628 45.692L132.774 42.92H129.106L128.406 45.258C128.35 45.4633 128.322 45.6173 128.322 45.72C128.322 45.8693 128.35 45.9767 128.406 46.042C128.21 46.1167 128.004 46.154 127.79 46.154C127.36 46.154 127.146 45.9813 127.146 45.636C127.146 45.5147 127.192 45.3047 127.286 45.006L130.254 36.298C130.562 36.1767 130.87 36.116 131.178 36.116C131.542 36.116 131.766 36.256 131.85 36.536L134.664 45.23ZM132.578 42.248L130.926 36.872L129.316 42.248H132.578ZM152.637 36.144C153.085 36.144 153.304 36.312 153.295 36.648C153.295 36.732 153.276 36.8487 153.239 36.998C153.201 37.1473 153.178 37.2453 153.169 37.292L150.733 45.972C150.481 46.0933 150.224 46.154 149.963 46.154C149.776 46.154 149.622 46.1213 149.501 46.056C149.379 46 149.3 45.9113 149.263 45.79L147.247 38.664L145.147 45.972C144.895 46.0933 144.647 46.154 144.405 46.154C143.966 46.154 143.719 46.0327 143.663 45.79L141.339 37.026C141.273 36.7927 141.161 36.578 141.003 36.382C141.18 36.2047 141.409 36.116 141.689 36.116C141.885 36.116 142.043 36.1533 142.165 36.228C142.295 36.3027 142.379 36.4147 142.417 36.564L144.545 45.188L146.589 37.978C146.617 37.866 146.631 37.7633 146.631 37.67C146.631 37.53 146.603 37.404 146.547 37.292C146.659 37.236 146.789 37.194 146.939 37.166C147.088 37.1287 147.219 37.11 147.331 37.11C147.471 37.11 147.587 37.1333 147.681 37.18C147.783 37.2173 147.853 37.278 147.891 37.362L150.117 45.174L152.049 37.026C152.058 36.9793 152.072 36.9093 152.091 36.816C152.119 36.7227 152.133 36.6433 152.133 36.578C152.133 36.438 152.105 36.326 152.049 36.242C152.245 36.1767 152.441 36.144 152.637 36.144ZM174.247 36.298C174.313 36.298 174.364 36.3307 174.401 36.396C174.439 36.452 174.457 36.5267 174.457 36.62C174.457 36.7507 174.425 36.886 174.359 37.026C174.303 37.166 174.229 37.2547 174.135 37.292C172.801 37.0587 171.541 36.9373 170.355 36.928V40.624H173.785C173.813 40.736 173.827 40.848 173.827 40.96C173.827 41.0907 173.813 41.2073 173.785 41.31H170.369V44.404C170.369 45.0853 170.43 45.5847 170.551 45.902C170.355 46.07 170.136 46.154 169.893 46.154C169.707 46.154 169.553 46.098 169.431 45.986C169.31 45.874 169.249 45.7247 169.249 45.538L169.235 38.034C169.235 37.4273 169.175 36.9467 169.053 36.592C169.184 36.48 169.315 36.4053 169.445 36.368C169.585 36.3213 169.777 36.298 170.019 36.298H174.247ZM182.74 46.154C182.553 46.154 182.399 46.098 182.278 45.986C182.156 45.874 182.096 45.7247 182.096 45.538L182.082 37.922C182.082 37.278 182.021 36.7787 181.9 36.424C182.096 36.256 182.315 36.172 182.558 36.172C182.754 36.172 182.912 36.228 183.034 36.34C183.155 36.4427 183.216 36.592 183.216 36.788V44.404C183.216 45.0853 183.276 45.5847 183.398 45.902C183.202 46.07 182.982 46.154 182.74 46.154ZM198.258 45.076C198.314 45.188 198.342 45.3093 198.342 45.44C198.342 45.664 198.248 45.8413 198.062 45.972C197.875 46.0933 197.688 46.154 197.502 46.154C197.156 46.154 196.881 46.0467 196.676 45.832C196.48 45.608 196.284 45.2533 196.088 44.768L195.444 43.116C195.313 42.7987 195.192 42.5513 195.08 42.374C194.977 42.1967 194.814 42.0473 194.59 41.926C194.366 41.7953 194.062 41.73 193.68 41.73L192.644 41.716V44.446C192.644 44.67 192.658 44.9267 192.686 45.216C192.714 45.5053 192.76 45.734 192.826 45.902C192.76 45.9673 192.672 46.0233 192.56 46.07C192.448 46.126 192.322 46.154 192.182 46.154C191.986 46.154 191.827 46.098 191.706 45.986C191.584 45.874 191.519 45.7247 191.51 45.538V37.922C191.51 37.698 191.496 37.4413 191.468 37.152C191.44 36.8533 191.393 36.6107 191.328 36.424C191.72 36.2187 192.406 36.116 193.386 36.116C194.72 36.116 195.705 36.326 196.34 36.746C196.974 37.1567 197.292 37.8287 197.292 38.762C197.292 39.434 197.096 40.0033 196.704 40.47C196.321 40.9367 195.803 41.254 195.15 41.422C195.476 41.5153 195.738 41.6833 195.934 41.926C196.139 42.1593 196.326 42.4627 196.494 42.836L197.194 44.488C197.306 44.7587 197.413 44.9547 197.516 45.076C197.618 45.188 197.73 45.2487 197.852 45.258C198.02 45.258 198.155 45.1973 198.258 45.076ZM193.736 41.226C194.417 41.2073 194.972 40.9833 195.402 40.554C195.84 40.1247 196.06 39.56 196.06 38.86C196.06 38.0947 195.85 37.53 195.43 37.166C195.019 36.802 194.356 36.62 193.442 36.62C193.078 36.62 192.812 36.634 192.644 36.662V41.212L193.736 41.226ZM214.716 44.404C214.716 45.076 214.772 45.5753 214.884 45.902C214.688 46.07 214.469 46.154 214.226 46.154C214.049 46.154 213.904 46.098 213.792 45.986C213.68 45.874 213.624 45.7247 213.624 45.538L213.596 37.656L210.53 44.474C210.306 44.558 210.101 44.6 209.914 44.6C209.746 44.6 209.597 44.5673 209.466 44.502C208.412 42.5047 207.31 40.2367 206.162 37.698L206.176 44.404C206.176 45.104 206.237 45.6313 206.358 45.986C206.228 46.098 206.074 46.154 205.896 46.154C205.626 46.154 205.49 45.9813 205.49 45.636L205.476 37.894C205.476 37.2313 205.448 36.7133 205.392 36.34C205.504 36.228 205.752 36.172 206.134 36.172C206.386 36.172 206.582 36.2467 206.722 36.396L207.884 38.846L210.138 43.522C210.325 43.1113 210.974 41.6413 212.084 39.112C212.364 38.4493 212.607 37.8847 212.812 37.418C213.018 36.9513 213.186 36.5733 213.316 36.284C213.512 36.2093 213.741 36.172 214.002 36.172C214.18 36.172 214.334 36.2047 214.464 36.27C214.604 36.3353 214.679 36.4147 214.688 36.508L214.716 44.404Z" fill="white"/>
</svg>
