<svg width="100" height="99" viewBox="0 0 100 99" fill="none" xmlns="http://www.w3.org/2000/svg">
<path d="M50.0721 3.09614e-05C43.4992 -0.00723774 36.9893 1.2654 30.9146 3.74519C24.8399 6.22498 19.3196 9.86329 14.6692 14.4521C10.0189 19.0409 6.32973 24.4902 3.81267 30.4884C1.29561 36.4866 2.25132e-05 42.9161 2.93464e-10 49.4093C-2.25126e-05 55.9024 1.29551 62.332 3.81253 68.3302C6.32954 74.3285 10.0187 79.7778 14.669 84.3666C19.3193 88.9554 24.8396 92.5937 30.9143 95.0736C36.989 97.5534 43.4988 98.8261 50.0717 98.8189H50.0721C63.3219 98.7958 76.021 93.5799 85.3818 84.3164C94.7426 75.0528 100 62.4986 100 49.4094C100 36.3203 94.7426 23.7661 85.3818 14.5025C76.021 5.23895 63.3219 0.0231277 50.0721 3.09614e-05V3.09614e-05Z" fill="#FF0000" fill-opacity="0.6"/>
<path d="M71.7701 19.9988L27.6055 20.0054V79.995H71.7749L71.7701 19.9988ZM35.7209 29.0038H63.6595V33.2031H35.7209V29.0038ZM35.7209 36.0526H54.219V40.2519H35.7209V36.0526ZM51.7779 72.3619L47.9617 70.2815L51.2178 64.2243C52.3362 65.1512 53.6801 65.8045 55.1501 66.0906L51.7779 72.3619ZM49.6919 57.1954C49.6919 53.1904 52.891 49.9324 56.822 49.9324C60.7531 49.9324 63.951 53.191 63.951 57.1954C63.951 61.1997 60.7525 64.4571 56.822 64.4571C52.891 64.4577 49.6919 61.1997 49.6919 57.1954ZM61.865 72.3619L58.4934 66.0912C59.9634 65.8051 61.3061 65.1524 62.4251 64.2255L65.6812 70.2821L61.865 72.3619Z" fill="white"/>
</svg>
