<svg width="427" height="359" viewBox="0 0 427 359" fill="none" xmlns="http://www.w3.org/2000/svg">
<path d="M390.493 202.991C410.217 202.991 426.206 187.001 426.206 167.278C426.206 147.554 410.217 131.565 390.493 131.565C370.77 131.565 354.78 147.554 354.78 167.278C354.78 187.001 370.77 202.991 390.493 202.991Z" fill="#FF6584"/>
<path d="M390.493 176.676C395.684 176.676 399.891 172.468 399.891 167.278C399.891 162.087 395.684 157.88 390.493 157.88C385.303 157.88 381.095 162.087 381.095 167.278C381.095 172.468 385.303 176.676 390.493 176.676Z" fill="#BDD7FF"/>
<path d="M388.776 167.478C392.735 170.708 393.941 175.798 393.205 180.713C392.3 186.104 389.503 190.996 385.316 194.51C380.608 198.695 374.866 201.522 369.325 204.418C364.234 207.016 359.342 209.986 354.687 213.303C336.868 226.255 323.406 244.696 315.701 265.275C308.009 285.819 305.945 309.138 311.79 330.43C314.682 340.964 320.532 352.33 331.43 356.294C340.118 359.454 351.979 357.419 356.402 348.465C361.154 338.848 354.524 328.036 345.985 323.262C334.915 317.072 321.693 321.595 311.737 327.86C300.776 334.757 291.964 344.655 280.521 350.837C275.369 353.707 269.637 355.38 263.751 355.729C258.345 355.942 252.949 355.108 247.859 353.274C237.3 349.427 228.209 342.37 221.863 333.095C214.594 322.529 211.34 309.576 210.747 296.888C209.419 268.5 220.633 241.942 229.631 215.616C234.467 201.906 238.089 187.799 240.457 173.456C242.709 159.04 243.51 144.435 242.849 129.859C242.254 116.971 240.982 103.494 235.294 91.7227C230.292 81.3722 221.151 72.9009 209.593 70.7651C204.384 69.7426 198.985 70.3628 194.143 72.5398C192.495 73.2919 193.926 75.7226 195.566 74.9743C205.794 70.3086 217.883 74.8483 225.437 82.3818C234.259 91.179 237.498 104.17 238.937 116.158C242.169 144.566 239.622 173.335 231.448 200.734C223.604 227.38 211.265 252.914 208.417 280.831C207.118 293.57 207.786 306.739 211.857 318.954C215.351 329.835 221.901 339.481 230.727 346.741C239.037 353.459 249.26 358.036 260.022 358.546C272.103 359.118 282.697 353.732 292.069 346.568C302.108 338.895 311.344 329.427 323.504 325.124C329.047 323.163 335.361 322.248 341.053 324.136C345.936 325.804 350.078 329.134 352.756 333.545C355.228 337.656 356.14 342.795 353.884 347.211C351.763 351.363 347.623 353.764 343.141 354.586C338.395 355.426 333.506 354.595 329.303 352.235C324.394 349.431 320.801 344.725 318.284 339.753C313.265 329.839 311.579 318.037 311.323 307.032C311.099 296.283 312.476 285.56 315.41 275.216C321.247 254.292 333.029 235.511 349.327 221.15C353.433 217.573 357.825 214.339 362.46 211.48C367.516 208.364 372.913 205.873 378.068 202.933C383.14 200.039 388.138 196.582 391.631 191.821C394.608 187.74 396.216 182.821 396.224 177.77C396.277 175.447 395.816 173.141 394.873 171.017C393.93 168.893 392.529 167.004 390.77 165.485C389.375 164.347 387.369 166.33 388.776 167.478V167.478Z" fill="white"/>
<path d="M55.3739 331.745C67.8614 339.817 82.3069 344.345 97.1677 344.846C96.9023 345.476 96.6042 346.09 96.2747 346.688C94.5449 349.882 92.1004 352.632 89.132 354.724C85.6173 357.197 81.4909 358.658 77.2028 358.947C72.9148 359.236 68.6298 358.341 64.8152 356.361C61.0007 354.381 57.8032 351.392 55.5715 347.719C53.3398 344.046 52.1596 339.831 52.1598 335.533V331.745H55.3739Z" fill="#BDD7FF"/>
<path d="M143.03 332.854V335.533C143.032 340.747 141.297 345.814 138.098 349.932C134.899 354.05 130.419 356.985 125.366 358.273C120.313 359.561 114.975 359.129 110.196 357.045C105.416 354.96 101.467 351.343 98.972 346.764C98.6282 346.151 98.3175 345.52 98.0414 344.875C98.7274 344.893 99.4043 344.903 100.09 344.903C115.241 344.92 130.101 340.751 143.03 332.854V332.854Z" fill="#BDD7FF"/>
<path d="M174.646 49.6128C173.941 49.5095 173.227 49.4437 172.513 49.3967C180.629 68.1017 181.191 89.222 174.082 108.332C174.796 108.248 175.501 108.135 176.206 108.004C183.089 106.67 189.275 102.937 193.663 97.4698C198.052 92.0024 200.357 85.1552 200.17 78.147C199.983 71.1388 197.315 64.4245 192.641 59.1993C187.967 53.974 181.59 50.577 174.646 49.6128V49.6128Z" fill="#BDD7FF"/>
<path d="M27.6681 49.3967C26.9541 49.4437 26.2396 49.5094 25.5347 49.6128C18.5907 50.577 12.214 53.974 7.53999 59.1992C2.86596 64.4245 0.197834 71.1388 0.0105714 78.147C-0.176691 85.1552 2.12909 92.0024 6.5174 97.4698C10.9057 102.937 17.0918 106.67 23.9745 108.004C24.6793 108.135 25.3842 108.248 26.0987 108.332C18.9894 89.222 19.5518 68.1017 27.6681 49.3967V49.3967Z" fill="#BDD7FF"/>
<path d="M174.646 49.6128C166.904 31.1171 152.562 16.1598 134.409 7.64656C116.255 -0.866654 95.5846 -2.32785 76.4137 3.54686C57.2428 9.42156 40.94 22.2127 30.6726 39.4352C20.4052 56.6578 16.9064 77.0821 20.8557 96.7401C24.805 116.398 35.9205 133.886 52.0429 145.807C68.1652 157.728 88.1431 163.23 108.095 161.245C128.048 159.26 146.55 149.929 160.007 135.065C173.464 120.201 180.916 100.866 180.915 80.8147C180.911 70.1017 178.78 59.4961 174.646 49.6128V49.6128ZM174.082 108.332C167.207 126.813 153.664 142.051 136.118 151.047C118.572 160.043 98.2943 162.146 79.2758 156.941C60.2573 151.737 43.8756 139.602 33.355 122.926C22.8345 106.249 18.9371 86.2385 22.4299 66.8325C25.9227 47.4266 36.5527 30.0308 52.2277 18.0691C67.9028 6.10743 87.4875 0.446201 107.127 2.19969C126.767 3.95317 145.039 12.9943 158.347 27.5437C171.655 42.0932 179.035 61.0969 179.035 80.8147C179.032 90.2087 177.355 99.527 174.082 108.333V108.332Z" fill="#BDD7FF"/>
<path d="M141.442 62.4883H58.7384C54.3764 62.4883 50.1931 64.2211 47.1088 67.3055C44.0244 70.3898 42.2916 74.5731 42.2916 78.9351C42.2916 83.297 44.0244 87.4803 47.1088 90.5647C50.1931 93.6491 54.3764 95.3818 58.7384 95.3818H141.442C145.804 95.3818 149.987 93.6491 153.072 90.5647C156.156 87.4803 157.889 83.297 157.889 78.9351C157.889 74.5731 156.156 70.3898 153.072 67.3055C149.987 64.2211 145.804 62.4883 141.442 62.4883V62.4883Z" fill="#BDD7FF"/>
<path d="M100.09 177.616C77.9955 177.626 56.7817 186.281 40.9865 201.731C25.1912 217.181 16.0688 238.198 15.5703 260.288C15.0717 282.377 23.2368 303.784 38.3189 319.931C53.401 336.078 74.2028 345.682 96.2748 346.688C97.1678 346.735 98.07 346.764 98.9721 346.764C99.348 346.782 99.7146 346.782 100.09 346.782C122.523 346.782 144.037 337.871 159.9 322.008C175.762 306.146 184.674 284.632 184.674 262.199C184.674 239.766 175.762 218.252 159.9 202.39C144.037 186.527 122.523 177.616 100.09 177.616V177.616ZM143.031 332.854C130.101 340.751 115.241 344.92 100.09 344.903C99.4044 344.903 98.7275 344.893 98.0415 344.875C97.7501 344.875 97.4589 344.865 97.1678 344.846C77.3079 344.156 58.3595 336.342 43.7859 322.833C29.2123 309.323 19.9867 291.021 17.7953 271.27C15.6038 251.519 20.5929 231.64 31.8506 215.264C43.1084 198.889 59.883 187.111 79.1085 182.084C98.3341 177.057 118.727 179.116 136.559 187.885C154.392 196.654 168.473 211.548 176.23 229.843C183.986 248.139 184.9 268.615 178.805 287.529C172.709 306.442 160.011 322.531 143.031 332.854Z" fill="#BDD7FF"/>
<path d="M159.455 241.367H122.489C119.913 241.367 117.443 240.343 115.622 238.522C113.801 236.701 112.778 234.231 112.778 231.655C112.778 229.079 113.801 226.609 115.622 224.788C117.443 222.967 119.913 221.943 122.489 221.943H159.455C162.031 221.943 164.501 222.967 166.322 224.788C168.144 226.609 169.167 229.079 169.167 231.655C169.167 234.231 168.144 236.701 166.322 238.522C164.501 240.343 162.031 241.367 159.455 241.367V241.367Z" fill="#BDD7FF"/>
<path d="M124.954 236.584C127.676 236.584 129.882 234.377 129.882 231.655C129.882 228.933 127.676 226.726 124.954 226.726C122.232 226.726 120.025 228.933 120.025 231.655C120.025 234.377 122.232 236.584 124.954 236.584Z" fill="#FF6584"/>
<path d="M140.972 236.584C143.694 236.584 145.901 234.377 145.901 231.655C145.901 228.933 143.694 226.726 140.972 226.726C138.25 226.726 136.043 228.933 136.043 231.655C136.043 234.377 138.25 236.584 140.972 236.584Z" fill="#FF6584"/>
<path d="M156.991 236.584C159.713 236.584 161.92 234.377 161.92 231.655C161.92 228.933 159.713 226.726 156.991 226.726C154.269 226.726 152.062 228.933 152.062 231.655C152.062 234.377 154.269 236.584 156.991 236.584Z" fill="#FF4A4A"/>
</svg>
