<svg width="213" height="270" viewBox="0 0 213 270" fill="none" xmlns="http://www.w3.org/2000/svg">
<path d="M67.8708 223.64L62.6786 211.179V270H72.3214V226.607C71.3696 226.607 70.4391 226.325 69.6471 225.797C68.8551 225.269 68.237 224.519 67.8708 223.64Z" fill="#FF4A4A"/>
<path d="M75.7888 173.215C73.1373 174.886 70.265 176.177 67.2554 177.051L63.0804 187.071L75.5359 216.964H94.0179L75.7888 173.215Z" fill="#FF4A4A"/>
<path d="M57.8573 168.75C71.1713 168.75 81.9644 157.957 81.9644 144.643C81.9644 131.329 71.1713 120.536 57.8573 120.536C44.5433 120.536 33.7501 131.329 33.7501 144.643C33.7501 157.957 44.5433 168.75 57.8573 168.75Z" fill="#FF4A4A"/>
<path d="M21.6964 216.964H40.1785L56.2666 178.353C50.4665 178.084 44.8356 176.314 39.9255 173.215L21.6964 216.964Z" fill="#FF4A4A"/>
<path d="M43.3929 226.607V270H53.0358V211.179L47.8436 223.64C47.4774 224.519 46.8593 225.269 46.0673 225.797C45.2753 226.325 44.3448 226.607 43.3929 226.607Z" fill="#FF4A4A"/>
<path d="M207.906 65.26L149.464 6.81898V48.2143C149.469 52.0491 150.994 55.7257 153.706 58.4373C156.417 61.1489 160.094 62.6742 163.929 62.6786H192.857V72.3214H163.929C157.537 72.3142 151.41 69.772 146.89 65.2526C142.371 60.7332 139.829 54.6057 139.821 48.2143V0.350042C138.782 0.11807 137.72 0.000689319 136.654 0H81.9643V28.9286H72.3214V0H62.6786V28.9286H53.0357V0H43.3929V28.9286H33.75V0H14.4643C10.6295 0.00438653 6.95297 1.52971 4.24134 4.24134C1.52971 6.95297 0.00438653 10.6295 0 14.4643V255.536C0.00438653 259.371 1.52971 263.047 4.24134 265.759C6.95297 268.47 10.6295 269.996 14.4643 270H33.75V226.607H14.4643C13.6705 226.607 12.8891 226.411 12.1893 226.037C11.4895 225.662 10.8929 225.12 10.4527 224.46C10.0124 223.8 9.74194 223.041 9.66535 222.251C9.58877 221.461 9.7084 220.664 10.0136 219.931L32.2424 166.582C26.7432 160.185 23.8464 151.956 24.1256 143.525C24.4048 135.093 27.8396 127.074 33.75 121.055V86.7857H43.3929V114.156C46.4418 112.704 49.6929 111.722 53.0357 111.243V86.7857H62.6786V111.243C66.0214 111.722 69.2725 112.704 72.3214 114.156V86.7857H81.9643V121.055C87.8747 127.074 91.3095 135.093 91.5887 143.525C91.8679 151.956 88.9711 160.185 83.4719 166.582L105.701 219.931C106.006 220.664 106.126 221.461 106.049 222.251C105.972 223.041 105.702 223.8 105.262 224.46C104.821 225.12 104.225 225.662 103.525 226.037C102.825 226.411 102.044 226.607 101.25 226.607H81.9643V270H197.679C201.513 269.996 205.19 268.47 207.902 265.759C210.613 263.047 212.138 259.371 212.143 255.536V75.4884C212.148 73.5881 211.776 71.7056 211.049 69.9499C210.322 68.1942 209.253 66.6001 207.906 65.26ZM57.8571 72.3214H24.1071V62.6786H57.8571V72.3214ZM24.1071 53.0357V43.3929H67.5V53.0357H24.1071ZM91.6071 72.3214H67.5V62.6786H91.6071V72.3214ZM91.6071 53.0357H77.1429V43.3929H91.6071V53.0357ZM125.357 96.4286H144.643V106.071H125.357V96.4286ZM163.929 135V144.643H139.821V135H163.929ZM125.357 159.107H144.643V168.75H125.357V159.107ZM125.357 183.214H168.75V192.857H125.357V183.214ZM139.821 241.071H125.357V231.429H139.821V241.071ZM144.643 216.964H125.357V207.321H144.643V216.964ZM173.571 241.071H149.464V231.429H173.571V241.071ZM192.857 241.071H183.214V231.429H192.857V241.071ZM192.857 216.964H154.286V207.321H192.857V216.964ZM192.857 192.857H178.393V183.214H192.857V192.857ZM192.857 168.75H154.286V159.107H192.857V168.75ZM192.857 144.643H173.571V135H192.857V144.643ZM192.857 106.071H154.286V96.4286H192.857V106.071Z" fill="#FF4A4A"/>
</svg>
