<svg width="31" height="32" viewBox="0 0 31 32" fill="none" xmlns="http://www.w3.org/2000/svg">
<path d="M20.1372 31.792C20.777 31.9054 21.4256 31.9629 22.0756 31.9638C24.6897 31.9564 27.204 30.9706 29.1121 29.2049C30.3813 28.0225 31.1003 26.7044 30.9887 25.7651C30.7883 24.0822 27.8898 21.3477 24.7677 18.6251C24.5303 18.4168 24.2504 18.2612 23.9469 18.1688C23.6434 18.0765 23.3234 18.0496 23.0085 18.0899C21.0433 18.3119 18.9861 20.8107 18.3644 21.6244C16.7228 21.0009 10.3177 14.2698 9.47923 12.5971C9.93919 12.1695 10.4366 11.7829 10.9655 11.4419C12.2568 10.5412 13.5918 9.60946 13.7395 8.51433C13.8025 8.04703 13.9699 6.80629 7.29789 1.19225C7.05112 0.98213 6.74815 0.846956 6.42545 0.802999C6.10275 0.759043 5.77407 0.808176 5.47896 0.944488C4.60112 1.33088 3.77483 1.82276 3.01882 2.40901C2.99446 2.42276 2.97097 2.43798 2.94849 2.45457C2.94062 2.46226 2.93824 2.47277 2.93074 2.48072C0.89443 4.14331 -0.599231 6.90755 0.236375 12.1153C1.58816 20.541 13.8097 30.6828 20.1372 31.792ZM3.43327 3.96675L6.72451 7.24925C6.86122 7.38566 7.04717 7.46281 7.24144 7.46374C7.43572 7.46467 7.62241 7.3893 7.76045 7.25421C7.89849 7.11911 7.97657 6.93536 7.97751 6.74338C7.97845 6.5514 7.90218 6.36691 7.76547 6.2305L4.57847 3.05197C5.06277 2.7523 5.56839 2.48767 6.09136 2.26016C6.13258 2.23914 6.17936 2.23119 6.22532 2.23739C6.27128 2.24359 6.31419 2.26364 6.3482 2.29481C10.1464 5.49066 12.21 7.76849 12.2872 8.32278C12.2239 8.7915 10.9072 9.7102 10.1206 10.2595C8.87148 11.1309 7.96899 11.7608 7.96899 12.583C7.96899 14.0765 15.9595 22.378 18.0274 23.0334C18.2608 23.1373 18.523 23.1597 18.771 23.0968C19.0189 23.0339 19.2379 22.8895 19.3917 22.6873C19.7746 22.1634 20.1946 21.6671 20.6488 21.2021L24.7928 25.442C24.9278 25.5801 25.1127 25.6596 25.307 25.6629C25.5013 25.6662 25.6889 25.5931 25.8287 25.4597C25.9684 25.3263 26.0488 25.1435 26.0522 24.9515C26.0555 24.7595 25.9816 24.5741 25.8466 24.436L21.7375 20.2318C22.1485 19.8808 22.6431 19.6388 23.1748 19.5286C23.2904 19.5108 23.4086 19.5196 23.5202 19.5542C23.6318 19.5888 23.7338 19.6484 23.8183 19.7283C27.5027 22.9408 29.4258 25.0288 29.5335 25.9341C29.5717 26.2565 29.145 27.1844 28.1069 28.1515C27.0881 29.0942 25.8585 29.786 24.5182 30.1708C23.1779 30.5556 21.7647 30.6225 20.3933 30.3661C14.7275 29.3731 2.90274 19.4883 1.68367 11.8884C0.999864 7.62761 2.07576 5.31679 3.43327 3.96675Z" fill="#FFB8B8"/>
<path d="M9.18715 9.11241C9.38176 9.11294 9.56871 9.03748 9.70729 8.90246C9.80915 8.80099 9.87833 8.67199 9.90612 8.53172C9.93391 8.39145 9.91906 8.24619 9.86344 8.11425C9.80781 7.98231 9.71391 7.86959 9.59357 7.7903C9.47322 7.71101 9.33182 7.6687 9.18718 7.6687C9.04254 7.6687 8.90114 7.71101 8.78079 7.7903C8.66045 7.86959 8.56654 7.98231 8.51092 8.11425C8.4553 8.24619 8.44045 8.39145 8.46824 8.53172C8.49602 8.67199 8.56521 8.80099 8.66707 8.90246C8.8056 9.03753 8.99255 9.11299 9.18715 9.11241Z" fill="#FFB8B8"/>
<path d="M27.0183 27.4642C27.1628 27.4646 27.3042 27.4227 27.4245 27.3437C27.5449 27.2647 27.6389 27.1522 27.6945 27.0205C27.7502 26.8888 27.7651 26.7436 27.7373 26.6035C27.7095 26.4634 27.6403 26.3346 27.5385 26.2334C27.3985 26.101 27.2121 26.0271 27.0184 26.0271C26.8246 26.0271 26.6383 26.101 26.4983 26.2334C26.3957 26.3343 26.3258 26.4632 26.2976 26.6036C26.2695 26.7439 26.2842 26.8894 26.34 27.0214C26.3958 27.1534 26.4901 27.2661 26.6109 27.3449C26.7318 27.4238 26.8736 27.4653 27.0184 27.4642H27.0183Z" fill="#FFB8B8"/>
</svg>
