<svg width="100" height="100" viewBox="0 0 100 100" fill="none" xmlns="http://www.w3.org/2000/svg">
<path d="M50.0721 0.921296C43.4992 0.914027 36.9893 2.18666 30.9146 4.66645C24.8399 7.14624 19.3196 10.7846 14.6692 15.3734C10.0189 19.9621 6.32973 25.4115 3.81267 31.4097C1.29561 37.4079 2.25132e-05 43.8373 2.93464e-10 50.3305C-2.25126e-05 56.8237 1.29551 63.2533 3.81253 69.2515C6.32954 75.2497 10.0187 80.699 14.669 85.2878C19.3193 89.8767 24.8396 93.515 30.9143 95.9948C36.989 98.4747 43.4988 99.7474 50.0717 99.7401H50.0721C63.3219 99.717 76.021 94.5012 85.3818 85.2377C94.7426 75.9741 100 63.4198 100 50.3307C100 37.2416 94.7426 24.6873 85.3818 15.4238C76.021 6.16022 63.3219 0.944392 50.0721 0.921296V0.921296Z" fill="#FF0000" fill-opacity="0.6"/>
<path d="M33.514 59.4119C33.514 59.7631 33.514 60.1142 33.514 60.4653C33.514 60.7462 33.3729 60.9568 33.02 60.9568C32.6671 60.9568 32.2437 60.9568 31.8908 60.9568C31.5379 60.9568 31.3968 60.7462 31.3968 60.4653C31.3968 60.1844 31.3968 59.9737 31.3968 59.6928C31.3968 59.131 31.3968 59.1311 30.8322 58.9906C30.1265 58.8502 29.4207 58.7097 28.7855 58.4288C28.2915 58.2182 28.2209 58.0777 28.3621 57.5159C28.5032 57.0946 28.5738 56.7435 28.715 56.3221C28.8561 55.9008 28.9973 55.8306 29.4207 56.0412C30.1265 56.3924 30.9028 56.603 31.6791 56.7435C32.1731 56.8137 32.6671 56.7435 33.1612 56.5328C34.008 56.1817 34.1492 55.1283 33.4435 54.4963C33.1612 54.2857 32.8789 54.1452 32.5966 54.0048C31.8202 53.6537 31.0439 53.443 30.2676 52.9514C29.0678 52.2492 28.3621 51.2661 28.4327 49.8616C28.5032 48.2465 29.4207 47.2634 30.9733 46.7016C31.6085 46.4909 31.6085 46.4909 31.6085 45.8589C31.6085 45.6483 31.6085 45.4376 31.6085 45.2269C31.6085 44.7354 31.6791 44.6652 32.1731 44.6652C32.3143 44.6652 32.4554 44.6652 32.5966 44.6652C33.6552 44.6652 33.6552 44.6652 33.6552 45.7185C33.6552 46.4207 33.6552 46.4207 34.3609 46.5612C34.9255 46.6314 35.4195 46.8421 35.9841 47.0527C36.2664 47.1932 36.4076 47.4038 36.2664 47.6847C36.1253 48.1061 35.9841 48.5976 35.843 49.019C35.7018 49.4403 35.5607 49.5105 35.2078 49.2999C34.4315 48.9487 33.5846 48.7381 32.6671 48.8083C32.4554 48.8083 32.1731 48.8785 31.9614 48.9487C31.1851 49.2999 31.0439 50.1425 31.7497 50.6341C32.1025 50.915 32.4554 51.0554 32.8789 51.2661C33.5846 51.547 34.2198 51.8279 34.8549 52.179C36.9016 53.3026 37.4662 55.9008 35.9841 57.5861C35.4901 58.2182 34.7844 58.6395 34.008 58.8502C33.6552 58.9204 33.514 59.0608 33.514 59.4119ZM41.0655 47.4038H62.9435C63.2258 47.4038 63.4376 47.1932 63.4376 46.9123V45.2269C63.4376 44.946 63.2258 44.7354 62.9435 44.7354H41.0655C40.7832 44.7354 40.5715 44.946 40.5715 45.2269V46.9123C40.5715 47.1932 40.7832 47.4038 41.0655 47.4038ZM40.5715 51.4065C40.5715 51.6874 40.7832 51.8981 41.0655 51.8981H53.6277C53.91 51.8981 54.1217 51.6874 54.1217 51.4065V49.7212C54.1217 49.4403 53.91 49.2296 53.6277 49.2296H41.0655C40.7832 49.2296 40.5715 49.4403 40.5715 49.7212V51.4065ZM24.4805 68.1898H68.8718C71.2008 68.1898 73.1063 66.2938 73.1063 63.9764V51.4768C71.8359 52.8812 70.495 54.3559 69.0835 55.6901V63.9062C69.0835 64.0466 68.9424 64.1871 68.8012 64.1871H24.4805C24.3394 64.1871 24.1982 64.0466 24.1982 63.9062V41.154H65.1314C66.6134 38.8367 68.2366 36.4491 70.001 33.9211C70.001 33.8508 70.0716 33.8508 70.0716 33.7806L70.495 33.2188C70.6362 33.0784 70.7067 32.9379 70.7773 32.7975L70.8479 32.6571C70.2127 32.3059 69.5775 32.1655 68.8012 32.1655H24.4805C22.1515 32.1655 20.246 34.0615 20.246 36.3789V63.836C20.1755 66.2938 22.081 68.1898 24.4805 68.1898ZM65.7665 46.7016C64.355 49.1594 62.9436 51.6172 61.8849 54.2857C61.8144 54.4261 61.7438 54.6368 61.7438 54.7772C61.6732 54.7772 61.5321 54.8475 61.4615 54.8475C61.3203 54.9177 61.1086 54.9879 60.9675 55.0581C60.8969 55.1283 60.7557 55.1283 60.6852 55.1986L60.4734 55.2688C59.9794 55.4795 59.556 55.6199 59.062 55.6901C58.9914 55.6901 58.9914 55.6901 58.9208 55.6901C58.8502 55.6901 58.7797 55.6901 58.7797 55.6199C58.6385 55.4092 58.4268 55.1986 58.1445 55.0581C57.6505 54.7772 57.0859 54.707 56.4507 54.9879C55.745 55.2688 54.9686 55.6199 54.1217 56.1817C53.7689 56.3924 53.4866 56.603 53.1337 56.8137C52.922 56.9541 52.7808 57.0244 52.5691 57.1648C52.5691 57.0946 52.5691 57.0946 52.5691 57.0244C52.6397 56.6732 52.7103 56.3924 52.7103 56.0412C52.7103 55.6901 52.6397 55.4092 52.3574 55.1283C52.1457 54.9177 51.7928 54.7772 51.4399 54.7772C51.2988 54.7772 50.9459 54.7772 50.6636 54.9879L50.5225 55.0581C50.2402 55.2688 49.8873 55.4092 49.5344 55.6901C48.9698 56.1115 48.4052 56.603 47.9112 57.0946C47.4878 57.4457 47.1349 57.7266 46.7114 58.0777C46.8526 57.7266 46.9232 57.4457 47.0643 57.0946C47.2055 56.6732 47.4172 56.2519 47.5583 55.7604C47.6995 55.4795 47.7701 55.1283 47.7701 54.7772C47.8406 54.4261 47.6995 54.075 47.4878 53.7941C47.2055 53.443 46.7114 53.3026 46.2174 53.443C45.9351 53.5132 45.5822 53.7239 45.3705 53.9346L45.3 54.0048C44.8765 54.4261 44.4531 54.8475 44.0296 55.339C42.8298 56.8137 41.6301 58.499 40.3597 60.6057C40.0774 61.0271 39.7951 61.5186 39.654 62.0804C39.654 62.1506 39.654 62.2209 39.654 62.2911C39.5834 62.7124 39.9363 63.1337 40.3597 63.2742C40.4303 63.2742 40.5009 63.2742 40.5715 63.2742C40.9243 63.2742 41.2772 63.0635 41.3478 62.7124V62.6422L41.4184 62.4315C41.4889 62.2911 41.5595 62.1506 41.6301 62.0102C41.7712 61.7995 41.8418 61.5888 42.0535 61.3782L42.477 60.8164C43.0416 60.1142 43.6062 59.3417 44.1708 58.6395C44.1002 58.7799 44.1002 58.9204 44.0296 59.0608C43.959 59.3417 43.8179 59.7631 43.959 60.1844C44.1708 60.9568 44.8765 61.3782 45.5822 61.2377C45.794 61.1675 46.0763 61.0973 46.288 60.9568C46.782 60.6759 47.2055 60.3248 47.6995 59.9737C48.4758 59.3417 49.2521 58.7799 50.099 58.1479C50.099 58.2182 50.099 58.2884 50.099 58.3586C50.099 58.7799 50.1696 59.131 50.4519 59.3417C50.8048 59.6928 51.2988 59.8333 51.8634 59.6928C52.2162 59.6226 52.5691 59.4119 52.922 59.2715C53.3454 59.0608 53.6983 58.8502 54.1217 58.6395C54.6158 58.3586 55.1098 58.0777 55.6744 57.7968C56.0978 57.5861 56.5213 57.3755 57.0153 57.1648L57.2976 57.0244C57.8622 57.5861 58.5679 57.7968 59.4148 57.6564C60.4734 57.4457 61.3909 57.1648 62.3084 56.8137C62.3084 56.8137 62.379 56.8137 62.379 56.7435C62.5907 56.6732 62.8024 56.5328 63.0141 56.3924C64.0727 55.7604 64.9902 54.9177 65.9077 54.075C70.2833 49.8616 74.0943 45.2269 77.7642 40.4518C78.117 40.0304 78.3993 39.6091 78.7522 39.1878C78.8228 39.1175 78.8228 39.0473 78.8934 38.9771L80.446 36.8704C80.5166 36.8002 80.5872 36.73 80.6577 36.6598C81.9281 34.9042 83.1984 33.1486 84.4687 31.3228L84.5393 31.2526L85.9508 32.2357L79.2462 41.3647C78.8934 41.786 79.0345 42.418 79.458 42.7691C79.6697 42.9096 79.952 42.9798 80.2343 42.9798C80.5166 42.9096 80.7283 42.7691 80.8694 42.5585L88.1386 32.5868C88.4915 32.1655 88.3503 31.5335 87.9269 31.1824L85.5979 29.497L86.2331 28.5139C86.5154 28.0223 86.7977 27.4606 87.0094 26.8988C87.08 26.6881 87.1506 26.5477 87.2211 26.337C87.574 25.073 87.2211 24.1601 85.9508 23.3174C84.8922 22.545 84.0453 22.545 82.9161 23.3174C82.2104 23.809 81.5752 24.441 81.0106 25.1432C78.8934 27.5308 77.0584 30.1993 75.1529 32.7273C75.0823 32.7975 75.0823 32.7975 75.0823 32.8677L73.5297 34.9042C73.4591 34.9744 73.3886 35.1149 73.318 35.1851C73.1768 35.3255 73.1063 35.466 72.9651 35.6766L72.8945 35.8171C70.3539 39.3282 67.9543 42.9798 65.7665 46.7016Z" fill="white"/>
</svg>
