<svg width="408" height="369" viewBox="0 0 408 369" fill="none" xmlns="http://www.w3.org/2000/svg">
<path d="M178.26 305.182H8.08113C5.93862 305.179 3.88456 304.327 2.36957 302.812C0.85459 301.297 0.00241124 299.243 0 297.101V66.0752C0.00241125 63.9327 0.85459 61.8786 2.36957 60.3637C3.88456 58.8487 5.93862 57.9965 8.08113 57.9941H178.26C180.403 57.9965 182.457 58.8487 183.972 60.3637C185.487 61.8786 186.339 63.9327 186.341 66.0752V297.101C186.339 299.243 185.487 301.297 183.972 302.812C182.457 304.327 180.403 305.179 178.26 305.182V305.182Z" fill="white"/>
<path d="M85.4991 118.119C85.4991 124.791 83.3883 131.293 79.4689 136.692C75.5494 142.092 70.0222 146.113 63.6783 148.181C63.4886 148.241 63.2991 148.301 63.1064 148.359C62.2847 148.612 61.4514 148.827 60.6037 149.011C59.0696 149.344 57.5126 149.56 55.9459 149.658C55.265 149.704 54.5802 149.727 53.8914 149.727C50.333 149.73 46.7995 149.132 43.4407 147.957C43.3431 147.922 43.2454 147.888 43.1506 147.853C37.7085 145.888 32.9104 142.466 29.2789 137.962C25.6474 133.457 23.3219 128.042 22.5559 122.307C21.7898 116.572 22.6126 110.737 24.9345 105.437C27.2564 100.137 30.9884 95.5764 35.7238 92.2516C40.4592 88.9267 46.0163 86.9653 51.7896 86.5812C57.5629 86.197 63.3309 87.4048 68.4651 90.073C73.5993 92.7411 77.9026 96.7673 80.9062 101.713C83.9099 106.658 85.4985 112.333 85.4991 118.119V118.119Z" fill="white"/>
<path d="M56.986 149.293C56.6131 149.32 56.2542 149.446 55.9458 149.658C57.5125 149.56 59.0696 149.344 60.6036 149.011L56.986 149.293Z" fill="#BDD7FF"/>
<path d="M53.8914 150.589C50.2358 150.593 46.606 149.978 43.1557 148.77L42.8558 148.663C35.6285 146.051 29.5619 140.961 25.7348 134.297C21.9076 127.633 20.5681 119.828 21.9544 112.269C23.3407 104.711 27.3629 97.8885 33.3058 93.0165C39.2486 88.1444 46.7269 85.5381 54.4106 85.661C62.0943 85.7838 69.4855 88.628 75.2695 93.6876C81.0535 98.7472 84.8555 105.694 85.9994 113.293C87.1432 120.893 85.5548 128.651 81.5165 135.189C77.4782 141.727 71.2519 146.621 63.9448 149.001C63.7406 149.066 63.5484 149.127 63.3531 149.185C62.5369 149.436 61.671 149.662 60.7863 149.853C59.2095 150.195 57.6091 150.417 55.9988 150.518C55.307 150.565 54.5962 150.589 53.8914 150.589ZM53.8914 87.3734C46.6564 87.3744 39.6535 89.9265 34.1144 94.5807C28.5752 99.2349 24.8544 105.693 23.6066 112.82C22.3587 119.946 23.6637 127.285 27.2919 133.544C30.9201 139.803 36.6392 144.583 43.4433 147.042L43.728 147.144C46.9944 148.287 50.4308 148.869 53.8914 148.865C54.5576 148.865 55.2293 148.842 55.8877 148.798C57.4126 148.703 58.9282 148.492 60.4214 148.169C61.2582 147.987 62.0764 147.774 62.8529 147.535C63.0452 147.478 63.2278 147.42 63.4104 147.361C70.3699 145.095 76.2926 140.42 80.1139 134.177C83.9351 127.934 85.4042 120.533 84.2571 113.304C83.11 106.075 79.4219 99.4926 73.8559 94.7394C68.2898 89.9863 61.2108 87.3744 53.8914 87.3734V87.3734Z" fill="#BDD7FF"/>
<path d="M178.26 305.182H8.08113C5.93862 305.179 3.88456 304.327 2.36957 302.812C0.85459 301.297 0.00241124 299.243 0 297.101V66.0752C0.00241125 63.9327 0.85459 61.8786 2.36957 60.3637C3.88456 58.8487 5.93862 57.9965 8.08113 57.9941H178.26C180.403 57.9965 182.457 58.8487 183.972 60.3637C185.487 61.8786 186.339 63.9327 186.341 66.0752V297.101C186.339 299.243 185.487 301.297 183.972 302.812C182.457 304.327 180.403 305.179 178.26 305.182V305.182ZM8.08113 58.9448C6.19068 58.9469 4.37829 59.6989 3.04154 61.0356C1.7048 62.3724 0.952865 64.1848 0.950722 66.0752V297.101C0.952864 298.991 1.70478 300.803 3.04153 302.14C4.37827 303.477 6.19068 304.229 8.08113 304.231H178.26C180.151 304.229 181.963 303.477 183.3 302.14C184.637 300.803 185.389 298.991 185.391 297.101V66.0752C185.389 64.1848 184.637 62.3724 183.3 61.0356C181.963 59.6989 180.151 58.9469 178.26 58.9448H8.08113Z" fill="#BDD7FF"/>
<path d="M145.315 117.996H97.1606C96.151 117.995 95.1833 117.593 94.4699 116.879C93.7564 116.164 93.3557 115.196 93.3557 114.186C93.3557 113.177 93.7564 112.209 94.4699 111.494C95.1833 110.78 96.151 110.378 97.1606 110.377H145.315C145.816 110.376 146.312 110.474 146.775 110.665C147.237 110.857 147.658 111.137 148.012 111.491C148.367 111.845 148.648 112.265 148.839 112.727C149.031 113.19 149.13 113.686 149.13 114.186C149.13 114.687 149.031 115.183 148.839 115.645C148.648 116.108 148.367 116.528 148.012 116.882C147.658 117.236 147.237 117.516 146.775 117.707C146.312 117.899 145.816 117.997 145.315 117.996V117.996Z" fill="#BDD7FF"/>
<path d="M161.03 130.853H97.1606C96.151 130.852 95.1833 130.45 94.4699 129.736C93.7564 129.022 93.3557 128.053 93.3557 127.044C93.3557 126.034 93.7564 125.066 94.4699 124.352C95.1833 123.637 96.151 123.235 97.1606 123.234H161.03C162.04 123.235 163.007 123.637 163.721 124.352C164.434 125.066 164.835 126.034 164.835 127.044C164.835 128.053 164.434 129.022 163.721 129.736C163.007 130.45 162.04 130.852 161.03 130.853V130.853Z" fill="#BDD7FF"/>
<path d="M145.246 180.167H25.3114C24.8107 180.167 24.3148 180.069 23.8521 179.878C23.3893 179.687 22.9688 179.406 22.6145 179.053C22.2603 178.699 21.9792 178.279 21.7875 177.816C21.5958 177.354 21.4971 176.858 21.4971 176.357C21.4971 175.857 21.5958 175.361 21.7875 174.898C21.9792 174.436 22.2603 174.016 22.6145 173.662C22.9688 173.308 23.3893 173.027 23.8521 172.836C24.3148 172.645 24.8107 172.547 25.3114 172.548H145.246C146.255 172.549 147.223 172.951 147.936 173.665C148.65 174.379 149.051 175.348 149.051 176.357C149.051 177.367 148.65 178.335 147.936 179.049C147.223 179.764 146.255 180.166 145.246 180.167V180.167Z" fill="#BDD7FF"/>
<path d="M160.96 193.024H25.3114C24.8107 193.025 24.3148 192.927 23.8521 192.736C23.3893 192.544 22.9688 192.264 22.6145 191.91C22.2603 191.556 21.9792 191.136 21.7875 190.674C21.5958 190.211 21.4971 189.715 21.4971 189.215C21.4971 188.714 21.5958 188.218 21.7875 187.756C21.9792 187.293 22.2603 186.873 22.6145 186.519C22.9688 186.165 23.3893 185.885 23.8521 185.694C24.3148 185.502 24.8107 185.404 25.3114 185.405H160.96C161.461 185.404 161.957 185.502 162.42 185.694C162.882 185.885 163.303 186.165 163.657 186.519C164.011 186.873 164.292 187.293 164.484 187.756C164.676 188.218 164.775 188.714 164.775 189.215C164.775 189.715 164.676 190.211 164.484 190.674C164.292 191.136 164.011 191.556 163.657 191.91C163.303 192.264 162.882 192.544 162.42 192.736C161.957 192.927 161.461 193.025 160.96 193.024V193.024Z" fill="#BDD7FF"/>
<path d="M145.246 222.575H25.3113C24.3009 222.575 23.3319 222.174 22.6175 221.46C21.9031 220.745 21.5017 219.776 21.5017 218.766C21.5017 217.755 21.9031 216.786 22.6175 216.072C23.3319 215.358 24.3009 214.956 25.3113 214.956H145.246C146.256 214.956 147.225 215.358 147.939 216.072C148.654 216.786 149.055 217.755 149.055 218.766C149.055 219.776 148.654 220.745 147.939 221.46C147.225 222.174 146.256 222.575 145.246 222.575V222.575Z" fill="#BDD7FF"/>
<path d="M160.96 235.433H25.3113C24.3009 235.433 23.3319 235.031 22.6175 234.317C21.9031 233.602 21.5017 232.633 21.5017 231.623C21.5017 230.613 21.9031 229.644 22.6175 228.929C23.3319 228.215 24.3009 227.814 25.3113 227.814H160.96C161.971 227.814 162.94 228.215 163.654 228.929C164.368 229.644 164.77 230.613 164.77 231.623C164.77 232.633 164.368 233.602 163.654 234.317C162.94 235.031 161.971 235.433 160.96 235.433V235.433Z" fill="#BDD7FF"/>
<path d="M145.246 264.984H25.3113C24.3009 264.984 23.3319 264.583 22.6175 263.868C21.9031 263.154 21.5017 262.185 21.5017 261.174C21.5017 260.164 21.9031 259.195 22.6175 258.481C23.3319 257.766 24.3009 257.365 25.3113 257.365H145.246C146.256 257.365 147.225 257.766 147.939 258.481C148.654 259.195 149.055 260.164 149.055 261.174C149.055 262.185 148.654 263.154 147.939 263.868C147.225 264.583 146.256 264.984 145.246 264.984V264.984Z" fill="#BDD7FF"/>
<path d="M160.96 277.841H25.3113C24.3009 277.841 23.3319 277.44 22.6175 276.726C21.9031 276.011 21.5017 275.042 21.5017 274.032C21.5017 273.021 21.9031 272.052 22.6175 271.338C23.3319 270.624 24.3009 270.222 25.3113 270.222H160.96C161.971 270.222 162.94 270.624 163.654 271.338C164.368 272.052 164.77 273.021 164.77 274.032C164.77 275.042 164.368 276.011 163.654 276.726C162.94 277.44 161.971 277.841 160.96 277.841V277.841Z" fill="#BDD7FF"/>
<path d="M399.779 247.188L229.599 247.188C227.457 247.185 225.403 246.333 223.888 244.818C222.373 243.303 221.521 241.249 221.518 239.107L221.518 8.08128C221.52 5.93877 222.373 3.8847 223.888 2.36972C225.403 0.85473 227.457 0.00254654 229.599 0.000133749L399.778 0C401.921 0.0024097 403.975 0.854581 405.49 2.36956C407.005 3.88455 407.857 5.93862 407.859 8.08113L407.86 239.106C407.857 241.249 407.005 243.303 405.49 244.818C403.975 246.333 401.921 247.185 399.779 247.188V247.188Z" fill="white"/>
<path d="M399.779 247.188L229.599 247.188C227.457 247.185 225.403 246.333 223.888 244.818C222.373 243.303 221.521 241.249 221.518 239.107L221.518 8.08128C221.52 5.93877 222.373 3.8847 223.888 2.36972C225.403 0.85473 227.457 0.00254654 229.599 0.000133749L399.778 0C401.921 0.0024097 403.975 0.854581 405.49 2.36956C407.005 3.88455 407.857 5.93862 407.859 8.08113L407.86 239.106C407.857 241.249 407.005 243.303 405.49 244.818C403.975 246.333 401.921 247.185 399.779 247.188V247.188ZM229.599 0.950855C227.709 0.952999 225.896 1.70493 224.56 3.04168C223.223 4.37843 222.471 6.19083 222.469 8.08128L222.469 239.107C222.471 240.997 223.223 242.809 224.56 244.146C225.897 245.483 227.709 246.235 229.599 246.237L399.779 246.237C401.669 246.235 403.481 245.483 404.818 244.146C406.155 242.809 406.907 240.997 406.909 239.106L406.909 8.08113C406.907 6.19069 406.155 4.37828 404.818 3.04154C403.481 1.70479 401.669 0.952862 399.778 0.950722L229.599 0.950855Z" fill="#BDD7FF"/>
<path d="M307.097 59.8101C307.097 66.0615 305.243 72.1725 301.77 77.3704C298.297 82.5682 293.361 86.6195 287.585 89.0118C281.809 91.4041 275.454 92.03 269.323 90.8104C263.192 89.5909 257.56 86.5805 253.139 82.1601C248.719 77.7397 245.709 72.1078 244.489 65.9765C243.269 59.8452 243.895 53.49 246.288 47.7144C248.68 41.9389 252.731 37.0024 257.929 33.5293C263.127 30.0562 269.238 28.2025 275.489 28.2025C283.871 28.2051 291.909 31.536 297.836 37.463C303.763 43.39 307.094 51.428 307.097 59.8101V59.8101Z" fill="white"/>
<path d="M275.489 92.2798C267.327 92.2729 259.467 89.1895 253.477 83.6444C247.487 78.0994 243.808 70.5003 243.173 62.3627C242.537 54.225 244.993 46.1469 250.049 39.7395C255.106 33.332 262.392 29.0661 270.455 27.7925C278.517 26.5189 286.763 28.3312 293.549 32.868C300.334 37.4048 305.16 44.3327 307.064 52.2699C308.968 60.2072 307.81 68.5704 303.821 75.6918C299.832 82.8131 293.306 88.1691 285.543 90.6917C282.296 91.7475 278.903 92.2835 275.489 92.2798ZM275.489 29.0645C269.407 29.0636 263.461 30.8664 258.404 34.245C253.346 37.6235 249.404 42.4259 247.076 48.0449C244.748 53.664 244.139 59.8471 245.326 65.8124C246.512 71.7778 249.441 77.2573 253.741 81.558C258.042 85.8587 263.522 88.7875 269.487 89.9738C275.452 91.1602 281.635 90.5508 287.254 88.2229C292.873 85.895 297.676 81.953 301.054 76.8955C304.433 71.838 306.236 65.8922 306.235 59.8101C306.226 51.6587 302.983 43.8437 297.219 38.0798C291.456 32.3159 283.641 29.0737 275.489 29.0645V29.0645Z" fill="#BDD7FF"/>
<path d="M366.834 60.002L318.679 60.002C317.668 60.002 316.699 59.6006 315.985 58.8862C315.27 58.1718 314.869 57.2028 314.869 56.1924C314.869 55.182 315.27 54.2131 315.985 53.4986C316.699 52.7842 317.668 52.3828 318.679 52.3828L366.834 52.3828C367.844 52.3828 368.813 52.7841 369.527 53.4986C370.242 54.213 370.643 55.182 370.643 56.1924C370.643 57.2027 370.242 58.1717 369.527 58.8862C368.813 59.6006 367.844 60.002 366.834 60.002V60.002Z" fill="#BDD7FF"/>
<path d="M382.548 72.8593L318.679 72.8594C318.178 72.86 317.682 72.7619 317.219 72.5707C316.757 72.3795 316.336 72.099 315.982 71.7452C315.628 71.3914 315.347 70.9712 315.155 70.5087C314.963 70.0462 314.865 69.5504 314.865 69.0498C314.865 68.5491 314.963 68.0533 315.155 67.5908C315.347 67.1283 315.628 66.7081 315.982 66.3543C316.336 66.0005 316.757 65.72 317.219 65.5288C317.682 65.3376 318.178 65.2395 318.679 65.2402L382.548 65.2401C383.559 65.2401 384.528 65.6415 385.242 66.3559C385.956 67.0704 386.358 68.0393 386.358 69.0497C386.358 70.0601 385.956 71.0291 385.242 71.7435C384.528 72.4579 383.559 72.8593 382.548 72.8593Z" fill="#BDD7FF"/>
<path d="M366.764 122.173L246.829 122.173C245.82 122.172 244.852 121.77 244.139 121.055C243.425 120.341 243.024 119.373 243.024 118.363C243.024 117.354 243.425 116.385 244.139 115.671C244.852 114.957 245.82 114.555 246.829 114.554L366.764 114.554C367.774 114.554 368.743 114.955 369.457 115.669C370.172 116.384 370.573 117.353 370.573 118.363C370.573 119.373 370.172 120.342 369.457 121.057C368.743 121.771 367.774 122.173 366.764 122.173V122.173Z" fill="#BDD7FF"/>
<path d="M382.478 135.03L246.829 135.03C246.329 135.031 245.833 134.933 245.37 134.742C244.907 134.55 244.487 134.27 244.133 133.916C243.778 133.562 243.497 133.142 243.306 132.68C243.114 132.217 243.015 131.721 243.015 131.221C243.015 130.72 243.114 130.224 243.306 129.762C243.497 129.299 243.778 128.879 244.133 128.525C244.487 128.171 244.907 127.891 245.37 127.7C245.833 127.508 246.329 127.41 246.829 127.411L382.478 127.411C383.489 127.411 384.458 127.812 385.172 128.527C385.887 129.241 386.288 130.21 386.288 131.22C386.288 132.231 385.887 133.2 385.172 133.914C384.458 134.629 383.489 135.03 382.478 135.03V135.03Z" fill="#BDD7FF"/>
<path d="M366.764 164.581L246.829 164.581C245.82 164.58 244.852 164.178 244.139 163.464C243.425 162.75 243.024 161.781 243.024 160.772C243.024 159.762 243.425 158.794 244.139 158.08C244.852 157.365 245.82 156.963 246.829 156.962L366.764 156.962C367.774 156.962 368.743 157.363 369.457 158.078C370.172 158.792 370.573 159.761 370.573 160.772C370.573 161.782 370.172 162.751 369.457 163.466C368.743 164.18 367.774 164.581 366.764 164.581Z" fill="#BDD7FF"/>
<path d="M382.478 177.439L246.829 177.439C246.329 177.439 245.833 177.341 245.37 177.15C244.907 176.959 244.487 176.678 244.133 176.325C243.778 175.971 243.497 175.551 243.306 175.088C243.114 174.626 243.015 174.13 243.015 173.629C243.015 173.129 243.114 172.633 243.306 172.17C243.497 171.708 243.778 171.288 244.133 170.934C244.487 170.58 244.907 170.299 245.37 170.108C245.833 169.917 246.329 169.819 246.829 169.82L382.478 169.82C383.489 169.82 384.458 170.221 385.172 170.935C385.887 171.65 386.288 172.619 386.288 173.629C386.288 174.639 385.887 175.608 385.172 176.323C384.458 177.037 383.489 177.439 382.478 177.439V177.439Z" fill="#BDD7FF"/>
<path d="M366.764 206.99L246.829 206.99C245.819 206.99 244.85 206.589 244.136 205.874C243.421 205.16 243.02 204.191 243.02 203.18C243.02 202.17 243.421 201.201 244.136 200.487C244.85 199.772 245.819 199.371 246.829 199.371L366.764 199.371C367.774 199.371 368.743 199.772 369.457 200.487C370.172 201.201 370.573 202.17 370.573 203.18C370.573 204.191 370.172 205.16 369.457 205.874C368.743 206.589 367.774 206.99 366.764 206.99V206.99Z" fill="#BDD7FF"/>
<path d="M382.478 219.847L246.829 219.847C245.819 219.847 244.85 219.446 244.136 218.732C243.421 218.017 243.02 217.048 243.02 216.038C243.02 215.027 243.421 214.058 244.136 213.344C244.85 212.63 245.819 212.228 246.829 212.228L382.478 212.228C383.489 212.228 384.458 212.629 385.172 213.344C385.887 214.058 386.288 215.027 386.288 216.038C386.288 217.048 385.887 218.017 385.172 218.731C384.458 219.446 383.489 219.847 382.478 219.847V219.847Z" fill="#BDD7FF"/>
<path d="M297.101 346.538H126.921C124.779 346.536 122.725 345.683 121.21 344.168C119.695 342.653 118.843 340.599 118.84 338.457V107.432C118.843 105.289 119.695 103.235 121.21 101.72C122.725 100.205 124.779 99.3529 126.921 99.3505H297.101C299.243 99.3529 301.297 100.205 302.812 101.72C304.327 103.235 305.179 105.289 305.182 107.432V338.457C305.179 340.599 304.327 342.653 302.812 344.168C301.297 345.683 299.243 346.536 297.101 346.538V346.538Z" fill="white"/>
<path d="M141.115 158.826C141.109 162.986 141.928 167.106 143.523 170.948C145.117 174.791 147.457 178.279 150.407 181.212C150.655 181.457 150.907 181.701 151.163 181.939C152.704 183.379 154.384 184.66 156.18 185.764C156.525 185.977 156.87 186.181 157.223 186.379C159.039 187.402 160.953 188.243 162.936 188.887C163.277 188.999 163.625 189.106 163.973 189.203C170.275 191.011 176.982 190.822 183.173 188.663C183.294 188.62 183.414 188.577 183.532 188.534C188.967 186.557 193.755 183.127 197.375 178.617C200.995 174.108 203.309 168.692 204.065 162.958C204.82 157.225 203.988 151.394 201.66 146.101C199.332 140.807 195.596 136.254 190.859 132.937C186.122 129.619 180.566 127.665 174.796 127.286C169.026 126.907 163.262 128.118 158.132 130.788C153.002 133.458 148.703 137.484 145.703 142.427C142.702 147.371 141.115 153.043 141.115 158.826V158.826Z" fill="white"/>
<path d="M172.722 191.295C169.682 191.298 166.656 190.872 163.734 190.032C163.39 189.935 163.03 189.825 162.667 189.707C160.631 189.044 158.666 188.181 156.8 187.13C156.45 186.934 156.099 186.727 155.728 186.498C153.883 185.363 152.157 184.047 150.574 182.569C150.313 182.326 150.055 182.076 149.802 181.826C144.825 176.864 141.592 170.421 140.59 163.464C139.588 156.508 140.87 149.415 144.243 143.249C147.617 137.084 152.9 132.18 159.299 129.273C165.698 126.367 172.867 125.616 179.73 127.132C186.593 128.648 192.778 132.35 197.356 137.682C201.935 143.014 204.66 149.688 205.122 156.701C205.584 163.714 203.757 170.687 199.918 176.573C196.078 182.46 190.431 186.941 183.827 189.344C183.708 189.388 183.586 189.431 183.463 189.475C180.011 190.684 176.38 191.299 172.722 191.295V191.295ZM172.722 128.08C166.637 128.08 160.689 129.886 155.631 133.269C150.573 136.652 146.632 141.46 144.308 147.083C141.984 152.707 141.38 158.894 142.575 164.861C143.769 170.828 146.706 176.306 151.016 180.602C151.254 180.838 151.501 181.076 151.751 181.309C153.25 182.709 154.885 183.955 156.632 185.03C156.984 185.247 157.315 185.442 157.645 185.627C159.412 186.622 161.273 187.44 163.202 188.068C163.543 188.179 163.88 188.282 164.206 188.374C170.338 190.133 176.864 189.95 182.888 187.85L183.236 187.724C190.029 185.252 195.734 180.465 199.348 174.205C202.963 167.944 204.256 160.611 203.001 153.491C201.746 146.372 198.023 139.923 192.486 135.276C186.949 130.629 179.951 128.081 172.722 128.08L172.722 128.08Z" fill="#BDD7FF"/>
<path d="M297.101 346.538H126.921C124.779 346.536 122.725 345.683 121.21 344.168C119.695 342.653 118.843 340.599 118.84 338.457V107.432C118.843 105.289 119.695 103.235 121.21 101.72C122.725 100.205 124.779 99.3529 126.921 99.3505H297.101C299.243 99.3529 301.297 100.205 302.812 101.72C304.327 103.235 305.179 105.289 305.182 107.432V338.457C305.179 340.599 304.327 342.653 302.812 344.168C301.297 345.683 299.243 346.536 297.101 346.538V346.538ZM126.921 100.301C125.031 100.303 123.219 101.055 121.882 102.392C120.545 103.729 119.793 105.541 119.791 107.432V338.457C119.793 340.347 120.545 342.16 121.882 343.497C123.219 344.833 125.031 345.585 126.921 345.587H297.101C298.991 345.585 300.803 344.833 302.14 343.497C303.477 342.16 304.229 340.347 304.231 338.457V107.432C304.229 105.541 303.477 103.729 302.14 102.392C300.803 101.055 298.991 100.303 297.101 100.301H126.921Z" fill="#BDD7FF"/>
<path d="M264.156 159.352H216.001C214.991 159.352 214.022 158.951 213.307 158.237C212.593 157.522 212.191 156.553 212.191 155.543C212.191 154.532 212.593 153.563 213.307 152.849C214.022 152.135 214.991 151.733 216.001 151.733H264.156C265.166 151.733 266.135 152.135 266.85 152.849C267.564 153.563 267.965 154.532 267.965 155.543C267.965 156.553 267.564 157.522 266.85 158.237C266.135 158.951 265.166 159.352 264.156 159.352V159.352Z" fill="#FF6584"/>
<path d="M279.87 172.21H216.001C214.991 172.21 214.022 171.808 213.307 171.094C212.593 170.38 212.191 169.411 212.191 168.4C212.191 167.39 212.593 166.421 213.307 165.706C214.022 164.992 214.991 164.591 216.001 164.591H279.87C280.881 164.591 281.85 164.992 282.564 165.706C283.279 166.421 283.68 167.39 283.68 168.4C283.68 169.411 283.279 170.38 282.564 171.094C281.85 171.808 280.881 172.21 279.87 172.21V172.21Z" fill="#FF6584"/>
<path d="M264.086 221.523H144.151C143.141 221.523 142.172 221.122 141.458 220.407C140.743 219.693 140.342 218.724 140.342 217.714C140.342 216.703 140.743 215.734 141.458 215.02C142.172 214.305 143.141 213.904 144.151 213.904H264.086C265.096 213.904 266.065 214.305 266.779 215.02C267.494 215.734 267.895 216.703 267.895 217.714C267.895 218.724 267.494 219.693 266.779 220.407C266.065 221.122 265.096 221.523 264.086 221.523V221.523Z" fill="#BDD7FF"/>
<path d="M279.8 234.381H144.151C143.141 234.381 142.172 233.979 141.458 233.265C140.743 232.55 140.342 231.581 140.342 230.571C140.342 229.561 140.743 228.592 141.458 227.877C142.172 227.163 143.141 226.761 144.151 226.761H279.8C280.811 226.761 281.78 227.163 282.494 227.877C283.208 228.592 283.61 229.561 283.61 230.571C283.61 231.581 283.208 232.55 282.494 233.265C281.78 233.979 280.811 234.381 279.8 234.381V234.381Z" fill="#BDD7FF"/>
<path d="M264.086 263.932H144.151C143.142 263.93 142.174 263.529 141.461 262.814C140.747 262.1 140.346 261.132 140.346 260.122C140.346 259.113 140.747 258.144 141.461 257.43C142.174 256.716 143.142 256.314 144.151 256.313H264.086C265.096 256.313 266.065 256.714 266.779 257.428C267.494 258.143 267.895 259.112 267.895 260.122C267.895 261.132 267.494 262.101 266.779 262.816C266.065 263.53 265.096 263.932 264.086 263.932V263.932Z" fill="#BDD7FF"/>
<path d="M279.8 276.789H144.151C143.142 276.788 142.174 276.386 141.461 275.672C140.747 274.957 140.346 273.989 140.346 272.98C140.346 271.97 140.747 271.002 141.461 270.287C142.174 269.573 143.142 269.171 144.151 269.17H279.8C280.811 269.17 281.78 269.571 282.494 270.286C283.208 271 283.61 271.969 283.61 272.98C283.61 273.99 283.208 274.959 282.494 275.673C281.78 276.388 280.811 276.789 279.8 276.789Z" fill="#BDD7FF"/>
<path d="M264.086 306.34H144.151C143.141 306.34 142.172 305.939 141.458 305.225C140.743 304.51 140.342 303.541 140.342 302.531C140.342 301.52 140.743 300.551 141.458 299.837C142.172 299.123 143.141 298.721 144.151 298.721H264.086C265.096 298.721 266.065 299.123 266.779 299.837C267.494 300.551 267.895 301.52 267.895 302.531C267.895 303.541 267.494 304.51 266.779 305.225C266.065 305.939 265.096 306.34 264.086 306.34V306.34Z" fill="#BDD7FF"/>
<path d="M279.8 319.198H144.151C143.141 319.198 142.172 318.796 141.458 318.082C140.743 317.368 140.342 316.399 140.342 315.388C140.342 314.378 140.743 313.409 141.458 312.694C142.172 311.98 143.141 311.579 144.151 311.579H279.8C280.811 311.579 281.78 311.98 282.494 312.694C283.208 313.409 283.61 314.378 283.61 315.388C283.61 316.399 283.208 317.368 282.494 318.082C281.78 318.796 280.811 319.198 279.8 319.198V319.198Z" fill="#BDD7FF"/>
<path d="M295.126 293.932C290.193 293.926 285.308 294.893 280.749 296.777C276.19 298.66 272.048 301.424 268.558 304.91C265.068 308.396 262.3 312.536 260.411 317.092C258.522 321.649 257.55 326.533 257.55 331.466C257.55 336.398 258.522 341.282 260.411 345.839C262.3 350.396 265.068 354.535 268.558 358.021C272.048 361.507 276.19 364.271 280.749 366.155C285.308 368.039 290.193 369.005 295.126 369H295.126C305.069 368.982 314.599 365.02 321.624 357.983C328.648 350.946 332.594 341.409 332.594 331.466C332.594 321.523 328.648 311.986 321.624 304.949C314.599 297.911 305.069 293.949 295.126 293.932V293.932Z" fill="#FF6584"/>
<path d="M291.564 347.054C290.576 347.056 289.614 346.736 288.824 346.143L288.775 346.107L278.453 338.211C277.489 337.47 276.858 336.377 276.699 335.171C276.54 333.966 276.867 332.747 277.607 331.782C278.346 330.817 279.439 330.185 280.644 330.026C281.85 329.866 283.069 330.191 284.035 330.93L290.72 336.057L306.519 315.446C306.885 314.968 307.342 314.567 307.864 314.266C308.385 313.964 308.96 313.769 309.557 313.69C310.154 313.611 310.761 313.65 311.343 313.806C311.924 313.962 312.47 314.23 312.947 314.597L312.948 314.597L312.949 314.598L312.851 314.734L312.951 314.598C313.915 315.338 314.546 316.432 314.705 317.637C314.864 318.842 314.538 320.062 313.8 321.027L295.217 345.26C294.787 345.818 294.234 346.27 293.601 346.58C292.969 346.89 292.273 347.051 291.568 347.048L291.564 347.054Z" fill="white"/>
<path d="M159.098 150.583H151.718V148.663H168.698V150.583H161.318V169.663H159.098V150.583ZM194.055 148.663V169.663H191.925V152.863L183.675 166.993H182.625L174.375 152.953V169.663H172.245V148.663H174.075L183.195 164.233L192.225 148.663H194.055Z" fill="#FF6584"/>
<path d="M40.2229 110.011H32.8429V108.091H49.8229V110.011H42.4429V129.091H40.2229V110.011ZM75.1795 108.091V129.091H73.0495V112.291L64.7995 126.421H63.7495L55.4995 112.381V129.091H53.3695V108.091H55.1995L64.3195 123.661L73.3495 108.091H75.1795Z" fill="#FF6584"/>
<path d="M262.529 51.5757H255.149V49.6557H272.129V51.5757H264.749V70.6557H262.529V51.5757ZM297.486 49.6557V70.6557H295.356V53.8557L287.106 67.9857H286.056L277.806 53.9457V70.6557H275.676V49.6557H277.506L286.626 65.2257L295.656 49.6557H297.486Z" fill="#FF6584"/>
</svg>
