<svg width="270" height="270" viewBox="0 0 270 270" fill="none" xmlns="http://www.w3.org/2000/svg">
<path d="M135 0C60.9027 0 0.604769 60.2979 0.00478996 134.095C-0.2952 170.094 13.5043 204.293 39.0035 229.792C64.2026 255.591 98.1014 269.691 134.1 269.991H135C209.098 269.991 269.396 209.693 269.996 135.895C270.596 61.4979 210.298 0.59998 135 0ZM186.898 191.393C189.898 194.993 189.898 200.393 186.298 203.693C182.699 206.693 177.299 206.693 173.999 203.093L128.4 153.895C126 151.495 125.401 147.895 126.9 144.595C128.4 141.595 131.4 139.495 135 139.495H145.8C161.099 139.495 173.699 126.896 173.699 111.596C173.699 96.2967 161.099 83.6971 145.8 83.6971H107.701V198.593C107.701 203.393 103.801 207.293 99.0014 207.293C94.2016 207.293 90.3017 203.393 90.3017 198.593V74.9974C90.3017 70.1976 94.2016 66.2977 99.0014 66.2977H145.8C170.699 66.2977 191.098 86.697 191.098 111.596C191.098 133.795 175.199 152.095 154.2 155.995L186.898 191.393Z" fill="#FF4A4A"/>
</svg>
