<svg width="342" height="320" viewBox="0 0 342 320" fill="none" xmlns="http://www.w3.org/2000/svg">
<path d="M250.075 288.1V302H247.795V288.1H250.075ZM252.308 296.44C252.308 295.333 252.535 294.353 252.988 293.5C253.455 292.647 254.082 291.987 254.868 291.52C255.668 291.04 256.555 290.8 257.528 290.8C258.248 290.8 258.955 290.96 259.648 291.28C260.355 291.587 260.915 292 261.328 292.52V287.2H263.628V302H261.328V300.34C260.955 300.873 260.435 301.313 259.768 301.66C259.115 302.007 258.362 302.18 257.508 302.18C256.548 302.18 255.668 301.94 254.868 301.46C254.082 300.967 253.455 300.287 252.988 299.42C252.535 298.54 252.308 297.547 252.308 296.44ZM261.328 296.48C261.328 295.72 261.168 295.06 260.848 294.5C260.542 293.94 260.135 293.513 259.628 293.22C259.122 292.927 258.575 292.78 257.988 292.78C257.402 292.78 256.855 292.927 256.348 293.22C255.842 293.5 255.428 293.92 255.108 294.48C254.802 295.027 254.648 295.68 254.648 296.44C254.648 297.2 254.802 297.867 255.108 298.44C255.428 299.013 255.842 299.453 256.348 299.76C256.868 300.053 257.415 300.2 257.988 300.2C258.575 300.2 259.122 300.053 259.628 299.76C260.135 299.467 260.542 299.04 260.848 298.48C261.168 297.907 261.328 297.24 261.328 296.48ZM276.723 296.22C276.723 296.633 276.696 297.007 276.643 297.34H268.223C268.29 298.22 268.616 298.927 269.203 299.46C269.79 299.993 270.51 300.26 271.363 300.26C272.59 300.26 273.456 299.747 273.963 298.72H276.423C276.09 299.733 275.483 300.567 274.603 301.22C273.736 301.86 272.656 302.18 271.363 302.18C270.31 302.18 269.363 301.947 268.523 301.48C267.696 301 267.043 300.333 266.563 299.48C266.096 298.613 265.863 297.613 265.863 296.48C265.863 295.347 266.09 294.353 266.543 293.5C267.01 292.633 267.656 291.967 268.483 291.5C269.323 291.033 270.283 290.8 271.363 290.8C272.403 290.8 273.33 291.027 274.143 291.48C274.956 291.933 275.59 292.573 276.043 293.4C276.496 294.213 276.723 295.153 276.723 296.22ZM274.343 295.5C274.33 294.66 274.03 293.987 273.443 293.48C272.856 292.973 272.13 292.72 271.263 292.72C270.476 292.72 269.803 292.973 269.243 293.48C268.683 293.973 268.35 294.647 268.243 295.5H274.343ZM278.207 296.44C278.207 295.333 278.433 294.353 278.887 293.5C279.353 292.647 279.98 291.987 280.767 291.52C281.567 291.04 282.447 290.8 283.407 290.8C284.273 290.8 285.027 290.973 285.667 291.32C286.32 291.653 286.84 292.073 287.227 292.58V290.98H289.527V302H287.227V300.36C286.84 300.88 286.313 301.313 285.647 301.66C284.98 302.007 284.22 302.18 283.367 302.18C282.42 302.18 281.553 301.94 280.767 301.46C279.98 300.967 279.353 300.287 278.887 299.42C278.433 298.54 278.207 297.547 278.207 296.44ZM287.227 296.48C287.227 295.72 287.067 295.06 286.747 294.5C286.44 293.94 286.033 293.513 285.527 293.22C285.02 292.927 284.473 292.78 283.887 292.78C283.3 292.78 282.753 292.927 282.247 293.22C281.74 293.5 281.327 293.92 281.007 294.48C280.7 295.027 280.547 295.68 280.547 296.44C280.547 297.2 280.7 297.867 281.007 298.44C281.327 299.013 281.74 299.453 282.247 299.76C282.767 300.053 283.313 300.2 283.887 300.2C284.473 300.2 285.02 300.053 285.527 299.76C286.033 299.467 286.44 299.04 286.747 298.48C287.067 297.907 287.227 297.24 287.227 296.48ZM296.521 302.18C295.655 302.18 294.875 302.027 294.181 301.72C293.501 301.4 292.961 300.973 292.561 300.44C292.161 299.893 291.948 299.287 291.921 298.62H294.281C294.321 299.087 294.541 299.48 294.941 299.8C295.355 300.107 295.868 300.26 296.481 300.26C297.121 300.26 297.615 300.14 297.961 299.9C298.321 299.647 298.501 299.327 298.501 298.94C298.501 298.527 298.301 298.22 297.901 298.02C297.515 297.82 296.895 297.6 296.041 297.36C295.215 297.133 294.541 296.913 294.021 296.7C293.501 296.487 293.048 296.16 292.661 295.72C292.288 295.28 292.101 294.7 292.101 293.98C292.101 293.393 292.275 292.86 292.621 292.38C292.968 291.887 293.461 291.5 294.101 291.22C294.755 290.94 295.501 290.8 296.341 290.8C297.595 290.8 298.601 291.12 299.361 291.76C300.135 292.387 300.548 293.247 300.601 294.34H298.321C298.281 293.847 298.081 293.453 297.721 293.16C297.361 292.867 296.875 292.72 296.261 292.72C295.661 292.72 295.201 292.833 294.881 293.06C294.561 293.287 294.401 293.587 294.401 293.96C294.401 294.253 294.508 294.5 294.721 294.7C294.935 294.9 295.195 295.06 295.501 295.18C295.808 295.287 296.261 295.427 296.861 295.6C297.661 295.813 298.315 296.033 298.821 296.26C299.341 296.473 299.788 296.793 300.161 297.22C300.535 297.647 300.728 298.213 300.741 298.92C300.741 299.547 300.568 300.107 300.221 300.6C299.875 301.093 299.381 301.48 298.741 301.76C298.115 302.04 297.375 302.18 296.521 302.18Z" fill="#3A5987"/>
<path d="M272.072 176C265.499 175.993 258.989 177.281 252.915 179.79C246.84 182.299 241.32 185.981 236.669 190.625C232.019 195.268 228.33 200.783 225.813 206.853C223.296 212.923 222 219.429 222 226C222 232.571 223.296 239.077 225.813 245.147C228.33 251.217 232.019 256.731 236.669 261.375C241.319 266.019 246.84 269.7 252.914 272.21C258.989 274.719 265.499 276.007 272.072 276H272.072C285.322 275.977 298.021 270.698 307.382 261.324C316.743 251.95 322 239.246 322 226C322 212.754 316.743 200.05 307.382 190.676C298.021 181.302 285.322 176.023 272.072 176V176Z" fill="#FF6584"/>
<path d="M290.046 204.999C289.997 215.609 289.948 221.985 289.948 232.547C289.948 232.936 289.997 233.374 290.143 233.764C291.312 237.317 292.529 240.87 293.697 244.374C293.795 244.666 293.892 244.958 294.087 245.153C294.379 245.542 294.72 245.542 294.963 245.153C295.109 244.91 295.255 244.569 295.353 244.277C296.375 241.308 297.398 238.339 298.42 235.37C298.761 234.299 299.199 233.277 299.199 232.06C299.199 221.742 299.248 215.658 299.296 205.291C299.296 205.145 299.296 204.999 299.296 204.95C296.229 204.95 293.162 204.901 290.095 204.901C290.046 204.901 290.046 204.95 290.046 204.999ZM297.349 232.839C297.3 233.034 297.203 233.228 297.154 233.472C296.667 234.932 296.132 236.392 295.645 237.852C295.548 238.193 295.401 238.29 295.109 238.29C294.671 238.242 294.282 238.29 293.843 238.242C293.746 238.242 293.551 238.096 293.503 237.998C292.918 236.295 292.383 234.64 291.799 232.936C291.799 232.888 291.799 232.839 291.799 232.79C293.6 232.79 295.45 232.839 297.349 232.839Z" fill="white"/>
<path d="M299.248 202.37C296.132 202.37 293.114 202.322 290.047 202.322C290.047 202.273 289.998 202.176 289.998 202.078C289.998 200.91 289.998 199.742 289.998 198.574C289.998 197.163 290.777 196.238 291.945 196.238C293.747 196.238 295.5 196.238 297.301 196.238C298.469 196.238 299.248 197.163 299.248 198.574C299.297 199.888 299.297 201.154 299.248 202.37Z" fill="white"/>
<path d="M285.128 208.552H244.085V213.516H285.128V208.552Z" fill="white"/>
<path d="M256.354 222.715H244.085V227.68H256.354V222.715Z" fill="white"/>
<path d="M285.128 222.715H261.077V227.68H285.128V222.715Z" fill="white"/>
<path d="M285.128 236.879H244.085V241.843H285.128V236.879Z" fill="white"/>
<path d="M299.297 250.994H262.976V255.958H299.297V250.994Z" fill="white"/>
<path d="M256.111 250.994H244.085V255.958H256.111V250.994Z" fill="white"/>
<path d="M52.0912 288.1V302H49.8112V292.48L45.5712 302H43.9912L39.7312 292.48V302H37.4512V288.1H39.9112L44.7912 299L49.6512 288.1H52.0912ZM54.3279 296.44C54.3279 295.333 54.5546 294.353 55.0079 293.5C55.4746 292.647 56.1012 291.987 56.8879 291.52C57.6879 291.04 58.5679 290.8 59.5279 290.8C60.3946 290.8 61.1479 290.973 61.7879 291.32C62.4412 291.653 62.9612 292.073 63.3479 292.58V290.98H65.6479V302H63.3479V300.36C62.9612 300.88 62.4346 301.313 61.7679 301.66C61.1012 302.007 60.3412 302.18 59.4879 302.18C58.5412 302.18 57.6746 301.94 56.8879 301.46C56.1012 300.967 55.4746 300.287 55.0079 299.42C54.5546 298.54 54.3279 297.547 54.3279 296.44ZM63.3479 296.48C63.3479 295.72 63.1879 295.06 62.8679 294.5C62.5612 293.94 62.1546 293.513 61.6479 293.22C61.1412 292.927 60.5946 292.78 60.0079 292.78C59.4212 292.78 58.8746 292.927 58.3679 293.22C57.8612 293.5 57.4479 293.92 57.1279 294.48C56.8212 295.027 56.6679 295.68 56.6679 296.44C56.6679 297.2 56.8212 297.867 57.1279 298.44C57.4479 299.013 57.8612 299.453 58.3679 299.76C58.8879 300.053 59.4346 300.2 60.0079 300.2C60.5946 300.2 61.1412 300.053 61.6479 299.76C62.1546 299.467 62.5612 299.04 62.8679 298.48C63.1879 297.907 63.3479 297.24 63.3479 296.48ZM70.9226 292.58C71.2559 292.02 71.6959 291.587 72.2426 291.28C72.8026 290.96 73.4626 290.8 74.2226 290.8V293.16H73.6426C72.7492 293.16 72.0692 293.387 71.6026 293.84C71.1492 294.293 70.9226 295.08 70.9226 296.2V302H68.6426V290.98H70.9226V292.58ZM75.5584 296.48C75.5584 295.347 75.785 294.353 76.2384 293.5C76.705 292.633 77.345 291.967 78.1584 291.5C78.9717 291.033 79.905 290.8 80.9584 290.8C82.2917 290.8 83.3917 291.12 84.2584 291.76C85.1384 292.387 85.7317 293.287 86.0384 294.46H83.5784C83.3784 293.913 83.0584 293.487 82.6184 293.18C82.1784 292.873 81.625 292.72 80.9584 292.72C80.025 292.72 79.2784 293.053 78.7184 293.72C78.1717 294.373 77.8984 295.293 77.8984 296.48C77.8984 297.667 78.1717 298.593 78.7184 299.26C79.2784 299.927 80.025 300.26 80.9584 300.26C82.2784 300.26 83.1517 299.68 83.5784 298.52H86.0384C85.7184 299.64 85.1184 300.533 84.2384 301.2C83.3584 301.853 82.265 302.18 80.9584 302.18C79.905 302.18 78.9717 301.947 78.1584 301.48C77.345 301 76.705 300.333 76.2384 299.48C75.785 298.613 75.5584 297.613 75.5584 296.48ZM87.5505 296.44C87.5505 295.333 87.7772 294.353 88.2305 293.5C88.6972 292.647 89.3239 291.987 90.1105 291.52C90.9105 291.04 91.7905 290.8 92.7505 290.8C93.6172 290.8 94.3705 290.973 95.0105 291.32C95.6639 291.653 96.1839 292.073 96.5705 292.58V290.98H98.8705V302H96.5705V300.36C96.1839 300.88 95.6572 301.313 94.9905 301.66C94.3239 302.007 93.5639 302.18 92.7105 302.18C91.7639 302.18 90.8972 301.94 90.1105 301.46C89.3239 300.967 88.6972 300.287 88.2305 299.42C87.7772 298.54 87.5505 297.547 87.5505 296.44ZM96.5705 296.48C96.5705 295.72 96.4105 295.06 96.0905 294.5C95.7839 293.94 95.3772 293.513 94.8705 293.22C94.3639 292.927 93.8172 292.78 93.2305 292.78C92.6439 292.78 92.0972 292.927 91.5905 293.22C91.0839 293.5 90.6705 293.92 90.3505 294.48C90.0439 295.027 89.8905 295.68 89.8905 296.44C89.8905 297.2 90.0439 297.867 90.3505 298.44C90.6705 299.013 91.0839 299.453 91.5905 299.76C92.1105 300.053 92.6572 300.2 93.2305 300.2C93.8172 300.2 94.3639 300.053 94.8705 299.76C95.3772 299.467 95.7839 299.04 96.0905 298.48C96.4105 297.907 96.5705 297.24 96.5705 296.48ZM105.865 302.18C104.999 302.18 104.219 302.027 103.525 301.72C102.845 301.4 102.305 300.973 101.905 300.44C101.505 299.893 101.292 299.287 101.265 298.62H103.625C103.665 299.087 103.885 299.48 104.285 299.8C104.699 300.107 105.212 300.26 105.825 300.26C106.465 300.26 106.959 300.14 107.305 299.9C107.665 299.647 107.845 299.327 107.845 298.94C107.845 298.527 107.645 298.22 107.245 298.02C106.859 297.82 106.239 297.6 105.385 297.36C104.559 297.133 103.885 296.913 103.365 296.7C102.845 296.487 102.392 296.16 102.005 295.72C101.632 295.28 101.445 294.7 101.445 293.98C101.445 293.393 101.619 292.86 101.965 292.38C102.312 291.887 102.805 291.5 103.445 291.22C104.099 290.94 104.845 290.8 105.685 290.8C106.939 290.8 107.945 291.12 108.705 291.76C109.479 292.387 109.892 293.247 109.945 294.34H107.665C107.625 293.847 107.425 293.453 107.065 293.16C106.705 292.867 106.219 292.72 105.605 292.72C105.005 292.72 104.545 292.833 104.225 293.06C103.905 293.287 103.745 293.587 103.745 293.96C103.745 294.253 103.852 294.5 104.065 294.7C104.279 294.9 104.539 295.06 104.845 295.18C105.152 295.287 105.605 295.427 106.205 295.6C107.005 295.813 107.659 296.033 108.165 296.26C108.685 296.473 109.132 296.793 109.505 297.22C109.879 297.647 110.072 298.213 110.085 298.92C110.085 299.547 109.912 300.107 109.565 300.6C109.219 301.093 108.725 301.48 108.085 301.76C107.459 302.04 106.719 302.18 105.865 302.18Z" fill="#3A5987"/>
<path d="M72.0721 176C65.4992 175.993 58.9893 177.281 52.9146 179.79C46.8399 182.299 41.3196 185.981 36.6692 190.625C32.0189 195.268 28.3297 200.783 25.8127 206.853C23.2956 212.923 22 219.429 22 226C22 232.571 23.2955 239.077 25.8125 245.147C28.3295 251.217 32.0187 256.731 36.669 261.375C41.3193 266.019 46.8396 269.7 52.9143 272.21C58.989 274.719 65.4988 276.007 72.0717 276H72.0721C85.3219 275.977 98.021 270.698 107.382 261.324C116.743 251.95 122 239.246 122 226C122 212.754 116.743 200.05 107.382 190.676C98.021 181.302 85.3219 176.023 72.0721 176V176Z" fill="#FF6584"/>
<path d="M55.5141 235.19C55.5141 235.545 55.5141 235.9 55.5141 236.256C55.5141 236.54 55.373 236.753 55.0201 236.753C54.6673 236.753 54.2438 236.753 53.8909 236.753C53.5381 236.753 53.3969 236.54 53.3969 236.256C53.3969 235.972 53.3969 235.758 53.3969 235.474C53.3969 234.906 53.3969 234.906 52.8323 234.763C52.1266 234.621 51.4208 234.479 50.7857 234.195C50.2916 233.982 50.2211 233.84 50.3622 233.271C50.5034 232.845 50.5739 232.489 50.7151 232.063C50.8562 231.637 50.9974 231.566 51.4208 231.779C52.1266 232.134 52.9029 232.347 53.6792 232.489C54.1732 232.561 54.6673 232.489 55.1613 232.276C56.0082 231.921 56.1493 230.855 55.4436 230.215C55.1613 230.002 54.879 229.86 54.5967 229.718C53.8204 229.363 53.044 229.15 52.2677 228.652C51.068 227.941 50.3622 226.947 50.4328 225.525C50.5034 223.891 51.4208 222.896 52.9735 222.328C53.6086 222.114 53.6086 222.114 53.6086 221.475C53.6086 221.262 53.6086 221.048 53.6086 220.835C53.6086 220.338 53.6792 220.267 54.1732 220.267C54.3144 220.267 54.4555 220.267 54.5967 220.267C55.6553 220.267 55.6553 220.267 55.6553 221.333C55.6553 222.043 55.6553 222.043 56.361 222.185C56.9256 222.257 57.4197 222.47 57.9843 222.683C58.2666 222.825 58.4077 223.038 58.2665 223.322C58.1254 223.749 57.9843 224.246 57.8431 224.673C57.702 225.099 57.5608 225.17 57.2079 224.957C56.4316 224.602 55.5847 224.388 54.6673 224.459C54.4555 224.459 54.1732 224.531 53.9615 224.602C53.1852 224.957 53.044 225.81 53.7498 226.307C54.1027 226.591 54.4555 226.733 54.879 226.947C55.5847 227.231 56.2199 227.515 56.8551 227.87C58.9017 229.007 59.4663 231.637 57.9843 233.342C57.4902 233.982 56.7845 234.408 56.0082 234.621C55.6553 234.692 55.5141 234.835 55.5141 235.19ZM63.0656 223.038H84.9437C85.226 223.038 85.4377 222.825 85.4377 222.541V220.835C85.4377 220.551 85.226 220.338 84.9437 220.338H63.0656C62.7833 220.338 62.5716 220.551 62.5716 220.835V222.541C62.5716 222.825 62.7833 223.038 63.0656 223.038ZM62.5716 227.089C62.5716 227.373 62.7833 227.586 63.0656 227.586H75.6278C75.9101 227.586 76.1219 227.373 76.1219 227.089V225.383C76.1219 225.099 75.9101 224.886 75.6278 224.886H63.0656C62.7833 224.886 62.5716 225.099 62.5716 225.383V227.089ZM46.4806 244.073H90.8719C93.2009 244.073 95.1064 242.154 95.1064 239.809V227.16C93.836 228.581 92.4951 230.073 91.0836 231.424V239.738C91.0836 239.88 90.9425 240.022 90.8013 240.022H46.4806C46.3395 240.022 46.1983 239.88 46.1983 239.738V216.714H87.1315C88.6135 214.369 90.2368 211.953 92.0011 209.394C92.0011 209.323 92.0717 209.323 92.0717 209.252L92.4951 208.684C92.6363 208.542 92.7069 208.399 92.7774 208.257L92.848 208.115C92.2128 207.76 91.5777 207.618 90.8013 207.618H46.4806C44.1517 207.618 42.2462 209.536 42.2462 211.881V239.667C42.1756 242.154 44.0811 244.073 46.4806 244.073ZM87.7666 222.328C86.3552 224.815 84.9437 227.302 83.8851 230.002C83.8145 230.144 83.7439 230.358 83.7439 230.5C83.6733 230.5 83.5322 230.571 83.4616 230.571C83.3205 230.642 83.1087 230.713 82.9676 230.784C82.897 230.855 82.7559 230.855 82.6853 230.926L82.4736 230.997C81.9795 231.21 81.5561 231.352 81.0621 231.424C80.9915 231.424 80.9915 231.424 80.9209 231.424C80.8504 231.424 80.7798 231.424 80.7798 231.352C80.6386 231.139 80.4269 230.926 80.1446 230.784C79.6506 230.5 79.086 230.429 78.4508 230.713C77.7451 230.997 76.9688 231.352 76.1219 231.921C75.769 232.134 75.4867 232.347 75.1338 232.561C74.9221 232.703 74.781 232.774 74.5692 232.916C74.5692 232.845 74.5692 232.845 74.5692 232.774C74.6398 232.418 74.7104 232.134 74.7104 231.779C74.7104 231.424 74.6398 231.139 74.3575 230.855C74.1458 230.642 73.7929 230.5 73.44 230.5C73.2989 230.5 72.946 230.5 72.6637 230.713L72.5226 230.784C72.2403 230.997 71.8874 231.139 71.5345 231.424C70.9699 231.85 70.4053 232.347 69.9113 232.845C69.4879 233.2 69.135 233.484 68.7116 233.84C68.8527 233.484 68.9233 233.2 69.0644 232.845C69.2056 232.418 69.4173 231.992 69.5585 231.495C69.6996 231.21 69.7702 230.855 69.7702 230.5C69.8408 230.144 69.6996 229.789 69.4879 229.505C69.2056 229.15 68.7116 229.007 68.2175 229.15C67.9352 229.221 67.5824 229.434 67.3706 229.647L67.3001 229.718C66.8766 230.144 66.4532 230.571 66.0297 231.068C64.83 232.561 63.6302 234.266 62.3599 236.398C62.0776 236.824 61.7953 237.322 61.6541 237.89C61.6541 237.961 61.6541 238.032 61.6541 238.103C61.5835 238.53 61.9364 238.956 62.3599 239.098C62.4304 239.098 62.501 239.098 62.5716 239.098C62.9245 239.098 63.2773 238.885 63.3479 238.53V238.459L63.4185 238.245C63.4891 238.103 63.5596 237.961 63.6302 237.819C63.7714 237.606 63.8419 237.393 64.0537 237.18L64.4771 236.611C65.0417 235.9 65.6063 235.119 66.1709 234.408C66.1003 234.55 66.1003 234.692 66.0297 234.835C65.9592 235.119 65.818 235.545 65.9592 235.972C66.1709 236.753 66.8766 237.18 67.5824 237.037C67.7941 236.966 68.0764 236.895 68.2881 236.753C68.7821 236.469 69.2056 236.114 69.6996 235.758C70.4759 235.119 71.2522 234.55 72.0991 233.911C72.0991 233.982 72.0991 234.053 72.0991 234.124C72.0991 234.55 72.1697 234.906 72.452 235.119C72.8049 235.474 73.2989 235.616 73.8635 235.474C74.2164 235.403 74.5692 235.19 74.9221 235.048C75.3456 234.835 75.6984 234.621 76.1219 234.408C76.6159 234.124 77.1099 233.84 77.6745 233.555C78.098 233.342 78.5214 233.129 79.0154 232.916L79.2977 232.774C79.8623 233.342 80.5681 233.555 81.4149 233.413C82.4736 233.2 83.391 232.916 84.3085 232.561C84.3085 232.561 84.3791 232.561 84.3791 232.489C84.5908 232.418 84.8025 232.276 85.0142 232.134C86.0729 231.495 86.9903 230.642 87.9078 229.789C92.2834 225.525 96.0944 220.835 99.7643 216.003C100.117 215.577 100.399 215.15 100.752 214.724C100.823 214.653 100.823 214.582 100.893 214.511L102.446 212.379C102.517 212.308 102.587 212.237 102.658 212.166C103.928 210.389 105.199 208.613 106.469 206.765L106.539 206.694L107.951 207.689L101.246 216.927C100.893 217.353 101.035 217.993 101.458 218.348C101.67 218.49 101.952 218.561 102.234 218.561C102.517 218.49 102.728 218.348 102.87 218.135L110.139 208.044C110.492 207.618 110.35 206.978 109.927 206.623L107.598 204.917L108.233 203.922C108.516 203.425 108.798 202.857 109.01 202.288C109.08 202.075 109.151 201.933 109.221 201.72C109.574 200.44 109.221 199.517 107.951 198.664C106.892 197.882 106.045 197.882 104.916 198.664C104.21 199.161 103.575 199.801 103.011 200.512C100.893 202.928 99.0585 205.628 97.153 208.186C97.0825 208.257 97.0825 208.257 97.0825 208.328L95.5298 210.389C95.4593 210.46 95.3887 210.602 95.3181 210.673C95.177 210.816 95.1064 210.958 94.9652 211.171L94.8947 211.313C92.354 214.866 89.9545 218.561 87.7666 222.328Z" fill="white"/>
<path d="M242.22 121.24C242.22 121.947 242.053 122.613 241.72 123.24C241.387 123.867 240.853 124.38 240.12 124.78C239.387 125.167 238.447 125.36 237.3 125.36H234.78V131H232.5V117.1H237.3C238.367 117.1 239.267 117.287 240 117.66C240.747 118.02 241.3 118.513 241.66 119.14C242.033 119.767 242.22 120.467 242.22 121.24ZM237.3 123.5C238.167 123.5 238.813 123.307 239.24 122.92C239.667 122.52 239.88 121.96 239.88 121.24C239.88 119.72 239.02 118.96 237.3 118.96H234.78V123.5H237.3ZM243.635 125.44C243.635 124.333 243.861 123.353 244.315 122.5C244.781 121.647 245.408 120.987 246.195 120.52C246.995 120.04 247.875 119.8 248.835 119.8C249.701 119.8 250.455 119.973 251.095 120.32C251.748 120.653 252.268 121.073 252.655 121.58V119.98H254.955V131H252.655V129.36C252.268 129.88 251.741 130.313 251.075 130.66C250.408 131.007 249.648 131.18 248.795 131.18C247.848 131.18 246.981 130.94 246.195 130.46C245.408 129.967 244.781 129.287 244.315 128.42C243.861 127.54 243.635 126.547 243.635 125.44ZM252.655 125.48C252.655 124.72 252.495 124.06 252.175 123.5C251.868 122.94 251.461 122.513 250.955 122.22C250.448 121.927 249.901 121.78 249.315 121.78C248.728 121.78 248.181 121.927 247.675 122.22C247.168 122.5 246.755 122.92 246.435 123.48C246.128 124.027 245.975 124.68 245.975 125.44C245.975 126.2 246.128 126.867 246.435 127.44C246.755 128.013 247.168 128.453 247.675 128.76C248.195 129.053 248.741 129.2 249.315 129.2C249.901 129.2 250.448 129.053 250.955 128.76C251.461 128.467 251.868 128.04 252.175 127.48C252.495 126.907 252.655 126.24 252.655 125.48ZM260.609 121.84V127.94C260.609 128.353 260.703 128.653 260.889 128.84C261.089 129.013 261.423 129.1 261.889 129.1H263.289V131H261.489C260.463 131 259.676 130.76 259.129 130.28C258.583 129.8 258.309 129.02 258.309 127.94V121.84H257.009V119.98H258.309V117.24H260.609V119.98H263.289V121.84H260.609ZM275.491 125.22C275.491 125.633 275.464 126.007 275.411 126.34H266.991C267.057 127.22 267.384 127.927 267.971 128.46C268.557 128.993 269.277 129.26 270.131 129.26C271.357 129.26 272.224 128.747 272.731 127.72H275.191C274.857 128.733 274.251 129.567 273.371 130.22C272.504 130.86 271.424 131.18 270.131 131.18C269.077 131.18 268.131 130.947 267.291 130.48C266.464 130 265.811 129.333 265.331 128.48C264.864 127.613 264.631 126.613 264.631 125.48C264.631 124.347 264.857 123.353 265.311 122.5C265.777 121.633 266.424 120.967 267.251 120.5C268.091 120.033 269.051 119.8 270.131 119.8C271.171 119.8 272.097 120.027 272.911 120.48C273.724 120.933 274.357 121.573 274.811 122.4C275.264 123.213 275.491 124.153 275.491 125.22ZM273.111 124.5C273.097 123.66 272.797 122.987 272.211 122.48C271.624 121.973 270.897 121.72 270.031 121.72C269.244 121.72 268.571 121.973 268.011 122.48C267.451 122.973 267.117 123.647 267.011 124.5H273.111ZM283.294 119.8C284.161 119.8 284.934 119.98 285.614 120.34C286.308 120.7 286.848 121.233 287.234 121.94C287.621 122.647 287.814 123.5 287.814 124.5V131H285.554V124.84C285.554 123.853 285.308 123.1 284.814 122.58C284.321 122.047 283.648 121.78 282.794 121.78C281.941 121.78 281.261 122.047 280.754 122.58C280.261 123.1 280.014 123.853 280.014 124.84V131H277.734V119.98H280.014V121.24C280.388 120.787 280.861 120.433 281.434 120.18C282.021 119.927 282.641 119.8 283.294 119.8ZM293.383 121.84V127.94C293.383 128.353 293.476 128.653 293.663 128.84C293.863 129.013 294.196 129.1 294.663 129.1H296.063V131H294.263C293.236 131 292.449 130.76 291.903 130.28C291.356 129.8 291.083 129.02 291.083 127.94V121.84H289.783V119.98H291.083V117.24H293.383V119.98H296.063V121.84H293.383ZM308.264 125.22C308.264 125.633 308.237 126.007 308.184 126.34H299.764C299.831 127.22 300.157 127.927 300.744 128.46C301.331 128.993 302.051 129.26 302.904 129.26C304.131 129.26 304.997 128.747 305.504 127.72H307.964C307.631 128.733 307.024 129.567 306.144 130.22C305.277 130.86 304.197 131.18 302.904 131.18C301.851 131.18 300.904 130.947 300.064 130.48C299.237 130 298.584 129.333 298.104 128.48C297.637 127.613 297.404 126.613 297.404 125.48C297.404 124.347 297.631 123.353 298.084 122.5C298.551 121.633 299.197 120.967 300.024 120.5C300.864 120.033 301.824 119.8 302.904 119.8C303.944 119.8 304.871 120.027 305.684 120.48C306.497 120.933 307.131 121.573 307.584 122.4C308.037 123.213 308.264 124.153 308.264 125.22ZM305.884 124.5C305.871 123.66 305.571 122.987 304.984 122.48C304.397 121.973 303.671 121.72 302.804 121.72C302.017 121.72 301.344 121.973 300.784 122.48C300.224 122.973 299.891 123.647 299.784 124.5H305.884ZM314.508 131.18C313.641 131.18 312.861 131.027 312.168 130.72C311.488 130.4 310.948 129.973 310.548 129.44C310.148 128.893 309.934 128.287 309.908 127.62H312.268C312.308 128.087 312.528 128.48 312.928 128.8C313.341 129.107 313.854 129.26 314.468 129.26C315.108 129.26 315.601 129.14 315.948 128.9C316.308 128.647 316.488 128.327 316.488 127.94C316.488 127.527 316.288 127.22 315.888 127.02C315.501 126.82 314.881 126.6 314.028 126.36C313.201 126.133 312.528 125.913 312.008 125.7C311.488 125.487 311.034 125.16 310.648 124.72C310.274 124.28 310.088 123.7 310.088 122.98C310.088 122.393 310.261 121.86 310.608 121.38C310.954 120.887 311.448 120.5 312.088 120.22C312.741 119.94 313.488 119.8 314.328 119.8C315.581 119.8 316.588 120.12 317.348 120.76C318.121 121.387 318.534 122.247 318.588 123.34H316.308C316.268 122.847 316.068 122.453 315.708 122.16C315.348 121.867 314.861 121.72 314.248 121.72C313.648 121.72 313.188 121.833 312.868 122.06C312.548 122.287 312.388 122.587 312.388 122.96C312.388 123.253 312.494 123.5 312.708 123.7C312.921 123.9 313.181 124.06 313.488 124.18C313.794 124.287 314.248 124.427 314.848 124.6C315.648 124.813 316.301 125.033 316.808 125.26C317.328 125.473 317.774 125.793 318.148 126.22C318.521 126.647 318.714 127.213 318.728 127.92C318.728 128.547 318.554 129.107 318.208 129.6C317.861 130.093 317.368 130.48 316.728 130.76C316.101 131.04 315.361 131.18 314.508 131.18Z" fill="#3A5987"/>
<path d="M272.072 3.13315e-05C265.499 -0.00732425 258.989 1.28052 252.915 3.78995C246.84 6.29938 241.32 9.98118 236.669 14.6248C232.019 19.2685 228.33 24.7829 225.813 30.8528C223.296 36.9227 222 43.429 222 49.9998C222 56.5706 223.296 63.077 225.813 69.1469C228.33 75.2168 232.019 80.7313 236.669 85.3749C241.319 90.0186 246.84 93.7004 252.914 96.2099C258.989 98.7194 265.499 100.007 272.072 100H272.072C285.322 99.9766 298.021 94.6984 307.382 85.3242C316.743 75.9499 322 63.2455 322 50C322 36.7544 316.743 24.0501 307.382 14.6758C298.021 5.30157 285.322 0.0234041 272.072 3.13315e-05V3.13315e-05Z" fill="#FF6584"/>
<path d="M293.771 20.2378L249.606 20.2445V80.9511H293.775L293.771 20.2378ZM257.721 29.3505H285.66V33.5999H257.721V29.3505ZM257.721 36.4835H276.219V40.733H257.721V36.4835ZM273.778 73.2268L269.962 71.1215L273.218 64.992C274.337 65.9299 275.68 66.591 277.15 66.8805L273.778 73.2268ZM271.692 57.879C271.692 53.8262 274.891 50.5292 278.822 50.5292C282.753 50.5292 285.951 53.8268 285.951 57.879C285.951 61.9311 282.753 65.2275 278.822 65.2275C274.891 65.2281 271.692 61.9311 271.692 57.879ZM283.865 73.2268L280.494 66.8811C281.964 66.5916 283.306 65.9311 284.425 64.9932L287.682 71.1221L283.865 73.2268Z" fill="white"/>
<path d="M42.04 117.1C43.52 117.1 44.8133 117.387 45.92 117.96C47.04 118.52 47.9 119.333 48.5 120.4C49.1133 121.453 49.42 122.687 49.42 124.1C49.42 125.513 49.1133 126.74 48.5 127.78C47.9 128.82 47.04 129.62 45.92 130.18C44.8133 130.727 43.52 131 42.04 131H37.5V117.1H42.04ZM42.04 129.14C43.6667 129.14 44.9133 128.7 45.78 127.82C46.6467 126.94 47.08 125.7 47.08 124.1C47.08 122.487 46.6467 121.227 45.78 120.32C44.9133 119.413 43.6667 118.96 42.04 118.96H39.78V129.14H42.04ZM52.8397 118.52C52.4264 118.52 52.0797 118.38 51.7997 118.1C51.5197 117.82 51.3797 117.473 51.3797 117.06C51.3797 116.647 51.5197 116.3 51.7997 116.02C52.0797 115.74 52.4264 115.6 52.8397 115.6C53.2397 115.6 53.5797 115.74 53.8597 116.02C54.1397 116.3 54.2797 116.647 54.2797 117.06C54.2797 117.473 54.1397 117.82 53.8597 118.1C53.5797 118.38 53.2397 118.52 52.8397 118.52ZM53.9597 119.98V131H51.6797V119.98H53.9597ZM60.9531 131.18C60.0865 131.18 59.3065 131.027 58.6131 130.72C57.9331 130.4 57.3931 129.973 56.9931 129.44C56.5931 128.893 56.3798 128.287 56.3531 127.62H58.7131C58.7531 128.087 58.9731 128.48 59.3731 128.8C59.7865 129.107 60.2998 129.26 60.9131 129.26C61.5531 129.26 62.0465 129.14 62.3931 128.9C62.7531 128.647 62.9331 128.327 62.9331 127.94C62.9331 127.527 62.7331 127.22 62.3331 127.02C61.9465 126.82 61.3265 126.6 60.4731 126.36C59.6465 126.133 58.9731 125.913 58.4531 125.7C57.9331 125.487 57.4798 125.16 57.0931 124.72C56.7198 124.28 56.5331 123.7 56.5331 122.98C56.5331 122.393 56.7065 121.86 57.0531 121.38C57.3998 120.887 57.8931 120.5 58.5331 120.22C59.1865 119.94 59.9331 119.8 60.7731 119.8C62.0265 119.8 63.0331 120.12 63.7931 120.76C64.5665 121.387 64.9798 122.247 65.0331 123.34H62.7531C62.7131 122.847 62.5131 122.453 62.1531 122.16C61.7931 121.867 61.3065 121.72 60.6931 121.72C60.0931 121.72 59.6331 121.833 59.3131 122.06C58.9931 122.287 58.8331 122.587 58.8331 122.96C58.8331 123.253 58.9398 123.5 59.1531 123.7C59.3665 123.9 59.6265 124.06 59.9331 124.18C60.2398 124.287 60.6931 124.427 61.2931 124.6C62.0931 124.813 62.7465 125.033 63.2531 125.26C63.7731 125.473 64.2198 125.793 64.5931 126.22C64.9665 126.647 65.1598 127.213 65.1731 127.92C65.1731 128.547 64.9998 129.107 64.6531 129.6C64.3065 130.093 63.8131 130.48 63.1731 130.76C62.5465 131.04 61.8065 131.18 60.9531 131.18ZM77.7367 125.22C77.7367 125.633 77.7101 126.007 77.6567 126.34H69.2367C69.3034 127.22 69.6301 127.927 70.2167 128.46C70.8034 128.993 71.5234 129.26 72.3767 129.26C73.6034 129.26 74.4701 128.747 74.9767 127.72H77.4367C77.1034 128.733 76.4967 129.567 75.6167 130.22C74.7501 130.86 73.6701 131.18 72.3767 131.18C71.3234 131.18 70.3767 130.947 69.5367 130.48C68.7101 130 68.0567 129.333 67.5767 128.48C67.1101 127.613 66.8767 126.613 66.8767 125.48C66.8767 124.347 67.1034 123.353 67.5567 122.5C68.0234 121.633 68.6701 120.967 69.4967 120.5C70.3367 120.033 71.2967 119.8 72.3767 119.8C73.4167 119.8 74.3434 120.027 75.1567 120.48C75.9701 120.933 76.6034 121.573 77.0567 122.4C77.5101 123.213 77.7367 124.153 77.7367 125.22ZM75.3567 124.5C75.3434 123.66 75.0434 122.987 74.4567 122.48C73.8701 121.973 73.1434 121.72 72.2767 121.72C71.4901 121.72 70.8167 121.973 70.2567 122.48C69.6967 122.973 69.3634 123.647 69.2567 124.5H75.3567ZM85.5405 119.8C86.4071 119.8 87.1805 119.98 87.8605 120.34C88.5538 120.7 89.0938 121.233 89.4805 121.94C89.8671 122.647 90.0605 123.5 90.0605 124.5V131H87.8005V124.84C87.8005 123.853 87.5538 123.1 87.0605 122.58C86.5671 122.047 85.8938 121.78 85.0405 121.78C84.1871 121.78 83.5071 122.047 83.0005 122.58C82.5071 123.1 82.2605 123.853 82.2605 124.84V131H79.9805V119.98H82.2605V121.24C82.6338 120.787 83.1071 120.433 83.6805 120.18C84.2671 119.927 84.8871 119.8 85.5405 119.8ZM81.9205 118.84C82.0271 118.067 82.2805 117.487 82.6805 117.1C83.0805 116.7 83.5805 116.5 84.1805 116.5C84.4338 116.5 84.6538 116.54 84.8405 116.62C85.0271 116.7 85.2538 116.82 85.5205 116.98C85.7205 117.113 85.8871 117.213 86.0205 117.28C86.1671 117.347 86.3271 117.38 86.5005 117.38C86.7271 117.38 86.9138 117.313 87.0605 117.18C87.2205 117.033 87.3205 116.82 87.3605 116.54H88.6405C88.5338 117.313 88.2805 117.9 87.8805 118.3C87.4805 118.687 86.9805 118.88 86.3805 118.88C86.1271 118.88 85.9005 118.84 85.7005 118.76C85.5005 118.667 85.2805 118.54 85.0405 118.38C84.8005 118.233 84.6138 118.133 84.4805 118.08C84.3605 118.013 84.2205 117.98 84.0605 117.98C83.8338 117.98 83.6405 118.053 83.4805 118.2C83.3338 118.347 83.2405 118.56 83.2005 118.84H81.9205ZM97.7488 131.18C96.7088 131.18 95.7688 130.947 94.9288 130.48C94.0888 130 93.4288 129.333 92.9488 128.48C92.4688 127.613 92.2288 126.613 92.2288 125.48C92.2288 124.36 92.4754 123.367 92.9688 122.5C93.4621 121.633 94.1354 120.967 94.9888 120.5C95.8421 120.033 96.7954 119.8 97.8488 119.8C98.9021 119.8 99.8554 120.033 100.709 120.5C101.562 120.967 102.235 121.633 102.729 122.5C103.222 123.367 103.469 124.36 103.469 125.48C103.469 126.6 103.215 127.593 102.709 128.46C102.202 129.327 101.509 130 100.629 130.48C99.7621 130.947 98.8021 131.18 97.7488 131.18ZM97.7488 129.2C98.3354 129.2 98.8821 129.06 99.3888 128.78C99.9088 128.5 100.329 128.08 100.649 127.52C100.969 126.96 101.129 126.28 101.129 125.48C101.129 124.68 100.975 124.007 100.669 123.46C100.362 122.9 99.9554 122.48 99.4488 122.2C98.9421 121.92 98.3954 121.78 97.8088 121.78C97.2221 121.78 96.6754 121.92 96.1688 122.2C95.6754 122.48 95.2821 122.9 94.9888 123.46C94.6954 124.007 94.5488 124.68 94.5488 125.48C94.5488 126.667 94.8488 127.587 95.4488 128.24C96.0621 128.88 96.8288 129.2 97.7488 129.2ZM109.723 131.18C108.856 131.18 108.076 131.027 107.383 130.72C106.703 130.4 106.163 129.973 105.763 129.44C105.363 128.893 105.149 128.287 105.123 127.62H107.483C107.523 128.087 107.743 128.48 108.143 128.8C108.556 129.107 109.069 129.26 109.683 129.26C110.323 129.26 110.816 129.14 111.163 128.9C111.523 128.647 111.703 128.327 111.703 127.94C111.703 127.527 111.503 127.22 111.103 127.02C110.716 126.82 110.096 126.6 109.243 126.36C108.416 126.133 107.743 125.913 107.223 125.7C106.703 125.487 106.249 125.16 105.863 124.72C105.489 124.28 105.303 123.7 105.303 122.98C105.303 122.393 105.476 121.86 105.823 121.38C106.169 120.887 106.663 120.5 107.303 120.22C107.956 119.94 108.703 119.8 109.543 119.8C110.796 119.8 111.803 120.12 112.563 120.76C113.336 121.387 113.749 122.247 113.803 123.34H111.523C111.483 122.847 111.283 122.453 110.923 122.16C110.563 121.867 110.076 121.72 109.463 121.72C108.863 121.72 108.403 121.833 108.083 122.06C107.763 122.287 107.603 122.587 107.603 122.96C107.603 123.253 107.709 123.5 107.923 123.7C108.136 123.9 108.396 124.06 108.703 124.18C109.009 124.287 109.463 124.427 110.063 124.6C110.863 124.813 111.516 125.033 112.023 125.26C112.543 125.473 112.989 125.793 113.363 126.22C113.736 126.647 113.929 127.213 113.943 127.92C113.943 128.547 113.769 129.107 113.423 129.6C113.076 130.093 112.583 130.48 111.943 130.76C111.316 131.04 110.576 131.18 109.723 131.18Z" fill="#3A5987"/>
<path d="M73.0721 3.13315e-05C66.4992 -0.00732425 59.9893 1.28052 53.9146 3.78995C47.8399 6.29938 42.3196 9.98118 37.6692 14.6248C33.0189 19.2685 29.3297 24.7829 26.8127 30.8528C24.2956 36.9227 23 43.429 23 49.9998C23 56.5706 24.2955 63.077 26.8125 69.1469C29.3295 75.2168 33.0187 80.7313 37.669 85.3749C42.3193 90.0186 47.8396 93.7004 53.9143 96.2099C59.989 98.7194 66.4988 100.007 73.0717 100H73.0721C86.3219 99.9766 99.021 94.6984 108.382 85.3242C117.743 75.9499 123 63.2455 123 50C123 36.7544 117.743 24.0501 108.382 14.6758C99.021 5.30157 86.3219 0.0234041 73.0721 3.13315e-05V3.13315e-05Z" fill="#FF6584"/>
<path d="M89.8996 31.0021L71.7704 12.8787L53.6411 31.0021L63.4409 40.7987L61.9714 42.2678L52.1716 32.4711L34.0424 50.5945L52.1716 68.7179L61.9714 58.9213L63.4409 60.3903L53.6411 70.187L71.7704 88.3104L89.8996 70.187L80.0998 60.3912L81.5693 58.9221L91.3691 68.7188L109.498 50.5945L91.3691 32.4711L81.5702 42.2678L80.1007 40.7987L89.8996 31.0021ZM55.6016 31.0021L71.7704 14.8385L87.9392 31.0021L79.1196 39.8188L77.6501 38.3498L84.9993 31.0029L71.7704 17.7774L58.5414 31.0021L65.8907 38.3489L64.4212 39.818L55.6016 31.0021ZM84.9993 55.4924L86.4688 54.0234L91.3683 58.9213L99.6986 50.5945L91.3691 42.2678L86.4697 47.1657L85.0002 45.6966L91.37 39.3288L102.638 50.5945L91.3691 61.8602L84.9993 55.4924ZM58.5414 45.6966L57.0719 47.1657L52.1725 42.2678L43.8422 50.5945L52.1716 58.9213L57.0711 54.0234L58.5406 55.4924L52.1708 61.8602L40.9023 50.5945L52.1716 39.3288L58.5414 45.6966ZM70.3009 40.7979L71.7704 39.3288L73.2399 40.7979L71.7704 42.2678L70.3009 40.7979ZM72.7506 38.3489L74.2201 36.8799L75.6896 38.3489L74.2201 39.818L72.7506 38.3489ZM70.3009 35.9L71.7704 34.4309L73.2399 35.9L71.7704 37.3699L70.3009 35.9ZM75.2003 31.0021L71.7704 27.5732L68.3404 31.0021L70.7901 33.451L69.3206 34.9201L65.4005 31.0012L71.7704 24.6343L78.1402 31.0021L74.2201 34.9209L72.7506 33.4519L75.2003 31.0021ZM71.7704 32.4711L70.3009 31.0021L71.7704 29.5322L73.2399 31.0012L71.7704 32.4711ZM75.2003 35.9L80.0998 31.0021L71.7704 22.6753L63.4409 31.0021L68.3404 35.9L66.8709 37.369L60.5011 31.0012L71.7704 19.7364L83.0397 31.0021L76.6699 37.3699L75.2003 35.9ZM69.3206 36.8799L70.7901 38.3489L69.3206 39.818L67.8511 38.3489L69.3206 36.8799ZM68.3404 40.7979L66.8709 42.2669L65.4014 40.7979L66.8709 39.3288L68.3404 40.7979ZM69.3206 41.7778L70.7901 43.2468L69.3206 44.7159L67.8511 43.2468L69.3206 41.7778ZM73.2399 45.6966L71.7704 47.1657L70.3009 45.6966L71.7704 44.2267L73.2399 45.6966ZM87.449 53.0435L88.9186 51.5744L91.3683 54.0234L94.7991 50.5945L91.3691 47.1657L88.9194 49.6146L87.4499 48.1456L91.37 44.2267L97.739 50.5945L91.3691 56.9623L87.449 53.0435ZM89.8996 50.5945L91.3691 49.1255L92.8395 50.5945L91.37 52.0636L89.8996 50.5945ZM87.9392 50.5945L86.4697 52.0636L84.9993 50.5945L86.4688 49.1255L87.9392 50.5945ZM70.3009 55.4924L71.7704 54.0234L73.2399 55.4924L71.7704 56.9623L70.3009 55.4924ZM56.0917 48.1456L54.6222 49.6146L52.1725 47.1657L48.7416 50.5945L52.1716 54.0234L54.6214 51.5744L56.0909 53.0435L52.1708 56.9623L45.8018 50.5945L52.1716 44.2267L56.0917 48.1456ZM53.6411 50.5945L52.1716 52.0636L50.7013 50.5945L52.1708 49.1255L53.6411 50.5945ZM55.6016 50.5945L57.0711 49.1255L58.5414 50.5945L57.0719 52.0636L55.6016 50.5945ZM73.2399 50.5945L71.7704 52.0636L70.3009 50.5945L71.7704 49.1255L73.2399 50.5945ZM69.3206 49.6146L67.8511 48.1456L69.3206 46.6765L70.7901 48.1456L69.3206 49.6146ZM68.3404 50.5945L66.8709 52.0636L65.4005 50.5945L66.8701 49.1255L68.3404 50.5945ZM69.3206 51.5744L70.7901 53.0435L69.3206 54.5125L67.8511 53.0435L69.3206 51.5744ZM72.7506 53.0435L74.2201 51.5744L75.6896 53.0435L74.2201 54.5125L72.7506 53.0435ZM75.2003 50.5945L76.6699 49.1255L78.1402 50.5945L76.6707 52.0636L75.2003 50.5945ZM74.2201 49.6146L72.7506 48.1456L74.2201 46.6765L75.6896 48.1456L74.2201 49.6146ZM68.3404 45.6966L66.8709 47.1657L65.4014 45.6966L66.8709 44.2276L68.3404 45.6966ZM65.8907 48.1456L64.4212 49.6146L62.9517 48.1456L64.4212 46.6765L65.8907 48.1456ZM63.4409 50.5945L61.9714 52.0636L60.5011 50.5945L61.9706 49.1255L63.4409 50.5945ZM61.9706 47.1657L60.5011 45.6966L61.9706 44.2276L63.4401 45.6966L61.9706 47.1657ZM60.9912 48.1456L59.5217 49.6146L58.0522 48.1456L59.5217 46.6765L60.9912 48.1456ZM58.0513 53.0435L59.5208 51.5744L60.9903 53.0435L59.5208 54.5125L58.0513 53.0435ZM61.9706 54.0234L63.4401 55.4924L61.9706 56.9615L60.5011 55.4924L61.9706 54.0234ZM62.9508 53.0435L64.4203 51.5744L65.8898 53.0435L64.4203 54.5125L62.9508 53.0435ZM66.8709 54.0234L68.3404 55.4924L66.8709 56.9615L65.4014 55.4924L66.8709 54.0234ZM69.3206 56.4723L70.7901 57.9414L69.3206 59.4104L67.8511 57.9414L69.3206 56.4723ZM73.2399 60.3912L71.7704 61.8602L70.3009 60.3912L71.7704 58.9213L73.2399 60.3912ZM68.3404 60.3912L66.8709 61.8602L65.4014 60.3912L66.8709 58.9221L68.3404 60.3912ZM69.3206 61.3702L70.7901 62.8393L69.3206 64.3083L67.8511 62.8393L69.3206 61.3702ZM73.2399 65.2891L71.7704 66.7581L70.3009 65.2891L71.7704 63.8192L73.2399 65.2891ZM68.3404 70.187L71.7704 73.6158L75.2003 70.187L72.7506 67.738L74.2201 66.269L78.1402 70.1878L71.7704 76.5547L65.4005 70.187L69.3206 66.2681L70.7901 67.7372L68.3404 70.187ZM71.7704 68.7179L73.2399 70.187L71.7704 71.6568L70.3009 70.1878L71.7704 68.7179ZM68.3404 65.2891L63.4409 70.187L71.7704 78.5137L80.0998 70.187L75.2003 65.2891L76.6699 63.82L83.0397 70.1878L71.7704 81.4526L60.5011 70.187L66.8709 63.8192L68.3404 65.2891ZM74.2201 64.3091L72.7506 62.8401L74.2201 61.3711L75.6896 62.8401L74.2201 64.3091ZM75.2003 60.3912L76.6699 58.9221L78.1394 60.3912L76.6699 61.8602L75.2003 60.3912ZM74.2201 59.4112L72.7506 57.9422L74.2201 56.4732L75.6896 57.9422L74.2201 59.4112ZM75.2003 55.4924L76.6699 54.0234L78.1394 55.4924L76.6699 56.9615L75.2003 55.4924ZM77.6501 53.0435L79.1196 51.5744L80.5891 53.0435L79.1196 54.5125L77.6501 53.0435ZM80.0998 50.5945L81.5693 49.1255L83.0397 50.5945L81.5702 52.0636L80.0998 50.5945ZM81.5702 54.0234L83.0397 55.4924L81.5702 56.9615L80.1007 55.4924L81.5702 54.0234ZM82.5496 53.0435L84.0191 51.5744L85.4886 53.0435L84.0191 54.5125L82.5496 53.0435ZM85.4894 48.1456L84.0199 49.6146L82.5504 48.1456L84.0199 46.6765L85.4894 48.1456ZM81.5702 47.1657L80.1007 45.6966L81.5702 44.2276L83.0397 45.6966L81.5702 47.1657ZM80.5899 48.1456L79.1204 49.6146L77.6509 48.1456L79.1204 46.6765L80.5899 48.1456ZM76.6699 47.1657L75.2003 45.6966L76.6699 44.2276L78.1394 45.6966L76.6699 47.1657ZM74.2201 44.7167L72.7506 43.2477L74.2201 41.7786L75.6896 43.2477L74.2201 44.7167ZM75.2003 40.7979L76.6699 39.3288L78.1394 40.7979L76.6699 42.2669L75.2003 40.7979ZM64.4212 41.7778L65.8907 43.2468L64.4212 44.7159L62.9517 43.2468L64.4212 41.7778ZM52.1716 66.7581L36.0028 50.5945L52.1716 34.4309L60.9912 43.2477L59.5217 44.7167L52.1725 37.3699L38.9427 50.5945L52.1716 63.8192L59.5208 56.4723L60.9903 57.9414L52.1716 66.7581ZM62.9508 57.9414L64.4203 56.4723L65.8898 57.9414L64.4203 59.4104L62.9508 57.9414ZM87.9392 70.187L71.7704 86.3505L55.6016 70.187L64.4212 61.3702L65.8907 62.8393L58.5414 70.1861L71.7704 83.4116L84.9993 70.187L77.6501 62.8401L79.1196 61.3711L87.9392 70.187ZM79.1196 59.4112L77.6501 57.9422L79.1196 56.4732L80.5891 57.9422L79.1196 59.4112ZM91.3691 34.4309L107.538 50.5945L91.3691 66.7581L82.5496 57.9414L84.0191 56.4723L91.3683 63.8192L104.598 50.5945L91.3691 37.3699L84.0199 44.7167L82.5504 43.2477L91.3691 34.4309ZM80.5899 43.2477L79.1204 44.7167L77.6509 43.2477L79.1204 41.7786L80.5899 43.2477Z" fill="white"/>
</svg>
