<svg width="335" height="320" viewBox="0 0 335 320" fill="none" xmlns="http://www.w3.org/2000/svg">
<path d="M212.74 295.02C212.74 293.66 213.053 292.44 213.68 291.36C214.32 290.28 215.18 289.44 216.26 288.84C217.353 288.227 218.547 287.92 219.84 287.92C221.32 287.92 222.633 288.287 223.78 289.02C224.94 289.74 225.78 290.767 226.3 292.1H223.56C223.2 291.367 222.7 290.82 222.06 290.46C221.42 290.1 220.68 289.92 219.84 289.92C218.92 289.92 218.1 290.127 217.38 290.54C216.66 290.953 216.093 291.547 215.68 292.32C215.28 293.093 215.08 293.993 215.08 295.02C215.08 296.047 215.28 296.947 215.68 297.72C216.093 298.493 216.66 299.093 217.38 299.52C218.1 299.933 218.92 300.14 219.84 300.14C220.68 300.14 221.42 299.96 222.06 299.6C222.7 299.24 223.2 298.693 223.56 297.96H226.3C225.78 299.293 224.94 300.32 223.78 301.04C222.633 301.76 221.32 302.12 219.84 302.12C218.533 302.12 217.34 301.82 216.26 301.22C215.18 300.607 214.32 299.76 213.68 298.68C213.053 297.6 212.74 296.38 212.74 295.02ZM233.749 302.18C232.709 302.18 231.769 301.947 230.929 301.48C230.089 301 229.429 300.333 228.949 299.48C228.469 298.613 228.229 297.613 228.229 296.48C228.229 295.36 228.475 294.367 228.969 293.5C229.462 292.633 230.135 291.967 230.989 291.5C231.842 291.033 232.795 290.8 233.849 290.8C234.902 290.8 235.855 291.033 236.709 291.5C237.562 291.967 238.235 292.633 238.729 293.5C239.222 294.367 239.469 295.36 239.469 296.48C239.469 297.6 239.215 298.593 238.709 299.46C238.202 300.327 237.509 301 236.629 301.48C235.762 301.947 234.802 302.18 233.749 302.18ZM233.749 300.2C234.335 300.2 234.882 300.06 235.389 299.78C235.909 299.5 236.329 299.08 236.649 298.52C236.969 297.96 237.129 297.28 237.129 296.48C237.129 295.68 236.975 295.007 236.669 294.46C236.362 293.9 235.955 293.48 235.449 293.2C234.942 292.92 234.395 292.78 233.809 292.78C233.222 292.78 232.675 292.92 232.169 293.2C231.675 293.48 231.282 293.9 230.989 294.46C230.695 295.007 230.549 295.68 230.549 296.48C230.549 297.667 230.849 298.587 231.449 299.24C232.062 299.88 232.829 300.2 233.749 300.2ZM244.003 292.6C244.389 292.093 244.916 291.667 245.583 291.32C246.249 290.973 247.003 290.8 247.843 290.8C248.803 290.8 249.676 291.04 250.463 291.52C251.263 291.987 251.889 292.647 252.343 293.5C252.796 294.353 253.023 295.333 253.023 296.44C253.023 297.547 252.796 298.54 252.343 299.42C251.889 300.287 251.263 300.967 250.463 301.46C249.676 301.94 248.803 302.18 247.843 302.18C247.003 302.18 246.256 302.013 245.603 301.68C244.949 301.333 244.416 300.907 244.003 300.4V307.24H241.723V290.98H244.003V292.6ZM250.703 296.44C250.703 295.68 250.543 295.027 250.223 294.48C249.916 293.92 249.503 293.5 248.983 293.22C248.476 292.927 247.929 292.78 247.343 292.78C246.769 292.78 246.223 292.927 245.703 293.22C245.196 293.513 244.783 293.94 244.463 294.5C244.156 295.06 244.003 295.72 244.003 296.48C244.003 297.24 244.156 297.907 244.463 298.48C244.783 299.04 245.196 299.467 245.703 299.76C246.223 300.053 246.769 300.2 247.343 300.2C247.929 300.2 248.476 300.053 248.983 299.76C249.503 299.453 249.916 299.013 250.223 298.44C250.543 297.867 250.703 297.2 250.703 296.44ZM265.197 290.98L258.437 307.18H256.077L258.317 301.82L253.977 290.98H256.517L259.617 299.38L262.837 290.98H265.197ZM269.198 292.58C269.531 292.02 269.971 291.587 270.518 291.28C271.078 290.96 271.738 290.8 272.498 290.8V293.16H271.918C271.025 293.16 270.345 293.387 269.878 293.84C269.425 294.293 269.198 295.08 269.198 296.2V302H266.918V290.98H269.198V292.58ZM275.754 289.52C275.34 289.52 274.994 289.38 274.714 289.1C274.434 288.82 274.294 288.473 274.294 288.06C274.294 287.647 274.434 287.3 274.714 287.02C274.994 286.74 275.34 286.6 275.754 286.6C276.154 286.6 276.494 286.74 276.774 287.02C277.054 287.3 277.194 287.647 277.194 288.06C277.194 288.473 277.054 288.82 276.774 289.1C276.494 289.38 276.154 289.52 275.754 289.52ZM276.874 290.98V302H274.594V290.98H276.874ZM284.307 290.8C285.161 290.8 285.914 290.973 286.567 291.32C287.234 291.653 287.754 292.073 288.127 292.58V290.98H290.427V302.18C290.427 303.193 290.214 304.093 289.787 304.88C289.361 305.68 288.741 306.307 287.927 306.76C287.127 307.213 286.167 307.44 285.047 307.44C283.554 307.44 282.314 307.087 281.327 306.38C280.341 305.687 279.781 304.74 279.647 303.54H281.907C282.081 304.113 282.447 304.573 283.007 304.92C283.581 305.28 284.261 305.46 285.047 305.46C285.967 305.46 286.707 305.18 287.267 304.62C287.841 304.06 288.127 303.247 288.127 302.18V300.34C287.741 300.86 287.214 301.3 286.547 301.66C285.894 302.007 285.147 302.18 284.307 302.18C283.347 302.18 282.467 301.94 281.667 301.46C280.881 300.967 280.254 300.287 279.787 299.42C279.334 298.54 279.107 297.547 279.107 296.44C279.107 295.333 279.334 294.353 279.787 293.5C280.254 292.647 280.881 291.987 281.667 291.52C282.467 291.04 283.347 290.8 284.307 290.8ZM288.127 296.48C288.127 295.72 287.967 295.06 287.647 294.5C287.341 293.94 286.934 293.513 286.427 293.22C285.921 292.927 285.374 292.78 284.787 292.78C284.201 292.78 283.654 292.927 283.147 293.22C282.641 293.5 282.227 293.92 281.907 294.48C281.601 295.027 281.447 295.68 281.447 296.44C281.447 297.2 281.601 297.867 281.907 298.44C282.227 299.013 282.641 299.453 283.147 299.76C283.667 300.053 284.214 300.2 284.787 300.2C285.374 300.2 285.921 300.053 286.427 299.76C286.934 299.467 287.341 299.04 287.647 298.48C287.967 297.907 288.127 297.24 288.127 296.48ZM299.122 290.8C299.962 290.8 300.709 290.98 301.362 291.34C302.029 291.7 302.549 292.233 302.922 292.94C303.309 293.647 303.502 294.5 303.502 295.5V302H301.242V295.84C301.242 294.853 300.995 294.1 300.502 293.58C300.009 293.047 299.335 292.78 298.482 292.78C297.629 292.78 296.949 293.047 296.442 293.58C295.949 294.1 295.702 294.853 295.702 295.84V302H293.422V287.2H295.702V292.26C296.089 291.793 296.575 291.433 297.162 291.18C297.762 290.927 298.415 290.8 299.122 290.8ZM309.07 292.84V298.94C309.07 299.353 309.163 299.653 309.35 299.84C309.55 300.013 309.883 300.1 310.35 300.1H311.75V302H309.95C308.923 302 308.137 301.76 307.59 301.28C307.043 300.8 306.77 300.02 306.77 298.94V292.84H305.47V290.98H306.77V288.24H309.07V290.98H311.75V292.84H309.07Z" fill="#3A5987"/>
<path d="M261.072 176C254.499 175.993 247.989 177.281 241.915 179.79C235.84 182.299 230.32 185.981 225.669 190.625C221.019 195.268 217.33 200.783 214.813 206.853C212.296 212.923 211 219.429 211 226C211 232.571 212.296 239.077 214.813 245.147C217.33 251.217 221.019 256.731 225.669 261.375C230.319 266.019 235.84 269.7 241.914 272.21C247.989 274.719 254.499 276.007 261.072 276H261.072C274.322 275.977 287.021 270.698 296.382 261.324C305.743 251.95 311 239.246 311 226C311 212.754 305.743 200.05 296.382 190.676C287.021 181.302 274.322 176.023 261.072 176Z" fill="#FF6584"/>
<path d="M279.046 204.999C278.997 215.609 278.948 221.985 278.948 232.547C278.948 232.936 278.997 233.374 279.143 233.764C280.312 237.317 281.529 240.87 282.697 244.374C282.795 244.666 282.892 244.958 283.087 245.153C283.379 245.542 283.72 245.542 283.963 245.153C284.109 244.91 284.255 244.569 284.353 244.277C285.375 241.308 286.398 238.339 287.42 235.37C287.761 234.299 288.199 233.277 288.199 232.06C288.199 221.742 288.248 215.658 288.296 205.291C288.296 205.145 288.296 204.999 288.296 204.95C285.229 204.95 282.162 204.901 279.095 204.901C279.046 204.901 279.046 204.95 279.046 204.999ZM286.349 232.839C286.3 233.034 286.203 233.228 286.154 233.472C285.667 234.932 285.132 236.392 284.645 237.852C284.548 238.193 284.401 238.29 284.109 238.29C283.671 238.242 283.282 238.29 282.843 238.242C282.746 238.242 282.551 238.096 282.503 237.998C281.918 236.295 281.383 234.64 280.799 232.936C280.799 232.888 280.799 232.839 280.799 232.79C282.6 232.79 284.45 232.839 286.349 232.839Z" fill="white"/>
<path d="M288.249 202.37C285.133 202.37 282.114 202.322 279.047 202.322C279.047 202.273 278.998 202.176 278.998 202.078C278.998 200.91 278.998 199.742 278.998 198.574C278.998 197.163 279.777 196.238 280.945 196.238C282.747 196.238 284.5 196.238 286.301 196.238C287.47 196.238 288.249 197.163 288.249 198.574C288.297 199.888 288.297 201.154 288.249 202.37Z" fill="white"/>
<path d="M274.128 208.552H233.085V213.516H274.128V208.552Z" fill="white"/>
<path d="M245.354 222.715H233.085V227.68H245.354V222.715Z" fill="white"/>
<path d="M274.128 222.715H250.077V227.68H274.128V222.715Z" fill="white"/>
<path d="M274.128 236.879H233.085V241.843H274.128V236.879Z" fill="white"/>
<path d="M288.297 250.994H251.976V255.958H288.297V250.994Z" fill="white"/>
<path d="M245.111 250.994H233.085V255.958H245.111V250.994Z" fill="white"/>
<path d="M10.48 288.1V289.96H6.78V302H4.5V289.96H0.78V288.1H10.48ZM15.0691 292.58C15.4024 292.02 15.8424 291.587 16.3891 291.28C16.9491 290.96 17.6091 290.8 18.3691 290.8V293.16H17.7891C16.8957 293.16 16.2157 293.387 15.7491 293.84C15.2957 294.293 15.0691 295.08 15.0691 296.2V302H12.7891V290.98H15.0691V292.58ZM19.7048 296.44C19.7048 295.333 19.9315 294.353 20.3848 293.5C20.8515 292.647 21.4782 291.987 22.2648 291.52C23.0648 291.04 23.9448 290.8 24.9048 290.8C25.7715 290.8 26.5248 290.973 27.1648 291.32C27.8182 291.653 28.3382 292.073 28.7248 292.58V290.98H31.0248V302H28.7248V300.36C28.3382 300.88 27.8115 301.313 27.1448 301.66C26.4782 302.007 25.7182 302.18 24.8648 302.18C23.9182 302.18 23.0515 301.94 22.2648 301.46C21.4782 300.967 20.8515 300.287 20.3848 299.42C19.9315 298.54 19.7048 297.547 19.7048 296.44ZM28.7248 296.48C28.7248 295.72 28.5648 295.06 28.2448 294.5C27.9382 293.94 27.5315 293.513 27.0248 293.22C26.5182 292.927 25.9715 292.78 25.3848 292.78C24.7982 292.78 24.2515 292.927 23.7448 293.22C23.2382 293.5 22.8248 293.92 22.5048 294.48C22.1982 295.027 22.0448 295.68 22.0448 296.44C22.0448 297.2 22.1982 297.867 22.5048 298.44C22.8248 299.013 23.2382 299.453 23.7448 299.76C24.2648 300.053 24.8115 300.2 25.3848 300.2C25.9715 300.2 26.5182 300.053 27.0248 299.76C27.5315 299.467 27.9382 299.04 28.2448 298.48C28.5648 297.907 28.7248 297.24 28.7248 296.48ZM33.2595 296.44C33.2595 295.333 33.4862 294.353 33.9395 293.5C34.4062 292.647 35.0329 291.987 35.8195 291.52C36.6195 291.04 37.5062 290.8 38.4795 290.8C39.1995 290.8 39.9062 290.96 40.5995 291.28C41.3062 291.587 41.8662 292 42.2795 292.52V287.2H44.5795V302H42.2795V300.34C41.9062 300.873 41.3862 301.313 40.7195 301.66C40.0662 302.007 39.3129 302.18 38.4595 302.18C37.4995 302.18 36.6195 301.94 35.8195 301.46C35.0329 300.967 34.4062 300.287 33.9395 299.42C33.4862 298.54 33.2595 297.547 33.2595 296.44ZM42.2795 296.48C42.2795 295.72 42.1195 295.06 41.7995 294.5C41.4929 293.94 41.0862 293.513 40.5795 293.22C40.0729 292.927 39.5262 292.78 38.9395 292.78C38.3529 292.78 37.8062 292.927 37.2995 293.22C36.7929 293.5 36.3795 293.92 36.0595 294.48C35.7529 295.027 35.5995 295.68 35.5995 296.44C35.5995 297.2 35.7529 297.867 36.0595 298.44C36.3795 299.013 36.7929 299.453 37.2995 299.76C37.8195 300.053 38.3662 300.2 38.9395 300.2C39.5262 300.2 40.0729 300.053 40.5795 299.76C41.0862 299.467 41.4929 299.04 41.7995 298.48C42.1195 297.907 42.2795 297.24 42.2795 296.48ZM57.6742 296.22C57.6742 296.633 57.6476 297.007 57.5942 297.34H49.1742C49.2409 298.22 49.5676 298.927 50.1542 299.46C50.7409 299.993 51.4609 300.26 52.3142 300.26C53.5409 300.26 54.4076 299.747 54.9142 298.72H57.3742C57.0409 299.733 56.4342 300.567 55.5542 301.22C54.6876 301.86 53.6076 302.18 52.3142 302.18C51.2609 302.18 50.3142 301.947 49.4742 301.48C48.6476 301 47.9942 300.333 47.5142 299.48C47.0476 298.613 46.8142 297.613 46.8142 296.48C46.8142 295.347 47.0409 294.353 47.4942 293.5C47.9609 292.633 48.6076 291.967 49.4342 291.5C50.2742 291.033 51.2342 290.8 52.3142 290.8C53.3542 290.8 54.2809 291.027 55.0942 291.48C55.9076 291.933 56.5409 292.573 56.9942 293.4C57.4476 294.213 57.6742 295.153 57.6742 296.22ZM55.2942 295.5C55.2809 294.66 54.9809 293.987 54.3942 293.48C53.8076 292.973 53.0809 292.72 52.2142 292.72C51.4276 292.72 50.7542 292.973 50.1942 293.48C49.6342 293.973 49.3009 294.647 49.1942 295.5H55.2942ZM78.4533 290.8C79.3199 290.8 80.0933 290.98 80.7733 291.34C81.4666 291.7 82.0066 292.233 82.3933 292.94C82.7933 293.647 82.9933 294.5 82.9933 295.5V302H80.7333V295.84C80.7333 294.853 80.4866 294.1 79.9933 293.58C79.4999 293.047 78.8266 292.78 77.9733 292.78C77.1199 292.78 76.4399 293.047 75.9333 293.58C75.4399 294.1 75.1933 294.853 75.1933 295.84V302H72.9333V295.84C72.9333 294.853 72.6866 294.1 72.1933 293.58C71.6999 293.047 71.0266 292.78 70.1733 292.78C69.3199 292.78 68.6399 293.047 68.1333 293.58C67.6399 294.1 67.3933 294.853 67.3933 295.84V302H65.1133V290.98H67.3933V292.24C67.7666 291.787 68.2399 291.433 68.8133 291.18C69.3866 290.927 69.9999 290.8 70.6533 290.8C71.5333 290.8 72.3199 290.987 73.0133 291.36C73.7066 291.733 74.2399 292.273 74.6133 292.98C74.9466 292.313 75.4666 291.787 76.1733 291.4C76.8799 291 77.6399 290.8 78.4533 290.8ZM85.1345 296.44C85.1345 295.333 85.3612 294.353 85.8145 293.5C86.2812 292.647 86.9079 291.987 87.6945 291.52C88.4945 291.04 89.3745 290.8 90.3345 290.8C91.2012 290.8 91.9545 290.973 92.5945 291.32C93.2479 291.653 93.7679 292.073 94.1545 292.58V290.98H96.4545V302H94.1545V300.36C93.7679 300.88 93.2412 301.313 92.5745 301.66C91.9079 302.007 91.1479 302.18 90.2945 302.18C89.3479 302.18 88.4812 301.94 87.6945 301.46C86.9079 300.967 86.2812 300.287 85.8145 299.42C85.3612 298.54 85.1345 297.547 85.1345 296.44ZM94.1545 296.48C94.1545 295.72 93.9945 295.06 93.6745 294.5C93.3679 293.94 92.9612 293.513 92.4545 293.22C91.9479 292.927 91.4012 292.78 90.8145 292.78C90.2279 292.78 89.6812 292.927 89.1745 293.22C88.6679 293.5 88.2545 293.92 87.9345 294.48C87.6279 295.027 87.4745 295.68 87.4745 296.44C87.4745 297.2 87.6279 297.867 87.9345 298.44C88.2545 299.013 88.6679 299.453 89.1745 299.76C89.6945 300.053 90.2412 300.2 90.8145 300.2C91.4012 300.2 91.9479 300.053 92.4545 299.76C92.9612 299.467 93.3679 299.04 93.6745 298.48C93.9945 297.907 94.1545 297.24 94.1545 296.48ZM101.729 292.58C102.063 292.02 102.503 291.587 103.049 291.28C103.609 290.96 104.269 290.8 105.029 290.8V293.16H104.449C103.556 293.16 102.876 293.387 102.409 293.84C101.956 294.293 101.729 295.08 101.729 296.2V302H99.4492V290.98H101.729V292.58ZM111.485 296.5L116.565 302H113.485L109.405 297.26V302H107.125V287.2H109.405V295.8L113.405 290.98H116.565L111.485 296.5ZM122.199 302.18C121.333 302.18 120.553 302.027 119.859 301.72C119.179 301.4 118.639 300.973 118.239 300.44C117.839 299.893 117.626 299.287 117.599 298.62H119.959C119.999 299.087 120.219 299.48 120.619 299.8C121.033 300.107 121.546 300.26 122.159 300.26C122.799 300.26 123.293 300.14 123.639 299.9C123.999 299.647 124.179 299.327 124.179 298.94C124.179 298.527 123.979 298.22 123.579 298.02C123.193 297.82 122.573 297.6 121.719 297.36C120.893 297.133 120.219 296.913 119.699 296.7C119.179 296.487 118.726 296.16 118.339 295.72C117.966 295.28 117.779 294.7 117.779 293.98C117.779 293.393 117.953 292.86 118.299 292.38C118.646 291.887 119.139 291.5 119.779 291.22C120.433 290.94 121.179 290.8 122.019 290.8C123.273 290.8 124.279 291.12 125.039 291.76C125.813 292.387 126.226 293.247 126.279 294.34H123.999C123.959 293.847 123.759 293.453 123.399 293.16C123.039 292.867 122.553 292.72 121.939 292.72C121.339 292.72 120.879 292.833 120.559 293.06C120.239 293.287 120.079 293.587 120.079 293.96C120.079 294.253 120.186 294.5 120.399 294.7C120.613 294.9 120.873 295.06 121.179 295.18C121.486 295.287 121.939 295.427 122.539 295.6C123.339 295.813 123.993 296.033 124.499 296.26C125.019 296.473 125.466 296.793 125.839 297.22C126.213 297.647 126.406 298.213 126.419 298.92C126.419 299.547 126.246 300.107 125.899 300.6C125.553 301.093 125.059 301.48 124.419 301.76C123.793 302.04 123.053 302.18 122.199 302.18Z" fill="#3A5987"/>
<path d="M61.0721 176C54.4992 175.993 47.9893 177.281 41.9146 179.79C35.8399 182.299 30.3196 185.981 25.6692 190.625C21.0189 195.268 17.3297 200.783 14.8127 206.853C12.2956 212.923 11 219.429 11 226C11 232.571 12.2955 239.077 14.8125 245.147C17.3295 251.217 21.0187 256.731 25.669 261.375C30.3193 266.019 35.8396 269.7 41.9143 272.21C47.989 274.719 54.4988 276.007 61.0717 276H61.0721C74.3219 275.977 87.021 270.698 96.3818 261.324C105.743 251.95 111 239.246 111 226C111 212.754 105.743 200.05 96.3818 190.676C87.021 181.302 74.3219 176.023 61.0721 176Z" fill="#FF6584"/>
<path d="M44.5141 235.19C44.5141 235.545 44.5141 235.9 44.5141 236.256C44.5141 236.54 44.373 236.753 44.0201 236.753C43.6673 236.753 43.2438 236.753 42.8909 236.753C42.5381 236.753 42.3969 236.54 42.3969 236.256C42.3969 235.971 42.3969 235.758 42.3969 235.474C42.3969 234.906 42.3969 234.906 41.8323 234.763C41.1266 234.621 40.4208 234.479 39.7857 234.195C39.2916 233.982 39.2211 233.84 39.3622 233.271C39.5034 232.845 39.5739 232.489 39.7151 232.063C39.8562 231.637 39.9974 231.566 40.4208 231.779C41.1266 232.134 41.9029 232.347 42.6792 232.489C43.1732 232.56 43.6673 232.489 44.1613 232.276C45.0082 231.921 45.1493 230.855 44.4436 230.215C44.1613 230.002 43.879 229.86 43.5967 229.718C42.8204 229.363 42.044 229.149 41.2677 228.652C40.068 227.941 39.3622 226.947 39.4328 225.525C39.5034 223.891 40.4208 222.896 41.9735 222.328C42.6086 222.114 42.6086 222.114 42.6086 221.475C42.6086 221.262 42.6086 221.048 42.6086 220.835C42.6086 220.338 42.6792 220.267 43.1732 220.267C43.3144 220.267 43.4555 220.267 43.5967 220.267C44.6553 220.267 44.6553 220.267 44.6553 221.333C44.6553 222.043 44.6553 222.043 45.361 222.185C45.9256 222.256 46.4197 222.47 46.9843 222.683C47.2666 222.825 47.4077 223.038 47.2666 223.322C47.1254 223.749 46.9843 224.246 46.8431 224.673C46.702 225.099 46.5608 225.17 46.2079 224.957C45.4316 224.602 44.5847 224.388 43.6673 224.459C43.4555 224.459 43.1732 224.53 42.9615 224.602C42.1852 224.957 42.044 225.81 42.7498 226.307C43.1027 226.591 43.4555 226.733 43.879 226.947C44.5847 227.231 45.2199 227.515 45.8551 227.87C47.9017 229.007 48.4663 231.637 46.9843 233.342C46.4902 233.982 45.7845 234.408 45.0082 234.621C44.6553 234.692 44.5141 234.834 44.5141 235.19ZM52.0656 223.038H73.9437C74.226 223.038 74.4377 222.825 74.4377 222.541V220.835C74.4377 220.551 74.226 220.338 73.9437 220.338H52.0656C51.7833 220.338 51.5716 220.551 51.5716 220.835V222.541C51.5716 222.825 51.7833 223.038 52.0656 223.038ZM51.5716 227.089C51.5716 227.373 51.7833 227.586 52.0656 227.586H64.6278C64.9101 227.586 65.1219 227.373 65.1219 227.089V225.383C65.1219 225.099 64.9101 224.886 64.6278 224.886H52.0656C51.7833 224.886 51.5716 225.099 51.5716 225.383V227.089ZM35.4806 244.073H79.8719C82.2009 244.073 84.1064 242.154 84.1064 239.809V227.16C82.836 228.581 81.4951 230.073 80.0836 231.423V239.738C80.0836 239.88 79.9425 240.022 79.8013 240.022H35.4806C35.3395 240.022 35.1983 239.88 35.1983 239.738V216.714H76.1315C77.6135 214.369 79.2368 211.952 81.0011 209.394C81.0011 209.323 81.0717 209.323 81.0717 209.252L81.4951 208.684C81.6363 208.541 81.7069 208.399 81.7774 208.257L81.848 208.115C81.2128 207.76 80.5777 207.618 79.8013 207.618H35.4806C33.1517 207.618 31.2462 209.536 31.2462 211.881V239.667C31.1756 242.154 33.0811 244.073 35.4806 244.073ZM76.7667 222.328C75.3552 224.815 73.9437 227.302 72.8851 230.002C72.8145 230.144 72.7439 230.358 72.7439 230.5C72.6733 230.5 72.5322 230.571 72.4616 230.571C72.3205 230.642 72.1087 230.713 71.9676 230.784C71.897 230.855 71.7559 230.855 71.6853 230.926L71.4736 230.997C70.9795 231.21 70.5561 231.352 70.0621 231.423C69.9915 231.423 69.9915 231.423 69.9209 231.423C69.8504 231.423 69.7798 231.423 69.7798 231.352C69.6386 231.139 69.4269 230.926 69.1446 230.784C68.6506 230.5 68.086 230.429 67.4508 230.713C66.7451 230.997 65.9688 231.352 65.1219 231.921C64.769 232.134 64.4867 232.347 64.1338 232.56C63.9221 232.703 63.781 232.774 63.5692 232.916C63.5692 232.845 63.5692 232.845 63.5692 232.774C63.6398 232.418 63.7104 232.134 63.7104 231.779C63.7104 231.423 63.6398 231.139 63.3575 230.855C63.1458 230.642 62.7929 230.5 62.44 230.5C62.2989 230.5 61.946 230.5 61.6637 230.713L61.5226 230.784C61.2403 230.997 60.8874 231.139 60.5345 231.423C59.9699 231.85 59.4053 232.347 58.9113 232.845C58.4879 233.2 58.135 233.484 57.7116 233.84C57.8527 233.484 57.9233 233.2 58.0644 232.845C58.2056 232.418 58.4173 231.992 58.5585 231.495C58.6996 231.21 58.7702 230.855 58.7702 230.5C58.8407 230.144 58.6996 229.789 58.4879 229.505C58.2056 229.149 57.7116 229.007 57.2175 229.149C56.9352 229.221 56.5824 229.434 56.3706 229.647L56.3001 229.718C55.8766 230.144 55.4532 230.571 55.0297 231.068C53.83 232.56 52.6302 234.266 51.3599 236.398C51.0776 236.824 50.7953 237.322 50.6541 237.89C50.6541 237.961 50.6541 238.032 50.6541 238.103C50.5835 238.53 50.9364 238.956 51.3599 239.098C51.4304 239.098 51.501 239.098 51.5716 239.098C51.9245 239.098 52.2773 238.885 52.3479 238.53V238.459L52.4185 238.245C52.4891 238.103 52.5596 237.961 52.6302 237.819C52.7714 237.606 52.8419 237.393 53.0537 237.18L53.4771 236.611C54.0417 235.9 54.6063 235.119 55.1709 234.408C55.1003 234.55 55.1003 234.692 55.0297 234.834C54.9592 235.119 54.818 235.545 54.9592 235.971C55.1709 236.753 55.8766 237.18 56.5824 237.037C56.7941 236.966 57.0764 236.895 57.2881 236.753C57.7821 236.469 58.2056 236.114 58.6996 235.758C59.4759 235.119 60.2522 234.55 61.0991 233.911C61.0991 233.982 61.0991 234.053 61.0991 234.124C61.0991 234.55 61.1697 234.906 61.452 235.119C61.8049 235.474 62.2989 235.616 62.8635 235.474C63.2164 235.403 63.5692 235.19 63.9221 235.048C64.3456 234.834 64.6984 234.621 65.1219 234.408C65.6159 234.124 66.1099 233.84 66.6745 233.555C67.098 233.342 67.5214 233.129 68.0154 232.916L68.2977 232.774C68.8623 233.342 69.5681 233.555 70.415 233.413C71.4736 233.2 72.391 232.916 73.3085 232.56C73.3085 232.56 73.3791 232.56 73.3791 232.489C73.5908 232.418 73.8025 232.276 74.0142 232.134C75.0729 231.495 75.9903 230.642 76.9078 229.789C81.2834 225.525 85.0944 220.835 88.7643 216.003C89.1172 215.577 89.3995 215.15 89.7523 214.724C89.8229 214.653 89.8229 214.582 89.8935 214.511L91.4461 212.379C91.5167 212.308 91.5873 212.237 91.6578 212.166C92.9282 210.389 94.1985 208.613 95.4689 206.765L95.5394 206.694L96.9509 207.689L90.2464 216.927C89.8935 217.353 90.0346 217.993 90.4581 218.348C90.6698 218.49 90.9521 218.561 91.2344 218.561C91.5167 218.49 91.7284 218.348 91.8696 218.135L99.1387 208.044C99.4916 207.618 99.3504 206.978 98.927 206.623L96.5981 204.917L97.2332 203.922C97.5155 203.425 97.7978 202.857 98.0095 202.288C98.0801 202.075 98.1507 201.933 98.2213 201.72C98.5741 200.44 98.2213 199.517 96.9509 198.664C95.8923 197.882 95.0454 197.882 93.9162 198.664C93.2105 199.161 92.5753 199.801 92.0107 200.511C89.8935 202.928 88.0585 205.628 86.153 208.186C86.0825 208.257 86.0825 208.257 86.0825 208.328L84.5298 210.389C84.4593 210.46 84.3887 210.602 84.3181 210.673C84.177 210.815 84.1064 210.958 83.9652 211.171L83.8947 211.313C81.354 214.866 78.9545 218.561 76.7667 222.328Z" fill="white"/>
<path d="M235.22 121.24C235.22 121.947 235.053 122.613 234.72 123.24C234.387 123.867 233.853 124.38 233.12 124.78C232.387 125.167 231.447 125.36 230.3 125.36H227.78V131H225.5V117.1H230.3C231.367 117.1 232.267 117.287 233 117.66C233.747 118.02 234.3 118.513 234.66 119.14C235.033 119.767 235.22 120.467 235.22 121.24ZM230.3 123.5C231.167 123.5 231.813 123.307 232.24 122.92C232.667 122.52 232.88 121.96 232.88 121.24C232.88 119.72 232.02 118.96 230.3 118.96H227.78V123.5H230.3ZM236.635 125.44C236.635 124.333 236.861 123.353 237.315 122.5C237.781 121.647 238.408 120.987 239.195 120.52C239.995 120.04 240.875 119.8 241.835 119.8C242.701 119.8 243.455 119.973 244.095 120.32C244.748 120.653 245.268 121.073 245.655 121.58V119.98H247.955V131H245.655V129.36C245.268 129.88 244.741 130.313 244.075 130.66C243.408 131.007 242.648 131.18 241.795 131.18C240.848 131.18 239.981 130.94 239.195 130.46C238.408 129.967 237.781 129.287 237.315 128.42C236.861 127.54 236.635 126.547 236.635 125.44ZM245.655 125.48C245.655 124.72 245.495 124.06 245.175 123.5C244.868 122.94 244.461 122.513 243.955 122.22C243.448 121.927 242.901 121.78 242.315 121.78C241.728 121.78 241.181 121.927 240.675 122.22C240.168 122.5 239.755 122.92 239.435 123.48C239.128 124.027 238.975 124.68 238.975 125.44C238.975 126.2 239.128 126.867 239.435 127.44C239.755 128.013 240.168 128.453 240.675 128.76C241.195 129.053 241.741 129.2 242.315 129.2C242.901 129.2 243.448 129.053 243.955 128.76C244.461 128.467 244.868 128.04 245.175 127.48C245.495 126.907 245.655 126.24 245.655 125.48ZM253.609 121.84V127.94C253.609 128.353 253.703 128.653 253.889 128.84C254.089 129.013 254.423 129.1 254.889 129.1H256.289V131H254.489C253.463 131 252.676 130.76 252.129 130.28C251.583 129.8 251.309 129.02 251.309 127.94V121.84H250.009V119.98H251.309V117.24H253.609V119.98H256.289V121.84H253.609ZM268.491 125.22C268.491 125.633 268.464 126.007 268.411 126.34H259.991C260.057 127.22 260.384 127.927 260.971 128.46C261.557 128.993 262.277 129.26 263.131 129.26C264.357 129.26 265.224 128.747 265.731 127.72H268.191C267.857 128.733 267.251 129.567 266.371 130.22C265.504 130.86 264.424 131.18 263.131 131.18C262.077 131.18 261.131 130.947 260.291 130.48C259.464 130 258.811 129.333 258.331 128.48C257.864 127.613 257.631 126.613 257.631 125.48C257.631 124.347 257.857 123.353 258.311 122.5C258.777 121.633 259.424 120.967 260.251 120.5C261.091 120.033 262.051 119.8 263.131 119.8C264.171 119.8 265.097 120.027 265.911 120.48C266.724 120.933 267.357 121.573 267.811 122.4C268.264 123.213 268.491 124.153 268.491 125.22ZM266.111 124.5C266.097 123.66 265.797 122.987 265.211 122.48C264.624 121.973 263.897 121.72 263.031 121.72C262.244 121.72 261.571 121.973 261.011 122.48C260.451 122.973 260.117 123.647 260.011 124.5H266.111ZM276.294 119.8C277.161 119.8 277.934 119.98 278.614 120.34C279.308 120.7 279.848 121.233 280.234 121.94C280.621 122.647 280.814 123.5 280.814 124.5V131H278.554V124.84C278.554 123.853 278.308 123.1 277.814 122.58C277.321 122.047 276.648 121.78 275.794 121.78C274.941 121.78 274.261 122.047 273.754 122.58C273.261 123.1 273.014 123.853 273.014 124.84V131H270.734V119.98H273.014V121.24C273.388 120.787 273.861 120.433 274.434 120.18C275.021 119.927 275.641 119.8 276.294 119.8ZM286.383 121.84V127.94C286.383 128.353 286.476 128.653 286.663 128.84C286.863 129.013 287.196 129.1 287.663 129.1H289.063V131H287.263C286.236 131 285.449 130.76 284.903 130.28C284.356 129.8 284.083 129.02 284.083 127.94V121.84H282.783V119.98H284.083V117.24H286.383V119.98H289.063V121.84H286.383ZM295.164 131.18C294.297 131.18 293.517 131.027 292.824 130.72C292.144 130.4 291.604 129.973 291.204 129.44C290.804 128.893 290.591 128.287 290.564 127.62H292.924C292.964 128.087 293.184 128.48 293.584 128.8C293.997 129.107 294.511 129.26 295.124 129.26C295.764 129.26 296.257 129.14 296.604 128.9C296.964 128.647 297.144 128.327 297.144 127.94C297.144 127.527 296.944 127.22 296.544 127.02C296.157 126.82 295.537 126.6 294.684 126.36C293.857 126.133 293.184 125.913 292.664 125.7C292.144 125.487 291.691 125.16 291.304 124.72C290.931 124.28 290.744 123.7 290.744 122.98C290.744 122.393 290.917 121.86 291.264 121.38C291.611 120.887 292.104 120.5 292.744 120.22C293.397 119.94 294.144 119.8 294.984 119.8C296.237 119.8 297.244 120.12 298.004 120.76C298.777 121.387 299.191 122.247 299.244 123.34H296.964C296.924 122.847 296.724 122.453 296.364 122.16C296.004 121.867 295.517 121.72 294.904 121.72C294.304 121.72 293.844 121.833 293.524 122.06C293.204 122.287 293.044 122.587 293.044 122.96C293.044 123.253 293.151 123.5 293.364 123.7C293.577 123.9 293.837 124.06 294.144 124.18C294.451 124.287 294.904 124.427 295.504 124.6C296.304 124.813 296.957 125.033 297.464 125.26C297.984 125.473 298.431 125.793 298.804 126.22C299.177 126.647 299.371 127.213 299.384 127.92C299.384 128.547 299.211 129.107 298.864 129.6C298.517 130.093 298.024 130.48 297.384 130.76C296.757 131.04 296.017 131.18 295.164 131.18Z" fill="#3A5987"/>
<path d="M261.072 3.13315e-05C254.499 -0.00732425 247.989 1.28052 241.915 3.78995C235.84 6.29938 230.32 9.98118 225.669 14.6248C221.019 19.2685 217.33 24.7829 214.813 30.8528C212.296 36.9227 211 43.429 211 49.9998C211 56.5706 212.296 63.077 214.813 69.1469C217.33 75.2168 221.019 80.7313 225.669 85.3749C230.319 90.0186 235.84 93.7004 241.914 96.2099C247.989 98.7194 254.499 100.007 261.072 100H261.072C274.322 99.9766 287.021 94.6984 296.382 85.3242C305.743 75.9499 311 63.2455 311 50C311 36.7544 305.743 24.0501 296.382 14.6758C287.021 5.30157 274.322 0.0234041 261.072 3.13315e-05Z" fill="#FF6584"/>
<path d="M282.771 20.2378L238.606 20.2445V80.9511H282.775L282.771 20.2378ZM246.721 29.3505H274.66V33.5999H246.721V29.3505ZM246.721 36.4835H265.219V40.733H246.721V36.4835ZM262.778 73.2268L258.962 71.1215L262.218 64.992C263.337 65.9299 264.68 66.591 266.15 66.8805L262.778 73.2268ZM260.692 57.879C260.692 53.8262 263.891 50.5292 267.822 50.5292C271.753 50.5292 274.951 53.8268 274.951 57.879C274.951 61.9311 271.753 65.2275 267.822 65.2275C263.891 65.2281 260.692 61.9311 260.692 57.879ZM272.865 73.2268L269.494 66.8811C270.964 66.5916 272.306 65.9311 273.425 64.9932L276.682 71.1221L272.865 73.2268Z" fill="white"/>
<path d="M31.04 117.1C32.52 117.1 33.8133 117.387 34.92 117.96C36.04 118.52 36.9 119.333 37.5 120.4C38.1133 121.453 38.42 122.687 38.42 124.1C38.42 125.513 38.1133 126.74 37.5 127.78C36.9 128.82 36.04 129.62 34.92 130.18C33.8133 130.727 32.52 131 31.04 131H26.5V117.1H31.04ZM31.04 129.14C32.6667 129.14 33.9133 128.7 34.78 127.82C35.6467 126.94 36.08 125.7 36.08 124.1C36.08 122.487 35.6467 121.227 34.78 120.32C33.9133 119.413 32.6667 118.96 31.04 118.96H28.78V129.14H31.04ZM50.7797 125.22C50.7797 125.633 50.753 126.007 50.6997 126.34H42.2797C42.3464 127.22 42.673 127.927 43.2597 128.46C43.8464 128.993 44.5664 129.26 45.4197 129.26C46.6464 129.26 47.513 128.747 48.0197 127.72H50.4797C50.1464 128.733 49.5397 129.567 48.6597 130.22C47.793 130.86 46.713 131.18 45.4197 131.18C44.3664 131.18 43.4197 130.947 42.5797 130.48C41.753 130 41.0997 129.333 40.6197 128.48C40.153 127.613 39.9197 126.613 39.9197 125.48C39.9197 124.347 40.1464 123.353 40.5997 122.5C41.0664 121.633 41.713 120.967 42.5397 120.5C43.3797 120.033 44.3397 119.8 45.4197 119.8C46.4597 119.8 47.3864 120.027 48.1997 120.48C49.013 120.933 49.6464 121.573 50.0997 122.4C50.553 123.213 50.7797 124.153 50.7797 125.22ZM48.3997 124.5C48.3864 123.66 48.0864 122.987 47.4997 122.48C46.913 121.973 46.1864 121.72 45.3197 121.72C44.533 121.72 43.8597 121.973 43.2997 122.48C42.7397 122.973 42.4064 123.647 42.2997 124.5H48.3997ZM57.0234 131.18C56.1568 131.18 55.3768 131.027 54.6834 130.72C54.0034 130.4 53.4634 129.973 53.0634 129.44C52.6634 128.893 52.4501 128.287 52.4234 127.62H54.7834C54.8234 128.087 55.0434 128.48 55.4434 128.8C55.8568 129.107 56.3701 129.26 56.9834 129.26C57.6234 129.26 58.1168 129.14 58.4634 128.9C58.8234 128.647 59.0034 128.327 59.0034 127.94C59.0034 127.527 58.8034 127.22 58.4034 127.02C58.0168 126.82 57.3968 126.6 56.5434 126.36C55.7168 126.133 55.0434 125.913 54.5234 125.7C54.0034 125.487 53.5501 125.16 53.1634 124.72C52.7901 124.28 52.6034 123.7 52.6034 122.98C52.6034 122.393 52.7768 121.86 53.1234 121.38C53.4701 120.887 53.9634 120.5 54.6034 120.22C55.2568 119.94 56.0034 119.8 56.8434 119.8C58.0968 119.8 59.1034 120.12 59.8634 120.76C60.6368 121.387 61.0501 122.247 61.1034 123.34H58.8234C58.7834 122.847 58.5834 122.453 58.2234 122.16C57.8634 121.867 57.3768 121.72 56.7634 121.72C56.1634 121.72 55.7034 121.833 55.3834 122.06C55.0634 122.287 54.9034 122.587 54.9034 122.96C54.9034 123.253 55.0101 123.5 55.2234 123.7C55.4368 123.9 55.6968 124.06 56.0034 124.18C56.3101 124.287 56.7634 124.427 57.3634 124.6C58.1634 124.813 58.8168 125.033 59.3234 125.26C59.8434 125.473 60.2901 125.793 60.6634 126.22C61.0368 126.647 61.2301 127.213 61.2434 127.92C61.2434 128.547 61.0701 129.107 60.7234 129.6C60.3768 130.093 59.8834 130.48 59.2434 130.76C58.6168 131.04 57.8768 131.18 57.0234 131.18ZM64.867 118.52C64.4537 118.52 64.107 118.38 63.827 118.1C63.547 117.82 63.407 117.473 63.407 117.06C63.407 116.647 63.547 116.3 63.827 116.02C64.107 115.74 64.4537 115.6 64.867 115.6C65.267 115.6 65.607 115.74 65.887 116.02C66.167 116.3 66.307 116.647 66.307 117.06C66.307 117.473 66.167 117.82 65.887 118.1C65.607 118.38 65.267 118.52 64.867 118.52ZM65.987 119.98V131H63.707V119.98H65.987ZM73.4205 119.8C74.2738 119.8 75.0271 119.973 75.6805 120.32C76.3471 120.653 76.8671 121.073 77.2405 121.58V119.98H79.5405V131.18C79.5405 132.193 79.3271 133.093 78.9005 133.88C78.4738 134.68 77.8538 135.307 77.0405 135.76C76.2405 136.213 75.2805 136.44 74.1605 136.44C72.6671 136.44 71.4271 136.087 70.4405 135.38C69.4538 134.687 68.8938 133.74 68.7605 132.54H71.0205C71.1938 133.113 71.5605 133.573 72.1205 133.92C72.6938 134.28 73.3738 134.46 74.1605 134.46C75.0805 134.46 75.8205 134.18 76.3805 133.62C76.9538 133.06 77.2405 132.247 77.2405 131.18V129.34C76.8538 129.86 76.3271 130.3 75.6605 130.66C75.0071 131.007 74.2605 131.18 73.4205 131.18C72.4605 131.18 71.5805 130.94 70.7805 130.46C69.9938 129.967 69.3671 129.287 68.9005 128.42C68.4471 127.54 68.2205 126.547 68.2205 125.44C68.2205 124.333 68.4471 123.353 68.9005 122.5C69.3671 121.647 69.9938 120.987 70.7805 120.52C71.5805 120.04 72.4605 119.8 73.4205 119.8ZM77.2405 125.48C77.2405 124.72 77.0805 124.06 76.7605 123.5C76.4538 122.94 76.0471 122.513 75.5405 122.22C75.0338 121.927 74.4871 121.78 73.9005 121.78C73.3138 121.78 72.7671 121.927 72.2605 122.22C71.7538 122.5 71.3405 122.92 71.0205 123.48C70.7138 124.027 70.5605 124.68 70.5605 125.44C70.5605 126.2 70.7138 126.867 71.0205 127.44C71.3405 128.013 71.7538 128.453 72.2605 128.76C72.7805 129.053 73.3271 129.2 73.9005 129.2C74.4871 129.2 75.0338 129.053 75.5405 128.76C76.0471 128.467 76.4538 128.04 76.7605 127.48C77.0805 126.907 77.2405 126.24 77.2405 125.48ZM88.0952 119.8C88.9618 119.8 89.7352 119.98 90.4152 120.34C91.1085 120.7 91.6485 121.233 92.0352 121.94C92.4218 122.647 92.6152 123.5 92.6152 124.5V131H90.3552V124.84C90.3552 123.853 90.1085 123.1 89.6152 122.58C89.1218 122.047 88.4485 121.78 87.5952 121.78C86.7418 121.78 86.0618 122.047 85.5552 122.58C85.0618 123.1 84.8152 123.853 84.8152 124.84V131H82.5352V119.98H84.8152V121.24C85.1885 120.787 85.6618 120.433 86.2352 120.18C86.8218 119.927 87.4418 119.8 88.0952 119.8ZM99.5234 131.18C98.6568 131.18 97.8768 131.027 97.1834 130.72C96.5034 130.4 95.9634 129.973 95.5634 129.44C95.1634 128.893 94.9501 128.287 94.9234 127.62H97.2834C97.3234 128.087 97.5434 128.48 97.9434 128.8C98.3568 129.107 98.8701 129.26 99.4834 129.26C100.123 129.26 100.617 129.14 100.963 128.9C101.323 128.647 101.503 128.327 101.503 127.94C101.503 127.527 101.303 127.22 100.903 127.02C100.517 126.82 99.8968 126.6 99.0434 126.36C98.2168 126.133 97.5434 125.913 97.0234 125.7C96.5034 125.487 96.0501 125.16 95.6634 124.72C95.2901 124.28 95.1034 123.7 95.1034 122.98C95.1034 122.393 95.2768 121.86 95.6234 121.38C95.9701 120.887 96.4634 120.5 97.1034 120.22C97.7568 119.94 98.5034 119.8 99.3434 119.8C100.597 119.8 101.603 120.12 102.363 120.76C103.137 121.387 103.55 122.247 103.603 123.34H101.323C101.283 122.847 101.083 122.453 100.723 122.16C100.363 121.867 99.8768 121.72 99.2634 121.72C98.6634 121.72 98.2034 121.833 97.8834 122.06C97.5634 122.287 97.4034 122.587 97.4034 122.96C97.4034 123.253 97.5101 123.5 97.7234 123.7C97.9368 123.9 98.1968 124.06 98.5034 124.18C98.8101 124.287 99.2634 124.427 99.8634 124.6C100.663 124.813 101.317 125.033 101.823 125.26C102.343 125.473 102.79 125.793 103.163 126.22C103.537 126.647 103.73 127.213 103.743 127.92C103.743 128.547 103.57 129.107 103.223 129.6C102.877 130.093 102.383 130.48 101.743 130.76C101.117 131.04 100.377 131.18 99.5234 131.18Z" fill="#3A5987"/>
<path d="M62.0721 3.13315e-05C55.4992 -0.00732425 48.9893 1.28052 42.9146 3.78995C36.8399 6.29938 31.3196 9.98118 26.6692 14.6248C22.0189 19.2685 18.3297 24.7829 15.8127 30.8528C13.2956 36.9227 12 43.429 12 49.9998C12 56.5706 13.2955 63.077 15.8125 69.1469C18.3295 75.2168 22.0187 80.7313 26.669 85.3749C31.3193 90.0186 36.8396 93.7004 42.9143 96.2099C48.989 98.7194 55.4988 100.007 62.0717 100H62.0721C75.3219 99.9766 88.021 94.6984 97.3818 85.3242C106.743 75.9499 112 63.2455 112 50C112 36.7544 106.743 24.0501 97.3818 14.6758C88.021 5.30157 75.3219 0.0234041 62.0721 3.13315e-05Z" fill="#FF6584"/>
<path d="M78.8996 31.002L60.7704 12.8786L42.6411 31.002L52.4409 40.7987L50.9714 42.2677L41.1716 32.471L23.0424 50.5945L41.1716 68.7179L50.9714 58.9212L52.4409 60.3903L42.6411 70.1869L60.7704 88.3103L78.8996 70.1869L69.0998 60.3911L70.5693 58.9221L80.3691 68.7187L98.4984 50.5945L80.3691 32.471L70.5702 42.2677L69.1007 40.7987L78.8996 31.002ZM44.6016 31.002L60.7704 14.8384L76.9392 31.002L68.1196 39.8187L66.6501 38.3497L73.9993 31.0029L60.7704 17.7773L47.5414 31.002L54.8907 38.3489L53.4212 39.8179L44.6016 31.002ZM73.9993 55.4924L75.4688 54.0233L80.3683 58.9212L88.6986 50.5945L80.3691 42.2677L75.4697 47.1656L74.0002 45.6966L80.37 39.3288L91.6385 50.5945L80.3691 61.8601L73.9993 55.4924ZM47.5414 45.6966L46.0719 47.1656L41.1725 42.2677L32.8422 50.5945L41.1716 58.9212L46.0711 54.0233L47.5406 55.4924L41.1708 61.8601L29.9023 50.5945L41.1716 39.3288L47.5414 45.6966ZM59.3009 40.7978L60.7704 39.3288L62.2399 40.7978L60.7704 42.2677L59.3009 40.7978ZM61.7506 38.3489L63.2201 36.8798L64.6896 38.3489L63.2201 39.8179L61.7506 38.3489ZM59.3009 35.8999L60.7704 34.4309L62.2399 35.8999L60.7704 37.3698L59.3009 35.8999ZM64.2003 31.002L60.7704 27.5731L57.3404 31.002L59.7901 33.451L58.3206 34.92L54.4005 31.0012L60.7704 24.6342L67.1402 31.002L63.2201 34.9208L61.7506 33.4518L64.2003 31.002ZM60.7704 32.471L59.3009 31.002L60.7704 29.5321L62.2399 31.0012L60.7704 32.471ZM64.2003 35.8999L69.0998 31.002L60.7704 22.6752L52.4409 31.002L57.3404 35.8999L55.8709 37.3689L49.5011 31.0012L60.7704 19.7363L72.0397 31.002L65.6699 37.3698L64.2003 35.8999ZM58.3206 36.8798L59.7901 38.3489L58.3206 39.8179L56.8511 38.3489L58.3206 36.8798ZM57.3404 40.7978L55.8709 42.2668L54.4014 40.7978L55.8709 39.3288L57.3404 40.7978ZM58.3206 41.7777L59.7901 43.2468L58.3206 44.7158L56.8511 43.2468L58.3206 41.7777ZM62.2399 45.6966L60.7704 47.1656L59.3009 45.6966L60.7704 44.2267L62.2399 45.6966ZM76.449 53.0434L77.9186 51.5744L80.3683 54.0233L83.7991 50.5945L80.3691 47.1656L77.9194 49.6145L76.4499 48.1455L80.37 44.2267L86.739 50.5945L80.3691 56.9622L76.449 53.0434ZM78.8996 50.5945L80.3691 49.1254L81.8395 50.5945L80.37 52.0635L78.8996 50.5945ZM76.9392 50.5945L75.4697 52.0635L73.9993 50.5945L75.4688 49.1254L76.9392 50.5945ZM59.3009 55.4924L60.7704 54.0233L62.2399 55.4924L60.7704 56.9622L59.3009 55.4924ZM45.0917 48.1455L43.6222 49.6145L41.1725 47.1656L37.7416 50.5945L41.1716 54.0233L43.6214 51.5744L45.0909 53.0434L41.1708 56.9622L34.8018 50.5945L41.1716 44.2267L45.0917 48.1455ZM42.6411 50.5945L41.1716 52.0635L39.7013 50.5945L41.1708 49.1254L42.6411 50.5945ZM44.6016 50.5945L46.0711 49.1254L47.5414 50.5945L46.0719 52.0635L44.6016 50.5945ZM62.2399 50.5945L60.7704 52.0635L59.3009 50.5945L60.7704 49.1254L62.2399 50.5945ZM58.3206 49.6145L56.8511 48.1455L58.3206 46.6765L59.7901 48.1455L58.3206 49.6145ZM57.3404 50.5945L55.8709 52.0635L54.4005 50.5945L55.8701 49.1254L57.3404 50.5945ZM58.3206 51.5744L59.7901 53.0434L58.3206 54.5124L56.8511 53.0434L58.3206 51.5744ZM61.7506 53.0434L63.2201 51.5744L64.6896 53.0434L63.2201 54.5124L61.7506 53.0434ZM64.2003 50.5945L65.6699 49.1254L67.1402 50.5945L65.6707 52.0635L64.2003 50.5945ZM63.2201 49.6145L61.7506 48.1455L63.2201 46.6765L64.6896 48.1455L63.2201 49.6145ZM57.3404 45.6966L55.8709 47.1656L54.4014 45.6966L55.8709 44.2275L57.3404 45.6966ZM54.8907 48.1455L53.4212 49.6145L51.9517 48.1455L53.4212 46.6765L54.8907 48.1455ZM52.4409 50.5945L50.9714 52.0635L49.5011 50.5945L50.9706 49.1254L52.4409 50.5945ZM50.9706 47.1656L49.5011 45.6966L50.9706 44.2275L52.4401 45.6966L50.9706 47.1656ZM49.9912 48.1455L48.5217 49.6145L47.0522 48.1455L48.5217 46.6765L49.9912 48.1455ZM47.0513 53.0434L48.5208 51.5744L49.9903 53.0434L48.5208 54.5124L47.0513 53.0434ZM50.9706 54.0233L52.4401 55.4924L50.9706 56.9614L49.5011 55.4924L50.9706 54.0233ZM51.9508 53.0434L53.4203 51.5744L54.8898 53.0434L53.4203 54.5124L51.9508 53.0434ZM55.8709 54.0233L57.3404 55.4924L55.8709 56.9614L54.4014 55.4924L55.8709 54.0233ZM58.3206 56.4723L59.7901 57.9413L58.3206 59.4103L56.8511 57.9413L58.3206 56.4723ZM62.2399 60.3911L60.7704 61.8601L59.3009 60.3911L60.7704 58.9212L62.2399 60.3911ZM57.3404 60.3911L55.8709 61.8601L54.4014 60.3911L55.8709 58.9221L57.3404 60.3911ZM58.3206 61.3702L59.7901 62.8392L58.3206 64.3082L56.8511 62.8392L58.3206 61.3702ZM62.2399 65.289L60.7704 66.758L59.3009 65.289L60.7704 63.8191L62.2399 65.289ZM57.3404 70.1869L60.7704 73.6158L64.2003 70.1869L61.7506 67.738L63.2201 66.2689L67.1402 70.1878L60.7704 76.5547L54.4005 70.1869L58.3206 66.2681L59.7901 67.7371L57.3404 70.1869ZM60.7704 68.7179L62.2399 70.1869L60.7704 71.6568L59.3009 70.1878L60.7704 68.7179ZM57.3404 65.289L52.4409 70.1869L60.7704 78.5137L69.0998 70.1869L64.2003 65.289L65.6699 63.82L72.0397 70.1878L60.7704 81.4526L49.5011 70.1869L55.8709 63.8191L57.3404 65.289ZM63.2201 64.3091L61.7506 62.8401L63.2201 61.371L64.6896 62.8401L63.2201 64.3091ZM64.2003 60.3911L65.6699 58.9221L67.1394 60.3911L65.6699 61.8601L64.2003 60.3911ZM63.2201 59.4112L61.7506 57.9422L63.2201 56.4731L64.6896 57.9422L63.2201 59.4112ZM64.2003 55.4924L65.6699 54.0233L67.1394 55.4924L65.6699 56.9614L64.2003 55.4924ZM66.6501 53.0434L68.1196 51.5744L69.5891 53.0434L68.1196 54.5124L66.6501 53.0434ZM69.0998 50.5945L70.5693 49.1254L72.0397 50.5945L70.5702 52.0635L69.0998 50.5945ZM70.5702 54.0233L72.0397 55.4924L70.5702 56.9614L69.1007 55.4924L70.5702 54.0233ZM71.5496 53.0434L73.0191 51.5744L74.4886 53.0434L73.0191 54.5124L71.5496 53.0434ZM74.4894 48.1455L73.0199 49.6145L71.5504 48.1455L73.0199 46.6765L74.4894 48.1455ZM70.5702 47.1656L69.1007 45.6966L70.5702 44.2275L72.0397 45.6966L70.5702 47.1656ZM69.5899 48.1455L68.1204 49.6145L66.6509 48.1455L68.1204 46.6765L69.5899 48.1455ZM65.6699 47.1656L64.2003 45.6966L65.6699 44.2275L67.1394 45.6966L65.6699 47.1656ZM63.2201 44.7166L61.7506 43.2476L63.2201 41.7786L64.6896 43.2476L63.2201 44.7166ZM64.2003 40.7978L65.6699 39.3288L67.1394 40.7978L65.6699 42.2668L64.2003 40.7978ZM53.4212 41.7777L54.8907 43.2468L53.4212 44.7158L51.9517 43.2468L53.4212 41.7777ZM41.1716 66.758L25.0028 50.5945L41.1716 34.4309L49.9912 43.2476L48.5217 44.7166L41.1725 37.3698L27.9427 50.5945L41.1716 63.8191L48.5208 56.4723L49.9903 57.9413L41.1716 66.758ZM51.9508 57.9413L53.4203 56.4723L54.8898 57.9413L53.4203 59.4103L51.9508 57.9413ZM76.9392 70.1869L60.7704 86.3505L44.6016 70.1869L53.4212 61.3702L54.8907 62.8392L47.5414 70.1861L60.7704 83.4116L73.9993 70.1869L66.6501 62.8401L68.1196 61.371L76.9392 70.1869ZM68.1196 59.4112L66.6501 57.9422L68.1196 56.4731L69.5891 57.9422L68.1196 59.4112ZM80.3691 34.4309L96.5379 50.5945L80.3691 66.758L71.5496 57.9413L73.0191 56.4723L80.3683 63.8191L93.5981 50.5945L80.3691 37.3698L73.0199 44.7166L71.5504 43.2476L80.3691 34.4309ZM69.5899 43.2476L68.1204 44.7166L66.6509 43.2476L68.1204 41.7786L69.5899 43.2476Z" fill="white"/>
</svg>
