<svg width="348" height="320" viewBox="0 0 348 320" fill="none" xmlns="http://www.w3.org/2000/svg">
<path d="M250.68 288.1V302H248.4V288.1H250.68ZM252.914 296.44C252.914 295.333 253.14 294.353 253.594 293.5C254.06 292.647 254.687 291.987 255.474 291.52C256.274 291.04 257.16 290.8 258.134 290.8C258.854 290.8 259.56 290.96 260.254 291.28C260.96 291.587 261.52 292 261.934 292.52V287.2H264.234V302H261.934V300.34C261.56 300.873 261.04 301.313 260.374 301.66C259.72 302.007 258.967 302.18 258.114 302.18C257.154 302.18 256.274 301.94 255.474 301.46C254.687 300.967 254.06 300.287 253.594 299.42C253.14 298.54 252.914 297.547 252.914 296.44ZM261.934 296.48C261.934 295.72 261.774 295.06 261.454 294.5C261.147 293.94 260.74 293.513 260.234 293.22C259.727 292.927 259.18 292.78 258.594 292.78C258.007 292.78 257.46 292.927 256.954 293.22C256.447 293.5 256.034 293.92 255.714 294.48C255.407 295.027 255.254 295.68 255.254 296.44C255.254 297.2 255.407 297.867 255.714 298.44C256.034 299.013 256.447 299.453 256.954 299.76C257.474 300.053 258.02 300.2 258.594 300.2C259.18 300.2 259.727 300.053 260.234 299.76C260.74 299.467 261.147 299.04 261.454 298.48C261.774 297.907 261.934 297.24 261.934 296.48ZM277.329 296.22C277.329 296.633 277.302 297.007 277.249 297.34H268.829C268.895 298.22 269.222 298.927 269.809 299.46C270.395 299.993 271.115 300.26 271.969 300.26C273.195 300.26 274.062 299.747 274.569 298.72H277.029C276.695 299.733 276.089 300.567 275.209 301.22C274.342 301.86 273.262 302.18 271.969 302.18C270.915 302.18 269.969 301.947 269.129 301.48C268.302 301 267.649 300.333 267.169 299.48C266.702 298.613 266.469 297.613 266.469 296.48C266.469 295.347 266.695 294.353 267.149 293.5C267.615 292.633 268.262 291.967 269.089 291.5C269.929 291.033 270.889 290.8 271.969 290.8C273.009 290.8 273.935 291.027 274.749 291.48C275.562 291.933 276.195 292.573 276.649 293.4C277.102 294.213 277.329 295.153 277.329 296.22ZM274.949 295.5C274.935 294.66 274.635 293.987 274.049 293.48C273.462 292.973 272.735 292.72 271.869 292.72C271.082 292.72 270.409 292.973 269.849 293.48C269.289 293.973 268.955 294.647 268.849 295.5H274.949ZM289.672 296.22C289.672 296.633 289.646 297.007 289.592 297.34H281.172C281.239 298.22 281.566 298.927 282.152 299.46C282.739 299.993 283.459 300.26 284.312 300.26C285.539 300.26 286.406 299.747 286.912 298.72H289.372C289.039 299.733 288.432 300.567 287.552 301.22C286.686 301.86 285.606 302.18 284.312 302.18C283.259 302.18 282.312 301.947 281.472 301.48C280.646 301 279.992 300.333 279.512 299.48C279.046 298.613 278.812 297.613 278.812 296.48C278.812 295.347 279.039 294.353 279.492 293.5C279.959 292.633 280.606 291.967 281.432 291.5C282.272 291.033 283.232 290.8 284.312 290.8C285.352 290.8 286.279 291.027 287.092 291.48C287.906 291.933 288.539 292.573 288.992 293.4C289.446 294.213 289.672 295.153 289.672 296.22ZM287.292 295.5C287.279 294.66 286.979 293.987 286.392 293.48C285.806 292.973 285.079 292.72 284.212 292.72C283.426 292.72 282.752 292.973 282.192 293.48C281.632 293.973 281.299 294.647 281.192 295.5H287.292ZM295.916 302.18C295.049 302.18 294.269 302.027 293.576 301.72C292.896 301.4 292.356 300.973 291.956 300.44C291.556 299.893 291.343 299.287 291.316 298.62H293.676C293.716 299.087 293.936 299.48 294.336 299.8C294.749 300.107 295.263 300.26 295.876 300.26C296.516 300.26 297.009 300.14 297.356 299.9C297.716 299.647 297.896 299.327 297.896 298.94C297.896 298.527 297.696 298.22 297.296 298.02C296.909 297.82 296.289 297.6 295.436 297.36C294.609 297.133 293.936 296.913 293.416 296.7C292.896 296.487 292.443 296.16 292.056 295.72C291.683 295.28 291.496 294.7 291.496 293.98C291.496 293.393 291.669 292.86 292.016 292.38C292.363 291.887 292.856 291.5 293.496 291.22C294.149 290.94 294.896 290.8 295.736 290.8C296.989 290.8 297.996 291.12 298.756 291.76C299.529 292.387 299.943 293.247 299.996 294.34H297.716C297.676 293.847 297.476 293.453 297.116 293.16C296.756 292.867 296.269 292.72 295.656 292.72C295.056 292.72 294.596 292.833 294.276 293.06C293.956 293.287 293.796 293.587 293.796 293.96C293.796 294.253 293.903 294.5 294.116 294.7C294.329 294.9 294.589 295.06 294.896 295.18C295.203 295.287 295.656 295.427 296.256 295.6C297.056 295.813 297.709 296.033 298.216 296.26C298.736 296.473 299.183 296.793 299.556 297.22C299.929 297.647 300.123 298.213 300.136 298.92C300.136 299.547 299.963 300.107 299.616 300.6C299.269 301.093 298.776 301.48 298.136 301.76C297.509 302.04 296.769 302.18 295.916 302.18Z" fill="#3A5987"/>
<path d="M272.072 176C265.499 175.993 258.989 177.281 252.915 179.79C246.84 182.299 241.32 185.981 236.669 190.625C232.019 195.268 228.33 200.783 225.813 206.853C223.296 212.923 222 219.429 222 226C222 232.571 223.296 239.077 225.813 245.147C228.33 251.217 232.019 256.731 236.669 261.375C241.319 266.019 246.84 269.7 252.914 272.21C258.989 274.719 265.499 276.007 272.072 276H272.072C285.322 275.977 298.021 270.698 307.382 261.324C316.743 251.95 322 239.246 322 226C322 212.754 316.743 200.05 307.382 190.676C298.021 181.302 285.322 176.023 272.072 176V176Z" fill="#FF6584"/>
<path d="M290.046 204.999C289.997 215.609 289.948 221.985 289.948 232.547C289.948 232.936 289.997 233.374 290.143 233.764C291.312 237.317 292.529 240.87 293.697 244.374C293.795 244.666 293.892 244.958 294.087 245.153C294.379 245.542 294.72 245.542 294.963 245.153C295.109 244.91 295.255 244.569 295.353 244.277C296.375 241.308 297.398 238.339 298.42 235.37C298.761 234.299 299.199 233.277 299.199 232.06C299.199 221.742 299.248 215.658 299.296 205.291C299.296 205.145 299.296 204.999 299.296 204.95C296.229 204.95 293.162 204.901 290.095 204.901C290.046 204.901 290.046 204.95 290.046 204.999ZM297.349 232.839C297.3 233.034 297.203 233.228 297.154 233.472C296.667 234.932 296.132 236.392 295.645 237.852C295.548 238.193 295.401 238.29 295.109 238.29C294.671 238.242 294.282 238.29 293.843 238.242C293.746 238.242 293.551 238.096 293.503 237.998C292.918 236.295 292.383 234.64 291.799 232.936C291.799 232.888 291.799 232.839 291.799 232.79C293.6 232.79 295.45 232.839 297.349 232.839Z" fill="white"/>
<path d="M299.248 202.37C296.132 202.37 293.114 202.322 290.047 202.322C290.047 202.273 289.998 202.176 289.998 202.078C289.998 200.91 289.998 199.742 289.998 198.574C289.998 197.163 290.777 196.238 291.945 196.238C293.747 196.238 295.5 196.238 297.301 196.238C298.469 196.238 299.248 197.163 299.248 198.574C299.297 199.888 299.297 201.154 299.248 202.37Z" fill="white"/>
<path d="M285.128 208.552H244.085V213.516H285.128V208.552Z" fill="white"/>
<path d="M256.354 222.715H244.085V227.68H256.354V222.715Z" fill="white"/>
<path d="M285.128 222.715H261.077V227.68H285.128V222.715Z" fill="white"/>
<path d="M285.128 236.879H244.085V241.843H285.128V236.879Z" fill="white"/>
<path d="M299.297 250.994H262.976V255.958H299.297V250.994Z" fill="white"/>
<path d="M256.111 250.994H244.085V255.958H256.111V250.994Z" fill="white"/>
<path d="M45.4213 288.1V302H43.1413V292.48L38.9013 302H37.3213L33.0613 292.48V302H30.7813V288.1H33.2413L38.1213 299L42.9813 288.1H45.4213ZM47.658 296.44C47.658 295.333 47.8846 294.353 48.338 293.5C48.8046 292.647 49.4313 291.987 50.218 291.52C51.018 291.04 51.898 290.8 52.858 290.8C53.7246 290.8 54.478 290.973 55.118 291.32C55.7713 291.653 56.2913 292.073 56.678 292.58V290.98H58.978V302H56.678V300.36C56.2913 300.88 55.7646 301.313 55.098 301.66C54.4313 302.007 53.6713 302.18 52.818 302.18C51.8713 302.18 51.0046 301.94 50.218 301.46C49.4313 300.967 48.8046 300.287 48.338 299.42C47.8846 298.54 47.658 297.547 47.658 296.44ZM56.678 296.48C56.678 295.72 56.518 295.06 56.198 294.5C55.8913 293.94 55.4846 293.513 54.978 293.22C54.4713 292.927 53.9246 292.78 53.338 292.78C52.7513 292.78 52.2046 292.927 51.698 293.22C51.1913 293.5 50.778 293.92 50.458 294.48C50.1513 295.027 49.998 295.68 49.998 296.44C49.998 297.2 50.1513 297.867 50.458 298.44C50.778 299.013 51.1913 299.453 51.698 299.76C52.218 300.053 52.7646 300.2 53.338 300.2C53.9246 300.2 54.4713 300.053 54.978 299.76C55.4846 299.467 55.8913 299.04 56.198 298.48C56.518 297.907 56.678 297.24 56.678 296.48ZM64.2527 292.58C64.586 292.02 65.026 291.587 65.5727 291.28C66.1327 290.96 66.7927 290.8 67.5527 290.8V293.16H66.9727C66.0793 293.16 65.3993 293.387 64.9327 293.84C64.4793 294.293 64.2527 295.08 64.2527 296.2V302H61.9727V290.98H64.2527V292.58ZM68.8884 296.44C68.8884 295.333 69.1151 294.353 69.5684 293.5C70.0351 292.647 70.6618 291.987 71.4484 291.52C72.2484 291.04 73.1351 290.8 74.1084 290.8C74.9618 290.8 75.7151 290.973 76.3684 291.32C77.0351 291.667 77.5484 292.087 77.9084 292.58V290.98H80.2084V307.24H77.9084V300.4C77.5484 300.893 77.0284 301.313 76.3484 301.66C75.6684 302.007 74.8951 302.18 74.0284 302.18C73.0818 302.18 72.2151 301.94 71.4284 301.46C70.6551 300.967 70.0351 300.287 69.5684 299.42C69.1151 298.54 68.8884 297.547 68.8884 296.44ZM77.9084 296.48C77.9084 295.72 77.7484 295.06 77.4284 294.5C77.1218 293.94 76.7151 293.513 76.2084 293.22C75.7018 292.927 75.1551 292.78 74.5684 292.78C73.9818 292.78 73.4351 292.927 72.9284 293.22C72.4218 293.5 72.0084 293.92 71.6884 294.48C71.3818 295.027 71.2284 295.68 71.2284 296.44C71.2284 297.2 71.3818 297.867 71.6884 298.44C72.0084 299.013 72.4218 299.453 72.9284 299.76C73.4484 300.053 73.9951 300.2 74.5684 300.2C75.1551 300.2 75.7018 300.053 76.2084 299.76C76.7151 299.467 77.1218 299.04 77.4284 298.48C77.7484 297.907 77.9084 297.24 77.9084 296.48ZM93.1831 290.98V302H90.9031V300.7C90.5431 301.153 90.0698 301.513 89.4831 301.78C88.9098 302.033 88.2965 302.16 87.6431 302.16C86.7765 302.16 85.9965 301.98 85.3031 301.62C84.6231 301.26 84.0831 300.727 83.6831 300.02C83.2965 299.313 83.1031 298.46 83.1031 297.46V290.98H85.3631V297.12C85.3631 298.107 85.6098 298.867 86.1031 299.4C86.5965 299.92 87.2698 300.18 88.1231 300.18C88.9765 300.18 89.6498 299.92 90.1431 299.4C90.6498 298.867 90.9031 298.107 90.9031 297.12V290.98H93.1831ZM106.291 296.22C106.291 296.633 106.265 297.007 106.211 297.34H97.7914C97.8581 298.22 98.1847 298.927 98.7714 299.46C99.3581 299.993 100.078 300.26 100.931 300.26C102.158 300.26 103.025 299.747 103.531 298.72H105.991C105.658 299.733 105.051 300.567 104.171 301.22C103.305 301.86 102.225 302.18 100.931 302.18C99.8781 302.18 98.9314 301.947 98.0914 301.48C97.2647 301 96.6114 300.333 96.1314 299.48C95.6647 298.613 95.4314 297.613 95.4314 296.48C95.4314 295.347 95.6581 294.353 96.1114 293.5C96.5781 292.633 97.2247 291.967 98.0514 291.5C98.8914 291.033 99.8514 290.8 100.931 290.8C101.971 290.8 102.898 291.027 103.711 291.48C104.525 291.933 105.158 292.573 105.611 293.4C106.065 294.213 106.291 295.153 106.291 296.22ZM103.911 295.5C103.898 294.66 103.598 293.987 103.011 293.48C102.425 292.973 101.698 292.72 100.831 292.72C100.045 292.72 99.3714 292.973 98.8114 293.48C98.2514 293.973 97.9181 294.647 97.8114 295.5H103.911ZM112.535 302.18C111.668 302.18 110.888 302.027 110.195 301.72C109.515 301.4 108.975 300.973 108.575 300.44C108.175 299.893 107.962 299.287 107.935 298.62H110.295C110.335 299.087 110.555 299.48 110.955 299.8C111.368 300.107 111.882 300.26 112.495 300.26C113.135 300.26 113.628 300.14 113.975 299.9C114.335 299.647 114.515 299.327 114.515 298.94C114.515 298.527 114.315 298.22 113.915 298.02C113.528 297.82 112.908 297.6 112.055 297.36C111.228 297.133 110.555 296.913 110.035 296.7C109.515 296.487 109.062 296.16 108.675 295.72C108.302 295.28 108.115 294.7 108.115 293.98C108.115 293.393 108.288 292.86 108.635 292.38C108.982 291.887 109.475 291.5 110.115 291.22C110.768 290.94 111.515 290.8 112.355 290.8C113.608 290.8 114.615 291.12 115.375 291.76C116.148 292.387 116.562 293.247 116.615 294.34H114.335C114.295 293.847 114.095 293.453 113.735 293.16C113.375 292.867 112.888 292.72 112.275 292.72C111.675 292.72 111.215 292.833 110.895 293.06C110.575 293.287 110.415 293.587 110.415 293.96C110.415 294.253 110.522 294.5 110.735 294.7C110.948 294.9 111.208 295.06 111.515 295.18C111.822 295.287 112.275 295.427 112.875 295.6C113.675 295.813 114.328 296.033 114.835 296.26C115.355 296.473 115.802 296.793 116.175 297.22C116.548 297.647 116.742 298.213 116.755 298.92C116.755 299.547 116.582 300.107 116.235 300.6C115.888 301.093 115.395 301.48 114.755 301.76C114.128 302.04 113.388 302.18 112.535 302.18Z" fill="#3A5987"/>
<path d="M72.0721 176C65.4992 175.993 58.9893 177.281 52.9146 179.79C46.8399 182.299 41.3196 185.981 36.6692 190.625C32.0189 195.268 28.3297 200.783 25.8127 206.853C23.2956 212.923 22 219.429 22 226C22 232.571 23.2955 239.077 25.8125 245.147C28.3295 251.217 32.0187 256.731 36.669 261.375C41.3193 266.019 46.8396 269.7 52.9143 272.21C58.989 274.719 65.4988 276.007 72.0717 276H72.0721C85.3219 275.977 98.021 270.698 107.382 261.324C116.743 251.95 122 239.246 122 226C122 212.754 116.743 200.05 107.382 190.676C98.021 181.302 85.3219 176.023 72.0721 176V176Z" fill="#FF6584"/>
<path d="M55.5141 235.19C55.5141 235.545 55.5141 235.9 55.5141 236.256C55.5141 236.54 55.373 236.753 55.0201 236.753C54.6673 236.753 54.2438 236.753 53.8909 236.753C53.5381 236.753 53.3969 236.54 53.3969 236.256C53.3969 235.972 53.3969 235.758 53.3969 235.474C53.3969 234.906 53.3969 234.906 52.8323 234.763C52.1266 234.621 51.4208 234.479 50.7857 234.195C50.2916 233.982 50.2211 233.84 50.3622 233.271C50.5034 232.845 50.5739 232.489 50.7151 232.063C50.8562 231.637 50.9974 231.566 51.4208 231.779C52.1266 232.134 52.9029 232.347 53.6792 232.489C54.1732 232.561 54.6673 232.489 55.1613 232.276C56.0082 231.921 56.1493 230.855 55.4436 230.215C55.1613 230.002 54.879 229.86 54.5967 229.718C53.8204 229.363 53.044 229.15 52.2677 228.652C51.068 227.941 50.3622 226.947 50.4328 225.525C50.5034 223.891 51.4208 222.896 52.9735 222.328C53.6086 222.114 53.6086 222.114 53.6086 221.475C53.6086 221.262 53.6086 221.048 53.6086 220.835C53.6086 220.338 53.6792 220.267 54.1732 220.267C54.3144 220.267 54.4555 220.267 54.5967 220.267C55.6553 220.267 55.6553 220.267 55.6553 221.333C55.6553 222.043 55.6553 222.043 56.361 222.185C56.9256 222.257 57.4197 222.47 57.9843 222.683C58.2666 222.825 58.4077 223.038 58.2665 223.322C58.1254 223.749 57.9843 224.246 57.8431 224.673C57.702 225.099 57.5608 225.17 57.2079 224.957C56.4316 224.602 55.5847 224.388 54.6673 224.459C54.4555 224.459 54.1732 224.531 53.9615 224.602C53.1852 224.957 53.044 225.81 53.7498 226.307C54.1027 226.591 54.4555 226.733 54.879 226.947C55.5847 227.231 56.2199 227.515 56.8551 227.87C58.9017 229.007 59.4663 231.637 57.9843 233.342C57.4902 233.982 56.7845 234.408 56.0082 234.621C55.6553 234.692 55.5141 234.835 55.5141 235.19ZM63.0656 223.038H84.9437C85.226 223.038 85.4377 222.825 85.4377 222.541V220.835C85.4377 220.551 85.226 220.338 84.9437 220.338H63.0656C62.7833 220.338 62.5716 220.551 62.5716 220.835V222.541C62.5716 222.825 62.7833 223.038 63.0656 223.038ZM62.5716 227.089C62.5716 227.373 62.7833 227.586 63.0656 227.586H75.6278C75.9101 227.586 76.1219 227.373 76.1219 227.089V225.383C76.1219 225.099 75.9101 224.886 75.6278 224.886H63.0656C62.7833 224.886 62.5716 225.099 62.5716 225.383V227.089ZM46.4806 244.073H90.8719C93.2009 244.073 95.1064 242.154 95.1064 239.809V227.16C93.836 228.581 92.4951 230.073 91.0836 231.424V239.738C91.0836 239.88 90.9425 240.022 90.8013 240.022H46.4806C46.3395 240.022 46.1983 239.88 46.1983 239.738V216.714H87.1315C88.6135 214.369 90.2368 211.953 92.0011 209.394C92.0011 209.323 92.0717 209.323 92.0717 209.252L92.4951 208.684C92.6363 208.542 92.7069 208.399 92.7774 208.257L92.848 208.115C92.2128 207.76 91.5777 207.618 90.8013 207.618H46.4806C44.1517 207.618 42.2462 209.536 42.2462 211.881V239.667C42.1756 242.154 44.0811 244.073 46.4806 244.073ZM87.7666 222.328C86.3552 224.815 84.9437 227.302 83.8851 230.002C83.8145 230.144 83.7439 230.358 83.7439 230.5C83.6733 230.5 83.5322 230.571 83.4616 230.571C83.3205 230.642 83.1087 230.713 82.9676 230.784C82.897 230.855 82.7559 230.855 82.6853 230.926L82.4736 230.997C81.9795 231.21 81.5561 231.352 81.0621 231.424C80.9915 231.424 80.9915 231.424 80.9209 231.424C80.8504 231.424 80.7798 231.424 80.7798 231.352C80.6386 231.139 80.4269 230.926 80.1446 230.784C79.6506 230.5 79.086 230.429 78.4508 230.713C77.7451 230.997 76.9688 231.352 76.1219 231.921C75.769 232.134 75.4867 232.347 75.1338 232.561C74.9221 232.703 74.781 232.774 74.5692 232.916C74.5692 232.845 74.5692 232.845 74.5692 232.774C74.6398 232.418 74.7104 232.134 74.7104 231.779C74.7104 231.424 74.6398 231.139 74.3575 230.855C74.1458 230.642 73.7929 230.5 73.44 230.5C73.2989 230.5 72.946 230.5 72.6637 230.713L72.5226 230.784C72.2403 230.997 71.8874 231.139 71.5345 231.424C70.9699 231.85 70.4053 232.347 69.9113 232.845C69.4879 233.2 69.135 233.484 68.7116 233.84C68.8527 233.484 68.9233 233.2 69.0644 232.845C69.2056 232.418 69.4173 231.992 69.5585 231.495C69.6996 231.21 69.7702 230.855 69.7702 230.5C69.8408 230.144 69.6996 229.789 69.4879 229.505C69.2056 229.15 68.7116 229.007 68.2175 229.15C67.9352 229.221 67.5824 229.434 67.3706 229.647L67.3001 229.718C66.8766 230.144 66.4532 230.571 66.0297 231.068C64.83 232.561 63.6302 234.266 62.3599 236.398C62.0776 236.824 61.7953 237.322 61.6541 237.89C61.6541 237.961 61.6541 238.032 61.6541 238.103C61.5835 238.53 61.9364 238.956 62.3599 239.098C62.4304 239.098 62.501 239.098 62.5716 239.098C62.9245 239.098 63.2773 238.885 63.3479 238.53V238.459L63.4185 238.245C63.4891 238.103 63.5596 237.961 63.6302 237.819C63.7714 237.606 63.8419 237.393 64.0537 237.18L64.4771 236.611C65.0417 235.9 65.6063 235.119 66.1709 234.408C66.1003 234.55 66.1003 234.692 66.0297 234.835C65.9592 235.119 65.818 235.545 65.9592 235.972C66.1709 236.753 66.8766 237.18 67.5824 237.037C67.7941 236.966 68.0764 236.895 68.2881 236.753C68.7821 236.469 69.2056 236.114 69.6996 235.758C70.4759 235.119 71.2522 234.55 72.0991 233.911C72.0991 233.982 72.0991 234.053 72.0991 234.124C72.0991 234.55 72.1697 234.906 72.452 235.119C72.8049 235.474 73.2989 235.616 73.8635 235.474C74.2164 235.403 74.5692 235.19 74.9221 235.048C75.3456 234.835 75.6984 234.621 76.1219 234.408C76.6159 234.124 77.1099 233.84 77.6745 233.555C78.098 233.342 78.5214 233.129 79.0154 232.916L79.2977 232.774C79.8623 233.342 80.5681 233.555 81.4149 233.413C82.4736 233.2 83.391 232.916 84.3085 232.561C84.3085 232.561 84.3791 232.561 84.3791 232.489C84.5908 232.418 84.8025 232.276 85.0142 232.134C86.0729 231.495 86.9903 230.642 87.9078 229.789C92.2834 225.525 96.0944 220.835 99.7643 216.003C100.117 215.577 100.399 215.15 100.752 214.724C100.823 214.653 100.823 214.582 100.893 214.511L102.446 212.379C102.517 212.308 102.587 212.237 102.658 212.166C103.928 210.389 105.199 208.613 106.469 206.765L106.539 206.694L107.951 207.689L101.246 216.927C100.893 217.353 101.035 217.993 101.458 218.348C101.67 218.49 101.952 218.561 102.234 218.561C102.517 218.49 102.728 218.348 102.87 218.135L110.139 208.044C110.492 207.618 110.35 206.978 109.927 206.623L107.598 204.917L108.233 203.922C108.516 203.425 108.798 202.857 109.01 202.288C109.08 202.075 109.151 201.933 109.221 201.72C109.574 200.44 109.221 199.517 107.951 198.664C106.892 197.882 106.045 197.882 104.916 198.664C104.21 199.161 103.575 199.801 103.011 200.512C100.893 202.928 99.0585 205.628 97.153 208.186C97.0825 208.257 97.0825 208.257 97.0825 208.328L95.5298 210.389C95.4593 210.46 95.3887 210.602 95.3181 210.673C95.177 210.816 95.1064 210.958 94.9652 211.171L94.8947 211.313C92.354 214.866 89.9545 218.561 87.7666 222.328Z" fill="white"/>
<path d="M245.94 123.86C246.687 123.993 247.32 124.387 247.84 125.04C248.36 125.693 248.62 126.433 248.62 127.26C248.62 127.967 248.433 128.607 248.06 129.18C247.7 129.74 247.173 130.187 246.48 130.52C245.787 130.84 244.98 131 244.06 131H238.5V117.1H243.8C244.747 117.1 245.56 117.26 246.24 117.58C246.92 117.9 247.433 118.333 247.78 118.88C248.127 119.413 248.3 120.013 248.3 120.68C248.3 121.48 248.087 122.147 247.66 122.68C247.233 123.213 246.66 123.607 245.94 123.86ZM240.78 122.94H243.6C244.347 122.94 244.927 122.773 245.34 122.44C245.767 122.093 245.98 121.6 245.98 120.96C245.98 120.333 245.767 119.847 245.34 119.5C244.927 119.14 244.347 118.96 243.6 118.96H240.78V122.94ZM243.86 129.14C244.633 129.14 245.24 128.953 245.68 128.58C246.12 128.207 246.34 127.687 246.34 127.02C246.34 126.34 246.107 125.8 245.64 125.4C245.173 125 244.553 124.8 243.78 124.8H240.78V129.14H243.86ZM253.378 121.58C253.711 121.02 254.151 120.587 254.698 120.28C255.258 119.96 255.918 119.8 256.678 119.8V122.16H256.098C255.204 122.16 254.524 122.387 254.058 122.84C253.604 123.293 253.378 124.08 253.378 125.2V131H251.098V119.98H253.378V121.58ZM268.873 125.22C268.873 125.633 268.847 126.007 268.793 126.34H260.373C260.44 127.22 260.767 127.927 261.353 128.46C261.94 128.993 262.66 129.26 263.513 129.26C264.74 129.26 265.607 128.747 266.113 127.72H268.573C268.24 128.733 267.633 129.567 266.753 130.22C265.887 130.86 264.807 131.18 263.513 131.18C262.46 131.18 261.513 130.947 260.673 130.48C259.847 130 259.193 129.333 258.713 128.48C258.247 127.613 258.013 126.613 258.013 125.48C258.013 124.347 258.24 123.353 258.693 122.5C259.16 121.633 259.807 120.967 260.633 120.5C261.473 120.033 262.433 119.8 263.513 119.8C264.553 119.8 265.48 120.027 266.293 120.48C267.107 120.933 267.74 121.573 268.193 122.4C268.647 123.213 268.873 124.153 268.873 125.22ZM266.493 124.5C266.48 123.66 266.18 122.987 265.593 122.48C265.007 121.973 264.28 121.72 263.413 121.72C262.627 121.72 261.953 121.973 261.393 122.48C260.833 122.973 260.5 123.647 260.393 124.5H266.493ZM275.377 128.96L278.497 119.98H280.917L276.717 131H273.997L269.817 119.98H272.257L275.377 128.96ZM292.741 125.22C292.741 125.633 292.714 126.007 292.661 126.34H284.241C284.307 127.22 284.634 127.927 285.221 128.46C285.807 128.993 286.527 129.26 287.381 129.26C288.607 129.26 289.474 128.747 289.981 127.72H292.441C292.107 128.733 291.501 129.567 290.621 130.22C289.754 130.86 288.674 131.18 287.381 131.18C286.327 131.18 285.381 130.947 284.541 130.48C283.714 130 283.061 129.333 282.581 128.48C282.114 127.613 281.881 126.613 281.881 125.48C281.881 124.347 282.107 123.353 282.561 122.5C283.027 121.633 283.674 120.967 284.501 120.5C285.341 120.033 286.301 119.8 287.381 119.8C288.421 119.8 289.347 120.027 290.161 120.48C290.974 120.933 291.607 121.573 292.061 122.4C292.514 123.213 292.741 124.153 292.741 125.22ZM290.361 124.5C290.347 123.66 290.047 122.987 289.461 122.48C288.874 121.973 288.147 121.72 287.281 121.72C286.494 121.72 285.821 121.973 285.261 122.48C284.701 122.973 284.367 123.647 284.261 124.5H290.361ZM297.644 121.84V127.94C297.644 128.353 297.738 128.653 297.924 128.84C298.124 129.013 298.458 129.1 298.924 129.1H300.324V131H298.524C297.498 131 296.711 130.76 296.164 130.28C295.618 129.8 295.344 129.02 295.344 127.94V121.84H294.044V119.98H295.344V117.24H297.644V119.98H300.324V121.84H297.644ZM306.426 131.18C305.559 131.18 304.779 131.027 304.086 130.72C303.406 130.4 302.866 129.973 302.466 129.44C302.066 128.893 301.852 128.287 301.826 127.62H304.186C304.226 128.087 304.446 128.48 304.846 128.8C305.259 129.107 305.772 129.26 306.386 129.26C307.026 129.26 307.519 129.14 307.866 128.9C308.226 128.647 308.406 128.327 308.406 127.94C308.406 127.527 308.206 127.22 307.806 127.02C307.419 126.82 306.799 126.6 305.946 126.36C305.119 126.133 304.446 125.913 303.926 125.7C303.406 125.487 302.952 125.16 302.566 124.72C302.192 124.28 302.006 123.7 302.006 122.98C302.006 122.393 302.179 121.86 302.526 121.38C302.872 120.887 303.366 120.5 304.006 120.22C304.659 119.94 305.406 119.8 306.246 119.8C307.499 119.8 308.506 120.12 309.266 120.76C310.039 121.387 310.452 122.247 310.506 123.34H308.226C308.186 122.847 307.986 122.453 307.626 122.16C307.266 121.867 306.779 121.72 306.166 121.72C305.566 121.72 305.106 121.833 304.786 122.06C304.466 122.287 304.306 122.587 304.306 122.96C304.306 123.253 304.412 123.5 304.626 123.7C304.839 123.9 305.099 124.06 305.406 124.18C305.712 124.287 306.166 124.427 306.766 124.6C307.566 124.813 308.219 125.033 308.726 125.26C309.246 125.473 309.692 125.793 310.066 126.22C310.439 126.647 310.632 127.213 310.646 127.92C310.646 128.547 310.472 129.107 310.126 129.6C309.779 130.093 309.286 130.48 308.646 130.76C308.019 131.04 307.279 131.18 306.426 131.18Z" fill="#3A5987"/>
<path d="M272.072 3.13315e-05C265.499 -0.00732425 258.989 1.28052 252.915 3.78995C246.84 6.29938 241.32 9.98118 236.669 14.6248C232.019 19.2685 228.33 24.7829 225.813 30.8528C223.296 36.9227 222 43.429 222 49.9998C222 56.5706 223.296 63.077 225.813 69.1469C228.33 75.2168 232.019 80.7313 236.669 85.3749C241.319 90.0186 246.84 93.7004 252.914 96.2099C258.989 98.7194 265.499 100.007 272.072 100H272.072C285.322 99.9766 298.021 94.6984 307.382 85.3242C316.743 75.9499 322 63.2455 322 50C322 36.7544 316.743 24.0501 307.382 14.6758C298.021 5.30157 285.322 0.0234041 272.072 3.13315e-05V3.13315e-05Z" fill="#FF6584"/>
<path d="M293.771 20.2378L249.606 20.2445V80.9511H293.775L293.771 20.2378ZM257.721 29.3505H285.66V33.5999H257.721V29.3505ZM257.721 36.4835H276.219V40.733H257.721V36.4835ZM273.778 73.2268L269.962 71.1215L273.218 64.992C274.337 65.9299 275.68 66.591 277.15 66.8805L273.778 73.2268ZM271.692 57.879C271.692 53.8262 274.891 50.5292 278.822 50.5292C282.753 50.5292 285.951 53.8268 285.951 57.879C285.951 61.9311 282.753 65.2275 278.822 65.2275C274.891 65.2281 271.692 61.9311 271.692 57.879ZM283.865 73.2268L280.494 66.8811C281.964 66.5916 283.306 65.9311 284.425 64.9932L287.682 71.1221L283.865 73.2268Z" fill="white"/>
<path d="M42.04 117.1C43.52 117.1 44.8133 117.387 45.92 117.96C47.04 118.52 47.9 119.333 48.5 120.4C49.1133 121.453 49.42 122.687 49.42 124.1C49.42 125.513 49.1133 126.74 48.5 127.78C47.9 128.82 47.04 129.62 45.92 130.18C44.8133 130.727 43.52 131 42.04 131H37.5V117.1H42.04ZM42.04 129.14C43.6667 129.14 44.9133 128.7 45.78 127.82C46.6467 126.94 47.08 125.7 47.08 124.1C47.08 122.487 46.6467 121.227 45.78 120.32C44.9133 119.413 43.6667 118.96 42.04 118.96H39.78V129.14H42.04ZM61.7797 125.22C61.7797 125.633 61.753 126.007 61.6997 126.34H53.2797C53.3464 127.22 53.673 127.927 54.2597 128.46C54.8464 128.993 55.5664 129.26 56.4197 129.26C57.6464 129.26 58.513 128.747 59.0197 127.72H61.4797C61.1464 128.733 60.5397 129.567 59.6597 130.22C58.793 130.86 57.713 131.18 56.4197 131.18C55.3664 131.18 54.4197 130.947 53.5797 130.48C52.753 130 52.0997 129.333 51.6197 128.48C51.153 127.613 50.9197 126.613 50.9197 125.48C50.9197 124.347 51.1464 123.353 51.5997 122.5C52.0664 121.633 52.713 120.967 53.5397 120.5C54.3797 120.033 55.3397 119.8 56.4197 119.8C57.4597 119.8 58.3864 120.027 59.1997 120.48C60.013 120.933 60.6464 121.573 61.0997 122.4C61.553 123.213 61.7797 124.153 61.7797 125.22ZM59.3997 124.5C59.3864 123.66 59.0864 122.987 58.4997 122.48C57.913 121.973 57.1864 121.72 56.3197 121.72C55.533 121.72 54.8597 121.973 54.2997 122.48C53.7397 122.973 53.4064 123.647 53.2997 124.5H59.3997ZM68.0234 131.18C67.1568 131.18 66.3768 131.027 65.6834 130.72C65.0034 130.4 64.4634 129.973 64.0634 129.44C63.6634 128.893 63.4501 128.287 63.4234 127.62H65.7834C65.8234 128.087 66.0434 128.48 66.4434 128.8C66.8568 129.107 67.3701 129.26 67.9834 129.26C68.6234 129.26 69.1168 129.14 69.4634 128.9C69.8234 128.647 70.0034 128.327 70.0034 127.94C70.0034 127.527 69.8034 127.22 69.4034 127.02C69.0168 126.82 68.3968 126.6 67.5434 126.36C66.7168 126.133 66.0434 125.913 65.5234 125.7C65.0034 125.487 64.5501 125.16 64.1634 124.72C63.7901 124.28 63.6034 123.7 63.6034 122.98C63.6034 122.393 63.7768 121.86 64.1234 121.38C64.4701 120.887 64.9634 120.5 65.6034 120.22C66.2568 119.94 67.0034 119.8 67.8434 119.8C69.0968 119.8 70.1034 120.12 70.8634 120.76C71.6368 121.387 72.0501 122.247 72.1034 123.34H69.8234C69.7834 122.847 69.5834 122.453 69.2234 122.16C68.8634 121.867 68.3768 121.72 67.7634 121.72C67.1634 121.72 66.7034 121.833 66.3834 122.06C66.0634 122.287 65.9034 122.587 65.9034 122.96C65.9034 123.253 66.0101 123.5 66.2234 123.7C66.4368 123.9 66.6968 124.06 67.0034 124.18C67.3101 124.287 67.7634 124.427 68.3634 124.6C69.1634 124.813 69.8168 125.033 70.3234 125.26C70.8434 125.473 71.2901 125.793 71.6634 126.22C72.0368 126.647 72.2301 127.213 72.2434 127.92C72.2434 128.547 72.0701 129.107 71.7234 129.6C71.3768 130.093 70.8834 130.48 70.2434 130.76C69.6168 131.04 68.8768 131.18 68.0234 131.18ZM75.867 118.52C75.4537 118.52 75.107 118.38 74.827 118.1C74.547 117.82 74.407 117.473 74.407 117.06C74.407 116.647 74.547 116.3 74.827 116.02C75.107 115.74 75.4537 115.6 75.867 115.6C76.267 115.6 76.607 115.74 76.887 116.02C77.167 116.3 77.307 116.647 77.307 117.06C77.307 117.473 77.167 117.82 76.887 118.1C76.607 118.38 76.267 118.52 75.867 118.52ZM76.987 119.98V131H74.707V119.98H76.987ZM84.4205 119.8C85.2738 119.8 86.0271 119.973 86.6805 120.32C87.3471 120.653 87.8671 121.073 88.2405 121.58V119.98H90.5405V131.18C90.5405 132.193 90.3271 133.093 89.9005 133.88C89.4738 134.68 88.8538 135.307 88.0405 135.76C87.2405 136.213 86.2805 136.44 85.1605 136.44C83.6671 136.44 82.4271 136.087 81.4405 135.38C80.4538 134.687 79.8938 133.74 79.7605 132.54H82.0205C82.1938 133.113 82.5605 133.573 83.1205 133.92C83.6938 134.28 84.3738 134.46 85.1605 134.46C86.0805 134.46 86.8205 134.18 87.3805 133.62C87.9538 133.06 88.2405 132.247 88.2405 131.18V129.34C87.8538 129.86 87.3271 130.3 86.6605 130.66C86.0071 131.007 85.2605 131.18 84.4205 131.18C83.4605 131.18 82.5805 130.94 81.7805 130.46C80.9938 129.967 80.3671 129.287 79.9005 128.42C79.4471 127.54 79.2205 126.547 79.2205 125.44C79.2205 124.333 79.4471 123.353 79.9005 122.5C80.3671 121.647 80.9938 120.987 81.7805 120.52C82.5805 120.04 83.4605 119.8 84.4205 119.8ZM88.2405 125.48C88.2405 124.72 88.0805 124.06 87.7605 123.5C87.4538 122.94 87.0471 122.513 86.5405 122.22C86.0338 121.927 85.4871 121.78 84.9005 121.78C84.3138 121.78 83.7671 121.927 83.2605 122.22C82.7538 122.5 82.3405 122.92 82.0205 123.48C81.7138 124.027 81.5605 124.68 81.5605 125.44C81.5605 126.2 81.7138 126.867 82.0205 127.44C82.3405 128.013 82.7538 128.453 83.2605 128.76C83.7805 129.053 84.3271 129.2 84.9005 129.2C85.4871 129.2 86.0338 129.053 86.5405 128.76C87.0471 128.467 87.4538 128.04 87.7605 127.48C88.0805 126.907 88.2405 126.24 88.2405 125.48ZM99.0952 119.8C99.9618 119.8 100.735 119.98 101.415 120.34C102.108 120.7 102.648 121.233 103.035 121.94C103.422 122.647 103.615 123.5 103.615 124.5V131H101.355V124.84C101.355 123.853 101.108 123.1 100.615 122.58C100.122 122.047 99.4485 121.78 98.5952 121.78C97.7418 121.78 97.0618 122.047 96.5552 122.58C96.0618 123.1 95.8152 123.853 95.8152 124.84V131H93.5352V119.98H95.8152V121.24C96.1885 120.787 96.6618 120.433 97.2352 120.18C97.8218 119.927 98.4418 119.8 99.0952 119.8ZM110.523 131.18C109.657 131.18 108.877 131.027 108.183 130.72C107.503 130.4 106.963 129.973 106.563 129.44C106.163 128.893 105.95 128.287 105.923 127.62H108.283C108.323 128.087 108.543 128.48 108.943 128.8C109.357 129.107 109.87 129.26 110.483 129.26C111.123 129.26 111.617 129.14 111.963 128.9C112.323 128.647 112.503 128.327 112.503 127.94C112.503 127.527 112.303 127.22 111.903 127.02C111.517 126.82 110.897 126.6 110.043 126.36C109.217 126.133 108.543 125.913 108.023 125.7C107.503 125.487 107.05 125.16 106.663 124.72C106.29 124.28 106.103 123.7 106.103 122.98C106.103 122.393 106.277 121.86 106.623 121.38C106.97 120.887 107.463 120.5 108.103 120.22C108.757 119.94 109.503 119.8 110.343 119.8C111.597 119.8 112.603 120.12 113.363 120.76C114.137 121.387 114.55 122.247 114.603 123.34H112.323C112.283 122.847 112.083 122.453 111.723 122.16C111.363 121.867 110.877 121.72 110.263 121.72C109.663 121.72 109.203 121.833 108.883 122.06C108.563 122.287 108.403 122.587 108.403 122.96C108.403 123.253 108.51 123.5 108.723 123.7C108.937 123.9 109.197 124.06 109.503 124.18C109.81 124.287 110.263 124.427 110.863 124.6C111.663 124.813 112.317 125.033 112.823 125.26C113.343 125.473 113.79 125.793 114.163 126.22C114.537 126.647 114.73 127.213 114.743 127.92C114.743 128.547 114.57 129.107 114.223 129.6C113.877 130.093 113.383 130.48 112.743 130.76C112.117 131.04 111.377 131.18 110.523 131.18Z" fill="#3A5987"/>
<path d="M73.0721 3.13315e-05C66.4992 -0.00732425 59.9893 1.28052 53.9146 3.78995C47.8399 6.29938 42.3196 9.98118 37.6692 14.6248C33.0189 19.2685 29.3297 24.7829 26.8127 30.8528C24.2956 36.9227 23 43.429 23 49.9998C23 56.5706 24.2955 63.077 26.8125 69.1469C29.3295 75.2168 33.0187 80.7313 37.669 85.3749C42.3193 90.0186 47.8396 93.7004 53.9143 96.2099C59.989 98.7194 66.4988 100.007 73.0717 100H73.0721C86.3219 99.9766 99.021 94.6984 108.382 85.3242C117.743 75.9499 123 63.2455 123 50C123 36.7544 117.743 24.0501 108.382 14.6758C99.021 5.30157 86.3219 0.0234041 73.0721 3.13315e-05V3.13315e-05Z" fill="#FF6584"/>
<path d="M89.8996 31.0021L71.7704 12.8787L53.6411 31.0021L63.4409 40.7987L61.9714 42.2678L52.1716 32.4711L34.0424 50.5945L52.1716 68.7179L61.9714 58.9213L63.4409 60.3903L53.6411 70.187L71.7704 88.3104L89.8996 70.187L80.0998 60.3912L81.5693 58.9221L91.3691 68.7188L109.498 50.5945L91.3691 32.4711L81.5702 42.2678L80.1007 40.7987L89.8996 31.0021ZM55.6016 31.0021L71.7704 14.8385L87.9392 31.0021L79.1196 39.8188L77.6501 38.3498L84.9993 31.0029L71.7704 17.7774L58.5414 31.0021L65.8907 38.3489L64.4212 39.818L55.6016 31.0021ZM84.9993 55.4924L86.4688 54.0234L91.3683 58.9213L99.6986 50.5945L91.3691 42.2678L86.4697 47.1657L85.0002 45.6966L91.37 39.3288L102.638 50.5945L91.3691 61.8602L84.9993 55.4924ZM58.5414 45.6966L57.0719 47.1657L52.1725 42.2678L43.8422 50.5945L52.1716 58.9213L57.0711 54.0234L58.5406 55.4924L52.1708 61.8602L40.9023 50.5945L52.1716 39.3288L58.5414 45.6966ZM70.3009 40.7979L71.7704 39.3288L73.2399 40.7979L71.7704 42.2678L70.3009 40.7979ZM72.7506 38.3489L74.2201 36.8799L75.6896 38.3489L74.2201 39.818L72.7506 38.3489ZM70.3009 35.9L71.7704 34.4309L73.2399 35.9L71.7704 37.3699L70.3009 35.9ZM75.2003 31.0021L71.7704 27.5732L68.3404 31.0021L70.7901 33.451L69.3206 34.9201L65.4005 31.0012L71.7704 24.6343L78.1402 31.0021L74.2201 34.9209L72.7506 33.4519L75.2003 31.0021ZM71.7704 32.4711L70.3009 31.0021L71.7704 29.5322L73.2399 31.0012L71.7704 32.4711ZM75.2003 35.9L80.0998 31.0021L71.7704 22.6753L63.4409 31.0021L68.3404 35.9L66.8709 37.369L60.5011 31.0012L71.7704 19.7364L83.0397 31.0021L76.6699 37.3699L75.2003 35.9ZM69.3206 36.8799L70.7901 38.3489L69.3206 39.818L67.8511 38.3489L69.3206 36.8799ZM68.3404 40.7979L66.8709 42.2669L65.4014 40.7979L66.8709 39.3288L68.3404 40.7979ZM69.3206 41.7778L70.7901 43.2468L69.3206 44.7159L67.8511 43.2468L69.3206 41.7778ZM73.2399 45.6966L71.7704 47.1657L70.3009 45.6966L71.7704 44.2267L73.2399 45.6966ZM87.449 53.0435L88.9186 51.5744L91.3683 54.0234L94.7991 50.5945L91.3691 47.1657L88.9194 49.6146L87.4499 48.1456L91.37 44.2267L97.739 50.5945L91.3691 56.9623L87.449 53.0435ZM89.8996 50.5945L91.3691 49.1255L92.8395 50.5945L91.37 52.0636L89.8996 50.5945ZM87.9392 50.5945L86.4697 52.0636L84.9993 50.5945L86.4688 49.1255L87.9392 50.5945ZM70.3009 55.4924L71.7704 54.0234L73.2399 55.4924L71.7704 56.9623L70.3009 55.4924ZM56.0917 48.1456L54.6222 49.6146L52.1725 47.1657L48.7416 50.5945L52.1716 54.0234L54.6214 51.5744L56.0909 53.0435L52.1708 56.9623L45.8018 50.5945L52.1716 44.2267L56.0917 48.1456ZM53.6411 50.5945L52.1716 52.0636L50.7013 50.5945L52.1708 49.1255L53.6411 50.5945ZM55.6016 50.5945L57.0711 49.1255L58.5414 50.5945L57.0719 52.0636L55.6016 50.5945ZM73.2399 50.5945L71.7704 52.0636L70.3009 50.5945L71.7704 49.1255L73.2399 50.5945ZM69.3206 49.6146L67.8511 48.1456L69.3206 46.6765L70.7901 48.1456L69.3206 49.6146ZM68.3404 50.5945L66.8709 52.0636L65.4005 50.5945L66.8701 49.1255L68.3404 50.5945ZM69.3206 51.5744L70.7901 53.0435L69.3206 54.5125L67.8511 53.0435L69.3206 51.5744ZM72.7506 53.0435L74.2201 51.5744L75.6896 53.0435L74.2201 54.5125L72.7506 53.0435ZM75.2003 50.5945L76.6699 49.1255L78.1402 50.5945L76.6707 52.0636L75.2003 50.5945ZM74.2201 49.6146L72.7506 48.1456L74.2201 46.6765L75.6896 48.1456L74.2201 49.6146ZM68.3404 45.6966L66.8709 47.1657L65.4014 45.6966L66.8709 44.2276L68.3404 45.6966ZM65.8907 48.1456L64.4212 49.6146L62.9517 48.1456L64.4212 46.6765L65.8907 48.1456ZM63.4409 50.5945L61.9714 52.0636L60.5011 50.5945L61.9706 49.1255L63.4409 50.5945ZM61.9706 47.1657L60.5011 45.6966L61.9706 44.2276L63.4401 45.6966L61.9706 47.1657ZM60.9912 48.1456L59.5217 49.6146L58.0522 48.1456L59.5217 46.6765L60.9912 48.1456ZM58.0513 53.0435L59.5208 51.5744L60.9903 53.0435L59.5208 54.5125L58.0513 53.0435ZM61.9706 54.0234L63.4401 55.4924L61.9706 56.9615L60.5011 55.4924L61.9706 54.0234ZM62.9508 53.0435L64.4203 51.5744L65.8898 53.0435L64.4203 54.5125L62.9508 53.0435ZM66.8709 54.0234L68.3404 55.4924L66.8709 56.9615L65.4014 55.4924L66.8709 54.0234ZM69.3206 56.4723L70.7901 57.9414L69.3206 59.4104L67.8511 57.9414L69.3206 56.4723ZM73.2399 60.3912L71.7704 61.8602L70.3009 60.3912L71.7704 58.9213L73.2399 60.3912ZM68.3404 60.3912L66.8709 61.8602L65.4014 60.3912L66.8709 58.9221L68.3404 60.3912ZM69.3206 61.3702L70.7901 62.8393L69.3206 64.3083L67.8511 62.8393L69.3206 61.3702ZM73.2399 65.2891L71.7704 66.7581L70.3009 65.2891L71.7704 63.8192L73.2399 65.2891ZM68.3404 70.187L71.7704 73.6158L75.2003 70.187L72.7506 67.738L74.2201 66.269L78.1402 70.1878L71.7704 76.5547L65.4005 70.187L69.3206 66.2681L70.7901 67.7372L68.3404 70.187ZM71.7704 68.7179L73.2399 70.187L71.7704 71.6568L70.3009 70.1878L71.7704 68.7179ZM68.3404 65.2891L63.4409 70.187L71.7704 78.5137L80.0998 70.187L75.2003 65.2891L76.6699 63.82L83.0397 70.1878L71.7704 81.4526L60.5011 70.187L66.8709 63.8192L68.3404 65.2891ZM74.2201 64.3091L72.7506 62.8401L74.2201 61.3711L75.6896 62.8401L74.2201 64.3091ZM75.2003 60.3912L76.6699 58.9221L78.1394 60.3912L76.6699 61.8602L75.2003 60.3912ZM74.2201 59.4112L72.7506 57.9422L74.2201 56.4732L75.6896 57.9422L74.2201 59.4112ZM75.2003 55.4924L76.6699 54.0234L78.1394 55.4924L76.6699 56.9615L75.2003 55.4924ZM77.6501 53.0435L79.1196 51.5744L80.5891 53.0435L79.1196 54.5125L77.6501 53.0435ZM80.0998 50.5945L81.5693 49.1255L83.0397 50.5945L81.5702 52.0636L80.0998 50.5945ZM81.5702 54.0234L83.0397 55.4924L81.5702 56.9615L80.1007 55.4924L81.5702 54.0234ZM82.5496 53.0435L84.0191 51.5744L85.4886 53.0435L84.0191 54.5125L82.5496 53.0435ZM85.4894 48.1456L84.0199 49.6146L82.5504 48.1456L84.0199 46.6765L85.4894 48.1456ZM81.5702 47.1657L80.1007 45.6966L81.5702 44.2276L83.0397 45.6966L81.5702 47.1657ZM80.5899 48.1456L79.1204 49.6146L77.6509 48.1456L79.1204 46.6765L80.5899 48.1456ZM76.6699 47.1657L75.2003 45.6966L76.6699 44.2276L78.1394 45.6966L76.6699 47.1657ZM74.2201 44.7167L72.7506 43.2477L74.2201 41.7786L75.6896 43.2477L74.2201 44.7167ZM75.2003 40.7979L76.6699 39.3288L78.1394 40.7979L76.6699 42.2669L75.2003 40.7979ZM64.4212 41.7778L65.8907 43.2468L64.4212 44.7159L62.9517 43.2468L64.4212 41.7778ZM52.1716 66.7581L36.0028 50.5945L52.1716 34.4309L60.9912 43.2477L59.5217 44.7167L52.1725 37.3699L38.9427 50.5945L52.1716 63.8192L59.5208 56.4723L60.9903 57.9414L52.1716 66.7581ZM62.9508 57.9414L64.4203 56.4723L65.8898 57.9414L64.4203 59.4104L62.9508 57.9414ZM87.9392 70.187L71.7704 86.3505L55.6016 70.187L64.4212 61.3702L65.8907 62.8393L58.5414 70.1861L71.7704 83.4116L84.9993 70.187L77.6501 62.8401L79.1196 61.3711L87.9392 70.187ZM79.1196 59.4112L77.6501 57.9422L79.1196 56.4732L80.5891 57.9422L79.1196 59.4112ZM91.3691 34.4309L107.538 50.5945L91.3691 66.7581L82.5496 57.9414L84.0191 56.4723L91.3683 63.8192L104.598 50.5945L91.3691 37.3699L84.0199 44.7167L82.5504 43.2477L91.3691 34.4309ZM80.5899 43.2477L79.1204 44.7167L77.6509 43.2477L79.1204 41.7786L80.5899 43.2477Z" fill="white"/>
</svg>
